<?xml version="1.0" encoding="UTF-8"?><svg id="Layer_2" xmlns="http://www.w3.org/2000/svg" xmlns:xlink="http://www.w3.org/1999/xlink" viewBox="0 0 182.52 61.95"><defs><style>.cls-1{fill:url(#linear-gradient-2);}.cls-2{fill:url(#linear-gradient-17);}.cls-3{fill:url(#linear-gradient-15);}.cls-4{fill:url(#linear-gradient-18);}.cls-5{fill:url(#linear-gradient-28);}.cls-6{fill:url(#linear-gradient-14);}.cls-7{fill:url(#linear-gradient-20);}.cls-8{fill:url(#linear-gradient-6);}.cls-9{fill:url(#linear-gradient-11);}.cls-10{fill:url(#linear-gradient-10);}.cls-11{fill:url(#linear-gradient-16);}.cls-12{fill:url(#linear-gradient-31);}.cls-13{fill:url(#linear-gradient-21);}.cls-14{fill:url(#linear-gradient-25);}.cls-15{fill:url(#linear-gradient-5);}.cls-16{fill:none;}.cls-17{fill:url(#linear-gradient-7);}.cls-18{fill:url(#linear-gradient-24);}.cls-19{fill:url(#linear-gradient-9);}.cls-20{fill:url(#linear-gradient-22);}.cls-21{fill:url(#linear-gradient-3);}.cls-22{fill:url(#linear-gradient);}.cls-23{fill:url(#linear-gradient-27);}.cls-24{fill:url(#linear-gradient-29);}.cls-25{fill:url(#linear-gradient-30);}.cls-26{fill:url(#linear-gradient-23);}.cls-27{fill:url(#linear-gradient-19);}.cls-28{fill:url(#linear-gradient-4);}.cls-29{fill:url(#linear-gradient-8);}.cls-30{fill:url(#linear-gradient-12);}.cls-31{fill:url(#linear-gradient-13);}.cls-32{fill:url(#linear-gradient-26);}</style><linearGradient id="linear-gradient" x1="-348.84" y1="70.29" x2="-106.17" y2="84.4" gradientTransform="translate(-190.97 122.26) rotate(-180)" gradientUnits="userSpaceOnUse"><stop offset="0" stop-color="#2761a9"/><stop offset=".25" stop-color="#652e61"/><stop offset=".5" stop-color="#54013f"/><stop offset=".75" stop-color="#e02820"/><stop offset="1" stop-color="#ff4500"/></linearGradient><linearGradient id="linear-gradient-2" x1="-351" y1="107.33" x2="-108.32" y2="121.44" xlink:href="#linear-gradient"/><linearGradient id="linear-gradient-3" x1="-350.72" y1="102.61" x2="-108.04" y2="116.72" xlink:href="#linear-gradient"/><linearGradient id="linear-gradient-4" x1="-349.18" y1="76.15" x2="-106.51" y2="90.26" xlink:href="#linear-gradient"/><linearGradient id="linear-gradient-5" x1="-350.96" y1="106.72" x2="-108.28" y2="120.83" xlink:href="#linear-gradient"/><linearGradient id="linear-gradient-6" x1="-350.65" y1="101.31" x2="-107.97" y2="115.43" xlink:href="#linear-gradient"/><linearGradient id="linear-gradient-7" x1="-348.95" y1="72.12" x2="-106.27" y2="86.24" xlink:href="#linear-gradient"/><linearGradient id="linear-gradient-8" x1="-350.67" y1="101.68" x2="-107.99" y2="115.8" xlink:href="#linear-gradient"/><linearGradient id="linear-gradient-9" x1="-349.1" y1="74.64" x2="-106.42" y2="88.75" xlink:href="#linear-gradient"/><linearGradient id="linear-gradient-10" x1="-349.68" y1="84.67" x2="-107" y2="98.78" xlink:href="#linear-gradient"/><linearGradient id="linear-gradient-11" x1="-350.46" y1="98.16" x2="-107.79" y2="112.27" xlink:href="#linear-gradient"/><linearGradient id="linear-gradient-12" x1="-349.06" y1="74.05" x2="-106.38" y2="88.16" xlink:href="#linear-gradient"/><linearGradient id="linear-gradient-13" x1="-348.93" y1="71.81" x2="-106.25" y2="85.92" xlink:href="#linear-gradient"/><linearGradient id="linear-gradient-14" x1="-350.62" y1="100.78" x2="-107.94" y2="114.89" xlink:href="#linear-gradient"/><linearGradient id="linear-gradient-15" x1="-348.89" y1="71.09" x2="-106.21" y2="85.2" xlink:href="#linear-gradient"/><linearGradient id="linear-gradient-16" x1="-351.16" y1="110.06" x2="-108.48" y2="124.17" xlink:href="#linear-gradient"/><linearGradient id="linear-gradient-17" x1="-351.08" y1="108.72" x2="-108.4" y2="122.83" xlink:href="#linear-gradient"/><linearGradient id="linear-gradient-18" x1="-348.95" y1="72.05" x2="-106.27" y2="86.16" xlink:href="#linear-gradient"/><linearGradient id="linear-gradient-19" x1="-350.06" y1="91.23" x2="-107.38" y2="105.34" xlink:href="#linear-gradient"/><linearGradient id="linear-gradient-20" x1="-350.06" y1="91.23" x2="-107.38" y2="105.34" xlink:href="#linear-gradient"/><linearGradient id="linear-gradient-21" x1="-350.85" y1="104.82" x2="-108.17" y2="118.93" xlink:href="#linear-gradient"/><linearGradient id="linear-gradient-22" x1="-350.42" y1="97.36" x2="-107.74" y2="111.48" xlink:href="#linear-gradient"/><linearGradient id="linear-gradient-23" x1="-349.47" y1="81" x2="-106.79" y2="95.11" xlink:href="#linear-gradient"/><linearGradient id="linear-gradient-24" x1="-350.72" y1="102.51" x2="-108.04" y2="116.62" xlink:href="#linear-gradient"/><linearGradient id="linear-gradient-25" x1="-350.57" y1="99.96" x2="-107.89" y2="114.07" xlink:href="#linear-gradient"/><linearGradient id="linear-gradient-26" x1="-349.3" y1="78.14" x2="-106.62" y2="92.26" xlink:href="#linear-gradient"/><linearGradient id="linear-gradient-27" x1="-349.41" y1="80.08" x2="-106.73" y2="94.19" xlink:href="#linear-gradient"/><linearGradient id="linear-gradient-28" x1="-350.1" y1="91.87" x2="-107.42" y2="105.98" xlink:href="#linear-gradient"/><linearGradient id="linear-gradient-29" x1="-350.42" y1="97.39" x2="-107.74" y2="111.5" xlink:href="#linear-gradient"/><linearGradient id="linear-gradient-30" x1="-350.48" y1="98.45" x2="-107.8" y2="112.56" xlink:href="#linear-gradient"/><linearGradient id="linear-gradient-31" x1="-349.04" y1="73.71" x2="-106.36" y2="87.82" xlink:href="#linear-gradient"/></defs><g id="Layer_1-2"><g><path class="cls-16" d="M54.09,37.38c-2.03,0-3.79,.78-5.28,2.34-1.49,1.56-2.23,3.39-2.23,5.49s.74,3.92,2.23,5.45c1.49,1.54,3.25,2.3,5.3,2.3s3.79-.77,5.25-2.3c1.45-1.54,2.18-3.36,2.18-5.47s-.73-3.94-2.2-5.49c-1.46-1.55-3.21-2.32-5.25-2.32Z"/><path class="cls-16" d="M98.74,8.35c-2.03,0-3.79,.78-5.28,2.34-1.49,1.56-2.23,3.39-2.23,5.49s.74,3.92,2.23,5.45c1.49,1.54,3.25,2.3,5.3,2.3s3.79-.77,5.25-2.3c1.45-1.54,2.18-3.36,2.18-5.47s-.73-3.94-2.2-5.49c-1.46-1.55-3.21-2.32-5.25-2.32Z"/><path class="cls-16" d="M126.29,7.3c.61,0,1.21,.07,1.8,.2,.24-.25,.45-.53,.62-.84,.3-.54,.44-1.1,.44-1.69,0-.94-.34-1.76-1.01-2.46-.67-.7-1.48-1.05-2.41-1.05-.93,0-1.74,.35-2.41,1.04-.67,.7-1.01,1.51-1.01,2.46,0,.59,.15,1.15,.44,1.69,.22,.41,.51,.76,.86,1.06,.84-.28,1.73-.42,2.67-.42Z"/><path class="cls-16" d="M151.55,25.85c-2.54,0-4.59,2.12-4.59,4.74s2.06,4.74,4.59,4.74,4.59-2.12,4.59-4.74-2.06-4.74-4.59-4.74Zm0,8.16c-1.83,0-3.31-1.53-3.31-3.41s1.48-3.41,3.31-3.41,3.31,1.53,3.31,3.41-1.48,3.41-3.31,3.41Z"/><path class="cls-16" d="M131.59,21.63c1.45-1.54,2.18-3.36,2.18-5.47s-.73-3.94-2.2-5.49c-1.46-1.55-3.21-2.32-5.25-2.32s-3.79,.78-5.28,2.34c-1.49,1.56-2.23,3.39-2.23,5.49s.74,3.92,2.23,5.45c1.49,1.54,3.25,2.3,5.3,2.3s3.79-.77,5.25-2.3Z"/><path class="cls-16" d="M8.68,8.35c-2.03,0-3.79,.78-5.28,2.34-1.49,1.56-2.23,3.39-2.23,5.49s.74,3.92,2.23,5.45c1.49,1.54,3.25,2.3,5.3,2.3s3.79-.77,5.25-2.3c1.45-1.54,2.18-3.36,2.18-5.47s-.73-3.94-2.2-5.49c-1.46-1.55-3.21-2.32-5.25-2.32Zm4.17,12.02c-1.13,1.22-2.5,1.82-4.11,1.82h-.22c-1.59,0-2.96-.61-4.11-1.84-1.14-1.22-1.72-2.65-1.72-4.28s.58-3.03,1.74-4.22c1.16-1.19,2.56-1.79,4.19-1.79s3.03,.6,4.18,1.79c1.15,1.19,1.73,2.6,1.73,4.24s-.56,3.06-1.69,4.28Z"/><path class="cls-16" d="M53.67,23.94c2.04,0,3.79-.77,5.25-2.3,1.45-1.54,2.18-3.36,2.18-5.47s-.73-3.94-2.2-5.49c-1.46-1.55-3.21-2.32-5.25-2.32s-3.79,.78-5.28,2.34c-1.49,1.56-2.23,3.39-2.23,5.49s.74,3.92,2.23,5.45c1.49,1.54,3.25,2.3,5.3,2.3Z"/><path class="cls-16" d="M100.05,53.81c-.59,.13-1.21,.21-1.86,.21h-.33c-.65,0-1.27-.08-1.87-.22-.4,.32-.72,.69-.96,1.14-.3,.54-.44,1.1-.44,1.69,0,.94,.34,1.76,1.01,2.46,.67,.7,1.48,1.04,2.41,1.04,.93,0,1.74-.35,2.41-1.05,.67-.7,1.01-1.52,1.01-2.46,0-.59-.15-1.15-.44-1.69-.24-.44-.56-.81-.94-1.13Z"/><path class="cls-16" d="M181.78,30.65v.08c.25-.02,.49-.03,.74-.05-.24-.01-.49-.02-.74-.04Z"/><path class="cls-16" d="M151.57,61.95c.01-.2,.02-.39,.03-.59h-.06c.01,.2,.02,.39,.03,.59Z"/><path class="cls-22" d="M98.03,36.33c-2.38,0-4.42,.87-6.12,2.6-1.69,1.74-2.54,3.79-2.54,6.16s.84,4.45,2.5,6.24c1.04,1.11,2.2,1.87,3.49,2.29-.83,.79-1.24,1.76-1.24,2.91v.15c0,1.09,.39,2.02,1.17,2.8,.78,.78,1.69,1.17,2.74,1.17,1.05,0,1.95-.4,2.72-1.19,.76-.79,1.14-1.77,1.14-2.92,0-1.14-.41-2.11-1.23-2.91,1.31-.41,2.48-1.18,3.51-2.29,1.65-1.77,2.47-3.85,2.47-6.24s-.84-4.45-2.52-6.18c-1.68-1.74-3.72-2.6-6.1-2.6Zm2.96,18.61c.3,.54,.44,1.1,.44,1.69,0,.94-.34,1.76-1.01,2.46-.67,.7-1.48,1.05-2.41,1.05-.93,0-1.74-.35-2.41-1.04-.67-.7-1.01-1.51-1.01-2.46,0-.59,.15-1.15,.44-1.69,.24-.45,.57-.82,.96-1.14,.6,.14,1.22,.22,1.87,.22h.33c.65,0,1.26-.07,1.86-.21,.38,.32,.7,.69,.94,1.13Z"/><path class="cls-1" d="M130.65,23.75c1.36-.82,2.37-1.95,3.05-3.37v4.2h1.16V7.71h-1.16v4.23c-.56-1.4-1.54-2.52-2.96-3.37-.67-.4-1.36-.71-2.06-.92,.63-.74,.95-1.61,.95-2.61,0-1.16-.38-2.13-1.14-2.92-.76-.79-1.67-1.19-2.72-1.19-1.05,0-1.96,.39-2.74,1.17-.78,.78-1.17,1.72-1.17,2.8v.15c0,1.13,.4,2.09,1.2,2.87-1.04,.43-2,1.09-2.86,1.98-1.69,1.74-2.54,3.82-2.54,6.24s.85,4.5,2.54,6.24c1.69,1.74,3.73,2.6,6.1,2.6,1.55,0,3-.41,4.36-1.24Zm-7.89-17.09c-.3-.54-.44-1.1-.44-1.69,0-.94,.34-1.76,1.01-2.46,.67-.7,1.48-1.04,2.41-1.04,.93,0,1.74,.35,2.41,1.05,.67,.7,1.01,1.52,1.01,2.46,0,.59-.15,1.15-.44,1.69-.17,.31-.38,.59-.62,.84-.59-.13-1.19-.2-1.8-.2-.95,0-1.84,.14-2.67,.42-.35-.3-.63-.65-.86-1.06Zm-3.95,9.52c0-2.1,.74-3.93,2.23-5.49,1.49-1.56,3.25-2.34,5.28-2.34s3.78,.77,5.25,2.32c1.46,1.55,2.2,3.38,2.2,5.49s-.73,3.93-2.18,5.47c-1.45,1.54-3.2,2.3-5.25,2.3s-3.81-.77-5.3-2.3c-1.49-1.54-2.23-3.35-2.23-5.45Z"/><path class="cls-21" d="M106.11,11.94c-.56-1.4-1.54-2.52-2.96-3.37-1.42-.85-2.9-1.27-4.45-1.27-2.37,0-4.4,.87-6.1,2.6-1.69,1.74-2.54,3.82-2.54,6.24s.85,4.5,2.54,6.24c1.69,1.74,3.73,2.6,6.1,2.6,1.55,0,3-.41,4.36-1.24,1.36-.82,2.37-1.95,3.05-3.37v4.2h1.16V7.71h-1.16v4.23Zm-2.11,9.69c-1.45,1.54-3.2,2.3-5.25,2.3s-3.81-.77-5.3-2.3c-1.49-1.54-2.23-3.35-2.23-5.45s.74-3.93,2.23-5.49c1.49-1.56,3.25-2.34,5.28-2.34s3.78,.77,5.25,2.32c1.46,1.55,2.2,3.38,2.2,5.49s-.73,3.93-2.18,5.47Z"/><path class="cls-28" d="M83.24,47.49v-9.67h5.01v-1.05h-5.01v-6.82h-1.16v17.54c0,1.85,.6,3.37,1.82,4.55,1.21,1.19,2.67,1.78,4.39,1.78v-1.05c-1.4,0-2.6-.5-3.58-1.5-.98-1-1.47-2.26-1.47-3.79Z"/><path class="cls-15" d="M116.56,24.8v-1.05c-1.4,0-2.6-.5-3.58-1.5-.98-1-1.47-2.26-1.47-3.79V8.8h5.01v-1.05h-5.01V.93h-1.16V18.46c0,1.85,.6,3.37,1.82,4.55,1.21,1.19,2.67,1.78,4.39,1.78Z"/><path class="cls-8" d="M86.36,13.41v11.17h1.16V13.41c0-1.87-.56-3.36-1.67-4.46-1.11-1.1-2.41-1.65-3.88-1.65s-2.73,.36-3.76,1.09c-1.03,.72-1.72,1.69-2.09,2.89-.44-1.17-1.13-2.13-2.07-2.87-.94-.74-1.93-1.11-2.96-1.11s-2.02,.28-2.98,.82c-.96,.55-1.68,1.2-2.16,1.95v-2.36h-1.16V24.57h1.16V13.33c0-1.32,.48-2.49,1.45-3.49,.97-1,2.11-1.5,3.41-1.5s2.42,.49,3.34,1.48c.92,.99,1.38,2.15,1.38,3.5v11.24h1.16V13.33c0-1.32,.5-2.49,1.51-3.49,1-1,2.15-1.5,3.45-1.5s2.4,.48,3.32,1.44c.92,.96,1.38,2.17,1.38,3.62Z"/><path class="cls-17" d="M73.94,36.4c-2.47,0-4.55,.87-6.24,2.6-1.69,1.74-2.54,3.8-2.54,6.18s.84,4.47,2.5,6.24c1.67,1.77,3.67,2.66,5.99,2.66h.33c2.49,0,4.59-.96,6.28-2.89v-1.95c-.75,1.17-1.7,2.1-2.85,2.77-1.15,.67-2.35,1.01-3.61,1.01-2.01,0-3.76-.77-5.25-2.3-1.49-1.54-2.23-3.37-2.23-5.49s.74-3.95,2.23-5.49c1.49-1.54,3.24-2.3,5.25-2.3,1.26,0,2.46,.34,3.61,1.01,1.15,.67,2.1,1.59,2.85,2.74v-1.91c-1.74-1.92-3.85-2.89-6.32-2.89Z"/><path class="cls-29" d="M153.48,22.61c1.35,.16,2.52,.74,3.52,1.66,.16,.15,.29,.21,.42,.2,.18-.02,.31-.17,.35-.22,.26-.32,2.85-3.31,6.42-7.44-3.47,3.16-5.95,5.43-6.26,5.76-.05,.05-.21,.23-.45,.25-.14,.01-.29-.04-.47-.16-.55-.37-1.14-.66-1.78-1.02,.7-1.34,1.91-1.89,3.34-2.14-1.53-.56-4.61,1-5.41,2.97,.11,.05,.21,.13,.33,.14Z"/><path class="cls-19" d="M112.39,37.15c-.92,.55-1.6,1.25-2.03,2.1v-2.51h-1.16v16.86h1.16v-11.24c0-1.32,.49-2.49,1.47-3.49,.98-1,2.11-1.5,3.39-1.5s2.46,.55,3.52,1.65v-1.5c-1.04-.8-2.13-1.2-3.27-1.2s-2.17,.28-3.09,.82Z"/><path class="cls-10" d="M160.72,34.45c1.36,.62,1.98,1.81,2.34,3.26,.42-1.62-1.34-4.66-3.3-5.33-.04,.12-.11,.23-.11,.35-.04,1.4-.52,2.65-1.32,3.75-.13,.18-.18,.32-.16,.45,.03,.19,.19,.3,.24,.34,.33,.24,3.43,2.66,7.7,6.01-3.34-3.32-5.72-5.68-6.07-5.98-.05-.05-.24-.2-.28-.44-.02-.14,.01-.3,.11-.49,.31-.59,.54-1.23,.84-1.92Z"/><path class="cls-9" d="M159.76,24.71c.36-.28,2.83-2.55,6.28-5.74-4.39,3.18-7.57,5.48-7.91,5.71-.05,.03-.22,.14-.26,.33-.03,.13,.02,.27,.14,.45,.77,1.14,1.2,2.4,1.19,3.8,0,.12,.06,.24,.1,.35,1.99-.59,3.85-3.56,3.49-5.2-.41,1.43-1.08,2.6-2.45,3.17-.27-.7-.49-1.35-.77-1.95-.09-.2-.12-.36-.1-.5,.05-.24,.24-.39,.29-.43Z"/><path class="cls-30" d="M175.34,42.71c-.22,.3-2.85,3.98-3.79,5.17-.82,1.04-1.53,1.72-2.35,2.52-1.41,1.36-2.66,2.31-3.22,2.76-.96,.76-1.98,1.43-2.99,2.15,.06,0,.1,.03,.12,.02,.14-.04,.27-.09,.41-.15,2.12-.89,4.08-2.08,5.81-3.63,.54-.48,1.03-.53,1.61-.26,.28,.13,.55,.27,.8,.44,.62,.43,1.22,.89,1.82,1.34l.04-.06c-.15-.18-.31-.35-.44-.55-.46-.73-.93-1.44-1.33-2.2-.27-.52-.22-1.02,.2-1.52,1.39-1.62,2.45-3.45,3.3-5.43,.13-.3,.23-.62,.35-.92-.19,.07-.26,.2-.34,.31Z"/><path class="cls-31" d="M134.06,46.56c0,1.72-.61,3.22-1.83,4.5-1.22,1.27-2.67,1.91-4.34,1.91s-3.12-.64-4.34-1.91c-1.22-1.27-1.83-2.77-1.83-4.5v-9.82h-1.16v9.82c0,2.05,.71,3.8,2.14,5.27,1.43,1.46,3.15,2.19,5.15,2.19,2.95,0,5.02-1.22,6.21-3.67v2.85c0,1.87-.65,3.48-1.96,4.82-1.31,1.34-2.86,2.01-4.65,2.01-1.21,0-2.37-.36-3.47-1.07-1.1-.71-1.99-1.67-2.67-2.87l-.07,1.87c1.52,2.07,3.59,3.11,6.21,3.11,2.18,0,4.02-.77,5.52-2.32,1.5-1.55,2.25-3.44,2.25-5.66v-16.34h-1.16v9.82Z"/><path class="cls-6" d="M145.92,22.67c-.24-.02-.4-.2-.45-.25-.32-.33-2.79-2.6-6.26-5.76,3.57,4.13,6.16,7.11,6.42,7.44,.04,.05,.16,.21,.35,.22,.13,.01,.26-.05,.42-.2,1-.92,2.17-1.51,3.52-1.66,.11-.01,.22-.09,.33-.14-.8-1.97-3.88-3.53-5.41-2.97,1.43,.26,2.63,.8,3.34,2.14-.64,.36-1.24,.66-1.78,1.02-.18,.12-.33,.17-.47,.16Z"/><path class="cls-3" d="M61.46,40.97c-.56-1.4-1.54-2.52-2.96-3.37-1.42-.85-2.9-1.27-4.45-1.27-2.37,0-4.4,.87-6.1,2.6-1.69,1.74-2.54,3.82-2.54,6.24s.85,4.5,2.54,6.24c1.69,1.74,3.73,2.6,6.1,2.6,1.55,0,3-.41,4.36-1.24,1.36-.82,2.37-1.95,3.05-3.37v4.2h1.16v-16.86h-1.16v4.23Zm-2.11,9.69c-1.45,1.54-3.2,2.3-5.25,2.3s-3.81-.77-5.3-2.3c-1.49-1.54-2.23-3.35-2.23-5.45s.74-3.93,2.23-5.49c1.49-1.56,3.25-2.34,5.28-2.34s3.78,.77,5.25,2.32c1.46,1.55,2.2,3.38,2.2,5.49s-.73,3.93-2.18,5.47Z"/><path class="cls-11" d="M151.66,23.41c.31-1.69,.39-3.37,2.01-4.07-1.86-6.35-1.65-12.86-2.06-19.35-.03,.33-.07,.66-.08,1-.19,3.52-.31,7.04-.58,10.56-.2,2.63-.45,5.27-1.51,7.77,1.81,.67,1.8,2.46,2.23,4.09Z"/><path class="cls-2" d="M169.71,12.58c.83,.8,1.53,1.48,2.35,2.52,.94,1.19,3.57,4.87,3.79,5.17,.08,.11,.16,.24,.34,.31-.11-.31-.22-.62-.35-.92-.84-1.97-1.91-3.81-3.3-5.43-.43-.5-.48-1.01-.2-1.52,.4-.76,.88-1.47,1.33-2.2,.12-.2,.29-.37,.44-.55l-.04-.06c-.61,.45-1.21,.91-1.82,1.34-.25,.18-.53,.32-.8,.44-.59,.26-1.08,.22-1.61-.26-1.73-1.55-3.69-2.73-5.81-3.63-.13-.06-.27-.1-.41-.15-.03,0-.07,0-.12,.02,1.01,.72,2.03,1.39,2.99,2.15,.57,.45,1.81,1.4,3.22,2.76Z"/><path class="cls-4" d="M151.55,38.32c-.38,1.64-.39,3.34-2.03,4.02,1.85,6.21,1.64,12.62,2.01,19.03h.06c.16-3.21,.28-6.36,.52-9.5,.24-3.21,.4-6.44,1.64-9.5-1.77-.68-1.81-2.41-2.2-4.05Z"/><path class="cls-27" d="M151.55,27.18c-1.83,0-3.31,1.53-3.31,3.41s1.48,3.41,3.31,3.41,3.31-1.53,3.31-3.41-1.48-3.41-3.31-3.41Z"/><path class="cls-7" d="M151.55,24.72c-3.15,0-5.7,2.63-5.7,5.88s2.55,5.88,5.7,5.88,5.7-2.63,5.7-5.88-2.55-5.88-5.7-5.88Zm0,10.62c-2.54,0-4.59-2.12-4.59-4.74s2.06-4.74,4.59-4.74,4.59,2.12,4.59,4.74-2.06,4.74-4.59,4.74Z"/><polygon class="cls-13" points="162.22 19.43 161.3 21.4 163.31 20.71 169.34 14.11 162.22 19.43"/><path class="cls-20" d="M8.63,10.06c-1.63,0-3.03,.6-4.19,1.79-1.16,1.19-1.74,2.6-1.74,4.22s.57,3.05,1.72,4.28c1.14,1.22,2.51,1.84,4.11,1.84h.22c1.61,0,2.98-.61,4.11-1.82,1.13-1.22,1.69-2.64,1.69-4.28s-.58-3.05-1.73-4.24c-1.15-1.19-2.55-1.79-4.18-1.79Z"/><path class="cls-26" d="M157.69,39.1c.24,.03,.39,.22,.44,.27,.3,.35,2.69,2.7,6.05,6-3.42-4.26-5.9-7.35-6.15-7.68-.04-.05-.16-.21-.34-.24-.13-.02-.26,.04-.43,.18-1.03,.88-2.22,1.42-3.58,1.53-.11,0-.22,.09-.33,.13,.73,2,3.75,3.67,5.3,3.17-1.42-.31-2.6-.9-3.26-2.27,.66-.34,1.26-.61,1.82-.95,.18-.11,.33-.16,.47-.14Z"/><path class="cls-18" d="M43.89,24.8v-1.05c-1.4,0-2.6-.5-3.58-1.5-.98-1-1.47-2.26-1.47-3.79V8.8h5.01v-1.05h-5.01V.93h-1.16V18.46c0,1.85,.6,3.37,1.82,4.55,1.21,1.19,2.67,1.78,4.39,1.78Z"/><path class="cls-14" d="M53.47,24.98h.33c2.35,0,4.34-.89,5.99-2.66,1.65-1.77,2.47-3.85,2.47-6.24s-.84-4.45-2.52-6.18c-1.68-1.74-3.72-2.6-6.1-2.6s-4.42,.87-6.12,2.6c-1.69,1.74-2.54,3.79-2.54,6.16s.84,4.45,2.5,6.24c1.67,1.79,3.67,2.68,5.99,2.68Zm-5.1-14.3c1.49-1.56,3.25-2.34,5.28-2.34s3.78,.77,5.25,2.32c1.46,1.55,2.2,3.38,2.2,5.49s-.73,3.93-2.18,5.47c-1.45,1.54-3.2,2.3-5.25,2.3s-3.81-.77-5.3-2.3c-1.49-1.54-2.23-3.35-2.23-5.45s.74-3.93,2.23-5.49Z"/><polygon class="cls-32" points="162.27 42.69 169.13 48.37 163.42 41.47 161.44 40.68 162.27 42.69"/><path class="cls-23" d="M149.71,39.01c-1.36-.1-2.54-.65-3.58-1.53-.16-.14-.3-.2-.43-.18-.18,.02-.3,.19-.34,.24-.25,.33-2.73,3.42-6.15,7.68,3.36-3.3,5.75-5.65,6.05-6,.05-.05,.2-.24,.44-.27,.14-.02,.29,.03,.47,.14,.56,.34,1.16,.61,1.82,.95-.65,1.37-1.84,1.96-3.26,2.27,1.55,.5,4.57-1.17,5.3-3.17-.11-.04-.22-.12-.33-.13Z"/><path class="cls-5" d="M173.04,30.18c-3.31-.24-6.63-.44-9.79-1.72-.65,1.78-2.28,1.86-3.75,2.25,1.49,.38,3.1,.45,3.73,2.09,6.12-1.9,12.4-1.68,18.55-2.07v-.08c-2.88-.14-5.81-.26-8.74-.47Z"/><path class="cls-24" d="M16.05,11.94c-.56-1.4-1.54-2.52-2.96-3.37-1.42-.85-2.9-1.27-4.45-1.27-2.37,0-4.4,.87-6.1,2.6-1.69,1.74-2.54,3.82-2.54,6.24s.85,4.5,2.54,6.24c1.69,1.74,3.73,2.6,6.1,2.6,1.55,0,3-.41,4.36-1.24,1.36-.82,2.37-1.95,3.05-3.37v4.2h1.16V7.71h-1.16v4.23Zm-2.11,9.69c-1.45,1.54-3.2,2.3-5.25,2.3s-3.81-.77-5.3-2.3c-1.49-1.54-2.23-3.35-2.23-5.45s.74-3.93,2.23-5.49c1.49-1.56,3.25-2.34,5.28-2.34s3.78,.77,5.25,2.32c1.46,1.55,2.2,3.38,2.2,5.49s-.73,3.93-2.18,5.47Z"/><path class="cls-25" d="M33.8,17.53c0,1.72-.64,3.22-1.91,4.5-1.27,1.27-2.74,1.91-4.41,1.91s-3.09-.64-4.27-1.91c-1.17-1.27-1.76-2.77-1.76-4.5V7.71h-1.16v9.82c0,2.07,.69,3.84,2.07,5.28,1.38,1.45,3.09,2.17,5.12,2.17,2.98,0,5.08-1.27,6.32-3.82v3.41h1.16V7.71h-1.16v9.82Z"/><path class="cls-12" d="M39.24,36.25c0-1.52,.49-2.79,1.47-3.78,.98-1,2.17-1.5,3.58-1.5v-1.05c-1.72,0-3.18,.59-4.39,1.78-1.21,1.19-1.82,2.7-1.82,4.55v17.35h1.16v-6.45h5.08v-1.05h-5.08v-9.86Z"/></g></g></svg>