<?xml version="1.0" encoding="UTF-8"?><svg id="Layer_2" xmlns="http://www.w3.org/2000/svg" xmlns:xlink="http://www.w3.org/1999/xlink" viewBox="0 0 263.72 49.95"><defs><style>.cls-1{fill:url(#linear-gradient-2);}.cls-2{fill:url(#linear-gradient-17);}.cls-3{fill:url(#linear-gradient-15);}.cls-4{fill:url(#linear-gradient-18);}.cls-5{fill:url(#linear-gradient-28);}.cls-6{fill:url(#linear-gradient-14);}.cls-7{fill:url(#linear-gradient-20);}.cls-8{fill:url(#linear-gradient-6);}.cls-9{fill:url(#linear-gradient-11);}.cls-10{fill:url(#linear-gradient-10);}.cls-11{fill:url(#linear-gradient-16);}.cls-12{fill:url(#linear-gradient-31);}.cls-13{fill:url(#linear-gradient-21);}.cls-14{fill:url(#linear-gradient-25);}.cls-15{fill:url(#linear-gradient-5);}.cls-16{fill:url(#linear-gradient-7);}.cls-17{fill:#ccc;}.cls-18{fill:url(#linear-gradient-24);}.cls-19{fill:url(#linear-gradient-9);}.cls-20{fill:url(#linear-gradient-22);}.cls-21{fill:url(#linear-gradient-3);}.cls-22{fill:url(#linear-gradient);}.cls-23{fill:url(#linear-gradient-27);}.cls-24{fill:url(#linear-gradient-29);}.cls-25{fill:url(#linear-gradient-30);}.cls-26{fill:url(#linear-gradient-23);}.cls-27{fill:url(#linear-gradient-19);}.cls-28{fill:url(#linear-gradient-4);}.cls-29{fill:url(#linear-gradient-8);}.cls-30{fill:url(#linear-gradient-12);}.cls-31{fill:url(#linear-gradient-13);}.cls-32{fill:url(#linear-gradient-26);}</style><linearGradient id="linear-gradient" x1="147.2" y1="543.06" x2="475.06" y2="562.13" gradientTransform="translate(373.48 575.14) rotate(-180)" gradientUnits="userSpaceOnUse"><stop offset="0" stop-color="#2761a9"/><stop offset=".25" stop-color="#652e61"/><stop offset=".5" stop-color="#54013f"/><stop offset=".75" stop-color="#e02820"/><stop offset="1" stop-color="#ff4500"/></linearGradient><linearGradient id="linear-gradient-2" x1="146.86" y1="548.88" x2="474.72" y2="567.95" xlink:href="#linear-gradient"/><linearGradient id="linear-gradient-3" x1="147.34" y1="540.74" x2="475.19" y2="559.8" xlink:href="#linear-gradient"/><linearGradient id="linear-gradient-4" x1="147.26" y1="542.02" x2="475.12" y2="561.09" xlink:href="#linear-gradient"/><linearGradient id="linear-gradient-5" x1="146.94" y1="547.64" x2="474.79" y2="566.7" xlink:href="#linear-gradient"/><linearGradient id="linear-gradient-6" x1="146.97" y1="547.06" x2="474.83" y2="566.13" xlink:href="#linear-gradient"/><linearGradient id="linear-gradient-7" x1="147.19" y1="543.26" x2="475.05" y2="562.32" xlink:href="#linear-gradient"/><linearGradient id="linear-gradient-8" x1="147.48" y1="538.3" x2="475.34" y2="557.37" xlink:href="#linear-gradient"/><linearGradient id="linear-gradient-9" x1="146.44" y1="556.1" x2="474.3" y2="575.17" xlink:href="#linear-gradient"/><linearGradient id="linear-gradient-10" x1="146.36" y1="557.56" x2="474.22" y2="576.62" xlink:href="#linear-gradient"/><linearGradient id="linear-gradient-11" x1="146.25" y1="559.36" x2="474.11" y2="578.42" xlink:href="#linear-gradient"/><linearGradient id="linear-gradient-12" x1="147.48" y1="538.28" x2="475.34" y2="557.34" xlink:href="#linear-gradient"/><linearGradient id="linear-gradient-13" x1="146.54" y1="554.48" x2="474.4" y2="573.54" xlink:href="#linear-gradient"/><linearGradient id="linear-gradient-14" x1="146.22" y1="559.96" x2="474.08" y2="579.03" xlink:href="#linear-gradient"/><linearGradient id="linear-gradient-15" x1="146.73" y1="551.27" x2="474.58" y2="570.33" xlink:href="#linear-gradient"/><linearGradient id="linear-gradient-16" x1="146.73" y1="551.27" x2="474.58" y2="570.33" xlink:href="#linear-gradient"/><linearGradient id="linear-gradient-17" x1="147.42" y1="539.31" x2="475.28" y2="558.38" xlink:href="#linear-gradient"/><linearGradient id="linear-gradient-18" x1="146.96" y1="547.29" x2="474.81" y2="566.36" xlink:href="#linear-gradient"/><linearGradient id="linear-gradient-19" x1="146.81" y1="549.86" x2="474.66" y2="568.93" xlink:href="#linear-gradient"/><linearGradient id="linear-gradient-20" x1="147.19" y1="543.35" x2="475.04" y2="562.42" xlink:href="#linear-gradient"/><linearGradient id="linear-gradient-21" x1="147.04" y1="545.84" x2="474.9" y2="564.91" xlink:href="#linear-gradient"/><linearGradient id="linear-gradient-22" x1="147" y1="546.55" x2="474.86" y2="565.62" xlink:href="#linear-gradient"/><linearGradient id="linear-gradient-23" x1="147.02" y1="546.11" x2="474.88" y2="565.18" xlink:href="#linear-gradient"/><linearGradient id="linear-gradient-24" x1="146.47" y1="555.67" x2="474.33" y2="574.74" xlink:href="#linear-gradient"/><linearGradient id="linear-gradient-25" x1="147.08" y1="545.24" x2="474.93" y2="564.3" xlink:href="#linear-gradient"/><linearGradient id="linear-gradient-26" x1="146.95" y1="547.48" x2="474.8" y2="566.55" xlink:href="#linear-gradient"/><linearGradient id="linear-gradient-27" x1="146.9" y1="548.25" x2="474.76" y2="567.32" xlink:href="#linear-gradient"/><linearGradient id="linear-gradient-28" x1="147.25" y1="542.28" x2="475.1" y2="561.35" xlink:href="#linear-gradient"/><linearGradient id="linear-gradient-29" x1="147" y1="546.51" x2="474.86" y2="565.57" xlink:href="#linear-gradient"/><linearGradient id="linear-gradient-30" x1="146.71" y1="551.57" x2="474.56" y2="570.64" xlink:href="#linear-gradient"/><linearGradient id="linear-gradient-31" x1="146.73" y1="551.21" x2="474.59" y2="570.27" xlink:href="#linear-gradient"/></defs><g id="Layer_1-2"><g><path class="cls-17" d="M60.75,17.62c-1.93,0-3.6,.72-5.01,2.15-1.41,1.44-2.12,3.12-2.12,5.05s.71,3.6,2.12,5.01c1.41,1.41,3.09,2.12,5.03,2.12s3.6-.71,4.98-2.12c1.38-1.41,2.07-3.09,2.07-5.03s-.69-3.62-2.08-5.05c-1.39-1.42-3.05-2.14-4.98-2.14Z"/><path class="cls-17" d="M201.42,32.62c-.56,.12-1.15,.19-1.76,.19h-.31c-.62,0-1.21-.07-1.77-.2-.38,.29-.68,.64-.92,1.05-.28,.49-.42,1.01-.42,1.55,0,.86,.32,1.62,.96,2.26,.64,.64,1.4,.96,2.29,.96,.88,0,1.65-.32,2.29-.96,.64-.64,.96-1.39,.96-2.26,0-.54-.14-1.06-.42-1.55-.23-.4-.53-.75-.89-1.04Z"/><path class="cls-17" d="M103.54,17.62c-1.93,0-3.6,.72-5.01,2.15-1.41,1.44-2.12,3.12-2.12,5.05s.71,3.6,2.12,5.01c1.41,1.41,3.09,2.12,5.03,2.12s3.6-.71,4.98-2.12c1.38-1.41,2.07-3.09,2.07-5.03s-.69-3.62-2.08-5.05c-1.39-1.42-3.05-2.14-4.98-2.14Z"/><path class="cls-17" d="M129.72,17.62c-1.93,0-3.6,.72-5.01,2.15-1.41,1.44-2.12,3.12-2.12,5.05s.71,3.6,2.12,5.01c1.41,1.41,3.09,2.12,5.03,2.12s3.6-.71,4.98-2.12c1.38-1.41,2.07-3.09,2.07-5.03s-.69-3.62-2.08-5.05c-1.39-1.42-3.05-2.14-4.98-2.14Z"/><path class="cls-17" d="M157.8,17.52c-1.93,0-3.6,.72-5.01,2.15-1.41,1.44-2.12,3.12-2.12,5.05s.71,3.6,2.12,5.01c1.41,1.41,3.09,2.12,5.03,2.12s3.6-.71,4.98-2.12c1.38-1.41,2.07-3.09,2.07-5.03s-.69-3.62-2.08-5.05c-1.39-1.42-3.05-2.14-4.98-2.14Z"/><path class="cls-17" d="M242.91,22.63c-1.21,0-2.19,.98-2.19,2.19s.98,2.19,2.19,2.19,2.19-.98,2.19-2.19-.98-2.19-2.19-2.19Zm0,3.77c-.87,0-1.58-.71-1.58-1.58s.71-1.58,1.58-1.58,1.58,.71,1.58,1.58-.71,1.58-1.58,1.58Z"/><path class="cls-17" d="M18.07,17.62c-1.93,0-3.6,.72-5.01,2.15-1.41,1.44-2.12,3.12-2.12,5.05s.71,3.6,2.12,5.01c1.41,1.41,3.09,2.12,5.03,2.12s3.6-.71,4.98-2.12c1.38-1.41,2.07-3.09,2.07-5.03s-.69-3.62-2.08-5.05c-1.39-1.42-3.05-2.14-4.98-2.14Zm3.96,11.05c-1.07,1.12-2.37,1.68-3.9,1.68h-.21c-1.51,0-2.81-.56-3.9-1.69-1.09-1.13-1.63-2.44-1.63-3.93s.55-2.79,1.65-3.88c1.1-1.09,2.43-1.64,3.98-1.64s2.87,.55,3.97,1.64c1.09,1.09,1.64,2.39,1.64,3.9s-.54,2.81-1.61,3.93Z"/><path class="cls-17" d="M239.36,0H24.36C10.91,0,0,10.91,0,24.36v1.22c0,13.46,10.91,24.36,24.36,24.36H239.36c13.46,0,24.36-10.91,24.36-24.36v-1.22c0-13.46-10.91-24.36-24.36-24.36Zm9.3,14.22c.07,.02,.13,.04,.19,.07,1.01,.41,1.95,.96,2.77,1.67,.26,.22,.49,.24,.77,.12,.13-.06,.26-.12,.38-.2,.29-.2,.58-.41,.87-.62l.02,.03c-.07,.08-.15,.16-.21,.25-.22,.33-.44,.67-.64,1.02-.13,.24-.11,.47,.1,.7,.66,.75,1.17,1.59,1.57,2.51,.06,.14,.11,.28,.16,.43-.09-.03-.12-.09-.16-.14-.1-.14-1.36-1.84-1.8-2.39-.39-.48-.73-.79-1.12-1.16-.67-.63-1.27-1.07-1.54-1.27-.46-.35-.94-.66-1.42-.99,.03,0,.05-.01,.06,0Zm-1.93,8.3c.14,.28,.24,.58,.37,.9,.66-.26,.97-.8,1.17-1.46,.17,.75-.72,2.13-1.66,2.4-.02-.05-.05-.11-.05-.16,0-.65-.2-1.23-.57-1.76-.06-.08-.08-.15-.07-.21,.02-.09,.1-.14,.12-.15,.16-.11,1.68-1.17,3.77-2.63-1.65,1.47-2.82,2.52-2.99,2.65-.03,.02-.12,.09-.14,.2-.01,.07,0,.14,.05,.23Zm.23,5.39c.17,.14,1.3,1.23,2.89,2.76-2.04-1.54-3.51-2.66-3.67-2.77-.02-.02-.1-.07-.12-.16,0-.06,.01-.13,.07-.21,.38-.51,.61-1.09,.63-1.73,0-.05,.03-.11,.05-.16,.94,.31,1.77,1.71,1.57,2.46-.17-.67-.47-1.22-1.11-1.5-.14,.32-.25,.61-.4,.89-.05,.09-.07,.16-.05,.23,.02,.11,.11,.18,.13,.2Zm4.33,5.11l-3.27-2.62-.4-.93,.94,.37,2.72,3.18Zm-2.77-12.77l-.96,.32,.44-.91,3.39-2.46-2.87,3.05Zm-2.26-.56c-.68,.12-1.25,.37-1.59,.99,.31,.17,.59,.3,.85,.47,.08,.05,.16,.08,.22,.07,.11-.01,.19-.09,.21-.12,.15-.15,1.33-1.2,2.98-2.66-1.7,1.91-2.93,3.28-3.06,3.43-.02,.02-.08,.1-.17,.1-.06,0-.12-.02-.2-.09-.48-.42-1.03-.7-1.68-.77-.05,0-.1-.04-.16-.07,.38-.91,1.85-1.63,2.58-1.37Zm-.63,5.12c0,1.5-1.22,2.71-2.71,2.71s-2.71-1.22-2.71-2.71,1.22-2.71,2.71-2.71,2.71,1.22,2.71,2.71Zm-3-8.79c.13-1.62,.19-3.25,.28-4.87,0-.15,.03-.31,.04-.46,.2,2.99,.1,6,.98,8.93-.77,.32-.81,1.1-.96,1.88-.2-.75-.2-1.58-1.06-1.89,.5-1.16,.62-2.37,.72-3.59ZM26.17,32.54h-1.1v-3.86c-.64,1.31-1.61,2.34-2.89,3.1-1.29,.76-2.66,1.14-4.13,1.14-2.25,0-4.18-.8-5.79-2.39-1.61-1.6-2.41-3.51-2.41-5.74s.8-4.14,2.41-5.74c1.61-1.6,3.54-2.39,5.79-2.39,1.47,0,2.88,.39,4.22,1.17,1.34,.78,2.28,1.81,2.81,3.1v-3.89h1.1v15.5Zm16.85,0h-1.1v-3.14c-1.17,2.34-3.17,3.51-5.99,3.51-1.93,0-3.55-.67-4.86-2-1.31-1.33-1.96-2.95-1.96-4.86v-9.03h1.1v9.03c0,1.58,.56,2.96,1.67,4.13,1.11,1.17,2.46,1.76,4.05,1.76s2.98-.59,4.19-1.76c1.21-1.17,1.81-2.55,1.81-4.13v-9.03h1.1v15.5Zm8.47,.21c-1.63,0-3.02-.55-4.17-1.64-1.15-1.09-1.72-2.49-1.72-4.19V10.8h1.1v6.27h4.75v.96h-4.75v8.89c0,1.4,.47,2.56,1.4,3.48,.93,.92,2.06,1.38,3.39,1.38v.96Zm15.09-2.27c-1.56,1.63-3.46,2.45-5.68,2.45h-.31c-2.2,0-4.1-.82-5.68-2.46-1.58-1.64-2.38-3.55-2.38-5.74s.8-4.07,2.41-5.67c1.61-1.6,3.54-2.39,5.81-2.39s4.19,.8,5.79,2.39c1.6,1.6,2.39,3.49,2.39,5.68s-.78,4.11-2.34,5.74Zm26.32,2.07h-1.1v-10.27c0-1.33-.44-2.44-1.31-3.32-.87-.88-1.92-1.33-3.15-1.33s-2.32,.46-3.27,1.38c-.95,.92-1.43,1.99-1.43,3.2v10.34h-1.1v-10.34c0-1.24-.44-2.31-1.31-3.22-.87-.91-1.93-1.36-3.17-1.36s-2.32,.46-3.24,1.38-1.38,1.99-1.38,3.2v10.34h-1.1v-15.5h1.1v2.17c.46-.69,1.14-1.29,2.05-1.79,.91-.5,1.85-.76,2.83-.76s1.91,.34,2.81,1.02c.9,.68,1.55,1.56,1.96,2.64,.34-1.1,1-1.99,1.98-2.65,.98-.67,2.16-1,3.57-1s2.63,.51,3.69,1.52c1.06,1.01,1.58,2.38,1.58,4.1v10.27Zm18.74,0h-1.1v-3.86c-.64,1.31-1.61,2.34-2.89,3.1-1.29,.76-2.66,1.14-4.13,1.14-2.25,0-4.18-.8-5.79-2.39-1.61-1.6-2.41-3.51-2.41-5.74s.8-4.14,2.41-5.74c1.61-1.6,3.54-2.39,5.79-2.39,1.47,0,2.88,.39,4.22,1.17,1.34,.78,2.28,1.81,2.81,3.1v-3.89h1.1v15.5Zm8.82,.21c-1.63,0-3.02-.55-4.17-1.64-1.15-1.09-1.72-2.49-1.72-4.19V10.8h1.1v6.27h4.75v.96h-4.75v8.89c0,1.4,.46,2.56,1.4,3.48,.93,.92,2.06,1.38,3.39,1.38v.96Zm17.36-.21h-1.1v-3.86c-.64,1.31-1.61,2.34-2.89,3.1-1.29,.76-2.66,1.14-4.13,1.14-2.25,0-4.18-.8-5.79-2.39-1.61-1.6-2.41-3.51-2.41-5.74s.8-4.14,2.41-5.74c.82-.82,1.73-1.42,2.72-1.82-.76-.72-1.14-1.6-1.14-2.64v-.14c0-1,.37-1.86,1.11-2.58,.74-.72,1.61-1.08,2.6-1.08,.99,0,1.85,.36,2.58,1.09,.72,.73,1.09,1.62,1.09,2.69,0,.92-.3,1.72-.9,2.4,.67,.19,1.32,.47,1.96,.85,1.34,.78,2.28,1.81,2.81,3.1v-3.89h1.1v15.5Zm10.72-6.03h-4.82v5.93h-1.1v-15.95c0-1.7,.57-3.09,1.72-4.19,1.15-1.09,2.54-1.64,4.17-1.64v.96c-1.33,0-2.46,.46-3.39,1.38-.93,.92-1.4,2.08-1.4,3.48v9.06h4.82v.96Zm17.36,5.93h-1.1v-3.86c-.64,1.31-1.61,2.34-2.89,3.1-1.29,.76-2.66,1.14-4.13,1.14-2.25,0-4.18-.8-5.79-2.39-1.61-1.6-2.41-3.51-2.41-5.74s.8-4.14,2.41-5.74c1.61-1.6,3.54-2.39,5.79-2.39,1.47,0,2.88,.39,4.22,1.17,1.34,.78,2.28,1.81,2.81,3.1v-3.89h1.1v15.5Zm16.74-11.4c-.71-1.06-1.61-1.89-2.7-2.51-1.09-.62-2.23-.93-3.43-.93-1.91,0-3.57,.71-4.98,2.12-1.41,1.41-2.12,3.1-2.12,5.05s.71,3.63,2.12,5.05c1.41,1.41,3.07,2.12,4.98,2.12,1.19,0,2.34-.31,3.43-.93,1.09-.62,1.99-1.47,2.7-2.55v1.79c-1.61,1.77-3.59,2.65-5.96,2.65h-.31c-2.2,0-4.1-.82-5.68-2.45-1.58-1.63-2.38-3.54-2.38-5.74s.8-4.09,2.41-5.68c1.61-1.6,3.58-2.39,5.93-2.39s4.34,.88,5.99,2.65v1.76Zm7.61,11.61c-1.63,0-3.02-.55-4.17-1.64-1.15-1.09-1.72-2.49-1.72-4.19V10.7h1.1v6.27h4.75v.96h-4.75v8.89c0,1.4,.47,2.56,1.4,3.48,.93,.92,2.06,1.38,3.39,1.38v.96Zm15.09-2.27c-.98,1.02-2.09,1.73-3.34,2.11,.77,.74,1.16,1.63,1.16,2.68,0,1.06-.36,1.96-1.09,2.69-.72,.73-1.58,1.09-2.58,1.09-.99,0-1.86-.36-2.6-1.08-.74-.72-1.11-1.58-1.11-2.58v-.14c0-1.06,.39-1.95,1.18-2.68-1.22-.39-2.33-1.09-3.31-2.11-1.58-1.64-2.38-3.55-2.38-5.74s.8-4.07,2.41-5.67c1.61-1.6,3.54-2.39,5.8-2.39s4.19,.8,5.79,2.39c1.6,1.6,2.39,3.49,2.39,5.68s-.78,4.11-2.34,5.74Zm13.81-11.33c-1.01-1.01-2.12-1.52-3.34-1.52s-2.29,.46-3.22,1.38c-.93,.92-1.4,1.99-1.4,3.2v10.34h-1.1v-15.5h1.1v2.31c.41-.78,1.06-1.42,1.93-1.93,.87-.5,1.85-.76,2.93-.76s2.11,.37,3.1,1.1v1.38Zm15.64,12.92c0,2.04-.71,3.78-2.14,5.2-1.42,1.42-3.17,2.14-5.24,2.14-2.48,0-4.44-.95-5.89-2.86l.07-1.72c.64,1.1,1.49,1.98,2.53,2.64,1.04,.65,2.14,.98,3.29,.98,1.7,0,3.17-.61,4.41-1.84,1.24-1.23,1.86-2.7,1.86-4.43v-2.62c-1.13,2.25-3.09,3.38-5.89,3.38-1.91,0-3.54-.67-4.89-2.02-1.36-1.34-2.03-2.96-2.03-4.84v-9.03h1.1v9.03c0,1.58,.58,2.96,1.74,4.13,1.16,1.17,2.53,1.76,4.12,1.76s2.96-.59,4.12-1.76c1.16-1.17,1.74-2.55,1.74-4.13v-9.03h1.1v15.02Zm5.21-10.91s.1,.11,.21,.12c.07,0,.14-.02,.22-.07,.26-.17,.54-.3,.85-.47-.34-.62-.91-.87-1.59-.99,.73-.26,2.19,.46,2.58,1.37-.05,.02-.1,.06-.16,.07-.64,.07-1.2,.34-1.68,.77-.08,.07-.14,.1-.2,.09-.09,0-.15-.08-.17-.1-.13-.15-1.36-1.53-3.06-3.43,1.66,1.46,2.83,2.51,2.98,2.66Zm-.35,9.18c.68-.14,1.24-.41,1.55-1.05-.31-.16-.6-.28-.87-.44-.09-.05-.16-.07-.23-.06-.11,.01-.19,.1-.21,.12-.14,.16-1.28,1.25-2.88,2.77,1.63-1.97,2.81-3.39,2.93-3.54,.02-.02,.08-.1,.16-.11,.06,0,.13,.02,.2,.08,.49,.41,1.06,.66,1.7,.71,.05,0,.11,.04,.16,.06-.35,.92-1.79,1.7-2.53,1.46Zm3.51,4.41c-.12,1.54-.17,3.08-.26,4.65-.2-3.05-.07-6.1-.98-9.06,.78-.31,.79-1.1,.97-1.85,.19,.75,.21,1.56,1.05,1.87-.59,1.41-.67,2.91-.78,4.39Zm.59-5.81c.05-.02,.1-.06,.16-.06,.65-.05,1.21-.3,1.7-.71,.08-.06,.14-.09,.2-.08,.09,.01,.14,.09,.16,.11,.12,.15,1.3,1.58,2.93,3.54-1.6-1.52-2.74-2.61-2.88-2.77-.02-.02-.1-.11-.21-.12-.07,0-.14,.01-.23,.06-.27,.16-.55,.28-.87,.44,.31,.63,.88,.9,1.55,1.05-.74,.23-2.18-.54-2.53-1.46Zm10.48,1.86c-.4,.91-.91,1.76-1.57,2.51-.2,.23-.23,.46-.1,.7,.19,.35,.42,.68,.64,1.02,.06,.09,.14,.17,.21,.25l-.02,.03c-.29-.21-.58-.42-.87-.62-.12-.08-.25-.15-.38-.2-.28-.12-.51-.1-.77,.12-.82,.71-1.76,1.26-2.77,1.67-.06,.03-.13,.05-.19,.07-.01,0-.03,0-.06,0,.48-.33,.97-.64,1.42-.99,.27-.21,.86-.64,1.54-1.27,.39-.37,.73-.68,1.12-1.16,.45-.55,1.7-2.25,1.8-2.39,.04-.05,.07-.11,.16-.14-.05,.14-.1,.29-.16,.43Zm3.4-5.83c-3.04,.21-6.14,.07-9.17,.98-.3-.76-1.07-.79-1.78-.97,.7-.18,1.48-.22,1.79-1.04,1.5,.59,3.09,.69,4.66,.8,1.51,.11,3.02,.16,4.5,.23h0Z"/><path class="cls-17" d="M127.15,17.04c.8-.25,1.64-.39,2.54-.39,.58,0,1.15,.06,1.71,.19,.23-.23,.43-.48,.59-.77,.28-.49,.42-1.01,.42-1.55,0-.86-.32-1.62-.96-2.26-.64-.64-1.4-.96-2.29-.96-.89,0-1.65,.32-2.29,.96-.64,.64-.96,1.39-.96,2.26,0,.54,.14,1.06,.42,1.55,.21,.37,.48,.7,.81,.97Z"/><path class="cls-17" d="M257.65,24.86h0Z"/><path class="cls-17" d="M46.7,26.92v-8.89h4.75v-.96h-4.75v-6.27h-1.1V26.92c0,1.7,.57,3.1,1.72,4.19,1.15,1.09,2.54,1.64,4.17,1.64v-.96c-1.33,0-2.46-.46-3.39-1.38-.93-.92-1.4-2.08-1.4-3.48Z"/><path class="cls-22" d="M46.7,26.92v-8.89h4.75v-.96h-4.75v-6.27h-1.1V26.92c0,1.7,.57,3.1,1.72,4.19,1.15,1.09,2.54,1.64,4.17,1.64v-.96c-1.33,0-2.46-.46-3.39-1.38-.93-.92-1.4-2.08-1.4-3.48Z"/><path class="cls-17" d="M143.71,16.48c0-1.4,.47-2.56,1.4-3.48,.93-.92,2.06-1.38,3.39-1.38v-.96c-1.63,0-3.02,.55-4.17,1.64-1.15,1.09-1.72,2.49-1.72,4.19v15.95h1.1v-5.93h4.82v-.96h-4.82v-9.06Z"/><path class="cls-1" d="M143.71,16.48c0-1.4,.47-2.56,1.4-3.48,.93-.92,2.06-1.38,3.39-1.38v-.96c-1.63,0-3.02,.55-4.17,1.64-1.15,1.09-1.72,2.49-1.72,4.19v15.95h1.1v-5.93h4.82v-.96h-4.82v-9.06Z"/><path class="cls-17" d="M60.74,16.66c-2.26,0-4.2,.8-5.81,2.39-1.61,1.6-2.41,3.49-2.41,5.67s.79,4.09,2.38,5.74c1.58,1.64,3.48,2.46,5.68,2.46h.31c2.23,0,4.12-.81,5.68-2.45,1.56-1.63,2.34-3.54,2.34-5.74s-.8-4.09-2.39-5.68c-1.6-1.6-3.53-2.39-5.79-2.39Zm5.01,13.18c-1.38,1.41-3.04,2.12-4.98,2.12s-3.62-.71-5.03-2.12c-1.41-1.41-2.12-3.08-2.12-5.01s.71-3.61,2.12-5.05c1.41-1.44,3.08-2.15,5.01-2.15s3.59,.71,4.98,2.14c1.39,1.42,2.08,3.11,2.08,5.05s-.69,3.62-2.07,5.03Z"/><path class="cls-21" d="M60.74,16.66c-2.26,0-4.2,.8-5.81,2.39-1.61,1.6-2.41,3.49-2.41,5.67s.79,4.09,2.38,5.74c1.58,1.64,3.48,2.46,5.68,2.46h.31c2.23,0,4.12-.81,5.68-2.45,1.56-1.63,2.34-3.54,2.34-5.74s-.8-4.09-2.39-5.68c-1.6-1.6-3.53-2.39-5.79-2.39Zm5.01,13.18c-1.38,1.41-3.04,2.12-4.98,2.12s-3.62-.71-5.03-2.12c-1.41-1.41-2.12-3.08-2.12-5.01s.71-3.61,2.12-5.05c1.41-1.44,3.08-2.15,5.01-2.15s3.59,.71,4.98,2.14c1.39,1.42,2.08,3.11,2.08,5.05s-.69,3.62-2.07,5.03Z"/><path class="cls-17" d="M87.63,16.66c-1.4,0-2.59,.33-3.57,1-.98,.67-1.64,1.55-1.98,2.65-.41-1.08-1.07-1.96-1.96-2.64-.9-.68-1.83-1.02-2.81-1.02s-1.92,.25-2.83,.76c-.91,.51-1.59,1.1-2.05,1.79v-2.17h-1.1v15.5h1.1v-10.34c0-1.22,.46-2.29,1.38-3.2s2-1.38,3.24-1.38,2.3,.45,3.17,1.36c.87,.91,1.31,1.98,1.31,3.22v10.34h1.1v-10.34c0-1.22,.48-2.29,1.43-3.2,.95-.92,2.04-1.38,3.27-1.38s2.28,.44,3.15,1.33c.87,.88,1.31,1.99,1.31,3.32v10.27h1.1v-10.27c0-1.72-.53-3.09-1.58-4.1-1.06-1.01-2.29-1.52-3.69-1.52Z"/><path class="cls-28" d="M87.63,16.66c-1.4,0-2.59,.33-3.57,1-.98,.67-1.64,1.55-1.98,2.65-.41-1.08-1.07-1.96-1.96-2.64-.9-.68-1.83-1.02-2.81-1.02s-1.92,.25-2.83,.76c-.91,.51-1.59,1.1-2.05,1.79v-2.17h-1.1v15.5h1.1v-10.34c0-1.22,.46-2.29,1.38-3.2s2-1.38,3.24-1.38,2.3,.45,3.17,1.36c.87,.91,1.31,1.98,1.31,3.22v10.34h1.1v-10.34c0-1.22,.48-2.29,1.43-3.2,.95-.92,2.04-1.38,3.27-1.38s2.28,.44,3.15,1.33c.87,.88,1.31,1.99,1.31,3.32v10.27h1.1v-10.27c0-1.72-.53-3.09-1.58-4.1-1.06-1.01-2.29-1.52-3.69-1.52Z"/><path class="cls-17" d="M136.72,20.93c-.53-1.29-1.46-2.32-2.81-3.1-.64-.37-1.29-.65-1.96-.85,.6-.68,.9-1.48,.9-2.4,0-1.06-.36-1.96-1.09-2.69-.72-.73-1.58-1.09-2.58-1.09-.99,0-1.86,.36-2.6,1.08-.74,.72-1.11,1.58-1.11,2.58v.14c0,1.04,.38,1.92,1.14,2.64-.99,.4-1.89,1-2.72,1.82-1.61,1.6-2.41,3.51-2.41,5.74s.8,4.14,2.41,5.74c1.61,1.6,3.54,2.39,5.79,2.39,1.47,0,2.85-.38,4.13-1.14,1.29-.76,2.25-1.79,2.89-3.1v3.86h1.1v-15.5h-1.1v3.89Zm-10.38-4.86c-.28-.49-.42-1.01-.42-1.55,0-.86,.32-1.62,.96-2.26,.64-.64,1.4-.96,2.29-.96,.89,0,1.65,.32,2.29,.96,.64,.64,.96,1.39,.96,2.26,0,.54-.14,1.06-.42,1.55-.16,.29-.36,.54-.59,.77-.56-.12-1.13-.19-1.71-.19-.9,0-1.74,.13-2.54,.39-.33-.28-.6-.6-.81-.97Zm8.38,13.76c-1.38,1.41-3.04,2.12-4.98,2.12s-3.62-.71-5.03-2.12c-1.41-1.41-2.12-3.08-2.12-5.01s.71-3.61,2.12-5.05c1.41-1.44,3.08-2.15,5.01-2.15s3.59,.71,4.98,2.14c1.39,1.42,2.08,3.11,2.08,5.05s-.69,3.62-2.07,5.03Z"/><path class="cls-15" d="M136.72,20.93c-.53-1.29-1.46-2.32-2.81-3.1-.64-.37-1.29-.65-1.96-.85,.6-.68,.9-1.48,.9-2.4,0-1.06-.36-1.96-1.09-2.69-.72-.73-1.58-1.09-2.58-1.09-.99,0-1.86,.36-2.6,1.08-.74,.72-1.11,1.58-1.11,2.58v.14c0,1.04,.38,1.92,1.14,2.64-.99,.4-1.89,1-2.72,1.82-1.61,1.6-2.41,3.51-2.41,5.74s.8,4.14,2.41,5.74c1.61,1.6,3.54,2.39,5.79,2.39,1.47,0,2.85-.38,4.13-1.14,1.29-.76,2.25-1.79,2.89-3.1v3.86h1.1v-15.5h-1.1v3.89Zm-10.38-4.86c-.28-.49-.42-1.01-.42-1.55,0-.86,.32-1.62,.96-2.26,.64-.64,1.4-.96,2.29-.96,.89,0,1.65,.32,2.29,.96,.64,.64,.96,1.39,.96,2.26,0,.54-.14,1.06-.42,1.55-.16,.29-.36,.54-.59,.77-.56-.12-1.13-.19-1.71-.19-.9,0-1.74,.13-2.54,.39-.33-.28-.6-.6-.81-.97Zm8.38,13.76c-1.38,1.41-3.04,2.12-4.98,2.12s-3.62-.71-5.03-2.12c-1.41-1.41-2.12-3.08-2.12-5.01s.71-3.61,2.12-5.05c1.41-1.44,3.08-2.15,5.01-2.15s3.59,.71,4.98,2.14c1.39,1.42,2.08,3.11,2.08,5.05s-.69,3.62-2.07,5.03Z"/><path class="cls-17" d="M115.67,26.92v-8.89h4.75v-.96h-4.75v-6.27h-1.1V26.92c0,1.7,.57,3.1,1.72,4.19,1.15,1.09,2.54,1.64,4.17,1.64v-.96c-1.33,0-2.46-.46-3.39-1.38-.93-.92-1.4-2.08-1.4-3.48Z"/><path class="cls-8" d="M115.67,26.92v-8.89h4.75v-.96h-4.75v-6.27h-1.1V26.92c0,1.7,.57,3.1,1.72,4.19,1.15,1.09,2.54,1.64,4.17,1.64v-.96c-1.33,0-2.46-.46-3.39-1.38-.93-.92-1.4-2.08-1.4-3.48Z"/><path class="cls-17" d="M110.54,20.93c-.53-1.29-1.46-2.32-2.81-3.1-1.34-.78-2.75-1.17-4.22-1.17-2.25,0-4.18,.8-5.79,2.39-1.61,1.6-2.41,3.51-2.41,5.74s.8,4.14,2.41,5.74c1.61,1.6,3.54,2.39,5.79,2.39,1.47,0,2.85-.38,4.13-1.14,1.29-.76,2.25-1.79,2.89-3.1v3.86h1.1v-15.5h-1.1v3.89Zm-2,8.91c-1.38,1.41-3.04,2.12-4.98,2.12s-3.62-.71-5.03-2.12c-1.41-1.41-2.12-3.08-2.12-5.01s.71-3.61,2.12-5.05c1.41-1.44,3.08-2.15,5.01-2.15s3.59,.71,4.98,2.14c1.39,1.42,2.08,3.11,2.08,5.05s-.69,3.62-2.07,5.03Z"/><path class="cls-16" d="M110.54,20.93c-.53-1.29-1.46-2.32-2.81-3.1-1.34-.78-2.75-1.17-4.22-1.17-2.25,0-4.18,.8-5.79,2.39-1.61,1.6-2.41,3.51-2.41,5.74s.8,4.14,2.41,5.74c1.61,1.6,3.54,2.39,5.79,2.39,1.47,0,2.85-.38,4.13-1.14,1.29-.76,2.25-1.79,2.89-3.1v3.86h1.1v-15.5h-1.1v3.89Zm-2,8.91c-1.38,1.41-3.04,2.12-4.98,2.12s-3.62-.71-5.03-2.12c-1.41-1.41-2.12-3.08-2.12-5.01s.71-3.61,2.12-5.05c1.41-1.44,3.08-2.15,5.01-2.15s3.59,.71,4.98,2.14c1.39,1.42,2.08,3.11,2.08,5.05s-.69,3.62-2.07,5.03Z"/><path class="cls-17" d="M25.06,20.93c-.53-1.29-1.46-2.32-2.81-3.1-1.34-.78-2.75-1.17-4.22-1.17-2.25,0-4.18,.8-5.79,2.39-1.61,1.6-2.41,3.51-2.41,5.74s.8,4.14,2.41,5.74c1.61,1.6,3.54,2.39,5.79,2.39,1.47,0,2.85-.38,4.13-1.14,1.29-.76,2.25-1.79,2.89-3.1v3.86h1.1v-15.5h-1.1v3.89Zm-2,8.91c-1.38,1.41-3.04,2.12-4.98,2.12s-3.62-.71-5.03-2.12c-1.41-1.41-2.12-3.08-2.12-5.01s.71-3.61,2.12-5.05c1.41-1.44,3.08-2.15,5.01-2.15s3.59,.71,4.98,2.14c1.39,1.42,2.08,3.11,2.08,5.05s-.69,3.62-2.07,5.03Z"/><path class="cls-29" d="M25.06,20.93c-.53-1.29-1.46-2.32-2.81-3.1-1.34-.78-2.75-1.17-4.22-1.17-2.25,0-4.18,.8-5.79,2.39-1.61,1.6-2.41,3.51-2.41,5.74s.8,4.14,2.41,5.74c1.61,1.6,3.54,2.39,5.79,2.39,1.47,0,2.85-.38,4.13-1.14,1.29-.76,2.25-1.79,2.89-3.1v3.86h1.1v-15.5h-1.1v3.89Zm-2,8.91c-1.38,1.41-3.04,2.12-4.98,2.12s-3.62-.71-5.03-2.12c-1.41-1.41-2.12-3.08-2.12-5.01s.71-3.61,2.12-5.05c1.41-1.44,3.08-2.15,5.01-2.15s3.59,.71,4.98,2.14c1.39,1.42,2.08,3.11,2.08,5.05s-.69,3.62-2.07,5.03Z"/><path class="cls-17" d="M243.83,21.13c.64,.07,1.2,.34,1.68,.77,.08,.07,.14,.1,.2,.09,.09,0,.15-.08,.17-.1,.13-.15,1.36-1.53,3.06-3.43-1.66,1.46-2.83,2.51-2.98,2.66-.02,.02-.1,.11-.21,.12-.07,0-.14-.02-.22-.07-.26-.17-.54-.3-.85-.47,.34-.62,.91-.87,1.59-.99-.73-.26-2.19,.46-2.58,1.37,.05,.02,.1,.06,.16,.07Z"/><path class="cls-19" d="M243.83,21.13c.64,.07,1.2,.34,1.68,.77,.08,.07,.14,.1,.2,.09,.09,0,.15-.08,.17-.1,.13-.15,1.36-1.53,3.06-3.43-1.66,1.46-2.83,2.51-2.98,2.66-.02,.02-.1,.11-.21,.12-.07,0-.14-.02-.22-.07-.26-.17-.54-.3-.85-.47,.34-.62,.91-.87,1.59-.99-.73-.26-2.19,.46-2.58,1.37,.05,.02,.1,.06,.16,.07Z"/><polygon class="cls-17" points="247.99 19.66 247.55 20.57 248.51 20.25 251.39 17.21 247.99 19.66"/><polygon class="cls-10" points="247.99 19.66 247.55 20.57 248.51 20.25 251.39 17.21 247.99 19.66"/><path class="cls-17" d="M251.56,16.5c.39,.37,.73,.68,1.12,1.16,.45,.55,1.7,2.25,1.8,2.39,.04,.05,.07,.11,.16,.14-.05-.14-.1-.29-.16-.43-.4-.91-.91-1.76-1.57-2.51-.2-.23-.23-.46-.1-.7,.19-.35,.42-.68,.64-1.02,.06-.09,.14-.17,.21-.25l-.02-.03c-.29,.21-.58,.42-.87,.62-.12,.08-.25,.15-.38,.2-.28,.12-.51,.1-.77-.12-.82-.71-1.76-1.26-2.77-1.67-.06-.03-.13-.05-.19-.07-.01,0-.03,0-.06,0,.48,.33,.97,.64,1.42,.99,.27,.21,.86,.64,1.54,1.27Z"/><path class="cls-9" d="M251.56,16.5c.39,.37,.73,.68,1.12,1.16,.45,.55,1.7,2.25,1.8,2.39,.04,.05,.07,.11,.16,.14-.05-.14-.1-.29-.16-.43-.4-.91-.91-1.76-1.57-2.51-.2-.23-.23-.46-.1-.7,.19-.35,.42-.68,.64-1.02,.06-.09,.14-.17,.21-.25l-.02-.03c-.29,.21-.58,.42-.87,.62-.12,.08-.25,.15-.38,.2-.28,.12-.51,.1-.77-.12-.82-.71-1.76-1.26-2.77-1.67-.06-.03-.13-.05-.19-.07-.01,0-.03,0-.06,0,.48,.33,.97,.64,1.42,.99,.27,.21,.86,.64,1.54,1.27Z"/><path class="cls-17" d="M18.03,19.2c-1.55,0-2.88,.55-3.98,1.64-1.1,1.09-1.65,2.39-1.65,3.88s.54,2.81,1.63,3.93c1.09,1.13,2.38,1.69,3.9,1.69h.21c1.53,0,2.83-.56,3.9-1.68,1.07-1.12,1.61-2.43,1.61-3.93s-.55-2.8-1.64-3.9c-1.09-1.09-2.42-1.64-3.97-1.64Z"/><path class="cls-30" d="M18.03,19.2c-1.55,0-2.88,.55-3.98,1.64-1.1,1.09-1.65,2.39-1.65,3.88s.54,2.81,1.63,3.93c1.09,1.13,2.38,1.69,3.9,1.69h.21c1.53,0,2.83-.56,3.9-1.68,1.07-1.12,1.61-2.43,1.61-3.93s-.55-2.8-1.64-3.9c-1.09-1.09-2.42-1.64-3.97-1.64Z"/><path class="cls-17" d="M246.82,22.1c.17-.13,1.35-1.18,2.99-2.65-2.09,1.47-3.61,2.53-3.77,2.63-.02,.02-.1,.07-.12,.15-.01,.06,0,.13,.07,.21,.37,.52,.57,1.11,.57,1.76,0,.05,.03,.11,.05,.16,.95-.27,1.84-1.65,1.66-2.4-.2,.66-.51,1.2-1.17,1.46-.13-.32-.23-.62-.37-.9-.04-.09-.06-.16-.05-.23,.02-.11,.11-.18,.14-.2Z"/><path class="cls-31" d="M246.82,22.1c.17-.13,1.35-1.18,2.99-2.65-2.09,1.47-3.61,2.53-3.77,2.63-.02,.02-.1,.07-.12,.15-.01,.06,0,.13,.07,.21,.37,.52,.57,1.11,.57,1.76,0,.05,.03,.11,.05,.16,.95-.27,1.84-1.65,1.66-2.4-.2,.66-.51,1.2-1.17,1.46-.13-.32-.23-.62-.37-.9-.04-.09-.06-.16-.05-.23,.02-.11,.11-.18,.14-.2Z"/><path class="cls-17" d="M242.96,21.5c.15-.78,.18-1.56,.96-1.88-.89-2.93-.79-5.94-.98-8.93-.01,.15-.03,.31-.04,.46-.09,1.62-.15,3.25-.28,4.87-.1,1.21-.21,2.43-.72,3.59,.86,.31,.86,1.13,1.06,1.89Z"/><path class="cls-6" d="M242.96,21.5c.15-.78,.18-1.56,.96-1.88-.89-2.93-.79-5.94-.98-8.93-.01,.15-.03,.31-.04,.46-.09,1.62-.15,3.25-.28,4.87-.1,1.21-.21,2.43-.72,3.59,.86,.31,.86,1.13,1.06,1.89Z"/><path class="cls-17" d="M242.91,22.1c-1.5,0-2.71,1.22-2.71,2.71s1.22,2.71,2.71,2.71,2.71-1.22,2.71-2.71-1.22-2.71-2.71-2.71Zm0,4.9c-1.21,0-2.19-.98-2.19-2.19s.98-2.19,2.19-2.19,2.19,.98,2.19,2.19-.98,2.19-2.19,2.19Z"/><path class="cls-3" d="M242.91,22.1c-1.5,0-2.71,1.22-2.71,2.71s1.22,2.71,2.71,2.71,2.71-1.22,2.71-2.71-1.22-2.71-2.71-2.71Zm0,4.9c-1.21,0-2.19-.98-2.19-2.19s.98-2.19,2.19-2.19,2.19,.98,2.19,2.19-.98,2.19-2.19,2.19Z"/><path class="cls-17" d="M242.91,23.24c-.87,0-1.58,.71-1.58,1.58s.71,1.58,1.58,1.58,1.58-.71,1.58-1.58-.71-1.58-1.58-1.58Z"/><path class="cls-11" d="M242.91,23.24c-.87,0-1.58,.71-1.58,1.58s.71,1.58,1.58,1.58,1.58-.71,1.58-1.58-.71-1.58-1.58-1.58Z"/><path class="cls-17" d="M41.91,26.06c0,1.58-.6,2.96-1.81,4.13-1.21,1.17-2.6,1.76-4.19,1.76s-2.93-.59-4.05-1.76c-1.11-1.17-1.67-2.55-1.67-4.13v-9.03h-1.1v9.03c0,1.91,.65,3.53,1.96,4.86,1.31,1.33,2.93,2,4.86,2,2.83,0,4.82-1.17,5.99-3.51v3.14h1.1v-15.5h-1.1v9.03Z"/><path class="cls-2" d="M41.91,26.06c0,1.58-.6,2.96-1.81,4.13-1.21,1.17-2.6,1.76-4.19,1.76s-2.93-.59-4.05-1.76c-1.11-1.17-1.67-2.55-1.67-4.13v-9.03h-1.1v9.03c0,1.91,.65,3.53,1.96,4.86,1.31,1.33,2.93,2,4.86,2,2.83,0,4.82-1.17,5.99-3.51v3.14h1.1v-15.5h-1.1v9.03Z"/><path class="cls-17" d="M233.7,25.96c0,1.58-.58,2.96-1.74,4.13-1.16,1.17-2.53,1.76-4.12,1.76s-2.96-.59-4.12-1.76c-1.16-1.17-1.74-2.55-1.74-4.13v-9.03h-1.1v9.03c0,1.88,.68,3.5,2.03,4.84,1.35,1.34,2.99,2.02,4.89,2.02,2.8,0,4.77-1.12,5.89-3.38v2.62c0,1.72-.62,3.2-1.86,4.43-1.24,1.23-2.71,1.84-4.41,1.84-1.15,0-2.25-.33-3.29-.98-1.05-.65-1.89-1.53-2.53-2.64l-.07,1.72c1.45,1.91,3.41,2.86,5.89,2.86,2.07,0,3.81-.71,5.24-2.14,1.42-1.42,2.14-3.16,2.14-5.2v-15.02h-1.1v9.03Z"/><path class="cls-4" d="M233.7,25.96c0,1.58-.58,2.96-1.74,4.13-1.16,1.17-2.53,1.76-4.12,1.76s-2.96-.59-4.12-1.76c-1.16-1.17-1.74-2.55-1.74-4.13v-9.03h-1.1v9.03c0,1.88,.68,3.5,2.03,4.84,1.35,1.34,2.99,2.02,4.89,2.02,2.8,0,4.77-1.12,5.89-3.38v2.62c0,1.72-.62,3.2-1.86,4.43-1.24,1.23-2.71,1.84-4.41,1.84-1.15,0-2.25-.33-3.29-.98-1.05-.65-1.89-1.53-2.53-2.64l-.07,1.72c1.45,1.91,3.41,2.86,5.89,2.86,2.07,0,3.81-.71,5.24-2.14,1.42-1.42,2.14-3.16,2.14-5.2v-15.02h-1.1v9.03Z"/><path class="cls-17" d="M213.13,17.31c-.87,.51-1.52,1.15-1.93,1.93v-2.31h-1.1v15.5h1.1v-10.34c0-1.22,.46-2.29,1.4-3.2,.93-.92,2-1.38,3.22-1.38s2.33,.51,3.34,1.52v-1.38c-.99-.73-2.02-1.1-3.1-1.1s-2.06,.25-2.93,.76Z"/><path class="cls-27" d="M213.13,17.31c-.87,.51-1.52,1.15-1.93,1.93v-2.31h-1.1v15.5h1.1v-10.34c0-1.22,.46-2.29,1.4-3.2,.93-.92,2-1.38,3.22-1.38s2.33,.51,3.34,1.52v-1.38c-.99-.73-2.02-1.1-3.1-1.1s-2.06,.25-2.93,.76Z"/><path class="cls-17" d="M254.25,30.41c-.1,.14-1.36,1.84-1.8,2.39-.39,.48-.73,.79-1.12,1.16-.67,.63-1.27,1.07-1.54,1.27-.46,.35-.94,.66-1.42,.99,.03,0,.05,.01,.06,0,.07-.02,.13-.04,.19-.07,1.01-.41,1.95-.96,2.77-1.67,.26-.22,.49-.24,.77-.12,.13,.06,.26,.12,.38,.2,.29,.2,.58,.41,.87,.62l.02-.03c-.07-.08-.15-.16-.21-.25-.22-.34-.44-.67-.64-1.02-.13-.24-.11-.47,.1-.7,.66-.75,1.17-1.59,1.57-2.51,.06-.14,.11-.28,.16-.43-.09,.03-.12,.09-.16,.14Z"/><path class="cls-7" d="M254.25,30.41c-.1,.14-1.36,1.84-1.8,2.39-.39,.48-.73,.79-1.12,1.16-.67,.63-1.27,1.07-1.54,1.27-.46,.35-.94,.66-1.42,.99,.03,0,.05,.01,.06,0,.07-.02,.13-.04,.19-.07,1.01-.41,1.95-.96,2.77-1.67,.26-.22,.49-.24,.77-.12,.13,.06,.26,.12,.38,.2,.29,.2,.58,.41,.87,.62l.02-.03c-.07-.08-.15-.16-.21-.25-.22-.34-.44-.67-.64-1.02-.13-.24-.11-.47,.1-.7,.66-.75,1.17-1.59,1.57-2.51,.06-.14,.11-.28,.16-.43-.09,.03-.12,.09-.16,.14Z"/><path class="cls-17" d="M199.51,16.55c-2.26,0-4.2,.8-5.8,2.39-1.61,1.6-2.41,3.49-2.41,5.67s.79,4.09,2.38,5.74c.98,1.02,2.09,1.72,3.31,2.11-.78,.72-1.18,1.62-1.18,2.68v.14c0,1,.37,1.86,1.11,2.58,.74,.72,1.61,1.08,2.6,1.08,.99,0,1.85-.36,2.58-1.09,.72-.73,1.09-1.62,1.09-2.69,0-1.04-.39-1.94-1.16-2.68,1.24-.38,2.35-1.08,3.34-2.11,1.56-1.63,2.34-3.54,2.34-5.74s-.8-4.09-2.39-5.68c-1.6-1.6-3.53-2.39-5.79-2.39Zm2.81,17.11c.28,.49,.42,1.01,.42,1.55,0,.86-.32,1.62-.96,2.26-.64,.64-1.4,.96-2.29,.96-.89,0-1.65-.32-2.29-.96-.64-.64-.96-1.39-.96-2.26,0-.54,.14-1.06,.42-1.55,.23-.41,.54-.76,.92-1.05,.57,.13,1.16,.2,1.77,.2h.31c.61,0,1.2-.07,1.76-.19,.36,.29,.66,.63,.89,1.04Z"/><path class="cls-13" d="M199.51,16.55c-2.26,0-4.2,.8-5.8,2.39-1.61,1.6-2.41,3.49-2.41,5.67s.79,4.09,2.38,5.74c.98,1.02,2.09,1.72,3.31,2.11-.78,.72-1.18,1.62-1.18,2.68v.14c0,1,.37,1.86,1.11,2.58,.74,.72,1.61,1.08,2.6,1.08,.99,0,1.85-.36,2.58-1.09,.72-.73,1.09-1.62,1.09-2.69,0-1.04-.39-1.94-1.16-2.68,1.24-.38,2.35-1.08,3.34-2.11,1.56-1.63,2.34-3.54,2.34-5.74s-.8-4.09-2.39-5.68c-1.6-1.6-3.53-2.39-5.79-2.39Zm2.81,17.11c.28,.49,.42,1.01,.42,1.55,0,.86-.32,1.62-.96,2.26-.64,.64-1.4,.96-2.29,.96-.89,0-1.65-.32-2.29-.96-.64-.64-.96-1.39-.96-2.26,0-.54,.14-1.06,.42-1.55,.23-.41,.54-.76,.92-1.05,.57,.13,1.16,.2,1.77,.2h.31c.61,0,1.2-.07,1.76-.19,.36,.29,.66,.63,.89,1.04Z"/><path class="cls-17" d="M244.74,29.25c.31-.16,.6-.28,.87-.44,.09-.05,.16-.07,.23-.06,.11,.01,.19,.1,.21,.12,.14,.16,1.28,1.25,2.88,2.77-1.63-1.97-2.81-3.39-2.93-3.54-.02-.02-.07-.1-.16-.11-.06,0-.13,.02-.2,.08-.49,.41-1.06,.66-1.7,.71-.05,0-.11,.04-.16,.06,.35,.92,1.79,1.7,2.53,1.46-.68-.14-1.24-.41-1.55-1.05Z"/><path class="cls-20" d="M244.74,29.25c.31-.16,.6-.28,.87-.44,.09-.05,.16-.07,.23-.06,.11,.01,.19,.1,.21,.12,.14,.16,1.28,1.25,2.88,2.77-1.63-1.97-2.81-3.39-2.93-3.54-.02-.02-.07-.1-.16-.11-.06,0-.13,.02-.2,.08-.49,.41-1.06,.66-1.7,.71-.05,0-.11,.04-.16,.06,.35,.92,1.79,1.7,2.53,1.46-.68-.14-1.24-.41-1.55-1.05Z"/><path class="cls-17" d="M242.03,28.7c-.65-.05-1.21-.3-1.7-.71-.08-.06-.14-.09-.2-.08-.09,.01-.14,.09-.16,.11-.12,.15-1.3,1.58-2.93,3.54,1.6-1.52,2.74-2.61,2.88-2.77,.02-.02,.1-.11,.21-.12,.07,0,.14,.01,.23,.06,.27,.16,.55,.28,.87,.44-.31,.63-.88,.9-1.55,1.05,.74,.23,2.18-.54,2.53-1.46-.05-.02-.1-.06-.16-.06Z"/><path class="cls-26" d="M242.03,28.7c-.65-.05-1.21-.3-1.7-.71-.08-.06-.14-.09-.2-.08-.09,.01-.14,.09-.16,.11-.12,.15-1.3,1.58-2.93,3.54,1.6-1.52,2.74-2.61,2.88-2.77,.02-.02,.1-.11,.21-.12,.07,0,.14,.01,.23,.06,.27,.16,.55,.28,.87,.44-.31,.63-.88,.9-1.55,1.05,.74,.23,2.18-.54,2.53-1.46-.05-.02-.1-.06-.16-.06Z"/><path class="cls-17" d="M240.25,21.92c.06,0,.12-.02,.2-.09,.48-.42,1.03-.7,1.68-.77,.05,0,.1-.04,.16-.07-.38-.91-1.85-1.63-2.58-1.37,.68,.12,1.25,.37,1.59,.99-.31,.17-.59,.3-.85,.47-.08,.06-.16,.08-.22,.07-.11-.01-.19-.09-.21-.12-.15-.15-1.33-1.2-2.98-2.66,1.7,1.9,2.93,3.28,3.06,3.43,.02,.02,.08,.1,.17,.1Z"/><path class="cls-18" d="M240.25,21.92c.06,0,.12-.02,.2-.09,.48-.42,1.03-.7,1.68-.77,.05,0,.1-.04,.16-.07-.38-.91-1.85-1.63-2.58-1.37,.68,.12,1.25,.37,1.59,.99-.31,.17-.59,.3-.85,.47-.08,.06-.16,.08-.22,.07-.11-.01-.19-.09-.21-.12-.15-.15-1.33-1.2-2.98-2.66,1.7,1.9,2.93,3.28,3.06,3.43,.02,.02,.08,.1,.17,.1Z"/><polygon class="cls-17" points="248.02 30.4 251.29 33.02 248.56 29.84 247.62 29.47 248.02 30.4"/><polygon class="cls-14" points="248.02 30.4 251.29 33.02 248.56 29.84 247.62 29.47 248.02 30.4"/><path class="cls-17" d="M170.72,19.02c-1.61,1.6-2.41,3.49-2.41,5.68s.79,4.11,2.38,5.74c1.58,1.63,3.48,2.45,5.68,2.45h.31c2.37,0,4.35-.88,5.96-2.65v-1.79c-.71,1.08-1.61,1.93-2.7,2.55-1.09,.62-2.23,.93-3.43,.93-1.91,0-3.57-.71-4.98-2.12-1.41-1.41-2.12-3.09-2.12-5.05s.71-3.63,2.12-5.05c1.41-1.41,3.07-2.12,4.98-2.12,1.19,0,2.34,.31,3.43,.93,1.09,.62,1.99,1.46,2.7,2.51v-1.76c-1.65-1.77-3.65-2.65-5.99-2.65s-4.32,.8-5.93,2.39Z"/><path class="cls-32" d="M170.72,19.02c-1.61,1.6-2.41,3.49-2.41,5.68s.79,4.11,2.38,5.74c1.58,1.63,3.48,2.45,5.68,2.45h.31c2.37,0,4.35-.88,5.96-2.65v-1.79c-.71,1.08-1.61,1.93-2.7,2.55-1.09,.62-2.23,.93-3.43,.93-1.91,0-3.57-.71-4.98-2.12-1.41-1.41-2.12-3.09-2.12-5.05s.71-3.63,2.12-5.05c1.41-1.41,3.07-2.12,4.98-2.12,1.19,0,2.34,.31,3.43,.93,1.09,.62,1.99,1.46,2.7,2.51v-1.76c-1.65-1.77-3.65-2.65-5.99-2.65s-4.32,.8-5.93,2.39Z"/><path class="cls-17" d="M247.28,26.6c.65,.28,.94,.84,1.11,1.5,.2-.75-.64-2.15-1.57-2.46-.02,.05-.05,.11-.05,.16-.02,.65-.25,1.22-.63,1.73-.06,.08-.08,.15-.07,.21,.01,.09,.09,.14,.12,.16,.16,.11,1.63,1.23,3.67,2.77-1.59-1.53-2.73-2.62-2.89-2.76-.03-.02-.11-.09-.13-.2-.01-.07,0-.14,.05-.23,.15-.27,.26-.57,.4-.89Z"/><path class="cls-23" d="M247.28,26.6c.65,.28,.94,.84,1.11,1.5,.2-.75-.64-2.15-1.57-2.46-.02,.05-.05,.11-.05,.16-.02,.65-.25,1.22-.63,1.73-.06,.08-.08,.15-.07,.21,.01,.09,.09,.14,.12,.16,.16,.11,1.63,1.23,3.67,2.77-1.59-1.53-2.73-2.62-2.89-2.76-.03-.02-.11-.09-.13-.2-.01-.07,0-.14,.05-.23,.15-.27,.26-.57,.4-.89Z"/><path class="cls-17" d="M242.91,28.38c-.18,.76-.19,1.54-.97,1.85,.91,2.96,.77,6.01,.98,9.06,.09-1.58,.14-3.12,.26-4.65,.11-1.48,.19-2.97,.78-4.39-.84-.31-.86-1.11-1.05-1.87Z"/><path class="cls-5" d="M242.91,28.38c-.18,.76-.19,1.54-.97,1.85,.91,2.96,.77,6.01,.98,9.06,.09-1.58,.14-3.12,.26-4.65,.11-1.48,.19-2.97,.78-4.39-.84-.31-.86-1.11-1.05-1.87Z"/><path class="cls-17" d="M164.8,20.82c-.53-1.29-1.46-2.32-2.81-3.1-1.34-.78-2.75-1.17-4.22-1.17-2.25,0-4.18,.8-5.79,2.39-1.61,1.6-2.41,3.51-2.41,5.74s.8,4.14,2.41,5.74c1.61,1.6,3.54,2.39,5.79,2.39,1.47,0,2.85-.38,4.13-1.14,1.29-.76,2.25-1.79,2.89-3.1v3.86h1.1v-15.5h-1.1v3.89Zm-2,8.91c-1.38,1.41-3.04,2.12-4.98,2.12s-3.62-.71-5.03-2.12c-1.41-1.41-2.12-3.08-2.12-5.01s.71-3.61,2.12-5.05c1.41-1.44,3.08-2.15,5.01-2.15s3.59,.71,4.98,2.14c1.39,1.42,2.08,3.11,2.08,5.05s-.69,3.62-2.07,5.03Z"/><path class="cls-24" d="M164.8,20.82c-.53-1.29-1.46-2.32-2.81-3.1-1.34-.78-2.75-1.17-4.22-1.17-2.25,0-4.18,.8-5.79,2.39-1.61,1.6-2.41,3.51-2.41,5.74s.8,4.14,2.41,5.74c1.61,1.6,3.54,2.39,5.79,2.39,1.47,0,2.85-.38,4.13-1.14,1.29-.76,2.25-1.79,2.89-3.1v3.86h1.1v-15.5h-1.1v3.89Zm-2,8.91c-1.38,1.41-3.04,2.12-4.98,2.12s-3.62-.71-5.03-2.12c-1.41-1.41-2.12-3.08-2.12-5.01s.71-3.61,2.12-5.05c1.41-1.44,3.08-2.15,5.01-2.15s3.59,.71,4.98,2.14c1.39,1.42,2.08,3.11,2.08,5.05s-.69,3.62-2.07,5.03Z"/><path class="cls-17" d="M253.15,24.62c-1.58-.11-3.16-.2-4.66-.8-.31,.82-1.09,.86-1.79,1.04,.71,.18,1.48,.21,1.78,.97,3.03-.91,6.14-.77,9.17-.98h0c-1.48-.08-2.99-.13-4.5-.24Z"/><path class="cls-25" d="M253.15,24.62c-1.58-.11-3.16-.2-4.66-.8-.31,.82-1.09,.86-1.79,1.04,.71,.18,1.48,.21,1.78,.97,3.03-.91,6.14-.77,9.17-.98h0c-1.48-.08-2.99-.13-4.5-.24Z"/><path class="cls-17" d="M185.47,26.82v-8.89h4.75v-.96h-4.75v-6.27h-1.1V26.82c0,1.7,.57,3.1,1.72,4.19,1.15,1.09,2.54,1.64,4.17,1.64v-.96c-1.33,0-2.46-.46-3.39-1.38-.93-.92-1.4-2.08-1.4-3.48Z"/><path class="cls-12" d="M185.47,26.82v-8.89h4.75v-.96h-4.75v-6.27h-1.1V26.82c0,1.7,.57,3.1,1.72,4.19,1.15,1.09,2.54,1.64,4.17,1.64v-.96c-1.33,0-2.46-.46-3.39-1.38-.93-.92-1.4-2.08-1.4-3.48Z"/></g></g></svg>