<?xml version="1.0" encoding="UTF-8"?><svg id="Layer_2" xmlns="http://www.w3.org/2000/svg" xmlns:xlink="http://www.w3.org/1999/xlink" viewBox="0 0 191.63 76.69"><defs><style>.cls-1{fill:url(#linear-gradient-2);}.cls-2{fill:url(#linear-gradient-17);}.cls-3{fill:url(#linear-gradient-15);}.cls-4{fill:url(#linear-gradient-18);}.cls-5{fill:url(#linear-gradient-28);}.cls-6{fill:url(#linear-gradient-14);}.cls-7{fill:url(#linear-gradient-20);}.cls-8{fill:url(#linear-gradient-6);}.cls-9{fill:url(#linear-gradient-11);}.cls-10{fill:url(#linear-gradient-10);}.cls-11{fill:url(#linear-gradient-16);}.cls-12{fill:url(#linear-gradient-31);}.cls-13{fill:url(#linear-gradient-21);}.cls-14{fill:url(#linear-gradient-25);}.cls-15{fill:url(#linear-gradient-5);}.cls-16{fill:none;}.cls-17{fill:url(#linear-gradient-7);}.cls-18{fill:url(#linear-gradient-24);}.cls-19{fill:url(#linear-gradient-9);}.cls-20{fill:url(#linear-gradient-22);}.cls-21{fill:url(#linear-gradient-3);}.cls-22{fill:url(#linear-gradient);}.cls-23{fill:url(#linear-gradient-27);}.cls-24{fill:url(#linear-gradient-29);}.cls-25{fill:url(#linear-gradient-30);}.cls-26{fill:url(#linear-gradient-23);}.cls-27{fill:url(#linear-gradient-19);}.cls-28{fill:url(#linear-gradient-4);}.cls-29{fill:url(#linear-gradient-8);}.cls-30{fill:url(#linear-gradient-12);}.cls-31{fill:url(#linear-gradient-13);}.cls-32{fill:url(#linear-gradient-26);}</style><linearGradient id="linear-gradient" x1="-338.44" y1="355.92" x2="-110.77" y2="369.16" gradientTransform="translate(-177.34 414.26) rotate(-180)" gradientUnits="userSpaceOnUse"><stop offset="0" stop-color="#2761a9"/><stop offset=".25" stop-color="#652e61"/><stop offset=".5" stop-color="#54013f"/><stop offset=".75" stop-color="#e02820"/><stop offset="1" stop-color="#ff4500"/></linearGradient><linearGradient id="linear-gradient-2" x1="-340.46" y1="390.67" x2="-112.79" y2="403.9" xlink:href="#linear-gradient"/><linearGradient id="linear-gradient-3" x1="-340.2" y1="386.24" x2="-112.53" y2="399.48" xlink:href="#linear-gradient"/><linearGradient id="linear-gradient-4" x1="-338.76" y1="361.42" x2="-111.09" y2="374.66" xlink:href="#linear-gradient"/><linearGradient id="linear-gradient-5" x1="-340.43" y1="390.1" x2="-112.76" y2="403.34" xlink:href="#linear-gradient"/><linearGradient id="linear-gradient-6" x1="-340.13" y1="385.03" x2="-112.46" y2="398.27" xlink:href="#linear-gradient"/><linearGradient id="linear-gradient-7" x1="-338.54" y1="357.64" x2="-110.87" y2="370.88" xlink:href="#linear-gradient"/><linearGradient id="linear-gradient-8" x1="-340.15" y1="385.37" x2="-112.48" y2="398.61" xlink:href="#linear-gradient"/><linearGradient id="linear-gradient-9" x1="-338.68" y1="360" x2="-111.01" y2="373.24" xlink:href="#linear-gradient"/><linearGradient id="linear-gradient-10" x1="-339.23" y1="369.41" x2="-111.55" y2="382.65" xlink:href="#linear-gradient"/><linearGradient id="linear-gradient-11" x1="-339.96" y1="382.06" x2="-112.29" y2="395.3" xlink:href="#linear-gradient"/><linearGradient id="linear-gradient-12" x1="-338.65" y1="359.45" x2="-110.97" y2="372.69" xlink:href="#linear-gradient"/><linearGradient id="linear-gradient-13" x1="-338.52" y1="357.34" x2="-110.85" y2="370.58" xlink:href="#linear-gradient"/><linearGradient id="linear-gradient-14" x1="-340.1" y1="384.53" x2="-112.43" y2="397.77" xlink:href="#linear-gradient"/><linearGradient id="linear-gradient-15" x1="-338.48" y1="356.67" x2="-110.81" y2="369.91" xlink:href="#linear-gradient"/><linearGradient id="linear-gradient-16" x1="-340.61" y1="393.23" x2="-112.94" y2="406.47" xlink:href="#linear-gradient"/><linearGradient id="linear-gradient-17" x1="-340.54" y1="391.97" x2="-112.87" y2="405.21" xlink:href="#linear-gradient"/><linearGradient id="linear-gradient-18" x1="-338.54" y1="357.57" x2="-110.86" y2="370.81" xlink:href="#linear-gradient"/><linearGradient id="linear-gradient-19" x1="-339.58" y1="375.56" x2="-111.91" y2="388.8" xlink:href="#linear-gradient"/><linearGradient id="linear-gradient-20" x1="-339.58" y1="375.56" x2="-111.91" y2="388.8" xlink:href="#linear-gradient"/><linearGradient id="linear-gradient-21" x1="-340.32" y1="388.32" x2="-112.65" y2="401.56" xlink:href="#linear-gradient"/><linearGradient id="linear-gradient-22" x1="-339.92" y1="381.32" x2="-112.25" y2="394.56" xlink:href="#linear-gradient"/><linearGradient id="linear-gradient-23" x1="-339.03" y1="365.96" x2="-111.35" y2="379.2" xlink:href="#linear-gradient"/><linearGradient id="linear-gradient-24" x1="-340.2" y1="386.15" x2="-112.53" y2="399.39" xlink:href="#linear-gradient"/><linearGradient id="linear-gradient-25" x1="-340.06" y1="383.75" x2="-112.39" y2="396.99" xlink:href="#linear-gradient"/><linearGradient id="linear-gradient-26" x1="-338.87" y1="363.29" x2="-111.2" y2="376.53" xlink:href="#linear-gradient"/><linearGradient id="linear-gradient-27" x1="-338.98" y1="365.11" x2="-111.3" y2="378.35" xlink:href="#linear-gradient"/><linearGradient id="linear-gradient-28" x1="-339.62" y1="376.17" x2="-111.95" y2="389.41" xlink:href="#linear-gradient"/><linearGradient id="linear-gradient-29" x1="-339.92" y1="381.34" x2="-112.25" y2="394.58" xlink:href="#linear-gradient"/><linearGradient id="linear-gradient-30" x1="-339.98" y1="382.34" x2="-112.3" y2="395.58" xlink:href="#linear-gradient"/><linearGradient id="linear-gradient-31" x1="-338.63" y1="359.12" x2="-110.96" y2="372.36" xlink:href="#linear-gradient"/></defs><g id="Layer_1-2"><g><rect x="0" y="0" width="191.63" height="76.69" rx="38.34" ry="38.34"/><g><path class="cls-16" d="M183.53,38.42c.23-.01,.46-.03,.69-.04-.23-.01-.46-.02-.69-.03v.08Z"/><path class="cls-16" d="M155.16,67.15c.01,.18,.02,.37,.03,.55,0-.18,.02-.37,.03-.55h-.06Z"/><path class="cls-22" d="M110.73,57.76c1.54-1.66,2.32-3.62,2.32-5.85s-.79-4.17-2.37-5.8c-1.58-1.63-3.49-2.44-5.72-2.44s-4.15,.81-5.74,2.44c-1.59,1.63-2.38,3.56-2.38,5.78s.78,4.18,2.35,5.85c.97,1.04,2.07,1.76,3.28,2.15-.78,.74-1.16,1.65-1.16,2.73v.14c0,1.02,.37,1.9,1.1,2.63,.73,.73,1.59,1.1,2.57,1.1,.98,0,1.83-.37,2.55-1.12,.72-.74,1.07-1.66,1.07-2.74,0-1.07-.39-1.98-1.15-2.73,1.23-.39,2.33-1.1,3.3-2.15Zm-3,3.36c.28,.5,.42,1.03,.42,1.59,0,.88-.32,1.65-.95,2.3-.63,.65-1.39,.98-2.26,.98-.88,0-1.63-.33-2.26-.98-.63-.65-.95-1.42-.95-2.3,0-.55,.14-1.08,.42-1.59,.23-.42,.53-.77,.9-1.07,.56,.13,1.14,.2,1.75,.2h.31c.61,0,1.19-.07,1.74-.2,.36,.3,.66,.65,.88,1.06Z"/><path class="cls-1" d="M131.47,33.03c1.45,0,2.82-.39,4.09-1.16,1.27-.77,2.23-1.83,2.86-3.16v3.94h1.09v-15.82h-1.09v3.97c-.52-1.31-1.45-2.37-2.78-3.16-.63-.38-1.28-.66-1.93-.86,.59-.7,.89-1.51,.89-2.45,0-1.08-.36-2-1.07-2.74-.72-.74-1.56-1.12-2.55-1.12-.98,0-1.84,.37-2.57,1.1-.73,.73-1.1,1.61-1.1,2.63v.14c0,1.06,.38,1.96,1.12,2.69-.98,.41-1.87,1.02-2.68,1.86-1.59,1.63-2.38,3.58-2.38,5.85s.79,4.22,2.38,5.85c1.59,1.63,3.5,2.44,5.72,2.44Zm-3.31-17.19c-.28-.5-.42-1.03-.42-1.59,0-.88,.32-1.65,.95-2.3,.63-.65,1.39-.98,2.26-.98,.87,0,1.63,.33,2.26,.98,.63,.65,.95,1.42,.95,2.3,0,.55-.14,1.08-.42,1.59-.16,.29-.36,.55-.59,.79-.55-.12-1.12-.19-1.69-.19-.89,0-1.72,.14-2.51,.39-.33-.28-.59-.61-.8-.99Zm-1.61,3.78c1.4-1.46,3.05-2.2,4.96-2.2s3.55,.73,4.92,2.18c1.37,1.45,2.06,3.17,2.06,5.15s-.68,3.69-2.04,5.13c-1.36,1.44-3,2.16-4.92,2.16s-3.58-.72-4.97-2.16c-1.4-1.44-2.09-3.15-2.09-5.12s.7-3.69,2.09-5.15Z"/><path class="cls-21" d="M113.63,16.82h-1.09v3.97c-.52-1.31-1.45-2.37-2.78-3.16-1.33-.8-2.72-1.2-4.17-1.2-2.23,0-4.13,.81-5.72,2.44-1.59,1.63-2.38,3.58-2.38,5.85s.79,4.22,2.38,5.85c1.59,1.63,3.5,2.44,5.72,2.44,1.45,0,2.82-.39,4.09-1.16,1.27-.77,2.23-1.83,2.86-3.16v3.94h1.09v-15.82Zm-3.07,13.06c-1.36,1.44-3,2.16-4.92,2.16s-3.58-.72-4.97-2.16c-1.4-1.44-2.09-3.15-2.09-5.12s.7-3.69,2.09-5.15c1.4-1.46,3.05-2.2,4.96-2.2s3.55,.73,4.92,2.18c1.37,1.45,2.06,3.17,2.06,5.15s-.68,3.69-2.04,5.13Z"/><path class="cls-28" d="M95.82,60.08v-.98c-1.32,0-2.44-.47-3.35-1.41-.92-.94-1.38-2.12-1.38-3.55v-9.07h4.7v-.98h-4.7v-6.4h-1.09v16.45c0,1.73,.57,3.16,1.7,4.27,1.13,1.11,2.51,1.67,4.12,1.67Z"/><path class="cls-15" d="M116.52,10.46V26.91c0,1.73,.57,3.16,1.7,4.27,1.14,1.11,2.51,1.67,4.12,1.67v-.98c-1.32,0-2.44-.47-3.35-1.41-.92-.94-1.38-2.12-1.38-3.55v-9.07h4.7v-.98h-4.7v-6.4h-1.09Z"/><path class="cls-8" d="M92.72,18.77c.86,.9,1.29,2.03,1.29,3.39v10.48h1.09v-10.48c0-1.76-.52-3.15-1.57-4.18-1.04-1.03-2.26-1.55-3.64-1.55s-2.56,.34-3.52,1.02c-.97,.68-1.62,1.58-1.96,2.71-.41-1.1-1.06-2-1.94-2.69-.89-.69-1.81-1.04-2.78-1.04s-1.9,.26-2.79,.77c-.9,.52-1.57,1.13-2.03,1.83v-2.21h-1.09v15.82h1.09v-10.55c0-1.24,.45-2.33,1.36-3.27,.91-.94,1.98-1.41,3.2-1.41s2.27,.46,3.13,1.39c.86,.93,1.29,2.02,1.29,3.29v10.55h1.09v-10.55c0-1.24,.47-2.33,1.41-3.27,.94-.94,2.02-1.41,3.24-1.41s2.25,.45,3.12,1.35Z"/><path class="cls-17" d="M82.23,44.72c1.18,0,2.31,.32,3.39,.95,1.08,.63,1.97,1.49,2.67,2.57v-1.79c-1.63-1.8-3.61-2.71-5.93-2.71s-4.27,.81-5.86,2.44c-1.59,1.63-2.38,3.56-2.38,5.8s.78,4.19,2.35,5.85c1.57,1.66,3.44,2.5,5.62,2.5h.31c2.34,0,4.3-.9,5.89-2.71v-1.83c-.7,1.1-1.6,1.97-2.67,2.6-1.08,.63-2.21,.95-3.39,.95-1.88,0-3.52-.72-4.92-2.16-1.4-1.44-2.09-3.16-2.09-5.15s.7-3.71,2.09-5.15c1.4-1.44,3.04-2.16,4.92-2.16Z"/><path class="cls-29" d="M156.67,30.66c.1,.05,.2,.12,.31,.13,1.27,.15,2.36,.7,3.3,1.56,.15,.14,.28,.19,.39,.18,.17-.01,.29-.16,.33-.21,.25-.3,2.67-3.11,6.02-6.98-3.26,2.97-5.58,5.09-5.88,5.4-.05,.05-.2,.22-.42,.24-.13,.01-.27-.03-.44-.15-.51-.34-1.07-.62-1.67-.96,.66-1.26,1.79-1.77,3.13-2.01-1.43-.53-4.32,.94-5.08,2.78Z"/><path class="cls-19" d="M115.43,44.05v15.82h1.09v-10.55c0-1.24,.46-2.33,1.38-3.27,.92-.94,1.98-1.41,3.18-1.41s2.3,.52,3.3,1.55v-1.41c-.98-.75-2-1.13-3.06-1.13s-2.03,.26-2.89,.77c-.86,.52-1.5,1.17-1.91,1.97v-2.36h-1.09Z"/><path class="cls-10" d="M163.77,41.91c1.27,.58,1.85,1.7,2.19,3.06,.39-1.52-1.25-4.37-3.1-5-.04,.11-.1,.22-.1,.33-.04,1.32-.48,2.49-1.24,3.52-.12,.16-.17,.3-.15,.42,.03,.18,.18,.29,.23,.32,.31,.23,3.21,2.5,7.22,5.63-3.13-3.11-5.37-5.33-5.69-5.61-.05-.04-.22-.19-.26-.41-.02-.13,.01-.28,.11-.46,.29-.56,.51-1.15,.79-1.8Z"/><path class="cls-9" d="M162.88,32.77c.34-.27,2.65-2.4,5.89-5.39-4.12,2.98-7.1,5.14-7.42,5.35-.05,.03-.2,.14-.24,.31-.02,.12,.02,.26,.13,.43,.72,1.07,1.12,2.25,1.11,3.57,0,.11,.06,.22,.09,.33,1.86-.56,3.61-3.34,3.27-4.88-.39,1.35-1.01,2.44-2.3,2.97-.26-.66-.46-1.26-.73-1.83-.09-.18-.12-.33-.09-.47,.05-.23,.23-.36,.28-.4Z"/><path class="cls-30" d="M177.49,49.66c-.21,.28-2.67,3.73-3.55,4.85-.77,.98-1.43,1.62-2.21,2.37-1.32,1.28-2.49,2.17-3.02,2.59-.9,.71-1.86,1.34-2.81,2.02,.06,0,.09,.02,.12,.01,.13-.04,.26-.09,.38-.14,1.99-.84,3.83-1.95,5.45-3.4,.5-.45,.96-.49,1.51-.24,.26,.12,.52,.25,.75,.41,.58,.41,1.14,.84,1.71,1.26l.03-.06c-.14-.17-.29-.33-.41-.52-.43-.68-.88-1.35-1.25-2.06-.26-.48-.21-.96,.19-1.43,1.3-1.52,2.3-3.24,3.09-5.09,.12-.28,.22-.58,.32-.87-.17,.07-.24,.18-.32,.29Z"/><path class="cls-31" d="M136.92,64c-1.23,1.25-2.68,1.88-4.36,1.88-1.14,0-2.22-.33-3.25-1-1.03-.67-1.87-1.56-2.5-2.69l-.07,1.76c1.43,1.95,3.37,2.92,5.82,2.92,2.04,0,3.77-.73,5.18-2.18,1.41-1.45,2.11-3.22,2.11-5.31v-15.33h-1.09v9.21c0,1.62-.57,3.02-1.72,4.22-1.15,1.2-2.5,1.79-4.07,1.79s-2.92-.6-4.07-1.79c-1.15-1.2-1.72-2.6-1.72-4.22v-9.21h-1.09v9.21c0,1.92,.67,3.57,2.01,4.94,1.34,1.37,2.95,2.06,4.84,2.06,2.77,0,4.71-1.15,5.82-3.45v2.67c0,1.76-.61,3.26-1.84,4.52Z"/><path class="cls-6" d="M149.88,30.85c-.22-.02-.37-.19-.42-.24-.3-.31-2.62-2.43-5.88-5.4,3.35,3.87,5.78,6.67,6.02,6.98,.04,.05,.15,.19,.33,.21,.12,.01,.25-.05,.39-.18,.94-.86,2.03-1.42,3.3-1.56,.11-.01,.21-.09,.31-.13-.75-1.85-3.64-3.31-5.08-2.78,1.34,.24,2.47,.75,3.13,2.01-.6,.34-1.16,.62-1.67,.96-.17,.11-.31,.16-.44,.15Z"/><path class="cls-3" d="M71.74,59.87v-15.82h-1.09v3.97c-.52-1.31-1.45-2.37-2.78-3.16-1.33-.8-2.72-1.2-4.17-1.2-2.23,0-4.13,.81-5.72,2.44-1.59,1.63-2.38,3.58-2.38,5.85s.79,4.22,2.38,5.85c1.59,1.63,3.5,2.44,5.72,2.44,1.45,0,2.82-.39,4.09-1.16,1.27-.77,2.23-1.83,2.86-3.16v3.94h1.09Zm-3.07-2.76c-1.36,1.44-3,2.16-4.92,2.16s-3.58-.72-4.97-2.16c-1.4-1.44-2.09-3.15-2.09-5.12s.7-3.69,2.09-5.15c1.4-1.46,3.05-2.2,4.96-2.2s3.55,.73,4.92,2.18c1.37,1.45,2.06,3.17,2.06,5.15s-.68,3.69-2.04,5.13Z"/><path class="cls-11" d="M155.28,31.55c.29-1.59,.36-3.16,1.89-3.82-1.75-5.95-1.55-12.07-1.93-18.15-.03,.31-.06,.62-.08,.93-.18,3.3-.3,6.61-.55,9.9-.19,2.46-.42,4.94-1.41,7.29,1.7,.63,1.69,2.31,2.09,3.84Z"/><path class="cls-2" d="M174.41,23.75c.88,1.12,3.35,4.57,3.55,4.85,.08,.11,.15,.22,.32,.29-.11-.29-.2-.58-.32-.87-.79-1.85-1.79-3.58-3.09-5.09-.4-.47-.45-.94-.19-1.43,.38-.71,.82-1.38,1.25-2.06,.12-.19,.27-.35,.41-.52l-.03-.06c-.57,.42-1.13,.85-1.71,1.26-.23,.16-.49,.3-.75,.41-.55,.25-1.01,.21-1.51-.24-1.62-1.45-3.46-2.57-5.45-3.4-.12-.05-.25-.1-.38-.14-.03,0-.06,0-.12,.01,.95,.68,1.91,1.31,2.81,2.02,.53,.42,1.7,1.31,3.02,2.59,.78,.75,1.44,1.39,2.21,2.37Z"/><path class="cls-4" d="M155.7,58.25c.22-3.01,.38-6.04,1.54-8.92-1.66-.64-1.7-2.26-2.07-3.8-.36,1.54-.37,3.13-1.9,3.77,1.73,5.83,1.54,11.84,1.89,17.85h.06c.15-3.01,.27-5.96,.48-8.91Z"/><ellipse class="cls-27" cx="155.17" cy="38.29" rx="3.1" ry="3.2"/><path class="cls-7" d="M160.51,38.29c0-3.05-2.39-5.52-5.34-5.52s-5.34,2.47-5.34,5.52,2.39,5.52,5.34,5.52,5.34-2.47,5.34-5.52Zm-9.65,0c0-2.46,1.93-4.45,4.31-4.45s4.31,1.99,4.31,4.45-1.93,4.45-4.31,4.45-4.31-1.99-4.31-4.45Z"/><polygon class="cls-13" points="165.18 27.82 164.32 29.66 166.2 29.02 171.86 22.82 165.18 27.82"/><path class="cls-20" d="M21.09,19.03c-1.53,0-2.84,.56-3.93,1.67-1.09,1.12-1.63,2.44-1.63,3.96s.54,2.86,1.61,4.01c1.07,1.15,2.36,1.72,3.85,1.72h.21c1.51,0,2.79-.57,3.85-1.71,1.06-1.14,1.59-2.48,1.59-4.01s-.54-2.86-1.62-3.98c-1.08-1.12-2.39-1.67-3.92-1.67Z"/><path class="cls-26" d="M161.83,49.42c-1.33-.29-2.44-.84-3.06-2.13,.62-.32,1.18-.57,1.71-.89,.17-.11,.31-.15,.44-.13,.22,.03,.37,.2,.41,.25,.28,.32,2.53,2.53,5.68,5.63-3.21-4-5.53-6.89-5.77-7.2-.04-.05-.15-.2-.32-.22-.12-.01-.25,.04-.4,.17-.97,.83-2.08,1.34-3.35,1.43-.11,0-.21,.08-.31,.12,.69,1.87,3.52,3.45,4.97,2.97Z"/><path class="cls-18" d="M48.34,10.46V26.91c0,1.73,.57,3.16,1.7,4.27,1.14,1.11,2.51,1.67,4.12,1.67v-.98c-1.32,0-2.44-.47-3.35-1.41-.92-.94-1.38-2.12-1.38-3.55v-9.07h4.7v-.98h-4.7v-6.4h-1.09Z"/><path class="cls-14" d="M63.46,33.03c2.2,0,4.08-.83,5.62-2.5,1.54-1.66,2.32-3.62,2.32-5.85s-.79-4.17-2.37-5.8c-1.58-1.63-3.49-2.44-5.72-2.44s-4.15,.81-5.74,2.44c-1.59,1.63-2.38,3.56-2.38,5.78s.78,4.18,2.35,5.85c1.57,1.68,3.44,2.51,5.62,2.51h.31Zm-7.19-8.26c0-1.97,.7-3.69,2.09-5.15,1.4-1.46,3.05-2.2,4.96-2.2s3.55,.73,4.92,2.18c1.37,1.45,2.06,3.17,2.06,5.15s-.68,3.69-2.04,5.13c-1.36,1.44-3,2.16-4.92,2.16s-3.58-.72-4.97-2.16c-1.4-1.44-2.09-3.15-2.09-5.12Z"/><polygon class="cls-32" points="164.45 47.75 165.23 49.64 171.67 54.96 166.3 48.49 164.45 47.75"/><path class="cls-23" d="M153.44,46.18c-1.27-.1-2.38-.61-3.35-1.43-.15-.13-.28-.18-.4-.17-.17,.02-.28,.17-.32,.22-.24,.31-2.56,3.21-5.77,7.2,3.15-3.09,5.39-5.3,5.68-5.63,.04-.05,.19-.22,.41-.25,.13-.02,.27,.02,.44,.13,.53,.32,1.09,.58,1.71,.89-.61,1.29-1.73,1.84-3.06,2.13,1.45,.47,4.28-1.1,4.97-2.97-.1-.04-.21-.11-.31-.12Z"/><path class="cls-5" d="M175.33,37.9c-3.1-.22-6.22-.42-9.18-1.62-.61,1.67-2.14,1.74-3.52,2.11,1.4,.36,2.91,.42,3.5,1.97,5.74-1.78,11.63-1.58,17.4-1.94v-.08c-2.7-.14-5.45-.24-8.2-.44Z"/><path class="cls-24" d="M28.04,20.79c-.52-1.31-1.45-2.37-2.78-3.16-1.33-.8-2.72-1.2-4.17-1.2-2.23,0-4.13,.81-5.72,2.44-1.59,1.63-2.38,3.58-2.38,5.85s.79,4.22,2.38,5.85c1.59,1.63,3.5,2.44,5.72,2.44,1.45,0,2.82-.39,4.09-1.16,1.27-.77,2.23-1.83,2.86-3.16v3.94h1.09v-15.82h-1.09v3.97Zm-1.98,9.09c-1.36,1.44-3,2.16-4.92,2.16s-3.58-.72-4.97-2.16c-1.4-1.44-2.09-3.15-2.09-5.12s.7-3.69,2.09-5.15c1.4-1.46,3.05-2.2,4.96-2.2s3.55,.73,4.92,2.18c1.37,1.45,2.06,3.17,2.06,5.15s-.68,3.69-2.04,5.13Z"/><path class="cls-25" d="M38.77,33.03c2.79,0,4.77-1.2,5.93-3.59v3.2h1.09v-15.82h-1.09v9.21c0,1.62-.6,3.02-1.79,4.22-1.19,1.2-2.57,1.79-4.14,1.79s-2.9-.6-4-1.79c-1.1-1.2-1.65-2.6-1.65-4.22v-9.21h-1.09v9.21c0,1.95,.65,3.6,1.94,4.96,1.29,1.36,2.89,2.04,4.8,2.04Z"/><path class="cls-12" d="M49.81,53.83h4.77v-.98h-4.77v-9.25c0-1.43,.46-2.61,1.38-3.55,.92-.94,2.04-1.41,3.35-1.41v-.98c-1.61,0-2.99,.56-4.12,1.67-1.14,1.11-1.7,2.54-1.7,4.27v16.28h1.09v-6.05Z"/></g></g></g></svg>