<?xml version="1.0" encoding="UTF-8"?><svg id="Layer_2" xmlns="http://www.w3.org/2000/svg" xmlns:xlink="http://www.w3.org/1999/xlink" viewBox="0 0 89.01 89.01"><defs><style>.cls-1{fill:url(#linear-gradient-2);}.cls-2{fill:url(#linear-gradient-17);}.cls-3{fill:url(#linear-gradient-15);}.cls-4{fill:url(#linear-gradient-18);}.cls-5{fill:url(#linear-gradient-14);}.cls-6{fill:url(#linear-gradient-20);}.cls-7{fill:url(#linear-gradient-6);}.cls-8{fill:url(#linear-gradient-11);}.cls-9{fill:url(#linear-gradient-10);}.cls-10{fill:url(#linear-gradient-16);}.cls-11{fill:url(#linear-gradient-21);}.cls-12{fill:url(#linear-gradient-5);}.cls-13{fill:url(#linear-gradient-7);}.cls-14{fill:#ccc;}.cls-15{fill:url(#linear-gradient-9);}.cls-16{fill:url(#linear-gradient-22);}.cls-17{fill:url(#linear-gradient-3);}.cls-18{fill:url(#linear-gradient);}.cls-19{fill:url(#linear-gradient-19);}.cls-20{fill:url(#linear-gradient-4);}.cls-21{fill:url(#linear-gradient-8);}.cls-22{fill:url(#linear-gradient-12);}.cls-23{fill:url(#linear-gradient-13);}</style><linearGradient id="linear-gradient" x1="12.29" y1="44.45" x2="77.55" y2="44.45" gradientTransform="matrix(1, 0, 0, 1, 0, 0)" gradientUnits="userSpaceOnUse"><stop offset="0" stop-color="#2761a9"/><stop offset=".16" stop-color="#295ba2"/><stop offset=".39" stop-color="#314a90"/><stop offset=".65" stop-color="#3e2f72"/><stop offset=".94" stop-color="#4f0948"/><stop offset="1" stop-color="#54013f"/></linearGradient><linearGradient id="linear-gradient-2" x1="12.29" y1="44.45" x2="77.55" y2="44.45" xlink:href="#linear-gradient"/><linearGradient id="linear-gradient-3" x1="12.29" y1="34.01" x2="77.55" y2="34.01" xlink:href="#linear-gradient"/><linearGradient id="linear-gradient-4" x1="12.29" y1="24.9" x2="77.55" y2="24.9" xlink:href="#linear-gradient"/><linearGradient id="linear-gradient-5" x1="12.29" y1="51.81" x2="77.55" y2="51.81" xlink:href="#linear-gradient"/><linearGradient id="linear-gradient-6" x1="12.29" y1="34.08" x2="77.55" y2="34.08" xlink:href="#linear-gradient"/><linearGradient id="linear-gradient-7" x1="12.29" y1="25.86" x2="77.55" y2="25.86" xlink:href="#linear-gradient"/><linearGradient id="linear-gradient-8" x1="12.29" y1="37.33" x2="77.55" y2="37.33" xlink:href="#linear-gradient"/><linearGradient id="linear-gradient-9" x1="12.29" y1="30.52" x2="77.55" y2="30.52" xlink:href="#linear-gradient"/><linearGradient id="linear-gradient-10" x1="12.29" y1="58.49" x2="77.55" y2="58.49" xlink:href="#linear-gradient"/><linearGradient id="linear-gradient-11" x1="12.29" y1="51.71" x2="77.55" y2="51.71" xlink:href="#linear-gradient"/><linearGradient id="linear-gradient-12" x1="12.29" y1="58.46" x2="77.55" y2="58.46" xlink:href="#linear-gradient"/><linearGradient id="linear-gradient-13" x1="12.29" y1="64.29" x2="77.55" y2="64.29" xlink:href="#linear-gradient"/><linearGradient id="linear-gradient-14" x1="12.29" y1="55.06" x2="77.55" y2="55.06" xlink:href="#linear-gradient"/><linearGradient id="linear-gradient-15" x1="12.29" y1="44.46" x2="77.55" y2="44.46" xlink:href="#linear-gradient"/><linearGradient id="linear-gradient-16" x1="12.29" y1="55.24" x2="77.55" y2="55.24" xlink:href="#linear-gradient"/><linearGradient id="linear-gradient-17" x1="12.29" y1="63.1" x2="77.55" y2="63.1" xlink:href="#linear-gradient"/><linearGradient id="linear-gradient-18" x1="12.29" y1="37.54" x2="77.55" y2="37.54" xlink:href="#linear-gradient"/><linearGradient id="linear-gradient-19" x1="12.29" y1="26.85" x2="77.55" y2="26.85" xlink:href="#linear-gradient"/><linearGradient id="linear-gradient-20" x1="12.29" y1="30.92" x2="77.55" y2="30.92" xlink:href="#linear-gradient"/><linearGradient id="linear-gradient-21" y1="62.59" x2="77.55" y2="62.59" xlink:href="#linear-gradient"/><linearGradient id="linear-gradient-22" x1="12.29" y1="44.54" x2="77.55" y2="44.54" xlink:href="#linear-gradient"/></defs><g id="Layer_1-2"><g><path class="cls-14" d="M44.59,39.77c-2.59,0-4.68,2.1-4.68,4.68s2.1,4.68,4.68,4.68,4.68-2.1,4.68-4.68-2.1-4.68-4.68-4.68Zm0,8.06c-1.86,0-3.37-1.51-3.37-3.37s1.51-3.37,3.37-3.37,3.37,1.51,3.37,3.37-1.51,3.37-3.37,3.37Z"/><path class="cls-14" d="M44.51,0h0C19.93,0,0,19.93,0,44.51H0c0,24.58,19.93,44.51,44.51,44.51h0c24.58,0,44.51-19.93,44.51-44.51h0C89.01,19.93,69.09,0,44.51,0Zm10.93,19.82c1.96,.83,3.79,1.89,5.41,3.29,.5,.43,1,.47,1.51,.19,.74-.42,1.44-.91,2.15-1.39,.19-.13,.36-.3,.54-.45l.06,.04c-.44,.62-.88,1.24-1.3,1.88-.17,.26-.3,.54-.43,.83-.25,.6-.2,1.1,.28,1.64,1.55,1.74,2.75,3.72,3.66,5.88,.06,.13,.1,.27,.15,.41,0,.03,0,.07-.01,.13-.73-1.02-1.4-2.06-2.17-3.02-.45-.57-1.41-1.83-2.77-3.25-.8-.83-1.48-1.54-2.52-2.36-1.19-.94-4.86-3.57-5.16-3.79-.11-.08-.24-.16-.31-.34,.31,.11,.62,.21,.92,.34Zm-2.71,19.24c.37,.55,.67,1.15,1.03,1.8,1.32-.74,1.84-1.97,2.07-3.43,.58,1.55-.92,4.71-2.85,5.56-.05-.11-.13-.22-.15-.33-.17-1.38-.77-2.56-1.69-3.56-.15-.16-.21-.3-.2-.43,.01-.19,.17-.32,.21-.36,.31-.27,3.23-2.95,7.25-6.65-3.08,3.59-5.28,6.14-5.6,6.46-.05,.05-.22,.22-.24,.46-.01,.14,.04,.3,.16,.48Zm.16,11.89c.33,.32,2.56,2.84,5.69,6.39-4.08-3.64-7.03-6.28-7.35-6.55-.05-.04-.2-.17-.22-.36-.01-.13,.05-.27,.19-.43,.91-1.02,1.49-2.21,1.64-3.59,.01-.12,.09-.22,.14-.33,1.94,.82,3.48,3.96,2.93,5.52-.25-1.46-.79-2.68-2.12-3.4-.36,.66-.65,1.26-1.01,1.82-.12,.18-.17,.33-.15,.48,.02,.24,.2,.41,.25,.46Zm8.36,11.64l-6.52-6.15-.68-2.05,1.94,.94,5.26,7.26Zm-5.39-28.89l-1.93,.97,.66-2.06,6.43-6.24-5.16,7.33Zm-4.93-.51c-1.41,.44-2.56,1.13-3.09,2.55,.7,.27,1.34,.48,1.94,.76,.2,.09,.35,.12,.49,.09,.24-.05,.38-.25,.42-.31,.28-.37,2.48-2.92,5.58-6.48-3.07,4.52-5.3,7.79-5.52,8.14-.03,.05-.14,.22-.32,.26-.13,.03-.27-.01-.45-.14-1.13-.77-2.39-1.19-3.77-1.16-.12,0-.23-.06-.35-.1,.56-2.03,3.47-3.97,5.08-3.63Zm-.52,11.26c0,3.21-2.6,5.81-5.81,5.81s-5.81-2.6-5.81-5.81,2.6-5.81,5.81-5.81,5.81,2.6,5.81,5.81Zm-5.95-31.29c.2,3.17,.36,6.42,.64,9.66,.28,3.37,.53,6.76,1.84,9.95-1.75,.69-1.8,2.35-2.17,3.86-.4-1.51-.49-3.16-2.12-3.78,1.86-6.52,1.46-13.18,1.82-19.69Zm-1.35,23.23c-.11,.04-.23,.11-.34,.12-1.38,.06-2.61,.56-3.69,1.4-.17,.13-.31,.18-.44,.17-.19-.03-.3-.19-.34-.24-.25-.34-2.68-3.46-6.04-7.77,3.32,3.36,5.69,5.75,5.99,6.1,.05,.05,.2,.24,.44,.28,.14,.02,.3-.02,.49-.12,.58-.32,1.2-.57,1.88-.89-.63-1.37-1.82-1.99-3.25-2.34,1.59-.45,4.62,1.3,5.31,3.29Zm-12.72,20.93c3.26-3.42,5.58-5.86,5.92-6.17,.05-.05,.23-.21,.27-.45,.02-.14-.03-.3-.14-.48-.34-.57-.61-1.19-.94-1.86-1.35,.67-1.93,1.87-2.24,3.32-.5-1.58,1.16-4.66,3.13-5.4,.04,.11,.12,.22,.13,.34,.1,1.38,.64,2.59,1.51,3.65,.14,.17,.19,.31,.18,.44-.02,.19-.18,.31-.23,.35-.33,.26-3.38,2.78-7.58,6.27Zm4.63-2.79l-.78,2.01-6.81,5.83,5.6-6.99,1.99-.85Zm1.22-16.39c-.35-.3-2.71-2.71-6.01-6.09,4.26,3.43,7.34,5.91,7.67,6.16,.05,.04,.21,.16,.24,.34,.02,.13-.04,.27-.17,.44-.86,1.07-1.38,2.28-1.46,3.67,0,.12-.08,.23-.12,.34-1.98-.72-3.68-3.78-3.21-5.36,.33,1.44,.92,2.64,2.29,3.29,.33-.67,.58-1.29,.92-1.87,.11-.19,.15-.34,.13-.48-.03-.24-.22-.4-.27-.44Zm-9.04-11.1l6.89,5.73,.81,2-2-.82-5.7-6.92Zm-6.66,5.81c.85-2.18,2-4.19,3.5-5.98,.47-.55,.5-1.05,.23-1.65-.13-.28-.27-.56-.45-.81-.44-.62-.9-1.23-1.35-1.84l.06-.04c.18,.15,.35,.32,.55,.44,.72,.46,1.44,.93,2.19,1.33,.51,.27,1.01,.21,1.5-.23,1.58-1.44,3.38-2.55,5.32-3.43,.3-.14,.6-.24,.91-.36-.07,.19-.19,.26-.3,.35-.29,.23-3.89,2.96-5.05,3.93-1.02,.85-1.68,1.58-2.46,2.43-1.33,1.46-2.24,2.74-2.68,3.32-.74,.98-1.39,2.04-2.09,3.08,0-.06-.03-.1-.02-.13,.04-.14,.09-.28,.14-.42Zm12.85,9.52c.67,1.67,2.35,1.68,3.97,2.07-1.61,.4-3.33,.45-4,2.25-3.02-1.27-6.22-1.43-9.39-1.67-3.29-.25-6.59-.37-9.96-.56,6.52-.43,13.05-.15,19.38-2.09Zm-.98,26.32c-1.95-.86-3.76-1.95-5.36-3.36-.49-.44-.99-.49-1.5-.21-.75,.41-1.46,.89-2.17,1.36-.2,.13-.36,.3-.54,.45l-.06-.04c.44-.62,.9-1.23,1.33-1.86,.17-.25,.31-.54,.44-.82,.26-.6,.22-1.1-.26-1.64-1.53-1.76-2.7-3.76-3.58-5.93-.06-.14-.1-.27-.15-.41,0-.03,0-.07,.02-.13,.71,1.03,1.38,2.07,2.13,3.05,.45,.58,1.38,1.85,2.73,3.29,.79,.84,1.46,1.56,2.49,2.4,1.18,.96,4.81,3.64,5.11,3.86,.11,.09,.24,.16,.31,.35-.3-.12-.61-.22-.91-.35Zm5.54-12.53c1.43-.37,2.61-1,3.22-2.38-.68-.31-1.31-.54-1.89-.86-.19-.1-.35-.14-.49-.12-.24,.04-.39,.23-.44,.28-.29,.35-2.63,2.78-5.91,6.19,3.3-4.36,5.69-7.51,5.93-7.85,.04-.05,.15-.22,.34-.25,.13-.02,.27,.03,.44,.16,1.09,.82,2.32,1.31,3.71,1.35,.12,0,.23,.07,.34,.11-.66,2-3.66,3.79-5.26,3.37Zm7.44,10.18c-.23,3.24-.34,6.5-.5,9.67-.45-6.51-.14-13.18-2.09-19.67,1.63-.64,1.69-2.29,2.07-3.81,.39,1.5,.47,3.16,2.23,3.83-1.26,3.21-1.47,6.6-1.7,9.98Zm.56-14c.12-.03,.23-.1,.35-.1,1.39,0,2.63-.43,3.76-1.21,.18-.12,.32-.17,.45-.14,.18,.04,.29,.21,.33,.26,.23,.35,2.5,3.59,5.64,8.07-3.15-3.52-5.39-6.04-5.67-6.4-.04-.06-.19-.25-.42-.3-.14-.03-.3,0-.49,.1-.6,.29-1.23,.51-1.93,.79,.56,1.4,1.71,2.08,3.13,2.5-1.61,.37-4.55-1.53-5.13-3.56Zm21.55,4.81c-.88,2.16-2.05,4.16-3.58,5.93-.47,.55-.52,1.05-.26,1.64,.12,.28,.26,.57,.44,.82,.43,.63,.88,1.24,1.33,1.86l-.06,.04c-.18-.15-.35-.32-.54-.45-.72-.47-1.42-.95-2.17-1.36-.51-.28-1.01-.23-1.5,.21-1.6,1.41-3.41,2.5-5.36,3.36-.3,.13-.61,.24-.91,.35,.07-.19,.19-.26,.31-.35,.3-.22,3.93-2.9,5.11-3.86,1.03-.84,1.7-1.56,2.49-2.4,1.35-1.44,2.28-2.71,2.73-3.29,.75-.97,1.41-2.02,2.13-3.05,0,.06,.02,.1,.02,.13-.04,.14-.09,.28-.15,.41Zm-11.41-10.56c-.69-1.65-2.35-1.73-4.02-2.05,1.61-.43,3.38-.42,4.04-2.27,2.47,1.08,5.08,1.33,7.68,1.54,3.47,.27,6.95,.4,10.43,.59,.33,.02,.66,.06,.98,.09-6.41,.42-12.84,.2-19.11,2.1Z"/><path class="cls-14" d="M44.59,38.65c-3.21,0-5.81,2.6-5.81,5.81s2.6,5.81,5.81,5.81,5.81-2.6,5.81-5.81-2.6-5.81-5.81-5.81Zm0,10.49c-2.59,0-4.68-2.1-4.68-4.68s2.1-4.68,4.68-4.68,4.68,2.1,4.68,4.68-2.1,4.68-4.68,4.68Z"/><path class="cls-18" d="M44.59,38.65c-3.21,0-5.81,2.6-5.81,5.81s2.6,5.81,5.81,5.81,5.81-2.6,5.81-5.81-2.6-5.81-5.81-5.81Zm0,10.49c-2.59,0-4.68-2.1-4.68-4.68s2.1-4.68,4.68-4.68,4.68,2.1,4.68,4.68-2.1,4.68-4.68,4.68Z"/><path class="cls-14" d="M44.59,41.08c-1.86,0-3.37,1.51-3.37,3.37s1.51,3.37,3.37,3.37,3.37-1.51,3.37-3.37-1.51-3.37-3.37-3.37Z"/><path class="cls-1" d="M44.59,41.08c-1.86,0-3.37,1.51-3.37,3.37s1.51,3.37,3.37,3.37,3.37-1.51,3.37-3.37-1.51-3.37-3.37-3.37Z"/><path class="cls-14" d="M46.18,36.91c1.39-.03,2.64,.39,3.77,1.16,.18,.12,.32,.16,.45,.14,.18-.04,.29-.21,.32-.26,.22-.35,2.45-3.62,5.52-8.14-3.1,3.56-5.31,6.11-5.58,6.48-.04,.06-.18,.25-.42,.31-.14,.03-.3,0-.49-.09-.6-.28-1.24-.49-1.94-.76,.54-1.41,1.68-2.1,3.09-2.55-1.62-.35-4.53,1.59-5.08,3.63,.12,.03,.23,.1,.35,.1Z"/><path class="cls-17" d="M46.18,36.91c1.39-.03,2.64,.39,3.77,1.16,.18,.12,.32,.16,.45,.14,.18-.04,.29-.21,.32-.26,.22-.35,2.45-3.62,5.52-8.14-3.1,3.56-5.31,6.11-5.58,6.48-.04,.06-.18,.25-.42,.31-.14,.03-.3,0-.49-.09-.6-.28-1.24-.49-1.94-.76,.54-1.41,1.68-2.1,3.09-2.55-1.62-.35-4.53,1.59-5.08,3.63,.12,.03,.23,.1,.35,.1Z"/><path class="cls-14" d="M44.75,36.64c.37-1.51,.43-3.17,2.17-3.86-1.31-3.2-1.56-6.58-1.84-9.95-.27-3.24-.43-6.49-.64-9.66-.36,6.51,.04,13.18-1.82,19.69,1.64,.62,1.72,2.27,2.12,3.78Z"/><path class="cls-20" d="M44.75,36.64c.37-1.51,.43-3.17,2.17-3.86-1.31-3.2-1.56-6.58-1.84-9.95-.27-3.24-.43-6.49-.64-9.66-.36,6.51,.04,13.18-1.82,19.69,1.64,.62,1.72,2.27,2.12,3.78Z"/><path class="cls-14" d="M38.18,50.71c.02-.13-.04-.27-.18-.44-.87-1.06-1.41-2.26-1.51-3.65,0-.12-.08-.23-.13-.34-1.97,.75-3.63,3.83-3.13,5.4,.31-1.45,.89-2.65,2.24-3.32,.33,.67,.6,1.28,.94,1.86,.11,.19,.15,.34,.14,.48-.03,.24-.21,.4-.27,.45-.34,.31-2.67,2.75-5.92,6.17,4.21-3.49,7.26-6.01,7.58-6.27,.05-.04,.21-.16,.23-.35Z"/><path class="cls-12" d="M38.18,50.71c.02-.13-.04-.27-.18-.44-.87-1.06-1.41-2.26-1.51-3.65,0-.12-.08-.23-.13-.34-1.97,.75-3.63,3.83-3.13,5.4,.31-1.45,.89-2.65,2.24-3.32,.33,.67,.6,1.28,.94,1.86,.11,.19,.15,.34,.14,.48-.03,.24-.21,.4-.27,.45-.34,.31-2.67,2.75-5.92,6.17,4.21-3.49,7.26-6.01,7.58-6.27,.05-.04,.21-.16,.23-.35Z"/><path class="cls-14" d="M41.03,35.44c-.68,.31-1.3,.56-1.88,.89-.19,.11-.34,.14-.49,.12-.24-.04-.39-.23-.44-.28-.3-.35-2.67-2.75-5.99-6.1,3.36,4.31,5.79,7.43,6.04,7.77,.04,.05,.15,.21,.34,.24,.13,.02,.27-.03,.44-.17,1.08-.84,2.3-1.34,3.69-1.4,.12,0,.23-.08,.34-.12-.69-1.99-3.72-3.74-5.31-3.29,1.44,.35,2.63,.97,3.25,2.34Z"/><path class="cls-7" d="M41.03,35.44c-.68,.31-1.3,.56-1.88,.89-.19,.11-.34,.14-.49,.12-.24-.04-.39-.23-.44-.28-.3-.35-2.67-2.75-5.99-6.1,3.36,4.31,5.79,7.43,6.04,7.77,.04,.05,.15,.21,.34,.24,.13,.02,.27-.03,.44-.17,1.08-.84,2.3-1.34,3.69-1.4,.12,0,.23-.08,.34-.12-.69-1.99-3.72-3.74-5.31-3.29,1.44,.35,2.63,.97,3.25,2.34Z"/><path class="cls-14" d="M54.83,19.82c.3,.22,3.97,2.85,5.16,3.79,1.04,.82,1.72,1.53,2.52,2.36,1.37,1.42,2.32,2.68,2.77,3.25,.77,.96,1.44,2,2.17,3.02,0-.06,.02-.1,.01-.13-.05-.14-.09-.28-.15-.41-.91-2.15-2.11-4.13-3.66-5.88-.48-.54-.53-1.04-.28-1.64,.12-.28,.26-.57,.43-.83,.42-.63,.87-1.25,1.3-1.88l-.06-.04c-.18,.15-.34,.32-.54,.45-.71,.47-1.41,.97-2.15,1.39-.51,.29-1.01,.24-1.51-.19-1.62-1.39-3.45-2.45-5.41-3.29-.3-.13-.61-.23-.92-.34,.07,.19,.2,.26,.31,.34Z"/><path class="cls-13" d="M54.83,19.82c.3,.22,3.97,2.85,5.16,3.79,1.04,.82,1.72,1.53,2.52,2.36,1.37,1.42,2.32,2.68,2.77,3.25,.77,.96,1.44,2,2.17,3.02,0-.06,.02-.1,.01-.13-.05-.14-.09-.28-.15-.41-.91-2.15-2.11-4.13-3.66-5.88-.48-.54-.53-1.04-.28-1.64,.12-.28,.26-.57,.43-.83,.42-.63,.87-1.25,1.3-1.88l-.06-.04c-.18,.15-.34,.32-.54,.45-.71,.47-1.41,.97-2.15,1.39-.51,.29-1.01,.24-1.51-.19-1.62-1.39-3.45-2.45-5.41-3.29-.3-.13-.61-.23-.92-.34,.07,.19,.2,.26,.31,.34Z"/><path class="cls-14" d="M58.41,31.66c-4.03,3.7-6.94,6.38-7.25,6.65-.05,.04-.2,.17-.21,.36,0,.13,.05,.27,.2,.43,.92,1.01,1.52,2.19,1.69,3.56,.01,.12,.1,.22,.15,.33,1.93-.85,3.43-4.01,2.85-5.56-.23,1.46-.75,2.69-2.07,3.43-.37-.65-.67-1.25-1.03-1.8-.12-.18-.17-.33-.16-.48,.02-.24,.19-.41,.24-.46,.32-.33,2.52-2.88,5.6-6.46Z"/><path class="cls-21" d="M58.41,31.66c-4.03,3.7-6.94,6.38-7.25,6.65-.05,.04-.2,.17-.21,.36,0,.13,.05,.27,.2,.43,.92,1.01,1.52,2.19,1.69,3.56,.01,.12,.1,.22,.15,.33,1.93-.85,3.43-4.01,2.85-5.56-.23,1.46-.75,2.69-2.07,3.43-.37-.65-.67-1.25-1.03-1.8-.12-.18-.17-.33-.16-.48,.02-.24,.19-.41,.24-.46,.32-.33,2.52-2.88,5.6-6.46Z"/><polygon class="cls-14" points="54.57 32.61 53.91 34.67 55.85 33.7 61 26.38 54.57 32.61"/><polygon class="cls-15" points="54.57 32.61 53.91 34.67 55.85 33.7 61 26.38 54.57 32.61"/><polygon class="cls-14" points="54.72 56.44 61.24 62.59 55.98 55.33 54.04 54.39 54.72 56.44"/><polygon class="cls-9" points="54.72 56.44 61.24 62.59 55.98 55.33 54.04 54.39 54.72 56.44"/><path class="cls-14" d="M53.8,48.2c1.33,.72,1.86,1.95,2.12,3.4,.56-1.56-.99-4.7-2.93-5.52-.05,.11-.13,.22-.14,.33-.15,1.38-.74,2.57-1.64,3.59-.14,.16-.21,.3-.19,.43,.02,.19,.17,.32,.22,.36,.32,.27,3.27,2.91,7.35,6.55-3.13-3.54-5.36-6.06-5.69-6.39-.05-.05-.23-.21-.25-.46-.01-.14,.04-.3,.15-.48,.36-.56,.65-1.16,1.01-1.82Z"/><path class="cls-8" d="M53.8,48.2c1.33,.72,1.86,1.95,2.12,3.4,.56-1.56-.99-4.7-2.93-5.52-.05,.11-.13,.22-.14,.33-.15,1.38-.74,2.57-1.64,3.59-.14,.16-.21,.3-.19,.43,.02,.19,.17,.32,.22,.36,.32,.27,3.27,2.91,7.35,6.55-3.13-3.54-5.36-6.06-5.69-6.39-.05-.05-.23-.21-.25-.46-.01-.14,.04-.3,.15-.48,.36-.56,.65-1.16,1.01-1.82Z"/><polygon class="cls-14" points="34.21 56.55 34.99 54.54 33 55.39 27.4 62.38 34.21 56.55"/><polygon class="cls-22" points="34.21 56.55 34.99 54.54 33 55.39 27.4 62.38 34.21 56.55"/><path class="cls-14" d="M44.84,52.55c-.38,1.52-.44,3.16-2.07,3.81,1.95,6.49,1.64,13.16,2.09,19.67,.16-3.17,.28-6.42,.5-9.67,.24-3.37,.44-6.76,1.7-9.98-1.76-.66-1.83-2.32-2.23-3.83Z"/><path class="cls-23" d="M44.84,52.55c-.38,1.52-.44,3.16-2.07,3.81,1.95,6.49,1.64,13.16,2.09,19.67,.16-3.17,.28-6.42,.5-9.67,.24-3.37,.44-6.76,1.7-9.98-1.76-.66-1.83-2.32-2.23-3.83Z"/><path class="cls-14" d="M47.93,53.41c.69-.28,1.33-.5,1.93-.79,.19-.1,.35-.13,.49-.1,.24,.05,.38,.24,.42,.3,.28,.37,2.52,2.88,5.67,6.4-3.14-4.48-5.41-7.72-5.64-8.07-.03-.05-.14-.22-.33-.26-.13-.03-.27,.02-.45,.14-1.12,.78-2.37,1.22-3.76,1.21-.12,0-.23,.07-.35,.1,.59,2.03,3.52,3.93,5.13,3.56-1.42-.42-2.57-1.1-3.13-2.5Z"/><path class="cls-5" d="M47.93,53.41c.69-.28,1.33-.5,1.93-.79,.19-.1,.35-.13,.49-.1,.24,.05,.38,.24,.42,.3,.28,.37,2.52,2.88,5.67,6.4-3.14-4.48-5.41-7.72-5.64-8.07-.03-.05-.14-.22-.33-.26-.13-.03-.27,.02-.45,.14-1.12,.78-2.37,1.22-3.76,1.21-.12,0-.23,.07-.35,.1,.59,2.03,3.52,3.93,5.13,3.56-1.42-.42-2.57-1.1-3.13-2.5Z"/><path class="cls-14" d="M63.76,43.83c-2.59-.2-5.2-.46-7.68-1.54-.66,1.84-2.43,1.84-4.04,2.27,1.67,.32,3.33,.4,4.02,2.05,6.27-1.9,12.7-1.68,19.11-2.1-.33-.03-.66-.07-.98-.09-3.48-.19-6.96-.32-10.43-.59Z"/><path class="cls-3" d="M63.76,43.83c-2.59-.2-5.2-.46-7.68-1.54-.66,1.84-2.43,1.84-4.04,2.27,1.67,.32,3.33,.4,4.02,2.05,6.27-1.9,12.7-1.68,19.11-2.1-.33-.03-.66-.07-.98-.09-3.48-.19-6.96-.32-10.43-.59Z"/><path class="cls-14" d="M42.84,52.71c-1.39-.04-2.62-.53-3.71-1.35-.17-.13-.32-.18-.44-.16-.19,.03-.3,.2-.34,.25-.24,.34-2.63,3.49-5.93,7.85,3.28-3.4,5.61-5.83,5.91-6.19,.04-.05,.2-.24,.44-.28,.14-.02,.3,.01,.49,.12,.59,.32,1.21,.55,1.89,.86-.61,1.38-1.79,2.01-3.22,2.38,1.6,.43,4.6-1.36,5.26-3.37-.11-.04-.23-.11-.34-.11Z"/><path class="cls-10" d="M42.84,52.71c-1.39-.04-2.62-.53-3.71-1.35-.17-.13-.32-.18-.44-.16-.19,.03-.3,.2-.34,.25-.24,.34-2.63,3.49-5.93,7.85,3.28-3.4,5.61-5.83,5.91-6.19,.04-.05,.2-.24,.44-.28,.14-.02,.3,.01,.49,.12,.59,.32,1.21,.55,1.89,.86-.61,1.38-1.79,2.01-3.22,2.38,1.6,.43,4.6-1.36,5.26-3.37-.11-.04-.23-.11-.34-.11Z"/><path class="cls-14" d="M65.48,59.68c-.45,.58-1.38,1.85-2.73,3.29-.79,.84-1.46,1.56-2.49,2.4-1.18,.96-4.81,3.64-5.11,3.86-.11,.09-.24,.16-.31,.35,.3-.12,.61-.22,.91-.35,1.95-.86,3.76-1.95,5.36-3.36,.49-.44,.99-.49,1.5-.21,.75,.41,1.46,.89,2.17,1.36,.2,.13,.36,.3,.54,.45l.06-.04c-.44-.62-.9-1.23-1.33-1.86-.17-.25-.31-.54-.44-.82-.26-.6-.22-1.1,.26-1.64,1.53-1.76,2.7-3.76,3.58-5.93,.06-.14,.1-.27,.15-.41,0-.03,0-.07-.02-.13-.71,1.03-1.38,2.07-2.13,3.05Z"/><path class="cls-2" d="M65.48,59.68c-.45,.58-1.38,1.85-2.73,3.29-.79,.84-1.46,1.56-2.49,2.4-1.18,.96-4.81,3.64-5.11,3.86-.11,.09-.24,.16-.31,.35,.3-.12,.61-.22,.91-.35,1.95-.86,3.76-1.95,5.36-3.36,.49-.44,.99-.49,1.5-.21,.75,.41,1.46,.89,2.17,1.36,.2,.13,.36,.3,.54,.45l.06-.04c-.44-.62-.9-1.23-1.33-1.86-.17-.25-.31-.54-.44-.82-.26-.6-.22-1.1,.26-1.64,1.53-1.76,2.7-3.76,3.58-5.93,.06-.14,.1-.27,.15-.41,0-.03,0-.07-.02-.13-.71,1.03-1.38,2.07-2.13,3.05Z"/><path class="cls-14" d="M35.44,40.95c-1.36-.65-1.96-1.85-2.29-3.29-.48,1.58,1.22,4.64,3.21,5.36,.04-.11,.12-.22,.12-.34,.08-1.38,.6-2.6,1.46-3.67,.14-.17,.19-.31,.17-.44-.03-.19-.19-.31-.24-.34-.33-.25-3.41-2.74-7.67-6.16,3.3,3.38,5.66,5.78,6.01,6.09,.05,.05,.24,.2,.27,.44,.02,.14-.02,.3-.13,.48-.33,.58-.59,1.19-.92,1.87Z"/><path class="cls-4" d="M35.44,40.95c-1.36-.65-1.96-1.85-2.29-3.29-.48,1.58,1.22,4.64,3.21,5.36,.04-.11,.12-.22,.12-.34,.08-1.38,.6-2.6,1.46-3.67,.14-.17,.19-.31,.17-.44-.03-.19-.19-.31-.24-.34-.33-.25-3.41-2.74-7.67-6.16,3.3,3.38,5.66,5.78,6.01,6.09,.05,.05,.24,.2,.27,.44,.02,.14-.02,.3-.13,.48-.33,.58-.59,1.19-.92,1.87Z"/><path class="cls-14" d="M22.48,30.33c.44-.58,1.35-1.87,2.68-3.32,.78-.85,1.44-1.58,2.46-2.43,1.16-.97,4.76-3.7,5.05-3.93,.11-.09,.23-.16,.3-.35-.3,.12-.61,.23-.91,.36-1.94,.89-3.74,2-5.32,3.43-.49,.44-.99,.5-1.5,.23-.75-.4-1.47-.87-2.19-1.33-.2-.12-.37-.29-.55-.44l-.06,.04c.45,.61,.91,1.22,1.35,1.84,.18,.25,.32,.53,.45,.81,.27,.59,.23,1.09-.23,1.65-1.5,1.79-2.65,3.8-3.5,5.98-.05,.14-.1,.28-.14,.42,0,.03,0,.07,.02,.13,.7-1.04,1.35-2.09,2.09-3.08Z"/><path class="cls-19" d="M22.48,30.33c.44-.58,1.35-1.87,2.68-3.32,.78-.85,1.44-1.58,2.46-2.43,1.16-.97,4.76-3.7,5.05-3.93,.11-.09,.23-.16,.3-.35-.3,.12-.61,.23-.91,.36-1.94,.89-3.74,2-5.32,3.43-.49,.44-.99,.5-1.5,.23-.75-.4-1.47-.87-2.19-1.33-.2-.12-.37-.29-.55-.44l-.06,.04c.45,.61,.91,1.22,1.35,1.84,.18,.25,.32,.53,.45,.81,.27,.59,.23,1.09-.23,1.65-1.5,1.79-2.65,3.8-3.5,5.98-.05,.14-.1,.28-.14,.42,0,.03,0,.07,.02,.13,.7-1.04,1.35-2.09,2.09-3.08Z"/><polygon class="cls-14" points="34.06 32.79 27.17 27.05 32.87 33.97 34.87 34.79 34.06 32.79"/><polygon class="cls-6" points="34.06 32.79 27.17 27.05 32.87 33.97 34.87 34.79 34.06 32.79"/><path class="cls-14" d="M32.99,68.71c-.3-.22-3.93-2.9-5.11-3.86-1.03-.84-1.7-1.56-2.49-2.4-1.35-1.44-2.28-2.71-2.73-3.29-.75-.97-1.41-2.02-2.13-3.05,0,.06-.02,.1-.02,.13,.04,.14,.09,.28,.15,.41,.88,2.16,2.05,4.16,3.58,5.93,.47,.55,.52,1.05,.26,1.64-.12,.28-.26,.57-.44,.82-.43,.63-.88,1.24-1.33,1.86l.06,.04c.18-.15,.35-.32,.54-.45,.72-.47,1.42-.95,2.17-1.36,.51-.28,1.01-.23,1.5,.21,1.6,1.41,3.41,2.5,5.36,3.36,.3,.13,.61,.24,.91,.35-.07-.19-.19-.26-.31-.35Z"/><path class="cls-11" d="M32.99,68.71c-.3-.22-3.93-2.9-5.11-3.86-1.03-.84-1.7-1.56-2.49-2.4-1.35-1.44-2.28-2.71-2.73-3.29-.75-.97-1.41-2.02-2.13-3.05,0,.06-.02,.1-.02,.13,.04,.14,.09,.28,.15,.41,.88,2.16,2.05,4.16,3.58,5.93,.47,.55,.52,1.05,.26,1.64-.12,.28-.26,.57-.44,.82-.43,.63-.88,1.24-1.33,1.86l.06,.04c.18-.15,.35-.32,.54-.45,.72-.47,1.42-.95,2.17-1.36,.51-.28,1.01-.23,1.5,.21,1.6,1.41,3.41,2.5,5.36,3.36,.3,.13,.61,.24,.91,.35-.07-.19-.19-.26-.31-.35Z"/><path class="cls-14" d="M33.33,46.7c.67-1.8,2.38-1.84,4-2.25-1.62-.39-3.3-.4-3.97-2.07-6.33,1.94-12.85,1.66-19.38,2.09,3.37,.18,6.67,.31,9.96,.56,3.17,.24,6.36,.41,9.39,1.67Z"/><path class="cls-16" d="M33.33,46.7c.67-1.8,2.38-1.84,4-2.25-1.62-.39-3.3-.4-3.97-2.07-6.33,1.94-12.85,1.66-19.38,2.09,3.37,.18,6.67,.31,9.96,.56,3.17,.24,6.36,.41,9.39,1.67Z"/></g></g></svg>