<?xml version="1.0" encoding="UTF-8"?><svg id="Layer_2" xmlns="http://www.w3.org/2000/svg" viewBox="0 0 65.9 67.71"><defs><style>.cls-1{fill:#e5e5e5;}</style></defs><g id="Layer_1-2"><g><path class="cls-1" d="M32.96,28.65c-2.79,0-5.05,2.26-5.05,5.05s2.26,5.05,5.05,5.05,5.05-2.26,5.05-5.05-2.26-5.05-5.05-5.05Zm0,8.68c-2.01,0-3.63-1.63-3.63-3.63s1.63-3.63,3.63-3.63,3.63,1.63,3.63,3.63-1.63,3.63-3.63,3.63Z"/><path class="cls-1" d="M32.96,27.44c-3.45,0-6.25,2.8-6.25,6.25s2.8,6.25,6.25,6.25,6.25-2.8,6.25-6.25-2.8-6.25-6.25-6.25Zm0,11.3c-2.79,0-5.05-2.26-5.05-5.05s2.26-5.05,5.05-5.05,5.05,2.26,5.05,5.05-2.26,5.05-5.05,5.05Z"/><path class="cls-1" d="M20.47,59.83c-.32-.24-4.23-3.13-5.5-4.16-1.11-.9-1.83-1.68-2.68-2.58-1.45-1.55-2.46-2.92-2.94-3.54-.81-1.05-1.52-2.17-2.29-3.28,0,.06-.03,.11-.02,.14,.05,.15,.1,.3,.16,.45,.95,2.33,2.21,4.48,3.86,6.38,.51,.59,.56,1.13,.28,1.77-.13,.3-.28,.61-.47,.88-.46,.68-.95,1.34-1.43,2l.06,.04c.19-.16,.38-.34,.59-.48,.77-.5,1.53-1.02,2.34-1.46,.55-.3,1.09-.25,1.62,.22,1.72,1.52,3.67,2.69,5.78,3.62,.32,.14,.66,.25,.98,.38-.08-.2-.21-.28-.33-.37Z"/><path class="cls-1" d="M55.46,50.1c-.48,.62-1.49,1.99-2.94,3.54-.85,.91-1.57,1.68-2.68,2.58-1.27,1.03-5.18,3.92-5.5,4.16-.12,.09-.25,.17-.33,.37,.33-.13,.66-.24,.98-.38,2.1-.93,4.05-2.1,5.78-3.62,.53-.47,1.07-.52,1.62-.22,.81,.44,1.57,.96,2.34,1.46,.21,.14,.39,.32,.59,.48l.06-.04c-.48-.67-.97-1.33-1.43-2-.19-.27-.34-.58-.47-.88-.28-.64-.23-1.18,.28-1.77,1.65-1.9,2.91-4.05,3.86-6.38,.06-.15,.11-.3,.16-.45,.01-.03,0-.07-.02-.14-.77,1.11-1.48,2.23-2.29,3.28Z"/><path class="cls-1" d="M32.96,30.07c-2.01,0-3.63,1.63-3.63,3.63s1.63,3.63,3.63,3.63,3.63-1.63,3.63-3.63-1.63-3.63-3.63-3.63Z"/><path class="cls-1" d="M33.23,42.42c-.41,1.63-.48,3.41-2.23,4.1,2.1,6.99,1.77,14.17,2.25,21.18,.17-3.42,.3-6.92,.54-10.41,.25-3.63,.47-7.28,1.83-10.75-1.89-.72-1.97-2.5-2.4-4.12Z"/><path class="cls-1" d="M45.35,31.38c-.71,1.99-2.61,1.98-4.35,2.44,1.8,.34,3.59,.43,4.33,2.21,6.75-2.04,13.68-1.81,20.58-2.26-.35-.03-.71-.07-1.06-.09-3.74-.21-7.49-.35-11.23-.64-2.79-.22-5.6-.49-8.27-1.66Z"/><path class="cls-1" d="M20.83,36.12c.72-1.94,2.57-1.99,4.31-2.42-1.74-.42-3.55-.43-4.27-2.23-6.81,2.09-13.84,1.78-20.87,2.25,3.63,.2,7.18,.33,10.73,.6,3.41,.26,6.85,.44,10.11,1.8Z"/><path class="cls-1" d="M40.11,40.53c.34,.29,3.52,3.13,7.91,7.05-3.37-3.82-5.77-6.53-6.13-6.88-.05-.05-.24-.23-.27-.49-.01-.15,.04-.32,.17-.51,.39-.6,.7-1.25,1.09-1.96,1.43,.77,2.01,2.1,2.28,3.66,.6-1.68-1.06-5.06-3.15-5.94-.05,.12-.14,.24-.15,.36-.17,1.48-.79,2.76-1.77,3.86-.16,.17-.22,.32-.21,.46,.02,.2,.19,.34,.24,.38Z"/><path class="cls-1" d="M36.56,43.35c.75-.3,1.43-.53,2.07-.85,.21-.1,.38-.14,.53-.1,.26,.05,.41,.26,.46,.32,.3,.39,2.72,3.1,6.11,6.9-3.38-4.82-5.82-8.31-6.07-8.69-.04-.06-.15-.24-.35-.28-.14-.03-.29,.02-.48,.15-1.21,.84-2.55,1.31-4.05,1.3-.13,0-.25,.07-.38,.11,.63,2.18,3.79,4.23,5.53,3.83-1.53-.46-2.77-1.18-3.37-2.7Z"/><polygon class="cls-1" points="50.89 53.23 45.23 45.42 43.14 44.4 43.87 46.61 50.89 53.23"/><path class="cls-1" d="M31.08,42.59c-1.49-.05-2.82-.57-3.99-1.45-.19-.14-.34-.19-.48-.17-.2,.03-.32,.21-.36,.27-.26,.37-2.83,3.76-6.39,8.46,3.53-3.66,6.04-6.28,6.36-6.66,.05-.06,.21-.26,.47-.31,.15-.03,.32,.01,.53,.12,.63,.34,1.3,.6,2.04,.93-.65,1.49-1.93,2.17-3.47,2.57,1.72,.46,4.96-1.47,5.67-3.62-.12-.04-.25-.12-.37-.12Z"/><path class="cls-1" d="M26.06,40.44c.02-.14-.04-.29-.19-.47-.94-1.14-1.52-2.44-1.63-3.93,0-.12-.09-.24-.14-.37-2.12,.81-3.91,4.12-3.37,5.82,.33-1.56,.96-2.86,2.41-3.58,.36,.72,.65,1.38,1.01,2,.12,.2,.17,.37,.15,.52-.03,.26-.23,.43-.29,.48-.37,.33-2.87,2.96-6.38,6.65,4.53-3.76,7.81-6.48,8.17-6.75,.05-.04,.23-.17,.25-.37Z"/><polygon class="cls-1" points="21.78 46.73 22.62 44.56 20.48 45.47 14.45 53.01 21.78 46.73"/><path class="cls-1" d="M9.15,18.49c.47-.63,1.46-2.01,2.89-3.58,.84-.92,1.55-1.7,2.65-2.62,1.25-1.05,5.12-3.99,5.44-4.23,.12-.09,.25-.17,.33-.38-.33,.13-.66,.25-.98,.39-2.09,.95-4.02,2.15-5.72,3.7-.52,.48-1.06,.54-1.61,.25-.81-.43-1.58-.94-2.36-1.43-.21-.13-.4-.31-.59-.47l-.06,.04c.49,.66,.98,1.31,1.46,1.98,.19,.27,.34,.57,.48,.88,.29,.64,.25,1.18-.25,1.77-1.62,1.92-2.85,4.09-3.77,6.44-.06,.15-.1,.3-.15,.45,0,.03,0,.07,.02,.14,.75-1.12,1.45-2.25,2.25-3.32Z"/><path class="cls-1" d="M43.99,7.17c.32,.24,4.28,3.07,5.56,4.08,1.12,.89,1.85,1.65,2.72,2.55,1.47,1.53,2.5,2.88,2.99,3.5,.82,1.04,1.55,2.15,2.34,3.25,0-.07,.03-.11,.01-.14-.05-.15-.1-.3-.16-.44-.98-2.32-2.27-4.45-3.95-6.33-.52-.58-.57-1.12-.3-1.77,.13-.31,.27-.61,.46-.89,.45-.68,.93-1.35,1.4-2.02l-.06-.04c-.19,.16-.37,.35-.58,.49-.76,.51-1.52,1.05-2.32,1.5-.54,.31-1.08,.26-1.62-.2-1.74-1.5-3.71-2.64-5.82-3.54-.32-.14-.66-.24-.99-.37,.08,.2,.21,.28,.34,.37Z"/><path class="cls-1" d="M33.13,25.28c.4-1.62,.46-3.41,2.34-4.15-1.41-3.44-1.68-7.09-1.98-10.72-.29-3.49-.47-6.99-.69-10.4-.39,7.01,.04,14.19-1.96,21.21,1.76,.67,1.85,2.44,2.28,4.07Z"/><path class="cls-1" d="M39.8,27.47c0,.14,.06,.29,.22,.46,.99,1.09,1.64,2.36,1.82,3.84,.02,.12,.1,.24,.16,.36,2.08-.91,3.69-4.31,3.07-5.98-.25,1.57-.81,2.9-2.23,3.7-.4-.7-.72-1.35-1.11-1.94-.13-.19-.19-.36-.17-.51,.02-.26,.21-.44,.26-.5,.35-.35,2.72-3.1,6.03-6.96-4.34,3.98-7.47,6.87-7.81,7.16-.05,.04-.22,.18-.23,.39Z"/><path class="cls-1" d="M34.68,25.58c1.49-.03,2.84,.42,4.06,1.25,.19,.13,.35,.18,.49,.15,.2-.04,.31-.23,.35-.29,.24-.38,2.64-3.9,5.95-8.77-3.34,3.84-5.72,6.58-6.01,6.98-.05,.06-.2,.27-.45,.33-.15,.03-.32,0-.53-.1-.65-.31-1.33-.53-2.09-.82,.58-1.52,1.81-2.26,3.33-2.74-1.74-.37-4.87,1.72-5.48,3.91,.12,.04,.25,.11,.38,.1Z"/><polygon class="cls-1" points="43.71 20.95 43 23.16 45.08 22.12 50.64 14.23 43.71 20.95"/><path class="cls-1" d="M29.13,23.99c-.73,.34-1.4,.61-2.03,.95-.2,.11-.37,.16-.52,.13-.26-.04-.42-.24-.47-.3-.32-.38-2.87-2.96-6.45-6.57,3.62,4.64,6.24,8,6.51,8.37,.04,.05,.17,.23,.37,.26,.14,.02,.29-.03,.47-.18,1.16-.9,2.48-1.44,3.97-1.51,.13,0,.25-.08,.37-.13-.74-2.15-4-4.03-5.72-3.55,1.55,.38,2.83,1.04,3.5,2.52Z"/><path class="cls-1" d="M23.11,29.92c-1.47-.7-2.11-1.99-2.46-3.54-.51,1.71,1.32,5,3.45,5.77,.05-.12,.13-.24,.13-.37,.09-1.49,.65-2.8,1.57-3.95,.15-.18,.2-.33,.19-.47-.03-.2-.2-.33-.26-.37-.36-.27-3.68-2.95-8.26-6.64,3.56,3.64,6.1,6.23,6.47,6.56,.06,.05,.26,.22,.29,.48,.02,.15-.02,.32-.14,.52-.36,.62-.64,1.29-.99,2.01Z"/><polygon class="cls-1" points="21.62 21.13 14.2 14.96 20.34 22.41 22.49 23.29 21.62 21.13"/></g></g></svg>