<?xml version="1.0" encoding="UTF-8"?><svg id="Layer_2" xmlns="http://www.w3.org/2000/svg" viewBox="0 0 249.55 28.83"><defs><style>.cls-1{fill:#e5e5e5;}</style></defs><g id="Layer_1-2"><g><path class="cls-1" d="M192.92,22.11c-.57,.12-1.16,.19-1.77,.19h-.31c-.62,0-1.21-.07-1.79-.2-.38,.29-.69,.64-.92,1.06-.28,.5-.42,1.02-.42,1.57,0,.87,.32,1.63,.97,2.27,.64,.64,1.41,.97,2.3,.97,.89,0,1.66-.32,2.3-.97,.64-.65,.97-1.4,.97-2.27,0-.55-.14-1.07-.42-1.56-.23-.41-.53-.75-.9-1.05Z"/><path class="cls-1" d="M149,6.9c-1.94,0-3.63,.72-5.05,2.17-1.42,1.45-2.13,3.14-2.13,5.08s.71,3.63,2.13,5.05c1.42,1.42,3.11,2.13,5.06,2.13s3.63-.71,5.01-2.13c1.39-1.42,2.08-3.11,2.08-5.06s-.7-3.65-2.1-5.08c-1.4-1.43-3.07-2.15-5.01-2.15Z"/><path class="cls-1" d="M51.27,7.01c-1.94,0-3.63,.72-5.05,2.17-1.42,1.45-2.13,3.14-2.13,5.08s.71,3.63,2.13,5.05c1.42,1.42,3.11,2.13,5.06,2.13s3.63-.71,5.01-2.13c1.39-1.42,2.08-3.11,2.08-5.06s-.7-3.65-2.1-5.08c-1.4-1.43-3.07-2.15-5.01-2.15Z"/><path class="cls-1" d="M94.36,7.01c-1.94,0-3.62,.72-5.05,2.17-1.42,1.45-2.13,3.14-2.13,5.08s.71,3.63,2.13,5.05c1.42,1.42,3.11,2.13,5.06,2.13s3.63-.71,5.01-2.13c1.39-1.42,2.08-3.11,2.08-5.06s-.7-3.65-2.1-5.08c-1.4-1.43-3.07-2.15-5.01-2.15Z"/><path class="cls-1" d="M120.72,7.01c-1.94,0-3.62,.72-5.05,2.17-1.42,1.45-2.13,3.14-2.13,5.08s.71,3.63,2.13,5.05c1.42,1.42,3.11,2.13,5.06,2.13s3.63-.71,5.01-2.13c1.39-1.42,2.08-3.11,2.08-5.06s-.7-3.65-2.1-5.08c-1.4-1.43-3.07-2.15-5.01-2.15Z"/><path class="cls-1" d="M8.29,7.01c-1.94,0-3.63,.72-5.05,2.17-1.42,1.45-2.13,3.14-2.13,5.08s.71,3.63,2.13,5.05c1.42,1.42,3.11,2.13,5.06,2.13s3.63-.71,5.01-2.13c1.39-1.42,2.08-3.11,2.08-5.06s-.7-3.65-2.1-5.08c-1.4-1.43-3.07-2.15-5.01-2.15Zm3.99,11.12c-1.08,1.13-2.39,1.69-3.92,1.69h-.21c-1.52,0-2.83-.57-3.92-1.7-1.09-1.13-1.64-2.45-1.64-3.96s.55-2.81,1.66-3.91c1.11-1.1,2.44-1.65,4.01-1.65s2.89,.55,3.99,1.65c1.1,1.1,1.65,2.41,1.65,3.92s-.54,2.83-1.62,3.96Z"/><path class="cls-1" d="M118.13,6.43c.8-.26,1.65-.39,2.56-.39,.58,0,1.16,.06,1.72,.19,.23-.23,.43-.49,.6-.77,.28-.5,.42-1.02,.42-1.56,0-.87-.32-1.63-.97-2.27-.64-.65-1.41-.97-2.3-.97-.89,0-1.66,.32-2.3,.97-.65,.64-.97,1.4-.97,2.27,0,.55,.14,1.07,.42,1.57,.21,.38,.49,.7,.82,.98Z"/><path class="cls-1" d="M234.69,12.05c-1.22,0-2.2,.99-2.2,2.2s.99,2.2,2.2,2.2,2.2-.99,2.2-2.2-.99-2.2-2.2-2.2Zm0,3.79c-.88,0-1.59-.71-1.59-1.59s.71-1.59,1.59-1.59,1.59,.71,1.59,1.59-.71,1.59-1.59,1.59Z"/><path class="cls-1" d="M15.33,10.34c-.53-1.29-1.47-2.34-2.83-3.12-1.35-.79-2.77-1.18-4.25-1.18-2.27,0-4.21,.8-5.83,2.41-1.62,1.61-2.43,3.53-2.43,5.78s.81,4.17,2.43,5.78c1.62,1.61,3.56,2.41,5.83,2.41,1.48,0,2.87-.38,4.16-1.14,1.29-.76,2.27-1.8,2.91-3.12v3.89h1.11V6.42h-1.11v3.92Zm-2.01,8.97c-1.39,1.42-3.06,2.13-5.01,2.13s-3.64-.71-5.06-2.13c-1.42-1.42-2.13-3.1-2.13-5.05s.71-3.64,2.13-5.08c1.42-1.45,3.1-2.17,5.05-2.17s3.61,.72,5.01,2.15c1.4,1.43,2.1,3.13,2.1,5.08s-.69,3.64-2.08,5.06Z"/><path class="cls-1" d="M32.3,15.51c0,1.6-.61,2.98-1.82,4.16-1.21,1.18-2.62,1.77-4.21,1.77s-2.95-.59-4.08-1.77c-1.12-1.18-1.68-2.57-1.68-4.16V6.42h-1.11V15.51c0,1.92,.66,3.55,1.98,4.89,1.32,1.34,2.95,2.01,4.89,2.01,2.84,0,4.86-1.18,6.04-3.54v3.16h1.11V6.42h-1.11V15.51Z"/><path class="cls-1" d="M37.12,16.37V7.42h4.79v-.97h-4.79V.14h-1.11V16.37c0,1.71,.58,3.12,1.73,4.22,1.16,1.1,2.56,1.65,4.2,1.65v-.97c-1.34,0-2.48-.46-3.42-1.39-.94-.92-1.4-2.09-1.4-3.5Z"/><path class="cls-1" d="M51.26,6.04c-2.28,0-4.23,.8-5.85,2.41-1.62,1.61-2.43,3.51-2.43,5.71s.8,4.12,2.39,5.78c1.6,1.65,3.5,2.48,5.72,2.48h.31c2.24,0,4.15-.82,5.72-2.46,1.57-1.64,2.36-3.57,2.36-5.78s-.8-4.12-2.41-5.72c-1.61-1.61-3.55-2.41-5.83-2.41Zm5.05,13.27c-1.39,1.42-3.06,2.13-5.01,2.13s-3.64-.71-5.06-2.13c-1.42-1.42-2.13-3.1-2.13-5.05s.71-3.64,2.13-5.08c1.42-1.45,3.1-2.17,5.05-2.17s3.61,.72,5.01,2.15c1.4,1.43,2.1,3.13,2.1,5.08s-.69,3.64-2.08,5.06Z"/><path class="cls-1" d="M8.25,8.6c-1.56,0-2.9,.55-4.01,1.65-1.11,1.1-1.66,2.41-1.66,3.91s.55,2.83,1.64,3.96c1.09,1.13,2.4,1.7,3.92,1.7h.21c1.54,0,2.85-.56,3.92-1.69,1.08-1.13,1.62-2.45,1.62-3.96s-.55-2.82-1.65-3.92c-1.1-1.1-2.43-1.65-3.99-1.65Z"/><path class="cls-1" d="M78.33,6.04c-1.41,0-2.61,.34-3.59,1.01-.98,.67-1.65,1.56-1.99,2.67-.42-1.09-1.08-1.97-1.98-2.65-.9-.68-1.84-1.02-2.83-1.02s-1.93,.25-2.84,.76c-.91,.51-1.6,1.11-2.06,1.8v-2.19h-1.11v15.61h1.11V11.62c0-1.23,.46-2.3,1.39-3.23s2.01-1.39,3.26-1.39,2.31,.46,3.19,1.37c.88,.91,1.32,1.99,1.32,3.24v10.41h1.11V11.62c0-1.23,.48-2.3,1.44-3.23,.96-.92,2.06-1.39,3.3-1.39s2.3,.45,3.17,1.34c.88,.89,1.32,2.01,1.32,3.35v10.34h1.11V11.69c0-1.73-.53-3.11-1.6-4.13-1.06-1.02-2.3-1.53-3.71-1.53Z"/><path class="cls-1" d="M101.4,10.34c-.53-1.29-1.47-2.34-2.83-3.12-1.35-.79-2.77-1.18-4.25-1.18-2.27,0-4.21,.8-5.83,2.41-1.62,1.61-2.43,3.53-2.43,5.78s.81,4.17,2.43,5.78c1.62,1.61,3.56,2.41,5.83,2.41,1.48,0,2.87-.38,4.16-1.14,1.29-.76,2.27-1.8,2.91-3.12v3.89h1.11V6.42h-1.11v3.92Zm-2.01,8.97c-1.39,1.42-3.06,2.13-5.01,2.13s-3.64-.71-5.06-2.13c-1.42-1.42-2.13-3.1-2.13-5.05s.71-3.64,2.13-5.08c1.42-1.45,3.1-2.17,5.05-2.17s3.61,.72,5.01,2.15c1.4,1.43,2.1,3.13,2.1,5.08s-.69,3.64-2.08,5.06Z"/><path class="cls-1" d="M106.57,16.37V7.42h4.79v-.97h-4.79V.14h-1.11V16.37c0,1.71,.58,3.12,1.73,4.22,1.16,1.1,2.56,1.65,4.2,1.65v-.97c-1.34,0-2.48-.46-3.42-1.39-.94-.92-1.4-2.09-1.4-3.5Z"/><path class="cls-1" d="M134.81,5.86c0-1.41,.47-2.58,1.4-3.5,.94-.92,2.08-1.39,3.42-1.39V0c-1.64,0-3.04,.55-4.2,1.65-1.16,1.1-1.73,2.5-1.73,4.21V21.92h1.11v-5.97h4.86v-.97h-4.86V5.86Z"/><path class="cls-1" d="M156.04,10.23c-.53-1.29-1.47-2.34-2.83-3.12-1.35-.79-2.77-1.18-4.25-1.18-2.27,0-4.21,.8-5.83,2.41-1.62,1.61-2.43,3.53-2.43,5.78s.81,4.17,2.43,5.78c1.62,1.61,3.56,2.41,5.83,2.41,1.48,0,2.87-.38,4.16-1.14,1.29-.76,2.27-1.8,2.91-3.12v3.89h1.11V6.31h-1.11v3.92Zm-2.01,8.97c-1.39,1.42-3.06,2.13-5.01,2.13s-3.64-.71-5.06-2.13c-1.42-1.42-2.13-3.1-2.13-5.05s.71-3.64,2.13-5.08c1.42-1.45,3.1-2.17,5.05-2.17s3.61,.72,5.01,2.15c1.4,1.43,2.1,3.13,2.1,5.08s-.69,3.64-2.08,5.06Z"/><path class="cls-1" d="M162,8.41c-1.62,1.61-2.43,3.52-2.43,5.72s.8,4.13,2.39,5.78c1.6,1.64,3.5,2.46,5.72,2.46h.31c2.38,0,4.38-.89,6-2.67v-1.8c-.72,1.09-1.62,1.94-2.72,2.57-1.1,.62-2.25,.94-3.45,.94-1.92,0-3.59-.71-5.01-2.13-1.42-1.42-2.13-3.12-2.13-5.08s.71-3.66,2.13-5.08c1.42-1.42,3.09-2.13,5.01-2.13,1.2,0,2.35,.31,3.45,.94,1.1,.62,2.01,1.47,2.72,2.53v-1.77c-1.67-1.78-3.68-2.67-6.04-2.67s-4.35,.8-5.97,2.41Z"/><path class="cls-1" d="M127.76,10.34c-.53-1.29-1.47-2.34-2.83-3.12-.64-.37-1.3-.65-1.97-.85,.6-.69,.91-1.49,.91-2.42,0-1.07-.36-1.97-1.09-2.71-.73-.73-1.59-1.1-2.6-1.1-1,0-1.87,.36-2.62,1.08-.74,.72-1.12,1.59-1.12,2.6v.14c0,1.05,.38,1.93,1.15,2.66-1,.4-1.91,1.01-2.73,1.83-1.62,1.61-2.43,3.53-2.43,5.78s.81,4.17,2.43,5.78c1.62,1.61,3.56,2.41,5.83,2.41,1.48,0,2.87-.38,4.16-1.14,1.29-.76,2.27-1.8,2.91-3.12v3.89h1.11V6.42h-1.11v3.92Zm-10.45-4.89c-.28-.5-.42-1.02-.42-1.57,0-.87,.32-1.63,.97-2.27,.64-.64,1.41-.97,2.3-.97,.89,0,1.66,.32,2.3,.97,.64,.65,.97,1.4,.97,2.27,0,.55-.14,1.07-.42,1.56-.16,.29-.37,.54-.6,.77-.56-.12-1.14-.19-1.72-.19-.9,0-1.75,.13-2.56,.39-.33-.28-.61-.6-.82-.98Zm8.44,13.86c-1.39,1.42-3.06,2.13-5.01,2.13s-3.64-.71-5.06-2.13c-1.42-1.42-2.13-3.1-2.13-5.05s.71-3.64,2.13-5.08c1.42-1.45,3.1-2.17,5.05-2.17s3.61,.72,5.01,2.15c1.4,1.43,2.1,3.13,2.1,5.08s-.69,3.64-2.08,5.06Z"/><path class="cls-1" d="M176.85,16.27V7.32h4.79v-.97h-4.79V.03h-1.11V16.27c0,1.71,.58,3.12,1.73,4.22,1.16,1.1,2.56,1.65,4.2,1.65v-.97c-1.34,0-2.48-.46-3.42-1.39-.94-.92-1.4-2.09-1.4-3.5Z"/><path class="cls-1" d="M190.99,5.93c-2.28,0-4.23,.8-5.85,2.41-1.62,1.61-2.43,3.51-2.43,5.71s.8,4.12,2.39,5.78c.99,1.03,2.1,1.73,3.34,2.12-.79,.73-1.19,1.63-1.19,2.7v.14c0,1.01,.37,1.87,1.12,2.6,.74,.72,1.62,1.09,2.62,1.08,1,0,1.87-.37,2.6-1.1,.73-.73,1.09-1.64,1.09-2.71,0-1.05-.39-1.95-1.17-2.7,1.25-.38,2.37-1.09,3.36-2.12,1.57-1.64,2.36-3.57,2.36-5.78s-.8-4.12-2.41-5.72c-1.61-1.61-3.55-2.41-5.83-2.41Zm2.83,17.23c.28,.5,.42,1.02,.42,1.56,0,.87-.32,1.63-.97,2.27-.64,.65-1.41,.97-2.3,.97-.89,0-1.66-.32-2.3-.97-.65-.64-.97-1.4-.97-2.27,0-.55,.14-1.07,.42-1.57,.23-.41,.54-.76,.92-1.06,.57,.13,1.17,.2,1.79,.2h.31c.62,0,1.21-.07,1.77-.19,.37,.29,.67,.64,.9,1.05Z"/><path class="cls-1" d="M204.71,6.7c-.88,.51-1.53,1.16-1.94,1.94v-2.32h-1.11v15.61h1.11V11.52c0-1.23,.47-2.3,1.4-3.23,.94-.92,2.02-1.39,3.24-1.39s2.35,.51,3.36,1.53v-1.39c-.99-.74-2.04-1.11-3.12-1.11s-2.07,.25-2.95,.76Z"/><path class="cls-1" d="M225.42,15.4c0,1.6-.58,2.98-1.75,4.16-1.17,1.18-2.55,1.77-4.15,1.77s-2.98-.59-4.15-1.77c-1.17-1.18-1.75-2.57-1.75-4.16V6.31h-1.11V15.4c0,1.9,.68,3.52,2.05,4.87,1.36,1.35,3.01,2.03,4.93,2.03,2.82,0,4.8-1.13,5.93-3.4v2.64c0,1.73-.62,3.22-1.87,4.46-1.25,1.24-2.73,1.86-4.44,1.86-1.16,0-2.26-.33-3.31-.99-1.05-.66-1.9-1.54-2.55-2.65l-.07,1.73c1.46,1.92,3.43,2.88,5.93,2.88,2.08,0,3.84-.72,5.27-2.15,1.43-1.43,2.15-3.18,2.15-5.24V6.31h-1.11V15.4Z"/><path class="cls-1" d="M234.69,11.52c-1.51,0-2.73,1.22-2.73,2.73s1.22,2.73,2.73,2.73,2.73-1.22,2.73-2.73-1.22-2.73-2.73-2.73Zm0,4.94c-1.22,0-2.2-.99-2.2-2.2s.99-2.2,2.2-2.2,2.2,.99,2.2,2.2-.99,2.2-2.2,2.2Z"/><path class="cls-1" d="M246.11,19.89c-.11,.14-1.37,1.85-1.82,2.4-.39,.48-.73,.8-1.13,1.17-.68,.63-1.28,1.07-1.55,1.28-.46,.35-.95,.67-1.43,1,.03,0,.05,.01,.06,0,.07-.02,.13-.04,.19-.07,1.02-.42,1.96-.97,2.79-1.69,.26-.22,.49-.24,.77-.12,.13,.06,.27,.12,.39,.21,.3,.2,.58,.42,.88,.62l.02-.03c-.07-.09-.15-.16-.21-.26-.22-.34-.45-.67-.64-1.02-.13-.24-.11-.47,.1-.71,.67-.75,1.18-1.61,1.58-2.52,.06-.14,.11-.29,.17-.43-.09,.03-.12,.09-.16,.14Z"/><path class="cls-1" d="M243.4,5.88c.4,.37,.73,.69,1.13,1.17,.45,.55,1.71,2.26,1.82,2.4,.04,.05,.07,.11,.16,.14-.05-.14-.1-.29-.17-.43-.4-.92-.92-1.77-1.58-2.52-.21-.23-.23-.47-.1-.71,.19-.35,.42-.68,.64-1.02,.06-.09,.14-.17,.21-.26l-.02-.03c-.29,.21-.58,.42-.88,.62-.12,.08-.25,.15-.39,.21-.28,.12-.52,.1-.77-.12-.83-.72-1.77-1.27-2.79-1.69-.06-.03-.13-.05-.19-.07-.01,0-.03,0-.06,0,.48,.34,.98,.65,1.43,1,.27,.21,.87,.65,1.55,1.28Z"/><path class="cls-1" d="M234.69,12.67c-.88,0-1.59,.71-1.59,1.59s.71,1.59,1.59,1.59,1.59-.71,1.59-1.59-.71-1.59-1.59-1.59Z"/><path class="cls-1" d="M245,14.06c-1.59-.11-3.18-.21-4.7-.8-.31,.83-1.09,.86-1.8,1.05,.71,.18,1.49,.21,1.79,.97,3.05-.92,6.19-.77,9.25-.98-1.49-.08-3.02-.13-4.55-.24Z"/><path class="cls-1" d="M234.74,10.92c.15-.79,.19-1.57,.96-1.89-.89-2.95-.79-5.98-.99-8.99-.01,.15-.03,.31-.04,.46-.09,1.64-.15,3.27-.28,4.91-.1,1.22-.22,2.45-.72,3.61,.87,.31,.86,1.14,1.07,1.9Z"/><path class="cls-1" d="M234.69,17.84c-.18,.76-.19,1.55-.97,1.87,.91,2.98,.78,6.05,.98,9.12,.09-1.59,.14-3.14,.26-4.69,.11-1.49,.19-2.99,.79-4.42-.85-.32-.87-1.12-1.06-1.88Z"/><path class="cls-1" d="M235.62,10.54c.65,.07,1.21,.35,1.69,.77,.08,.07,.14,.1,.2,.09,.09,0,.15-.08,.17-.1,.13-.15,1.37-1.54,3.08-3.46-1.67,1.47-2.85,2.52-3.01,2.68-.02,.02-.1,.11-.21,.12-.07,0-.14-.02-.22-.07-.26-.17-.55-.31-.86-.48,.34-.62,.92-.88,1.6-1-.73-.26-2.21,.46-2.6,1.38,.05,.02,.1,.06,.16,.07Z"/><path class="cls-1" d="M237.73,11.65c-.01,.06,0,.13,.07,.21,.37,.53,.57,1.12,.57,1.77,0,.05,.03,.11,.05,.16,.95-.28,1.85-1.66,1.67-2.42-.2,.67-.52,1.21-1.18,1.47-.13-.33-.23-.63-.37-.91-.04-.09-.06-.17-.05-.23,.02-.11,.12-.18,.14-.2,.17-.13,1.36-1.19,3.01-2.67-2.11,1.48-3.63,2.55-3.8,2.65-.02,.02-.1,.07-.12,.15Z"/><polygon class="cls-1" points="239.81 9.07 239.37 9.98 240.33 9.66 243.23 6.59 239.81 9.07"/><path class="cls-1" d="M237.98,17.36c.16,.11,1.64,1.24,3.69,2.79-1.6-1.54-2.74-2.64-2.91-2.78-.03-.02-.11-.09-.13-.2-.01-.07,0-.14,.05-.23,.15-.28,.26-.57,.4-.89,.65,.29,.95,.84,1.12,1.52,.2-.75-.64-2.17-1.58-2.48-.02,.05-.05,.11-.05,.16-.02,.65-.25,1.23-.63,1.75-.06,.08-.08,.15-.08,.21,.01,.09,.09,.14,.12,.16Z"/><path class="cls-1" d="M236.54,18.71c.32-.16,.6-.28,.87-.44,.09-.05,.16-.07,.23-.06,.11,.01,.19,.1,.21,.12,.15,.16,1.29,1.26,2.9,2.79-1.64-1.98-2.83-3.41-2.95-3.57-.02-.02-.08-.1-.16-.11-.06,0-.13,.02-.21,.08-.5,.41-1.07,.66-1.72,.71-.05,0-.11,.04-.16,.06,.35,.93,1.8,1.71,2.54,1.47-.68-.14-1.25-.42-1.56-1.05Z"/><polygon class="cls-1" points="243.13 22.51 240.39 19.31 239.44 18.94 239.84 19.88 243.13 22.51"/><path class="cls-1" d="M231.99,10.57c-.11-.01-.19-.09-.21-.12-.15-.16-1.34-1.21-3.01-2.68,1.71,1.92,2.96,3.31,3.08,3.46,.02,.02,.08,.1,.17,.1,.06,0,.13-.02,.2-.09,.48-.43,1.04-.7,1.69-.77,.05,0,.11-.04,.16-.07-.39-.91-1.86-1.64-2.6-1.38,.69,.12,1.26,.37,1.6,1-.31,.17-.59,.31-.86,.48-.09,.06-.16,.08-.22,.07Z"/><path class="cls-1" d="M233.81,18.16c-.65-.05-1.22-.3-1.72-.71-.08-.07-.14-.09-.21-.08-.09,.01-.15,.09-.16,.11-.12,.15-1.31,1.59-2.95,3.57,1.61-1.53,2.76-2.63,2.9-2.79,.02-.02,.1-.11,.21-.12,.07,0,.14,.01,.23,.06,.27,.16,.56,.29,.87,.44-.31,.64-.88,.91-1.56,1.05,.74,.23,2.19-.55,2.54-1.47-.05-.02-.11-.06-.16-.06Z"/></g></g></svg>