<?xml version="1.0" encoding="UTF-8"?><svg id="Layer_2" xmlns="http://www.w3.org/2000/svg" xmlns:xlink="http://www.w3.org/1999/xlink" viewBox="0 0 243.99 28.19"><defs><style>.cls-1{fill:url(#linear-gradient-2);}.cls-2{fill:url(#linear-gradient-17);}.cls-3{fill:url(#linear-gradient-15);}.cls-4{fill:url(#linear-gradient-18);}.cls-5{fill:url(#linear-gradient-28);}.cls-6{fill:url(#linear-gradient-14);}.cls-7{fill:url(#linear-gradient-20);}.cls-8{fill:url(#linear-gradient-6);}.cls-9{fill:url(#linear-gradient-11);}.cls-10{fill:url(#linear-gradient-10);}.cls-11{fill:url(#linear-gradient-16);}.cls-12{fill:url(#linear-gradient-31);}.cls-13{fill:url(#linear-gradient-21);}.cls-14{fill:url(#linear-gradient-25);}.cls-15{fill:url(#linear-gradient-5);}.cls-16{fill:none;}.cls-17{fill:url(#linear-gradient-7);}.cls-18{fill:url(#linear-gradient-24);}.cls-19{fill:url(#linear-gradient-9);}.cls-20{fill:url(#linear-gradient-22);}.cls-21{fill:url(#linear-gradient-3);}.cls-22{fill:url(#linear-gradient);}.cls-23{fill:url(#linear-gradient-27);}.cls-24{fill:url(#linear-gradient-29);}.cls-25{fill:url(#linear-gradient-30);}.cls-26{fill:url(#linear-gradient-23);}.cls-27{fill:url(#linear-gradient-19);}.cls-28{fill:url(#linear-gradient-4);}.cls-29{fill:url(#linear-gradient-8);}.cls-30{fill:url(#linear-gradient-12);}.cls-31{fill:url(#linear-gradient-13);}.cls-32{fill:url(#linear-gradient-26);}</style><linearGradient id="linear-gradient" x1="142.83" y1="100.79" x2="465.61" y2="119.56" gradientTransform="translate(355.92 121.88) rotate(-180)" gradientUnits="userSpaceOnUse"><stop offset="0" stop-color="#2761a9"/><stop offset=".25" stop-color="#652e61"/><stop offset=".5" stop-color="#54013f"/><stop offset=".75" stop-color="#e02820"/><stop offset="1" stop-color="#ff4500"/></linearGradient><linearGradient id="linear-gradient-2" x1="142.5" y1="106.52" x2="465.28" y2="125.29" xlink:href="#linear-gradient"/><linearGradient id="linear-gradient-3" x1="142.97" y1="98.5" x2="465.75" y2="117.27" xlink:href="#linear-gradient"/><linearGradient id="linear-gradient-4" x1="142.89" y1="99.76" x2="465.67" y2="118.53" xlink:href="#linear-gradient"/><linearGradient id="linear-gradient-5" x1="142.57" y1="105.29" x2="465.35" y2="124.06" xlink:href="#linear-gradient"/><linearGradient id="linear-gradient-6" x1="142.6" y1="104.72" x2="465.38" y2="123.49" xlink:href="#linear-gradient"/><linearGradient id="linear-gradient-7" x1="142.82" y1="100.98" x2="465.6" y2="119.75" xlink:href="#linear-gradient"/><linearGradient id="linear-gradient-8" x1="143.11" y1="96.1" x2="465.88" y2="114.87" xlink:href="#linear-gradient"/><linearGradient id="linear-gradient-9" x1="142.09" y1="113.62" x2="464.87" y2="132.4" xlink:href="#linear-gradient"/><linearGradient id="linear-gradient-10" x1="142" y1="115.06" x2="464.78" y2="133.83" xlink:href="#linear-gradient"/><linearGradient id="linear-gradient-11" x1="141.9" y1="116.83" x2="464.68" y2="135.6" xlink:href="#linear-gradient"/><linearGradient id="linear-gradient-12" x1="143.11" y1="96.08" x2="465.89" y2="114.85" xlink:href="#linear-gradient"/><linearGradient id="linear-gradient-13" x1="142.18" y1="112.02" x2="464.96" y2="130.79" xlink:href="#linear-gradient"/><linearGradient id="linear-gradient-14" x1="141.87" y1="117.42" x2="464.64" y2="136.19" xlink:href="#linear-gradient"/><linearGradient id="linear-gradient-15" x1="142.36" y1="108.87" x2="465.14" y2="127.64" xlink:href="#linear-gradient"/><linearGradient id="linear-gradient-16" x1="142.36" y1="108.87" x2="465.14" y2="127.64" xlink:href="#linear-gradient"/><linearGradient id="linear-gradient-17" x1="143.05" y1="97.09" x2="465.83" y2="115.86" xlink:href="#linear-gradient"/><linearGradient id="linear-gradient-18" x1="142.59" y1="104.95" x2="465.37" y2="123.72" xlink:href="#linear-gradient"/><linearGradient id="linear-gradient-19" x1="142.44" y1="107.48" x2="465.22" y2="126.26" xlink:href="#linear-gradient"/><linearGradient id="linear-gradient-20" x1="142.82" y1="101.07" x2="465.6" y2="119.84" xlink:href="#linear-gradient"/><linearGradient id="linear-gradient-21" x1="142.67" y1="103.52" x2="465.45" y2="122.29" xlink:href="#linear-gradient"/><linearGradient id="linear-gradient-22" x1="142.63" y1="104.22" x2="465.41" y2="122.99" xlink:href="#linear-gradient"/><linearGradient id="linear-gradient-23" x1="142.66" y1="103.79" x2="465.44" y2="122.56" xlink:href="#linear-gradient"/><linearGradient id="linear-gradient-24" x1="142.11" y1="113.2" x2="464.89" y2="131.97" xlink:href="#linear-gradient"/><linearGradient id="linear-gradient-25" x1="142.71" y1="102.93" x2="465.49" y2="121.7" xlink:href="#linear-gradient"/><linearGradient id="linear-gradient-26" x1="142.58" y1="105.14" x2="465.36" y2="123.91" xlink:href="#linear-gradient"/><linearGradient id="linear-gradient-27" x1="142.54" y1="105.9" x2="465.31" y2="124.67" xlink:href="#linear-gradient"/><linearGradient id="linear-gradient-28" x1="142.88" y1="100.02" x2="465.66" y2="118.79" xlink:href="#linear-gradient"/><linearGradient id="linear-gradient-29" x1="142.64" y1="104.18" x2="465.41" y2="122.95" xlink:href="#linear-gradient"/><linearGradient id="linear-gradient-30" x1="142.35" y1="109.17" x2="465.12" y2="127.94" xlink:href="#linear-gradient"/><linearGradient id="linear-gradient-31" x1="142.37" y1="108.81" x2="465.15" y2="127.58" xlink:href="#linear-gradient"/></defs><g id="Layer_1-2"><g><path class="cls-16" d="M92.25,6.85c-1.9,0-3.54,.71-4.93,2.12-1.39,1.41-2.09,3.07-2.09,4.97s.7,3.54,2.09,4.93c1.39,1.39,3.04,2.09,4.95,2.09s3.54-.7,4.9-2.09c1.36-1.39,2.03-3.04,2.03-4.95s-.68-3.57-2.05-4.97c-1.37-1.4-3-2.1-4.9-2.1Z"/><path class="cls-16" d="M188.62,21.62c-.55,.12-1.13,.19-1.73,.19h-.31c-.61,0-1.19-.07-1.75-.2-.37,.29-.67,.63-.9,1.03-.28,.49-.42,1-.41,1.53,0,.85,.32,1.59,.95,2.22,.63,.63,1.38,.95,2.25,.95,.87,0,1.62-.32,2.25-.95,.63-.63,.95-1.37,.95-2.22,0-.53-.14-1.04-.42-1.53-.23-.4-.52-.74-.88-1.02Z"/><path class="cls-16" d="M118.03,6.85c-1.9,0-3.54,.71-4.93,2.12-1.39,1.41-2.09,3.07-2.09,4.97s.7,3.54,2.09,4.93c1.39,1.39,3.04,2.09,4.95,2.09s3.54-.7,4.9-2.09c1.36-1.39,2.03-3.04,2.03-4.95s-.68-3.57-2.05-4.97c-1.37-1.4-3-2.1-4.9-2.1Z"/><path class="cls-16" d="M145.68,6.75c-1.9,0-3.54,.71-4.94,2.12-1.39,1.41-2.09,3.07-2.09,4.97s.7,3.54,2.09,4.93c1.39,1.39,3.04,2.09,4.95,2.09s3.54-.7,4.9-2.09c1.36-1.39,2.03-3.04,2.03-4.95s-.68-3.57-2.05-4.97c-1.37-1.4-3-2.1-4.9-2.1Z"/><path class="cls-16" d="M50.13,6.85c-1.9,0-3.54,.71-4.94,2.12-1.39,1.41-2.09,3.07-2.09,4.97s.7,3.54,2.09,4.93c1.39,1.39,3.04,2.09,4.95,2.09s3.54-.7,4.9-2.09c1.36-1.39,2.03-3.04,2.03-4.95s-.68-3.57-2.05-4.97c-1.37-1.4-3-2.1-4.9-2.1Z"/><path class="cls-16" d="M8.11,6.85c-1.9,0-3.54,.71-4.94,2.12-1.39,1.41-2.09,3.07-2.09,4.97s.7,3.54,2.09,4.93c1.39,1.39,3.04,2.09,4.95,2.09s3.54-.7,4.9-2.09c1.36-1.39,2.03-3.04,2.03-4.95s-.68-3.57-2.05-4.97c-1.37-1.4-3-2.1-4.9-2.1Zm3.9,10.88c-1.05,1.1-2.33,1.65-3.84,1.65h-.21c-1.49,0-2.77-.55-3.84-1.66-1.07-1.11-1.6-2.4-1.6-3.87s.54-2.75,1.63-3.82c1.08-1.08,2.39-1.62,3.92-1.62s2.83,.54,3.91,1.62c1.08,1.08,1.62,2.36,1.62,3.84s-.53,2.77-1.58,3.87Z"/><path class="cls-16" d="M115.5,6.28c.78-.25,1.61-.38,2.5-.38,.57,0,1.13,.06,1.68,.18,.23-.23,.42-.48,.58-.76,.28-.49,.42-1,.42-1.53,0-.85-.32-1.59-.95-2.22-.63-.63-1.38-.95-2.25-.95-.87,0-1.62,.32-2.25,.95-.63,.63-.95,1.37-.95,2.22,0,.53,.14,1.04,.41,1.53,.21,.37,.48,.69,.8,.96Z"/><path class="cls-16" d="M229.46,11.78c-1.19,0-2.16,.97-2.16,2.16s.97,2.16,2.16,2.16,2.16-.97,2.16-2.16-.97-2.16-2.16-2.16Zm0,3.71c-.86,0-1.55-.69-1.55-1.55s.69-1.55,1.55-1.55,1.55,.69,1.55,1.55-.69,1.55-1.55,1.55Z"/><path class="cls-16" d="M243.97,13.98h0Z"/><path class="cls-22" d="M36.29,16.01V7.26h4.68v-.95h-4.68V.14h-1.09v15.87c0,1.67,.56,3.05,1.7,4.12,1.13,1.07,2.5,1.61,4.1,1.61v-.95c-1.31,0-2.43-.45-3.34-1.36-.92-.9-1.37-2.05-1.37-3.43Z"/><path class="cls-1" d="M131.8,5.73c0-1.38,.46-2.52,1.37-3.43,.92-.9,2.03-1.36,3.34-1.36V0c-1.61,0-2.97,.54-4.1,1.61-1.13,1.07-1.7,2.45-1.7,4.12v15.7h1.09v-5.83h4.75v-.95h-4.75V5.73Z"/><path class="cls-21" d="M50.11,5.9c-2.23,0-4.13,.79-5.72,2.36-1.58,1.57-2.37,3.43-2.37,5.58s.78,4.03,2.34,5.65c1.56,1.62,3.43,2.42,5.6,2.42h.31c2.19,0,4.06-.8,5.6-2.41,1.54-1.61,2.31-3.49,2.31-5.65s-.79-4.02-2.36-5.6c-1.57-1.57-3.47-2.36-5.7-2.36Zm4.94,12.97c-1.36,1.39-2.99,2.09-4.9,2.09s-3.56-.7-4.95-2.09c-1.39-1.39-2.09-3.04-2.09-4.93s.7-3.56,2.09-4.97c1.39-1.41,3.04-2.12,4.94-2.12s3.53,.7,4.9,2.1c1.37,1.4,2.05,3.06,2.05,4.97s-.68,3.56-2.03,4.95Z"/><path class="cls-28" d="M76.59,5.9c-1.38,0-2.55,.33-3.51,.98-.96,.66-1.61,1.53-1.95,2.61-.41-1.06-1.05-1.93-1.93-2.59-.88-.67-1.8-1-2.76-1s-1.89,.25-2.78,.75c-.89,.5-1.57,1.09-2.02,1.76v-2.14h-1.09v15.26h1.09V11.36c0-1.2,.45-2.25,1.36-3.15s1.97-1.36,3.19-1.36,2.26,.45,3.12,1.34c.86,.89,1.29,1.95,1.29,3.17v10.18h1.09V11.36c0-1.2,.47-2.25,1.41-3.15,.94-.9,2.01-1.36,3.22-1.36s2.24,.44,3.1,1.31c.86,.87,1.29,1.96,1.29,3.27v10.11h1.09V11.43c0-1.7-.52-3.04-1.56-4.04-1.04-.99-2.25-1.49-3.63-1.49Z"/><path class="cls-15" d="M124.92,10.11c-.52-1.27-1.44-2.28-2.76-3.05-.63-.36-1.27-.64-1.93-.83,.59-.67,.89-1.46,.89-2.36,0-1.05-.36-1.93-1.07-2.65-.71-.72-1.56-1.08-2.54-1.08-.98,0-1.83,.35-2.56,1.06-.73,.71-1.09,1.55-1.09,2.54v.14c0,1.03,.38,1.89,1.12,2.6-.97,.39-1.87,.99-2.67,1.79-1.58,1.57-2.37,3.45-2.37,5.65s.79,4.08,2.37,5.65c1.58,1.57,3.48,2.36,5.7,2.36,1.45,0,2.8-.37,4.07-1.12,1.27-.75,2.22-1.76,2.85-3.05v3.8h1.09V6.27h-1.09v3.83Zm-10.22-4.78c-.28-.49-.42-1-.41-1.53,0-.85,.32-1.59,.95-2.22,.63-.63,1.38-.95,2.25-.95,.87,0,1.62,.32,2.25,.95,.63,.63,.95,1.37,.95,2.22,0,.53-.14,1.04-.42,1.53-.16,.28-.36,.53-.58,.76-.55-.12-1.11-.18-1.68-.18-.88,0-1.72,.13-2.5,.38-.33-.27-.59-.59-.8-.96Zm8.25,13.55c-1.36,1.39-2.99,2.09-4.9,2.09s-3.56-.7-4.95-2.09c-1.39-1.39-2.09-3.04-2.09-4.93s.7-3.56,2.09-4.97c1.39-1.41,3.04-2.12,4.93-2.12s3.53,.7,4.9,2.1c1.37,1.4,2.05,3.06,2.05,4.97s-.68,3.56-2.03,4.95Z"/><path class="cls-8" d="M104.19,16.01V7.26h4.68v-.95h-4.68V.14h-1.09v15.87c0,1.67,.56,3.05,1.7,4.12,1.13,1.07,2.5,1.61,4.1,1.61v-.95c-1.31,0-2.43-.45-3.34-1.36-.92-.9-1.37-2.05-1.37-3.43Z"/><path class="cls-17" d="M99.14,10.11c-.52-1.27-1.44-2.28-2.76-3.05-1.32-.77-2.71-1.15-4.16-1.15-2.22,0-4.12,.79-5.7,2.36-1.58,1.57-2.37,3.45-2.37,5.65s.79,4.08,2.37,5.65c1.58,1.57,3.48,2.36,5.7,2.36,1.45,0,2.8-.37,4.07-1.12,1.27-.75,2.22-1.76,2.85-3.05v3.8h1.09V6.27h-1.09v3.83Zm-1.97,8.77c-1.36,1.39-2.99,2.09-4.9,2.09s-3.56-.7-4.95-2.09c-1.39-1.39-2.09-3.04-2.09-4.93s.7-3.56,2.09-4.97c1.39-1.41,3.04-2.12,4.93-2.12s3.53,.7,4.9,2.1c1.37,1.4,2.05,3.06,2.05,4.97s-.68,3.56-2.03,4.95Z"/><path class="cls-29" d="M14.99,10.11c-.52-1.27-1.44-2.28-2.76-3.05-1.32-.77-2.71-1.15-4.16-1.15-2.22,0-4.12,.79-5.7,2.36-1.58,1.57-2.37,3.45-2.37,5.65s.79,4.08,2.37,5.65c1.58,1.57,3.48,2.36,5.7,2.36,1.45,0,2.8-.37,4.07-1.12,1.27-.75,2.22-1.76,2.85-3.05v3.8h1.09V6.27h-1.09v3.83Zm-1.97,8.77c-1.36,1.39-2.99,2.09-4.9,2.09s-3.56-.7-4.95-2.09c-1.39-1.39-2.09-3.04-2.09-4.93s.7-3.56,2.09-4.97c1.39-1.41,3.04-2.12,4.94-2.12s3.53,.7,4.9,2.1c1.37,1.4,2.05,3.06,2.05,4.97s-.68,3.56-2.03,4.95Z"/><path class="cls-19" d="M230.37,10.31c.63,.07,1.18,.34,1.65,.76,.07,.07,.14,.09,.2,.09,.09,0,.15-.08,.16-.1,.12-.15,1.34-1.5,3.01-3.38-1.63,1.44-2.79,2.47-2.94,2.62-.02,.02-.1,.1-.21,.11-.07,0-.14-.02-.22-.07-.26-.17-.53-.3-.84-.46,.33-.61,.9-.86,1.57-.97-.72-.26-2.16,.45-2.54,1.35,.05,.02,.1,.06,.15,.06Z"/><polygon class="cls-10" points="234.47 8.86 234.04 9.76 234.98 9.44 237.81 6.44 234.47 8.86"/><path class="cls-9" d="M237.98,5.75c.39,.36,.72,.67,1.1,1.15,.44,.54,1.67,2.21,1.78,2.35,.04,.05,.07,.11,.16,.14-.05-.14-.1-.28-.16-.42-.4-.9-.9-1.73-1.55-2.47-.2-.23-.22-.46-.1-.69,.19-.34,.41-.67,.63-1,.06-.09,.14-.17,.21-.25l-.02-.03c-.28,.2-.57,.41-.86,.61-.12,.08-.25,.14-.38,.2-.27,.12-.5,.1-.76-.12-.81-.7-1.73-1.24-2.73-1.65-.06-.03-.13-.05-.19-.07-.01,0-.03,0-.06,0,.47,.33,.95,.63,1.4,.98,.27,.21,.85,.63,1.51,1.25Z"/><path class="cls-30" d="M8.07,8.41c-1.53,0-2.83,.54-3.92,1.62-1.09,1.08-1.63,2.35-1.63,3.82s.53,2.76,1.6,3.87c1.07,1.11,2.35,1.66,3.84,1.66h.21c1.5,0,2.78-.55,3.84-1.65,1.05-1.1,1.58-2.39,1.58-3.87s-.54-2.76-1.62-3.84c-1.08-1.08-2.38-1.62-3.91-1.62Z"/><path class="cls-31" d="M233.32,11.26c.17-.13,1.33-1.16,2.95-2.61-2.06,1.44-3.55,2.49-3.71,2.59-.02,.02-.1,.07-.12,.15-.01,.06,0,.12,.07,.21,.36,.52,.56,1.09,.56,1.73,0,.05,.03,.11,.05,.16,.93-.27,1.81-1.62,1.64-2.36-.19,.65-.51,1.18-1.15,1.44-.13-.32-.23-.61-.36-.89-.04-.09-.06-.16-.04-.23,.02-.11,.11-.18,.14-.2Z"/><path class="cls-6" d="M229.51,10.67c.15-.77,.18-1.53,.94-1.85-.87-2.88-.77-5.85-.97-8.79-.01,.15-.03,.3-.04,.45-.09,1.6-.15,3.2-.27,4.8-.09,1.19-.21,2.39-.71,3.53,.85,.3,.84,1.12,1.04,1.86Z"/><path class="cls-3" d="M229.46,11.26c-1.48,0-2.67,1.2-2.67,2.67s1.2,2.67,2.67,2.67,2.67-1.2,2.67-2.67-1.2-2.67-2.67-2.67Zm0,4.83c-1.19,0-2.16-.97-2.16-2.16s.97-2.16,2.16-2.16,2.16,.97,2.16,2.16-.97,2.16-2.16,2.16Z"/><path class="cls-11" d="M229.46,12.39c-.86,0-1.55,.69-1.55,1.55s.69,1.55,1.55,1.55,1.55-.69,1.55-1.55-.69-1.55-1.55-1.55Z"/><path class="cls-2" d="M31.58,15.16c0,1.56-.59,2.92-1.78,4.07-1.19,1.15-2.56,1.73-4.12,1.73s-2.89-.58-3.99-1.73c-1.1-1.15-1.65-2.51-1.65-4.07V6.27h-1.09V15.16c0,1.88,.64,3.47,1.93,4.78,1.29,1.31,2.88,1.97,4.78,1.97,2.78,0,4.75-1.15,5.9-3.46v3.09h1.09V6.27h-1.09V15.16Z"/><path class="cls-4" d="M220.4,15.06c0,1.56-.57,2.92-1.71,4.07-1.14,1.15-2.49,1.73-4.05,1.73s-2.91-.58-4.05-1.73c-1.14-1.15-1.71-2.51-1.71-4.07V6.17h-1.09V15.06c0,1.85,.67,3.44,2,4.77,1.33,1.32,2.94,1.98,4.82,1.98,2.76,0,4.69-1.11,5.8-3.32v2.58c0,1.7-.61,3.15-1.83,4.36-1.22,1.21-2.67,1.81-4.34,1.81-1.13,0-2.21-.32-3.24-.97-1.03-.64-1.86-1.51-2.49-2.59l-.07,1.7c1.42,1.88,3.36,2.82,5.8,2.82,2.03,0,3.75-.7,5.16-2.1,1.4-1.4,2.1-3.11,2.1-5.12V6.17h-1.09V15.06Z"/><path class="cls-27" d="M200.15,6.55c-.86,.5-1.49,1.13-1.9,1.9v-2.27h-1.09v15.26h1.09V11.26c0-1.2,.46-2.25,1.37-3.15,.92-.9,1.97-1.36,3.17-1.36s2.29,.5,3.29,1.49v-1.36c-.97-.72-1.99-1.09-3.05-1.09s-2.02,.25-2.88,.75Z"/><path class="cls-7" d="M240.63,19.44c-.1,.14-1.34,1.81-1.78,2.35-.39,.47-.72,.78-1.1,1.15-.66,.62-1.25,1.05-1.51,1.25-.45,.35-.93,.65-1.4,.98,.03,0,.04,.01,.06,0,.06-.02,.13-.04,.19-.07,1-.41,1.91-.95,2.73-1.65,.25-.22,.48-.24,.76-.12,.13,.06,.26,.12,.38,.2,.29,.2,.57,.41,.86,.61l.02-.03c-.07-.08-.15-.16-.21-.25-.21-.33-.44-.65-.63-1-.13-.23-.1-.46,.1-.69,.65-.74,1.15-1.57,1.55-2.47,.06-.14,.11-.28,.16-.42-.09,.03-.12,.09-.16,.14Z"/><path class="cls-13" d="M186.73,5.8c-2.23,0-4.13,.79-5.71,2.36-1.58,1.57-2.37,3.43-2.37,5.58s.78,4.03,2.34,5.65c.97,1,2.06,1.7,3.26,2.08-.77,.71-1.16,1.59-1.16,2.64v.14c0,.98,.36,1.83,1.09,2.54,.73,.71,1.58,1.06,2.56,1.06,.98,0,1.82-.36,2.54-1.08,.71-.72,1.07-1.6,1.07-2.65,0-1.03-.38-1.91-1.15-2.64,1.22-.38,2.32-1.07,3.28-2.07,1.54-1.61,2.31-3.49,2.31-5.65s-.79-4.02-2.36-5.6c-1.57-1.57-3.47-2.36-5.7-2.36Zm2.77,16.84c.28,.49,.42,1,.42,1.53,0,.85-.32,1.59-.95,2.22-.63,.63-1.38,.95-2.25,.95-.87,0-1.62-.32-2.25-.95-.63-.63-.95-1.37-.95-2.22,0-.53,.14-1.04,.41-1.53,.23-.4,.53-.74,.9-1.03,.56,.13,1.14,.2,1.75,.2h.31c.6,0,1.18-.07,1.73-.19,.36,.29,.65,.62,.88,1.02Z"/><path class="cls-20" d="M231.27,18.3c.31-.15,.59-.28,.85-.43,.09-.05,.16-.07,.22-.06,.11,.01,.18,.1,.21,.12,.14,.16,1.26,1.23,2.84,2.73-1.6-1.94-2.77-3.34-2.88-3.49-.02-.02-.07-.1-.16-.11-.06,0-.12,.02-.2,.08-.49,.4-1.04,.65-1.68,.69-.05,0-.1,.04-.16,.06,.34,.91,1.76,1.67,2.49,1.44-.67-.14-1.22-.41-1.53-1.03Z"/><path class="cls-26" d="M228.6,17.76c-.64-.05-1.19-.29-1.68-.69-.08-.06-.14-.09-.2-.08-.09,.01-.14,.08-.16,.11-.12,.15-1.28,1.55-2.88,3.49,1.58-1.5,2.7-2.57,2.84-2.73,.02-.02,.09-.11,.21-.12,.07,0,.14,.01,.22,.06,.26,.16,.55,.28,.85,.43-.31,.62-.86,.89-1.53,1.03,.73,.23,2.14-.53,2.49-1.44-.05-.02-.1-.06-.16-.06Z"/><path class="cls-18" d="M226.82,10.33c-.11-.01-.19-.09-.21-.11-.15-.15-1.31-1.18-2.94-2.62,1.68,1.88,2.89,3.23,3.01,3.38,.02,.02,.08,.09,.16,.1,.06,0,.12-.02,.2-.09,.47-.42,1.02-.69,1.65-.76,.05,0,.1-.04,.15-.06-.38-.89-1.82-1.6-2.54-1.35,.67,.12,1.23,.36,1.57,.97-.3,.17-.58,.3-.84,.46-.08,.05-.15,.08-.22,.07Z"/><polygon class="cls-14" points="234.49 19.44 237.71 22.01 235.03 18.88 234.1 18.52 234.49 19.44"/><path class="cls-32" d="M158.4,8.23c-1.58,1.57-2.37,3.44-2.37,5.6s.78,4.04,2.34,5.65c1.56,1.61,3.43,2.41,5.6,2.41h.31c2.33,0,4.28-.87,5.87-2.61v-1.76c-.7,1.06-1.59,1.9-2.66,2.51-1.07,.61-2.2,.92-3.37,.92-1.88,0-3.51-.7-4.9-2.09-1.39-1.39-2.09-3.05-2.09-4.97s.7-3.58,2.09-4.97c1.39-1.39,3.02-2.09,4.9-2.09,1.18,0,2.3,.31,3.37,.92,1.07,.61,1.96,1.44,2.66,2.48v-1.73c-1.63-1.74-3.6-2.61-5.9-2.61s-4.25,.79-5.83,2.36Z"/><path class="cls-23" d="M233.76,15.69c.64,.28,.93,.82,1.1,1.48,.2-.74-.63-2.12-1.55-2.42-.02,.05-.05,.11-.05,.16-.02,.64-.24,1.2-.62,1.71-.06,.08-.08,.15-.07,.2,.01,.09,.09,.14,.11,.16,.16,.11,1.61,1.21,3.61,2.73-1.57-1.51-2.68-2.58-2.85-2.72-.02-.02-.11-.09-.13-.2-.01-.07,0-.14,.05-.22,.14-.27,.26-.56,.4-.87Z"/><path class="cls-5" d="M229.46,17.45c-.18,.74-.18,1.52-.95,1.82,.89,2.91,.76,5.91,.96,8.92,.08-1.55,.14-3.07,.26-4.58,.11-1.46,.19-2.93,.77-4.32-.83-.31-.85-1.1-1.03-1.84Z"/><path class="cls-24" d="M152.56,10.01c-.52-1.27-1.44-2.28-2.76-3.05-1.32-.77-2.71-1.15-4.16-1.15-2.22,0-4.12,.79-5.7,2.36-1.58,1.57-2.37,3.45-2.37,5.65s.79,4.08,2.37,5.65c1.58,1.57,3.48,2.36,5.7,2.36,1.45,0,2.8-.37,4.07-1.12,1.27-.75,2.22-1.76,2.85-3.05v3.8h1.09V6.17h-1.09v3.83Zm-1.97,8.77c-1.36,1.39-2.99,2.09-4.9,2.09s-3.56-.7-4.95-2.09c-1.39-1.39-2.09-3.04-2.09-4.93s.7-3.56,2.09-4.97c1.39-1.41,3.04-2.12,4.94-2.12s3.53,.7,4.9,2.1c1.37,1.4,2.05,3.06,2.05,4.97s-.68,3.56-2.03,4.95Z"/><path class="cls-25" d="M239.54,13.75c-1.55-.11-3.11-.2-4.59-.78-.31,.81-1.07,.84-1.76,1.02,.7,.17,1.46,.2,1.75,.95,2.98-.89,6.04-.76,9.03-.96h0c-1.45-.08-2.94-.13-4.43-.23Z"/><path class="cls-12" d="M172.91,15.91V7.16h4.68v-.95h-4.68V.03h-1.09V15.91c0,1.67,.56,3.05,1.7,4.12,1.13,1.07,2.5,1.61,4.1,1.61v-.95c-1.31,0-2.43-.45-3.34-1.36-.92-.9-1.37-2.05-1.37-3.43Z"/></g></g></svg>