<?xml version="1.0" encoding="UTF-8"?><svg id="Layer_2" xmlns="http://www.w3.org/2000/svg" xmlns:xlink="http://www.w3.org/1999/xlink" viewBox="0 0 196.37 78.58"><defs><style>.cls-1{fill:url(#linear-gradient-2);}.cls-2{fill:url(#linear-gradient-17);}.cls-3{fill:url(#linear-gradient-15);}.cls-4{fill:url(#linear-gradient-18);}.cls-5{fill:url(#linear-gradient-28);}.cls-6{fill:url(#linear-gradient-14);}.cls-7{fill:url(#linear-gradient-20);}.cls-8{fill:url(#linear-gradient-6);}.cls-9{fill:url(#linear-gradient-11);}.cls-10{fill:url(#linear-gradient-10);}.cls-11{fill:url(#linear-gradient-16);}.cls-12{fill:url(#linear-gradient-31);}.cls-13{fill:url(#linear-gradient-21);}.cls-14{fill:url(#linear-gradient-25);}.cls-15{fill:url(#linear-gradient-5);}.cls-16{fill:url(#linear-gradient-7);}.cls-17{fill:#ccc;}.cls-18{fill:url(#linear-gradient-24);}.cls-19{fill:url(#linear-gradient-9);}.cls-20{fill:url(#linear-gradient-22);}.cls-21{fill:url(#linear-gradient-3);}.cls-22{fill:url(#linear-gradient);}.cls-23{fill:url(#linear-gradient-27);}.cls-24{fill:url(#linear-gradient-29);}.cls-25{fill:url(#linear-gradient-30);}.cls-26{fill:url(#linear-gradient-23);}.cls-27{fill:url(#linear-gradient-19);}.cls-28{fill:url(#linear-gradient-4);}.cls-29{fill:url(#linear-gradient-8);}.cls-30{fill:url(#linear-gradient-12);}.cls-31{fill:url(#linear-gradient-13);}.cls-32{fill:url(#linear-gradient-26);}</style><linearGradient id="linear-gradient" x1="-337.75" y1="544.95" x2="-104.45" y2="558.52" gradientTransform="translate(-172.67 604.74) rotate(-180)" gradientUnits="userSpaceOnUse"><stop offset="0" stop-color="#2761a9"/><stop offset=".25" stop-color="#652e61"/><stop offset=".5" stop-color="#54013f"/><stop offset=".75" stop-color="#e02820"/><stop offset="1" stop-color="#ff4500"/></linearGradient><linearGradient id="linear-gradient-2" x1="-339.83" y1="580.56" x2="-106.52" y2="594.13" xlink:href="#linear-gradient"/><linearGradient id="linear-gradient-3" x1="-339.56" y1="576.02" x2="-106.26" y2="589.59" xlink:href="#linear-gradient"/><linearGradient id="linear-gradient-4" x1="-338.08" y1="550.59" x2="-104.78" y2="564.16" xlink:href="#linear-gradient"/><linearGradient id="linear-gradient-5" x1="-339.79" y1="579.98" x2="-106.49" y2="593.55" xlink:href="#linear-gradient"/><linearGradient id="linear-gradient-6" x1="-339.49" y1="574.78" x2="-106.19" y2="588.35" xlink:href="#linear-gradient"/><linearGradient id="linear-gradient-7" x1="-337.86" y1="546.72" x2="-104.55" y2="560.28" xlink:href="#linear-gradient"/><linearGradient id="linear-gradient-8" x1="-339.51" y1="575.13" x2="-106.21" y2="588.7" xlink:href="#linear-gradient"/><linearGradient id="linear-gradient-9" x1="-338" y1="549.14" x2="-104.7" y2="562.7" xlink:href="#linear-gradient"/><linearGradient id="linear-gradient-10" x1="-338.56" y1="558.78" x2="-105.26" y2="572.35" xlink:href="#linear-gradient"/><linearGradient id="linear-gradient-11" x1="-339.31" y1="571.75" x2="-106.01" y2="585.31" xlink:href="#linear-gradient"/><linearGradient id="linear-gradient-12" x1="-337.97" y1="548.57" x2="-104.66" y2="562.14" xlink:href="#linear-gradient"/><linearGradient id="linear-gradient-13" x1="-337.84" y1="546.41" x2="-104.54" y2="559.98" xlink:href="#linear-gradient"/><linearGradient id="linear-gradient-14" x1="-339.46" y1="574.27" x2="-106.16" y2="587.84" xlink:href="#linear-gradient"/><linearGradient id="linear-gradient-15" x1="-337.8" y1="545.72" x2="-104.5" y2="559.29" xlink:href="#linear-gradient"/><linearGradient id="linear-gradient-16" x1="-339.98" y1="583.19" x2="-106.68" y2="596.75" xlink:href="#linear-gradient"/><linearGradient id="linear-gradient-17" x1="-339.9" y1="581.9" x2="-106.6" y2="595.47" xlink:href="#linear-gradient"/><linearGradient id="linear-gradient-18" x1="-337.85" y1="546.65" x2="-104.55" y2="560.21" xlink:href="#linear-gradient"/><linearGradient id="linear-gradient-19" x1="-338.93" y1="565.08" x2="-105.62" y2="578.65" xlink:href="#linear-gradient"/><linearGradient id="linear-gradient-20" x1="-338.93" y1="565.08" x2="-105.62" y2="578.65" xlink:href="#linear-gradient"/><linearGradient id="linear-gradient-21" x1="-339.69" y1="578.15" x2="-106.38" y2="591.72" xlink:href="#linear-gradient"/><linearGradient id="linear-gradient-22" x1="-339.27" y1="570.98" x2="-105.97" y2="584.55" xlink:href="#linear-gradient"/><linearGradient id="linear-gradient-23" x1="-338.35" y1="555.25" x2="-105.05" y2="568.81" xlink:href="#linear-gradient"/><linearGradient id="linear-gradient-24" x1="-339.56" y1="575.93" x2="-106.25" y2="589.5" xlink:href="#linear-gradient"/><linearGradient id="linear-gradient-25" x1="-339.41" y1="573.47" x2="-106.11" y2="587.04" xlink:href="#linear-gradient"/><linearGradient id="linear-gradient-26" x1="-338.19" y1="552.5" x2="-104.89" y2="566.07" xlink:href="#linear-gradient"/><linearGradient id="linear-gradient-27" x1="-338.3" y1="554.37" x2="-105" y2="567.93" xlink:href="#linear-gradient"/><linearGradient id="linear-gradient-28" x1="-338.96" y1="565.7" x2="-105.66" y2="579.27" xlink:href="#linear-gradient"/><linearGradient id="linear-gradient-29" x1="-339.27" y1="571" x2="-105.97" y2="584.57" xlink:href="#linear-gradient"/><linearGradient id="linear-gradient-30" x1="-339.33" y1="572.03" x2="-106.03" y2="585.59" xlink:href="#linear-gradient"/><linearGradient id="linear-gradient-31" x1="-337.95" y1="548.24" x2="-104.64" y2="561.81" xlink:href="#linear-gradient"/></defs><g id="Layer_1-2"><g><path class="cls-17" d="M108.24,17.85c-1.95,0-3.65,.75-5.08,2.25-1.43,1.5-2.15,3.26-2.15,5.28s.72,3.76,2.15,5.24c1.43,1.48,3.13,2.22,5.09,2.22s3.65-.74,5.04-2.22c1.4-1.48,2.09-3.23,2.09-5.26s-.7-3.79-2.11-5.28c-1.41-1.49-3.09-2.23-5.04-2.23Z"/><path class="cls-17" d="M109.5,61.55c-.57,.13-1.16,.2-1.78,.2h-.31c-.62,0-1.22-.07-1.8-.21-.38,.31-.69,.67-.93,1.1-.28,.52-.43,1.06-.43,1.63,0,.9,.32,1.69,.97,2.36,.65,.67,1.42,1,2.32,1,.9,0,1.67-.34,2.32-1.01,.65-.67,.97-1.46,.97-2.36,0-.57-.14-1.11-.43-1.63-.23-.42-.54-.78-.91-1.09Z"/><path class="cls-17" d="M134.72,16.84c.59,0,1.17,.07,1.73,.19,.23-.24,.43-.51,.6-.8,.28-.52,.43-1.06,.43-1.63,0-.9-.32-1.69-.97-2.36-.65-.67-1.42-1-2.32-1.01-.9,0-1.67,.33-2.32,1s-.97,1.46-.97,2.36c0,.57,.14,1.11,.43,1.63,.21,.39,.49,.73,.82,1.02,.81-.27,1.66-.4,2.57-.4Z"/><path class="cls-17" d="M65.31,45.75c-1.95,0-3.65,.75-5.08,2.25-1.43,1.5-2.15,3.26-2.15,5.28s.72,3.76,2.15,5.24c1.43,1.48,3.13,2.22,5.1,2.22s3.65-.74,5.04-2.22c1.4-1.48,2.09-3.23,2.09-5.26s-.7-3.79-2.11-5.28c-1.41-1.49-3.09-2.23-5.04-2.23Z"/><path class="cls-17" d="M21.65,17.85c-1.95,0-3.65,.75-5.08,2.25-1.43,1.5-2.15,3.26-2.15,5.28s.72,3.76,2.15,5.24c1.43,1.48,3.13,2.22,5.1,2.22s3.65-.74,5.04-2.22c1.4-1.48,2.09-3.23,2.09-5.26s-.7-3.79-2.11-5.28c-1.41-1.49-3.09-2.23-5.04-2.23Zm4.01,11.55c-1.08,1.17-2.4,1.75-3.95,1.75h-.22c-1.53,0-2.85-.59-3.95-1.77-1.1-1.18-1.65-2.55-1.65-4.11s.56-2.92,1.67-4.06c1.12-1.14,2.46-1.72,4.03-1.72s2.91,.57,4.02,1.72c1.11,1.14,1.66,2.5,1.66,4.07s-.54,2.94-1.63,4.11Z"/><path class="cls-17" d="M139.82,30.62c1.4-1.48,2.09-3.23,2.09-5.26s-.7-3.79-2.11-5.28c-1.41-1.49-3.09-2.23-5.04-2.23s-3.65,.75-5.08,2.25c-1.43,1.5-2.15,3.26-2.15,5.28s.72,3.76,2.15,5.24c1.43,1.48,3.13,2.22,5.09,2.22s3.65-.74,5.04-2.22Z"/><path class="cls-17" d="M64.91,32.83c1.97,0,3.65-.74,5.04-2.22,1.4-1.48,2.09-3.23,2.09-5.26s-.7-3.79-2.11-5.28c-1.41-1.49-3.09-2.23-5.04-2.23s-3.65,.75-5.08,2.25c-1.43,1.5-2.15,3.26-2.15,5.28s.72,3.76,2.15,5.24c1.43,1.48,3.13,2.22,5.1,2.22Z"/><path class="cls-17" d="M159.01,34.68c-2.44,0-4.42,2.04-4.42,4.56s1.98,4.56,4.42,4.56,4.42-2.04,4.42-4.56-1.98-4.56-4.42-4.56Zm0,7.84c-1.76,0-3.18-1.47-3.18-3.28s1.42-3.28,3.18-3.28,3.18,1.47,3.18,3.28-1.42,3.28-3.18,3.28Z"/><path class="cls-17" d="M157.08,0H39.29C17.59,0,0,17.59,0,39.29H0c0,21.7,17.59,39.29,39.29,39.29h117.79c21.7,0,39.29-17.59,39.29-39.29h0c0-21.7-17.59-39.29-39.29-39.29Zm13.53,17.18c.13,.04,.26,.09,.39,.14,2.04,.86,3.92,2,5.59,3.49,.52,.46,.99,.5,1.55,.25,.27-.12,.53-.26,.77-.42,.59-.42,1.17-.86,1.75-1.29l.04,.06c-.14,.18-.3,.34-.42,.53-.44,.7-.9,1.39-1.28,2.11-.26,.5-.22,.98,.2,1.46,1.33,1.56,2.36,3.32,3.17,5.22,.12,.29,.22,.59,.33,.89-.18-.07-.25-.19-.33-.3-.21-.29-2.74-3.83-3.64-4.97-.79-1-1.47-1.66-2.26-2.42-1.36-1.31-2.55-2.22-3.1-2.65-.92-.73-1.9-1.38-2.87-2.07,.06,0,.09-.02,.12-.02Zm-3.9,17.29c.28,.58,.48,1.2,.74,1.87,1.32-.54,1.96-1.67,2.36-3.05,.35,1.57-1.44,4.43-3.35,5-.03-.11-.1-.23-.09-.34,0-1.35-.4-2.56-1.14-3.66-.12-.17-.16-.31-.13-.44,.04-.18,.2-.29,.25-.32,.33-.22,3.38-2.43,7.6-5.49-3.32,3.07-5.69,5.25-6.04,5.52-.05,.04-.24,.18-.28,.41-.03,.14,0,.29,.09,.48Zm.46,11.22c.33,.29,2.63,2.56,5.83,5.75-4.11-3.21-7.08-5.54-7.4-5.77-.05-.04-.2-.15-.23-.33-.02-.12,.03-.26,.15-.43,.78-1.06,1.23-2.26,1.27-3.61,0-.11,.07-.22,.11-.34,1.89,.64,3.58,3.57,3.17,5.12-.35-1.39-.95-2.54-2.25-3.13-.29,.67-.51,1.27-.81,1.84-.1,.19-.13,.34-.11,.48,.04,.23,.22,.38,.27,.42Zm8.74,10.63l-6.59-5.45-.8-1.93,1.9,.76,5.49,6.63Zm-5.6-26.59l-1.93,.67,.89-1.89,6.84-5.12-5.8,6.34Zm-4.56-1.16c-1.37,.25-2.53,.77-3.21,2.06,.62,.35,1.19,.63,1.72,.98,.17,.11,.31,.16,.45,.15,.23-.02,.38-.19,.43-.24,.3-.32,2.68-2.5,6.02-5.54-3.43,3.97-5.92,6.84-6.17,7.15-.04,.05-.16,.2-.34,.21-.12,.01-.25-.05-.4-.19-.96-.88-2.08-1.45-3.38-1.6-.11-.01-.21-.09-.32-.14,.77-1.89,3.73-3.39,5.2-2.85Zm-1.27,10.67c0,3.12-2.45,5.65-5.48,5.65s-5.48-2.53-5.48-5.65,2.45-5.65,5.48-5.65,5.48,2.53,5.48,5.65Zm-6.06-18.31c.26-3.38,.38-6.77,.56-10.15,.02-.32,.05-.64,.08-.96,.4,6.23,.19,12.5,1.98,18.6-1.56,.67-1.63,2.28-1.93,3.91-.41-1.57-.4-3.29-2.14-3.93,1.02-2.41,1.26-4.95,1.45-7.47Zm-39.02-10.22h1.12v6.56h4.82v1.01h-4.82v9.29c0,1.47,.47,2.68,1.41,3.64,.94,.96,2.09,1.44,3.44,1.44v1.01c-1.65,0-3.06-.57-4.22-1.71-1.16-1.14-1.75-2.6-1.75-4.38V10.71ZM29.86,33.45h-1.12v-4.04c-.65,1.37-1.63,2.45-2.93,3.24-1.3,.79-2.7,1.19-4.19,1.19-2.28,0-4.23-.83-5.86-2.5-1.63-1.67-2.44-3.67-2.44-6s.81-4.33,2.44-6c1.63-1.67,3.58-2.5,5.86-2.5,1.49,0,2.91,.41,4.28,1.22,1.36,.82,2.31,1.9,2.84,3.24v-4.07h1.12v16.21Zm17.07,0h-1.12v-3.28c-1.19,2.45-3.21,3.67-6.07,3.67-1.95,0-3.59-.7-4.92-2.09-1.33-1.39-1.99-3.09-1.99-5.08v-9.44h1.12v9.44c0,1.66,.56,3.1,1.69,4.32,1.13,1.22,2.5,1.84,4.1,1.84s3.02-.61,4.24-1.84c1.22-1.22,1.83-2.67,1.83-4.32v-9.44h1.12v16.21Zm2.62-22.73h1.12v6.56h4.82v1.01h-4.82v9.29c0,1.47,.47,2.68,1.41,3.64,.94,.96,2.09,1.44,3.44,1.44v1.01c-1.65,0-3.06-.57-4.22-1.71-1.16-1.14-1.75-2.6-1.75-4.38V10.71Zm6.39,44.44h-4.89v6.2h-1.12v-16.68c0-1.78,.58-3.24,1.75-4.38,1.16-1.14,2.57-1.71,4.22-1.71v1.01c-1.35,0-2.5,.48-3.44,1.44-.94,.96-1.41,2.17-1.41,3.64v9.47h4.89v1.01Zm3.07-35.82c1.63-1.67,3.59-2.5,5.88-2.5s4.25,.83,5.86,2.5c1.62,1.67,2.43,3.65,2.43,5.94s-.79,4.29-2.37,6c-1.58,1.71-3.5,2.56-5.76,2.56h-.31c-2.23,0-4.15-.86-5.76-2.58-1.61-1.72-2.41-3.72-2.41-6s.81-4.26,2.44-5.93Zm14.52,42.01h-1.12v-4.03c-.65,1.37-1.63,2.45-2.93,3.24-1.3,.79-2.7,1.19-4.19,1.19-2.28,0-4.23-.83-5.86-2.5-1.63-1.67-2.44-3.67-2.44-6s.81-4.33,2.44-6c1.63-1.67,3.58-2.5,5.86-2.5,1.49,0,2.91,.41,4.28,1.22,1.36,.82,2.31,1.9,2.84,3.24v-4.07h1.12v16.21Zm16.96-11.92c-.72-1.1-1.63-1.98-2.74-2.63-1.11-.65-2.26-.97-3.47-.97-1.93,0-3.61,.74-5.04,2.22-1.43,1.48-2.15,3.24-2.15,5.28s.72,3.8,2.15,5.28c1.43,1.48,3.11,2.22,5.04,2.22,1.21,0,2.37-.32,3.47-.97,1.11-.65,2.02-1.54,2.74-2.67v1.87c-1.63,1.85-3.64,2.77-6.04,2.77h-.31c-2.23,0-4.15-.85-5.76-2.56-1.61-1.71-2.41-3.7-2.41-6s.81-4.27,2.44-5.94c1.63-1.67,3.63-2.5,6-2.5s4.4,.92,6.07,2.77v1.84Zm-1.97-30.14c-.97,.96-1.45,2.08-1.45,3.35v10.81h-1.12v-10.81c0-1.3-.44-2.42-1.33-3.37-.88-.95-1.95-1.42-3.21-1.42s-2.35,.48-3.28,1.44c-.93,.96-1.4,2.08-1.4,3.35v10.81h-1.12V17.23h1.12v2.27c.47-.72,1.16-1.34,2.08-1.87,.92-.53,1.87-.79,2.86-.79s1.94,.35,2.84,1.06c.91,.71,1.57,1.63,1.99,2.76,.35-1.15,1.02-2.08,2.01-2.77,.99-.7,2.19-1.04,3.61-1.04s2.66,.53,3.73,1.59c1.07,1.06,1.61,2.49,1.61,4.29v10.74h-1.12v-10.74c0-1.39-.44-2.55-1.33-3.48-.88-.92-1.95-1.39-3.19-1.39s-2.35,.48-3.32,1.44Zm9.68,42.28c-1.65,0-3.06-.57-4.22-1.71-1.16-1.14-1.75-2.6-1.75-4.38v-16.86h1.12v6.56h4.82v1.01h-4.82v9.29c0,1.47,.47,2.68,1.41,3.64,.94,.96,2.09,1.44,3.44,1.44v1.01Zm15.29-2.38c-.99,1.07-2.12,1.8-3.38,2.2,.79,.78,1.18,1.71,1.18,2.8,0,1.11-.37,2.05-1.1,2.81-.73,.76-1.6,1.14-2.61,1.14-1.01,0-1.89-.38-2.63-1.13-.75-.75-1.12-1.65-1.12-2.7v-.15c0-1.11,.4-2.04,1.19-2.8-1.24-.4-2.36-1.14-3.36-2.21-1.61-1.72-2.41-3.72-2.41-6s.81-4.26,2.44-5.93c1.63-1.67,3.59-2.5,5.88-2.5s4.25,.83,5.86,2.5c1.62,1.67,2.43,3.65,2.43,5.94s-.79,4.29-2.37,6Zm2.97-25.75h-1.12v-4.04c-.65,1.37-1.63,2.45-2.93,3.24-1.3,.79-2.7,1.19-4.19,1.19-2.28,0-4.23-.83-5.86-2.5-1.63-1.67-2.44-3.67-2.44-6s.81-4.33,2.44-6c1.63-1.67,3.58-2.5,5.86-2.5,1.49,0,2.91,.41,4.28,1.22,1.36,.82,2.31,1.9,2.84,3.24v-4.07h1.12v16.21Zm11.03,13.89c-1.02-1.06-2.15-1.59-3.39-1.59s-2.32,.48-3.26,1.44c-.94,.96-1.41,2.08-1.41,3.35v10.81h-1.12v-16.21h1.12v2.41c.42-.82,1.07-1.49,1.95-2.02,.88-.53,1.87-.79,2.97-.79s2.14,.38,3.14,1.15v1.44Zm-1.05-22c0-2.33,.81-4.33,2.44-6,.83-.85,1.75-1.48,2.75-1.9-.77-.75-1.15-1.67-1.15-2.76v-.15c0-1.05,.37-1.94,1.12-2.7,.75-.75,1.63-1.13,2.63-1.13,1.01,0,1.88,.38,2.61,1.14,.73,.76,1.1,1.7,1.1,2.81,0,.96-.3,1.8-.91,2.51,.68,.2,1.34,.5,1.98,.88,1.36,.82,2.31,1.9,2.84,3.24v-4.07h1.12v16.21h-1.12v-4.04c-.65,1.37-1.63,2.45-2.93,3.24-1.3,.79-2.7,1.19-4.19,1.19-2.28,0-4.23-.83-5.86-2.5-1.63-1.67-2.44-3.67-2.44-6Zm16.89,35.51c0,2.14-.72,3.95-2.16,5.44-1.44,1.49-3.21,2.23-5.3,2.23-2.51,0-4.5-1-5.97-2.99l.07-1.8c.65,1.15,1.51,2.07,2.57,2.76,1.06,.68,2.17,1.03,3.33,1.03,1.72,0,3.21-.64,4.47-1.93,1.26-1.29,1.88-2.83,1.88-4.63v-2.74c-1.14,2.35-3.13,3.53-5.97,3.53-1.93,0-3.58-.7-4.96-2.11-1.37-1.41-2.06-3.09-2.06-5.06v-9.44h1.12v9.44c0,1.66,.59,3.1,1.76,4.32,1.17,1.22,2.56,1.84,4.17,1.84s3-.61,4.17-1.84c1.17-1.22,1.76-2.67,1.76-4.32v-9.44h1.12v15.71Zm9.24-32.43c1.47-.54,4.43,.96,5.2,2.85-.1,.05-.21,.12-.32,.14-1.3,.15-2.42,.72-3.38,1.6-.15,.14-.28,.2-.4,.19-.18-.02-.3-.17-.34-.21-.25-.31-2.74-3.18-6.17-7.15,3.34,3.04,5.72,5.22,6.02,5.54,.05,.05,.2,.22,.43,.24,.14,.01,.28-.04,.45-.15,.53-.35,1.1-.63,1.72-.98-.68-1.29-1.83-1.81-3.21-2.06Zm-.09,22.07c1.36-.3,2.5-.86,3.13-2.18-.63-.33-1.21-.59-1.75-.92-.18-.11-.32-.15-.46-.13-.23,.03-.38,.21-.42,.26-.29,.33-2.59,2.6-5.82,5.76,3.29-4.1,5.67-7.06,5.91-7.38,.04-.05,.15-.2,.33-.23,.12-.02,.25,.04,.41,.17,.99,.85,2.13,1.37,3.44,1.47,.11,0,.21,.08,.32,.12-.7,1.92-3.61,3.53-5.1,3.05Zm7.09,9.19c-.22,3.02-.34,6.04-.5,9.13,0,.19-.02,.37-.03,.56-.01-.19-.02-.38-.03-.56-.36-6.16-.16-12.32-1.93-18.29,1.58-.65,1.59-2.28,1.95-3.86,.38,1.57,.42,3.24,2.12,3.89-1.19,2.94-1.35,6.05-1.58,9.14Zm6.28-9.04c-1.49,.48-4.39-1.13-5.09-3.05,.11-.04,.21-.12,.32-.12,1.3-.1,2.44-.62,3.44-1.47,.16-.13,.29-.19,.41-.17,.18,.02,.29,.18,.33,.23,.24,.32,2.62,3.29,5.91,7.38-3.23-3.17-5.53-5.43-5.82-5.76-.04-.05-.19-.23-.42-.26-.13-.02-.28,.03-.46,.13-.54,.33-1.12,.59-1.75,.92,.63,1.32,1.77,1.88,3.13,2.18Zm16.04,.83c-.81,1.9-1.84,3.66-3.17,5.22-.41,.48-.46,.97-.2,1.46,.39,.73,.84,1.42,1.28,2.11,.12,.19,.28,.35,.42,.53l-.04,.06c-.58-.43-1.16-.87-1.75-1.29-.24-.17-.51-.3-.77-.42-.56-.25-1.03-.21-1.55,.25-1.66,1.49-3.55,2.63-5.59,3.49-.13,.05-.26,.1-.39,.14-.03,0-.06,0-.12-.02,.97-.69,1.96-1.34,2.87-2.07,.54-.43,1.74-1.34,3.1-2.65,.8-.77,1.47-1.42,2.26-2.42,.9-1.14,3.43-4.68,3.64-4.97,.08-.11,.15-.23,.33-.3-.11,.3-.21,.6-.33,.89Zm6.19-12.1c-5.91,.37-11.95,.16-17.83,1.99-.61-1.58-2.16-1.64-3.59-2.01,1.42-.38,2.98-.46,3.61-2.17,3.03,1.23,6.23,1.43,9.41,1.66,2.82,.2,5.64,.32,8.41,.45,.24,.01,.47,.02,.71,.03-.24,.02-.47,.03-.71,.05Z"/><path class="cls-17" d="M188.07,39.37c.24-.01,.47-.03,.71-.05-.24-.01-.47-.02-.71-.03v.08Z"/><path class="cls-17" d="M159.03,69.38c0-.19,.02-.38,.03-.56h-.06c.01,.19,.02,.38,.03,.56Z"/><path class="cls-17" d="M107.56,44.75c-2.29,0-4.25,.83-5.88,2.5-1.63,1.67-2.44,3.64-2.44,5.93s.8,4.28,2.41,6c1,1.07,2.12,1.8,3.36,2.21-.8,.76-1.19,1.69-1.19,2.8v.15c0,1.05,.37,1.94,1.12,2.7,.75,.75,1.63,1.13,2.63,1.13,1.01,0,1.88-.38,2.61-1.14,.73-.76,1.1-1.7,1.1-2.81,0-1.09-.4-2.03-1.18-2.8,1.26-.4,2.39-1.13,3.38-2.2,1.58-1.71,2.37-3.7,2.37-6s-.81-4.27-2.43-5.94c-1.62-1.67-3.57-2.5-5.86-2.5Zm2.85,17.89c.28,.52,.43,1.06,.43,1.63,0,.9-.32,1.69-.97,2.36-.65,.67-1.42,1-2.32,1.01-.9,0-1.67-.33-2.32-1-.65-.67-.97-1.46-.97-2.36,0-.57,.14-1.11,.43-1.63,.24-.43,.55-.79,.93-1.1,.58,.13,1.17,.21,1.8,.21h.31c.62,0,1.21-.07,1.78-.2,.37,.3,.67,.66,.91,1.09Z"/><path class="cls-22" d="M107.56,44.75c-2.29,0-4.25,.83-5.88,2.5-1.63,1.67-2.44,3.64-2.44,5.93s.8,4.28,2.41,6c1,1.07,2.12,1.8,3.36,2.21-.8,.76-1.19,1.69-1.19,2.8v.15c0,1.05,.37,1.94,1.12,2.7,.75,.75,1.63,1.13,2.63,1.13,1.01,0,1.88-.38,2.61-1.14,.73-.76,1.1-1.7,1.1-2.81,0-1.09-.4-2.03-1.18-2.8,1.26-.4,2.39-1.13,3.38-2.2,1.58-1.71,2.37-3.7,2.37-6s-.81-4.27-2.43-5.94c-1.62-1.67-3.57-2.5-5.86-2.5Zm2.85,17.89c.28,.52,.43,1.06,.43,1.63,0,.9-.32,1.69-.97,2.36-.65,.67-1.42,1-2.32,1.01-.9,0-1.67-.33-2.32-1-.65-.67-.97-1.46-.97-2.36,0-.57,.14-1.11,.43-1.63,.24-.43,.55-.79,.93-1.1,.58,.13,1.17,.21,1.8,.21h.31c.62,0,1.21-.07,1.78-.2,.37,.3,.67,.66,.91,1.09Z"/><path class="cls-17" d="M138.91,32.65c1.3-.79,2.28-1.87,2.93-3.24v4.04h1.12V17.23h-1.12v4.07c-.54-1.34-1.48-2.43-2.84-3.24-.65-.39-1.31-.68-1.98-.88,.61-.72,.91-1.55,.91-2.51,0-1.11-.37-2.05-1.1-2.81-.73-.76-1.6-1.14-2.61-1.14-1.01,0-1.89,.38-2.63,1.13-.75,.75-1.12,1.65-1.12,2.7v.15c0,1.09,.39,2.01,1.15,2.76-1,.42-1.92,1.05-2.75,1.9-1.63,1.67-2.44,3.67-2.44,6s.81,4.33,2.44,6c1.63,1.67,3.58,2.5,5.86,2.5,1.49,0,2.88-.4,4.19-1.19Zm-7.58-16.43c-.28-.52-.43-1.06-.43-1.63,0-.9,.32-1.69,.97-2.36s1.42-1,2.32-1c.9,0,1.67,.34,2.32,1.01,.65,.67,.97,1.46,.97,2.36,0,.57-.14,1.11-.43,1.63-.17,.3-.37,.57-.6,.8-.57-.13-1.15-.19-1.73-.19-.91,0-1.76,.14-2.57,.4-.33-.29-.61-.63-.82-1.02Zm-3.79,9.15c0-2.02,.72-3.78,2.15-5.28,1.43-1.5,3.12-2.25,5.08-2.25s3.64,.74,5.04,2.23c1.41,1.49,2.11,3.25,2.11,5.28s-.7,3.78-2.09,5.26c-1.4,1.48-3.08,2.22-5.04,2.22s-3.66-.74-5.09-2.22c-1.43-1.48-2.15-3.22-2.15-5.24Z"/><path class="cls-1" d="M138.91,32.65c1.3-.79,2.28-1.87,2.93-3.24v4.04h1.12V17.23h-1.12v4.07c-.54-1.34-1.48-2.43-2.84-3.24-.65-.39-1.31-.68-1.98-.88,.61-.72,.91-1.55,.91-2.51,0-1.11-.37-2.05-1.1-2.81-.73-.76-1.6-1.14-2.61-1.14-1.01,0-1.89,.38-2.63,1.13-.75,.75-1.12,1.65-1.12,2.7v.15c0,1.09,.39,2.01,1.15,2.76-1,.42-1.92,1.05-2.75,1.9-1.63,1.67-2.44,3.67-2.44,6s.81,4.33,2.44,6c1.63,1.67,3.58,2.5,5.86,2.5,1.49,0,2.88-.4,4.19-1.19Zm-7.58-16.43c-.28-.52-.43-1.06-.43-1.63,0-.9,.32-1.69,.97-2.36s1.42-1,2.32-1c.9,0,1.67,.34,2.32,1.01,.65,.67,.97,1.46,.97,2.36,0,.57-.14,1.11-.43,1.63-.17,.3-.37,.57-.6,.8-.57-.13-1.15-.19-1.73-.19-.91,0-1.76,.14-2.57,.4-.33-.29-.61-.63-.82-1.02Zm-3.79,9.15c0-2.02,.72-3.78,2.15-5.28,1.43-1.5,3.12-2.25,5.08-2.25s3.64,.74,5.04,2.23c1.41,1.49,2.11,3.25,2.11,5.28s-.7,3.78-2.09,5.26c-1.4,1.48-3.08,2.22-5.04,2.22s-3.66-.74-5.09-2.22c-1.43-1.48-2.15-3.22-2.15-5.24Z"/><path class="cls-17" d="M115.32,21.31c-.54-1.34-1.48-2.43-2.84-3.24-1.36-.82-2.79-1.22-4.28-1.22-2.28,0-4.23,.83-5.86,2.5-1.63,1.67-2.44,3.67-2.44,6s.81,4.33,2.44,6c1.63,1.67,3.58,2.5,5.86,2.5,1.49,0,2.88-.4,4.19-1.19,1.3-.79,2.28-1.87,2.93-3.24v4.04h1.12V17.23h-1.12v4.07Zm-2.02,9.31c-1.4,1.48-3.08,2.22-5.04,2.22s-3.66-.74-5.09-2.22c-1.43-1.48-2.15-3.22-2.15-5.24s.72-3.78,2.15-5.28c1.43-1.5,3.12-2.25,5.08-2.25s3.64,.74,5.04,2.23c1.41,1.49,2.11,3.25,2.11,5.28s-.7,3.78-2.09,5.26Z"/><path class="cls-21" d="M115.32,21.31c-.54-1.34-1.48-2.43-2.84-3.24-1.36-.82-2.79-1.22-4.28-1.22-2.28,0-4.23,.83-5.86,2.5-1.63,1.67-2.44,3.67-2.44,6s.81,4.33,2.44,6c1.63,1.67,3.58,2.5,5.86,2.5,1.49,0,2.88-.4,4.19-1.19,1.3-.79,2.28-1.87,2.93-3.24v4.04h1.12V17.23h-1.12v4.07Zm-2.02,9.31c-1.4,1.48-3.08,2.22-5.04,2.22s-3.66-.74-5.09-2.22c-1.43-1.48-2.15-3.22-2.15-5.24s.72-3.78,2.15-5.28c1.43-1.5,3.12-2.25,5.08-2.25s3.64,.74,5.04,2.23c1.41,1.49,2.11,3.25,2.11,5.28s-.7,3.78-2.09,5.26Z"/><path class="cls-17" d="M93.33,55.48v-9.29h4.82v-1.01h-4.82v-6.56h-1.12v16.86c0,1.78,.58,3.24,1.75,4.38,1.16,1.14,2.57,1.71,4.22,1.71v-1.01c-1.35,0-2.5-.48-3.44-1.44-.94-.96-1.41-2.17-1.41-3.64Z"/><path class="cls-28" d="M93.33,55.48v-9.29h4.82v-1.01h-4.82v-6.56h-1.12v16.86c0,1.78,.58,3.24,1.75,4.38,1.16,1.14,2.57,1.71,4.22,1.71v-1.01c-1.35,0-2.5-.48-3.44-1.44-.94-.96-1.41-2.17-1.41-3.64Z"/><path class="cls-17" d="M125.37,33.66v-1.01c-1.35,0-2.5-.48-3.44-1.44-.94-.96-1.41-2.17-1.41-3.64v-9.29h4.82v-1.01h-4.82v-6.56h-1.12V27.57c0,1.78,.58,3.24,1.75,4.38,1.16,1.14,2.57,1.71,4.22,1.71Z"/><path class="cls-15" d="M125.37,33.66v-1.01c-1.35,0-2.5-.48-3.44-1.44-.94-.96-1.41-2.17-1.41-3.64v-9.29h4.82v-1.01h-4.82v-6.56h-1.12V27.57c0,1.78,.58,3.24,1.75,4.38,1.16,1.14,2.57,1.71,4.22,1.71Z"/><path class="cls-17" d="M96.34,22.71v10.74h1.12v-10.74c0-1.8-.54-3.23-1.61-4.29-1.07-1.06-2.32-1.59-3.73-1.59s-2.62,.35-3.61,1.04c-.99,.7-1.66,1.62-2.01,2.77-.42-1.13-1.08-2.05-1.99-2.76-.91-.71-1.86-1.06-2.84-1.06s-1.94,.26-2.86,.79c-.92,.53-1.61,1.15-2.08,1.87v-2.27h-1.12v16.21h1.12v-10.81c0-1.27,.47-2.39,1.4-3.35,.93-.96,2.02-1.44,3.28-1.44s2.33,.47,3.21,1.42c.88,.95,1.33,2.07,1.33,3.37v10.81h1.12v-10.81c0-1.27,.48-2.39,1.45-3.35,.97-.96,2.07-1.44,3.32-1.44s2.31,.46,3.19,1.39c.88,.92,1.33,2.08,1.33,3.48Z"/><path class="cls-8" d="M96.34,22.71v10.74h1.12v-10.74c0-1.8-.54-3.23-1.61-4.29-1.07-1.06-2.32-1.59-3.73-1.59s-2.62,.35-3.61,1.04c-.99,.7-1.66,1.62-2.01,2.77-.42-1.13-1.08-2.05-1.99-2.76-.91-.71-1.86-1.06-2.84-1.06s-1.94,.26-2.86,.79c-.92,.53-1.61,1.15-2.08,1.87v-2.27h-1.12v16.21h1.12v-10.81c0-1.27,.47-2.39,1.4-3.35,.93-.96,2.02-1.44,3.28-1.44s2.33,.47,3.21,1.42c.88,.95,1.33,2.07,1.33,3.37v10.81h1.12v-10.81c0-1.27,.48-2.39,1.45-3.35,.97-.96,2.07-1.44,3.32-1.44s2.31,.46,3.19,1.39c.88,.92,1.33,2.08,1.33,3.48Z"/><path class="cls-17" d="M84.4,44.82c-2.37,0-4.37,.83-6,2.5-1.63,1.67-2.44,3.65-2.44,5.94s.8,4.29,2.41,6c1.61,1.71,3.53,2.56,5.76,2.56h.31c2.4,0,4.41-.92,6.04-2.77v-1.87c-.72,1.13-1.63,2.02-2.74,2.67-1.11,.65-2.26,.97-3.47,.97-1.93,0-3.61-.74-5.04-2.22-1.43-1.48-2.15-3.24-2.15-5.28s.72-3.8,2.15-5.28c1.43-1.48,3.11-2.22,5.04-2.22,1.21,0,2.37,.32,3.47,.97,1.11,.65,2.02,1.53,2.74,2.63v-1.84c-1.68-1.85-3.7-2.77-6.07-2.77Z"/><path class="cls-16" d="M84.4,44.82c-2.37,0-4.37,.83-6,2.5-1.63,1.67-2.44,3.65-2.44,5.94s.8,4.29,2.41,6c1.61,1.71,3.53,2.56,5.76,2.56h.31c2.4,0,4.41-.92,6.04-2.77v-1.87c-.72,1.13-1.63,2.02-2.74,2.67-1.11,.65-2.26,.97-3.47,.97-1.93,0-3.61-.74-5.04-2.22-1.43-1.48-2.15-3.24-2.15-5.28s.72-3.8,2.15-5.28c1.43-1.48,3.11-2.22,5.04-2.22,1.21,0,2.37,.32,3.47,.97,1.11,.65,2.02,1.53,2.74,2.63v-1.84c-1.68-1.85-3.7-2.77-6.07-2.77Z"/><path class="cls-17" d="M160.86,31.56c1.3,.15,2.42,.72,3.38,1.6,.15,.14,.28,.2,.4,.19,.18-.02,.3-.17,.34-.21,.25-.31,2.74-3.18,6.17-7.15-3.34,3.04-5.72,5.22-6.02,5.54-.05,.05-.2,.22-.43,.24-.14,.01-.28-.04-.45-.15-.53-.35-1.1-.63-1.72-.98,.68-1.29,1.83-1.81,3.21-2.06-1.47-.54-4.43,.96-5.2,2.85,.1,.05,.21,.12,.32,.14Z"/><path class="cls-29" d="M160.86,31.56c1.3,.15,2.42,.72,3.38,1.6,.15,.14,.28,.2,.4,.19,.18-.02,.3-.17,.34-.21,.25-.31,2.74-3.18,6.17-7.15-3.34,3.04-5.72,5.22-6.02,5.54-.05,.05-.2,.22-.43,.24-.14,.01-.28-.04-.45-.15-.53-.35-1.1-.63-1.72-.98,.68-1.29,1.83-1.81,3.21-2.06-1.47-.54-4.43,.96-5.2,2.85,.1,.05,.21,.12,.32,.14Z"/><path class="cls-17" d="M121.36,45.54c-.88,.53-1.54,1.2-1.95,2.02v-2.41h-1.12v16.21h1.12v-10.81c0-1.27,.47-2.39,1.41-3.35,.94-.96,2.03-1.44,3.26-1.44s2.36,.53,3.39,1.59v-1.44c-1-.77-2.05-1.15-3.14-1.15s-2.08,.26-2.97,.79Z"/><path class="cls-19" d="M121.36,45.54c-.88,.53-1.54,1.2-1.95,2.02v-2.41h-1.12v16.21h1.12v-10.81c0-1.27,.47-2.39,1.41-3.35,.94-.96,2.03-1.44,3.26-1.44s2.36,.53,3.39,1.59v-1.44c-1-.77-2.05-1.15-3.14-1.15s-2.08,.26-2.97,.79Z"/><path class="cls-17" d="M167.82,42.95c1.3,.59,1.9,1.74,2.25,3.13,.4-1.56-1.28-4.48-3.17-5.12-.04,.11-.1,.22-.11,.34-.04,1.35-.5,2.55-1.27,3.61-.12,.17-.17,.31-.15,.43,.03,.18,.19,.29,.23,.33,.32,.23,3.29,2.56,7.4,5.77-3.21-3.19-5.5-5.46-5.83-5.75-.05-.04-.23-.19-.27-.42-.02-.14,.01-.29,.11-.48,.3-.57,.52-1.18,.81-1.84Z"/><path class="cls-10" d="M167.82,42.95c1.3,.59,1.9,1.74,2.25,3.13,.4-1.56-1.28-4.48-3.17-5.12-.04,.11-.1,.22-.11,.34-.04,1.35-.5,2.55-1.27,3.61-.12,.17-.17,.31-.15,.43,.03,.18,.19,.29,.23,.33,.32,.23,3.29,2.56,7.4,5.77-3.21-3.19-5.5-5.46-5.83-5.75-.05-.04-.23-.19-.27-.42-.02-.14,.01-.29,.11-.48,.3-.57,.52-1.18,.81-1.84Z"/><path class="cls-17" d="M166.91,33.58c.34-.27,2.72-2.46,6.04-5.52-4.22,3.05-7.28,5.26-7.6,5.49-.05,.03-.21,.14-.25,.32-.02,.12,.02,.26,.13,.44,.74,1.09,1.15,2.31,1.14,3.66,0,.11,.06,.23,.09,.34,1.91-.57,3.7-3.43,3.35-5-.4,1.38-1.04,2.5-2.36,3.05-.26-.68-.47-1.29-.74-1.87-.09-.19-.12-.34-.09-.48,.05-.23,.23-.37,.28-.41Z"/><path class="cls-9" d="M166.91,33.58c.34-.27,2.72-2.46,6.04-5.52-4.22,3.05-7.28,5.26-7.6,5.49-.05,.03-.21,.14-.25,.32-.02,.12,.02,.26,.13,.44,.74,1.09,1.15,2.31,1.14,3.66,0,.11,.06,.23,.09,.34,1.91-.57,3.7-3.43,3.35-5-.4,1.38-1.04,2.5-2.36,3.05-.26-.68-.47-1.29-.74-1.87-.09-.19-.12-.34-.09-.48,.05-.23,.23-.37,.28-.41Z"/><path class="cls-17" d="M181.88,50.88c-.21,.29-2.74,3.83-3.64,4.97-.79,1-1.47,1.66-2.26,2.42-1.36,1.31-2.55,2.22-3.1,2.65-.92,.73-1.9,1.38-2.87,2.07,.06,0,.09,.02,.12,.02,.13-.04,.26-.09,.39-.14,2.04-.86,3.92-2,5.59-3.49,.52-.46,.99-.5,1.55-.25,.27,.12,.53,.26,.77,.42,.59,.42,1.17,.86,1.75,1.29l.04-.06c-.14-.18-.3-.34-.42-.53-.44-.7-.9-1.39-1.28-2.11-.26-.5-.22-.98,.2-1.46,1.33-1.56,2.36-3.32,3.17-5.22,.12-.29,.22-.59,.33-.89-.18,.07-.25,.19-.33,.3Z"/><path class="cls-30" d="M181.88,50.88c-.21,.29-2.74,3.83-3.64,4.97-.79,1-1.47,1.66-2.26,2.42-1.36,1.31-2.55,2.22-3.1,2.65-.92,.73-1.9,1.38-2.87,2.07,.06,0,.09,.02,.12,.02,.13-.04,.26-.09,.39-.14,2.04-.86,3.92-2,5.59-3.49,.52-.46,.99-.5,1.55-.25,.27,.12,.53,.26,.77,.42,.59,.42,1.17,.86,1.75,1.29l.04-.06c-.14-.18-.3-.34-.42-.53-.44-.7-.9-1.39-1.28-2.11-.26-.5-.22-.98,.2-1.46,1.33-1.56,2.36-3.32,3.17-5.22,.12-.29,.22-.59,.33-.89-.18,.07-.25,.19-.33,.3Z"/><path class="cls-17" d="M142.19,54.58c0,1.66-.59,3.1-1.76,4.32-1.18,1.22-2.57,1.84-4.17,1.84s-3-.61-4.17-1.84c-1.18-1.22-1.76-2.67-1.76-4.32v-9.44h-1.12v9.44c0,1.97,.69,3.66,2.06,5.06,1.37,1.41,3.02,2.11,4.96,2.11,2.84,0,4.83-1.18,5.97-3.53v2.74c0,1.8-.63,3.34-1.88,4.63-1.26,1.28-2.75,1.93-4.47,1.93-1.16,0-2.27-.34-3.33-1.03-1.06-.68-1.91-1.6-2.57-2.76l-.07,1.8c1.47,1.99,3.46,2.99,5.97,2.99,2.09,0,3.86-.74,5.3-2.23,1.44-1.49,2.16-3.3,2.16-5.44v-15.71h-1.12v9.44Z"/><path class="cls-31" d="M142.19,54.58c0,1.66-.59,3.1-1.76,4.32-1.18,1.22-2.57,1.84-4.17,1.84s-3-.61-4.17-1.84c-1.18-1.22-1.76-2.67-1.76-4.32v-9.44h-1.12v9.44c0,1.97,.69,3.66,2.06,5.06,1.37,1.41,3.02,2.11,4.96,2.11,2.84,0,4.83-1.18,5.97-3.53v2.74c0,1.8-.63,3.34-1.88,4.63-1.26,1.28-2.75,1.93-4.47,1.93-1.16,0-2.27-.34-3.33-1.03-1.06-.68-1.91-1.6-2.57-2.76l-.07,1.8c1.47,1.99,3.46,2.99,5.97,2.99,2.09,0,3.86-.74,5.3-2.23,1.44-1.49,2.16-3.3,2.16-5.44v-15.71h-1.12v9.44Z"/><path class="cls-17" d="M153.59,31.62c-.23-.02-.38-.19-.43-.24-.3-.32-2.68-2.5-6.02-5.54,3.43,3.97,5.92,6.84,6.17,7.15,.04,.05,.16,.2,.34,.21,.12,.01,.25-.05,.4-.19,.96-.88,2.08-1.45,3.38-1.6,.11-.01,.21-.09,.32-.14-.77-1.89-3.73-3.39-5.2-2.85,1.37,.25,2.53,.77,3.21,2.06-.62,.35-1.19,.63-1.72,.98-.17,.11-.31,.16-.45,.15Z"/><path class="cls-6" d="M153.59,31.62c-.23-.02-.38-.19-.43-.24-.3-.32-2.68-2.5-6.02-5.54,3.43,3.97,5.92,6.84,6.17,7.15,.04,.05,.16,.2,.34,.21,.12,.01,.25-.05,.4-.19,.96-.88,2.08-1.45,3.38-1.6,.11-.01,.21-.09,.32-.14-.77-1.89-3.73-3.39-5.2-2.85,1.37,.25,2.53,.77,3.21,2.06-.62,.35-1.19,.63-1.72,.98-.17,.11-.31,.16-.45,.15Z"/><path class="cls-17" d="M72.4,49.21c-.54-1.34-1.48-2.43-2.84-3.24-1.36-.82-2.79-1.22-4.28-1.22-2.28,0-4.23,.83-5.86,2.5-1.63,1.67-2.44,3.67-2.44,6s.81,4.33,2.44,6c1.63,1.67,3.58,2.5,5.86,2.5,1.49,0,2.88-.4,4.19-1.19,1.3-.79,2.28-1.87,2.93-3.24v4.03h1.12v-16.21h-1.12v4.07Zm-2.02,9.31c-1.4,1.48-3.08,2.22-5.04,2.22s-3.66-.74-5.1-2.22c-1.43-1.48-2.15-3.22-2.15-5.24s.72-3.78,2.15-5.28c1.43-1.5,3.12-2.25,5.08-2.25s3.63,.74,5.04,2.23c1.41,1.49,2.11,3.25,2.11,5.28s-.7,3.78-2.09,5.26Z"/><path class="cls-3" d="M72.4,49.21c-.54-1.34-1.48-2.43-2.84-3.24-1.36-.82-2.79-1.22-4.28-1.22-2.28,0-4.23,.83-5.86,2.5-1.63,1.67-2.44,3.67-2.44,6s.81,4.33,2.44,6c1.63,1.67,3.58,2.5,5.86,2.5,1.49,0,2.88-.4,4.19-1.19,1.3-.79,2.28-1.87,2.93-3.24v4.03h1.12v-16.21h-1.12v4.07Zm-2.02,9.31c-1.4,1.48-3.08,2.22-5.04,2.22s-3.66-.74-5.1-2.22c-1.43-1.48-2.15-3.22-2.15-5.24s.72-3.78,2.15-5.28c1.43-1.5,3.12-2.25,5.08-2.25s3.63,.74,5.04,2.23c1.41,1.49,2.11,3.25,2.11,5.28s-.7,3.78-2.09,5.26Z"/><path class="cls-17" d="M159.12,32.33c.3-1.63,.37-3.24,1.93-3.91-1.79-6.1-1.59-12.37-1.98-18.6-.03,.32-.06,.64-.08,.96-.18,3.38-.3,6.77-.56,10.15-.19,2.52-.43,5.06-1.45,7.47,1.74,.64,1.73,2.36,2.14,3.93Z"/><path class="cls-11" d="M159.12,32.33c.3-1.63,.37-3.24,1.93-3.91-1.79-6.1-1.59-12.37-1.98-18.6-.03,.32-.06,.64-.08,.96-.18,3.38-.3,6.77-.56,10.15-.19,2.52-.43,5.06-1.45,7.47,1.74,.64,1.73,2.36,2.14,3.93Z"/><path class="cls-17" d="M176.46,21.91c.8,.77,1.47,1.42,2.26,2.42,.9,1.14,3.43,4.68,3.64,4.97,.08,.11,.15,.23,.33,.3-.11-.3-.21-.6-.33-.89-.81-1.9-1.84-3.66-3.17-5.22-.41-.48-.46-.97-.2-1.46,.39-.73,.84-1.42,1.28-2.11,.12-.19,.28-.35,.42-.53l-.04-.06c-.58,.43-1.16,.87-1.75,1.29-.24,.17-.51,.3-.77,.42-.56,.25-1.03,.21-1.55-.25-1.66-1.49-3.55-2.63-5.59-3.49-.13-.05-.26-.1-.39-.14-.03,0-.06,0-.12,.02,.97,.69,1.96,1.34,2.87,2.07,.54,.43,1.74,1.34,3.1,2.65Z"/><path class="cls-2" d="M176.46,21.91c.8,.77,1.47,1.42,2.26,2.42,.9,1.14,3.43,4.68,3.64,4.97,.08,.11,.15,.23,.33,.3-.11-.3-.21-.6-.33-.89-.81-1.9-1.84-3.66-3.17-5.22-.41-.48-.46-.97-.2-1.46,.39-.73,.84-1.42,1.28-2.11,.12-.19,.28-.35,.42-.53l-.04-.06c-.58,.43-1.16,.87-1.75,1.29-.24,.17-.51,.3-.77,.42-.56,.25-1.03,.21-1.55-.25-1.66-1.49-3.55-2.63-5.59-3.49-.13-.05-.26-.1-.39-.14-.03,0-.06,0-.12,.02,.97,.69,1.96,1.34,2.87,2.07,.54,.43,1.74,1.34,3.1,2.65Z"/><path class="cls-17" d="M159.01,46.66c-.36,1.58-.37,3.21-1.95,3.86,1.77,5.97,1.58,12.13,1.93,18.29h.06c.16-3.08,.27-6.11,.5-9.13,.23-3.08,.39-6.19,1.58-9.14-1.7-.65-1.74-2.32-2.12-3.89Z"/><path class="cls-4" d="M159.01,46.66c-.36,1.58-.37,3.21-1.95,3.86,1.77,5.97,1.58,12.13,1.93,18.29h.06c.16-3.08,.27-6.11,.5-9.13,.23-3.08,.39-6.19,1.58-9.14-1.7-.65-1.74-2.32-2.12-3.89Z"/><path class="cls-17" d="M159.01,35.96c-1.76,0-3.18,1.47-3.18,3.28s1.42,3.28,3.18,3.28,3.18-1.47,3.18-3.28-1.42-3.28-3.18-3.28Z"/><path class="cls-27" d="M159.01,35.96c-1.76,0-3.18,1.47-3.18,3.28s1.42,3.28,3.18,3.28,3.18-1.47,3.18-3.28-1.42-3.28-3.18-3.28Z"/><path class="cls-17" d="M159.01,33.59c-3.02,0-5.48,2.53-5.48,5.65s2.45,5.65,5.48,5.65,5.48-2.53,5.48-5.65-2.45-5.65-5.48-5.65Zm0,10.21c-2.44,0-4.42-2.04-4.42-4.56s1.98-4.56,4.42-4.56,4.42,2.04,4.42,4.56-1.98,4.56-4.42,4.56Z"/><path class="cls-7" d="M159.01,33.59c-3.02,0-5.48,2.53-5.48,5.65s2.45,5.65,5.48,5.65,5.48-2.53,5.48-5.65-2.45-5.65-5.48-5.65Zm0,10.21c-2.44,0-4.42-2.04-4.42-4.56s1.98-4.56,4.42-4.56,4.42,2.04,4.42,4.56-1.98,4.56-4.42,4.56Z"/><polygon class="cls-17" points="169.27 28.51 168.38 30.4 170.31 29.73 176.11 23.39 169.27 28.51"/><polygon class="cls-13" points="169.27 28.51 168.38 30.4 170.31 29.73 176.11 23.39 169.27 28.51"/><path class="cls-17" d="M21.61,19.5c-1.57,0-2.91,.57-4.03,1.72-1.12,1.14-1.67,2.5-1.67,4.06s.55,2.93,1.65,4.11c1.1,1.18,2.42,1.77,3.95,1.77h.22c1.55,0,2.86-.58,3.95-1.75,1.08-1.17,1.63-2.54,1.63-4.11s-.55-2.93-1.66-4.07c-1.11-1.14-2.45-1.72-4.02-1.72Z"/><path class="cls-20" d="M21.61,19.5c-1.57,0-2.91,.57-4.03,1.72-1.12,1.14-1.67,2.5-1.67,4.06s.55,2.93,1.65,4.11c1.1,1.18,2.42,1.77,3.95,1.77h.22c1.55,0,2.86-.58,3.95-1.75,1.08-1.17,1.63-2.54,1.63-4.11s-.55-2.93-1.66-4.07c-1.11-1.14-2.45-1.72-4.02-1.72Z"/><path class="cls-17" d="M164.91,47.41c.23,.03,.38,.21,.42,.26,.29,.33,2.59,2.6,5.82,5.76-3.29-4.1-5.67-7.06-5.91-7.38-.04-.05-.15-.2-.33-.23-.12-.02-.25,.04-.41,.17-.99,.85-2.13,1.37-3.44,1.47-.11,0-.21,.08-.32,.12,.7,1.92,3.61,3.53,5.09,3.05-1.36-.3-2.5-.86-3.13-2.18,.63-.33,1.21-.59,1.75-.92,.18-.11,.32-.15,.46-.13Z"/><path class="cls-26" d="M164.91,47.41c.23,.03,.38,.21,.42,.26,.29,.33,2.59,2.6,5.82,5.76-3.29-4.1-5.67-7.06-5.91-7.38-.04-.05-.15-.2-.33-.23-.12-.02-.25,.04-.41,.17-.99,.85-2.13,1.37-3.44,1.47-.11,0-.21,.08-.32,.12,.7,1.92,3.61,3.53,5.09,3.05-1.36-.3-2.5-.86-3.13-2.18,.63-.33,1.21-.59,1.75-.92,.18-.11,.32-.15,.46-.13Z"/><path class="cls-17" d="M55.51,33.66v-1.01c-1.35,0-2.5-.48-3.44-1.44-.94-.96-1.41-2.17-1.41-3.64v-9.29h4.82v-1.01h-4.82v-6.56h-1.12V27.57c0,1.78,.58,3.24,1.75,4.38,1.16,1.14,2.57,1.71,4.22,1.71Z"/><path class="cls-18" d="M55.51,33.66v-1.01c-1.35,0-2.5-.48-3.44-1.44-.94-.96-1.41-2.17-1.41-3.64v-9.29h4.82v-1.01h-4.82v-6.56h-1.12V27.57c0,1.78,.58,3.24,1.75,4.38,1.16,1.14,2.57,1.71,4.22,1.71Z"/><path class="cls-17" d="M64.72,33.84h.31c2.26,0,4.18-.85,5.76-2.56,1.58-1.71,2.37-3.7,2.37-6s-.81-4.27-2.43-5.94c-1.62-1.67-3.57-2.5-5.86-2.5s-4.25,.83-5.88,2.5c-1.63,1.67-2.44,3.64-2.44,5.93s.8,4.28,2.41,6c1.61,1.72,3.53,2.58,5.76,2.58Zm-4.9-13.74c1.43-1.5,3.12-2.25,5.08-2.25s3.63,.74,5.04,2.23c1.41,1.49,2.11,3.25,2.11,5.28s-.7,3.78-2.09,5.26c-1.4,1.48-3.08,2.22-5.04,2.22s-3.66-.74-5.1-2.22c-1.43-1.48-2.15-3.22-2.15-5.24s.72-3.78,2.15-5.28Z"/><path class="cls-14" d="M64.72,33.84h.31c2.26,0,4.18-.85,5.76-2.56,1.58-1.71,2.37-3.7,2.37-6s-.81-4.27-2.43-5.94c-1.62-1.67-3.57-2.5-5.86-2.5s-4.25,.83-5.88,2.5c-1.63,1.67-2.44,3.64-2.44,5.93s.8,4.28,2.41,6c1.61,1.72,3.53,2.58,5.76,2.58Zm-4.9-13.74c1.43-1.5,3.12-2.25,5.08-2.25s3.63,.74,5.04,2.23c1.41,1.49,2.11,3.25,2.11,5.28s-.7,3.78-2.09,5.26c-1.4,1.48-3.08,2.22-5.04,2.22s-3.66-.74-5.1-2.22c-1.43-1.48-2.15-3.22-2.15-5.24s.72-3.78,2.15-5.28Z"/><polygon class="cls-17" points="169.32 50.87 175.91 56.32 170.42 49.69 168.52 48.93 169.32 50.87"/><polygon class="cls-32" points="169.32 50.87 175.91 56.32 170.42 49.69 168.52 48.93 169.32 50.87"/><path class="cls-17" d="M157.24,47.32c-1.3-.1-2.44-.62-3.44-1.47-.16-.13-.29-.19-.41-.17-.18,.02-.29,.18-.33,.23-.24,.32-2.62,3.29-5.91,7.38,3.23-3.17,5.53-5.43,5.82-5.76,.04-.05,.19-.23,.42-.26,.13-.02,.28,.03,.46,.13,.54,.33,1.12,.59,1.75,.92-.63,1.32-1.77,1.88-3.13,2.18,1.49,.48,4.39-1.13,5.1-3.05-.11-.04-.21-.12-.32-.12Z"/><path class="cls-23" d="M157.24,47.32c-1.3-.1-2.44-.62-3.44-1.47-.16-.13-.29-.19-.41-.17-.18,.02-.29,.18-.33,.23-.24,.32-2.62,3.29-5.91,7.38,3.23-3.17,5.53-5.43,5.82-5.76,.04-.05,.19-.23,.42-.26,.13-.02,.28,.03,.46,.13,.54,.33,1.12,.59,1.75,.92-.63,1.32-1.77,1.88-3.13,2.18,1.49,.48,4.39-1.13,5.1-3.05-.11-.04-.21-.12-.32-.12Z"/><path class="cls-17" d="M179.66,38.84c-3.18-.23-6.38-.43-9.41-1.66-.63,1.71-2.19,1.78-3.61,2.17,1.43,.37,2.98,.43,3.59,2.01,5.88-1.82,11.92-1.62,17.83-1.99v-.08c-2.77-.14-5.59-.25-8.41-.45Z"/><path class="cls-5" d="M179.66,38.84c-3.18-.23-6.38-.43-9.41-1.66-.63,1.71-2.19,1.78-3.61,2.17,1.43,.37,2.98,.43,3.59,2.01,5.88-1.82,11.92-1.62,17.83-1.99v-.08c-2.77-.14-5.59-.25-8.41-.45Z"/><path class="cls-17" d="M28.74,21.31c-.54-1.34-1.48-2.43-2.84-3.24-1.36-.82-2.79-1.22-4.28-1.22-2.28,0-4.23,.83-5.86,2.5-1.63,1.67-2.44,3.67-2.44,6s.81,4.33,2.44,6c1.63,1.67,3.58,2.5,5.86,2.5,1.49,0,2.88-.4,4.19-1.19,1.3-.79,2.28-1.87,2.93-3.24v4.04h1.12V17.23h-1.12v4.07Zm-2.02,9.31c-1.4,1.48-3.08,2.22-5.04,2.22s-3.66-.74-5.1-2.22c-1.43-1.48-2.15-3.22-2.15-5.24s.72-3.78,2.15-5.28c1.43-1.5,3.12-2.25,5.08-2.25s3.63,.74,5.04,2.23c1.41,1.49,2.11,3.25,2.11,5.28s-.7,3.78-2.09,5.26Z"/><path class="cls-24" d="M28.74,21.31c-.54-1.34-1.48-2.43-2.84-3.24-1.36-.82-2.79-1.22-4.28-1.22-2.28,0-4.23,.83-5.86,2.5-1.63,1.67-2.44,3.67-2.44,6s.81,4.33,2.44,6c1.63,1.67,3.58,2.5,5.86,2.5,1.49,0,2.88-.4,4.19-1.19,1.3-.79,2.28-1.87,2.93-3.24v4.04h1.12V17.23h-1.12v4.07Zm-2.02,9.31c-1.4,1.48-3.08,2.22-5.04,2.22s-3.66-.74-5.1-2.22c-1.43-1.48-2.15-3.22-2.15-5.24s.72-3.78,2.15-5.28c1.43-1.5,3.12-2.25,5.08-2.25s3.63,.74,5.04,2.23c1.41,1.49,2.11,3.25,2.11,5.28s-.7,3.78-2.09,5.26Z"/><path class="cls-17" d="M45.8,26.67c0,1.66-.61,3.1-1.83,4.32-1.22,1.22-2.63,1.84-4.24,1.84s-2.97-.61-4.1-1.84c-1.13-1.22-1.69-2.67-1.69-4.32v-9.44h-1.12v9.44c0,1.99,.66,3.69,1.99,5.08,1.33,1.39,2.97,2.09,4.92,2.09,2.86,0,4.89-1.22,6.07-3.67v3.28h1.12V17.23h-1.12v9.44Z"/><path class="cls-25" d="M45.8,26.67c0,1.66-.61,3.1-1.83,4.32-1.22,1.22-2.63,1.84-4.24,1.84s-2.97-.61-4.1-1.84c-1.13-1.22-1.69-2.67-1.69-4.32v-9.44h-1.12v9.44c0,1.99,.66,3.69,1.99,5.08,1.33,1.39,2.97,2.09,4.92,2.09,2.86,0,4.89-1.22,6.07-3.67v3.28h1.12V17.23h-1.12v9.44Z"/><path class="cls-17" d="M51.04,44.67c0-1.46,.47-2.68,1.41-3.64,.94-.96,2.09-1.44,3.44-1.44v-1.01c-1.65,0-3.06,.57-4.22,1.71-1.16,1.14-1.75,2.6-1.75,4.38v16.68h1.12v-6.2h4.89v-1.01h-4.89v-9.47Z"/><path class="cls-12" d="M51.04,44.67c0-1.46,.47-2.68,1.41-3.64,.94-.96,2.09-1.44,3.44-1.44v-1.01c-1.65,0-3.06,.57-4.22,1.71-1.16,1.14-1.75,2.6-1.75,4.38v16.68h1.12v-6.2h4.89v-1.01h-4.89v-9.47Z"/></g></g></svg>