<?xml version="1.0" encoding="UTF-8"?><svg id="Layer_2" xmlns="http://www.w3.org/2000/svg" xmlns:xlink="http://www.w3.org/1999/xlink" viewBox="0 0 61.19 62.86"><defs><style>.cls-1{fill:url(#linear-gradient-2);}.cls-2{fill:url(#linear-gradient-17);}.cls-3{fill:url(#linear-gradient-15);}.cls-4{fill:url(#linear-gradient-18);}.cls-5{fill:url(#linear-gradient-14);}.cls-6{fill:url(#linear-gradient-20);}.cls-7{fill:url(#linear-gradient-6);}.cls-8{fill:url(#linear-gradient-11);}.cls-9{fill:url(#linear-gradient-10);}.cls-10{fill:url(#linear-gradient-16);}.cls-11{fill:url(#linear-gradient-21);}.cls-12{fill:url(#linear-gradient-5);}.cls-13{fill:none;}.cls-14{fill:url(#linear-gradient-7);}.cls-15{fill:url(#linear-gradient-9);}.cls-16{fill:url(#linear-gradient-22);}.cls-17{fill:url(#linear-gradient-3);}.cls-18{fill:url(#linear-gradient);}.cls-19{fill:url(#linear-gradient-19);}.cls-20{fill:url(#linear-gradient-4);}.cls-21{fill:url(#linear-gradient-8);}.cls-22{fill:url(#linear-gradient-12);}.cls-23{fill:url(#linear-gradient-13);}</style><linearGradient id="linear-gradient" x1="-1.7" y1="31.29" x2="63.56" y2="31.29" gradientTransform="matrix(1, 0, 0, 1, 0, 0)" gradientUnits="userSpaceOnUse"><stop offset="0" stop-color="#2761a9"/><stop offset=".16" stop-color="#295ba2"/><stop offset=".39" stop-color="#314a90"/><stop offset=".65" stop-color="#3e2f72"/><stop offset=".94" stop-color="#4f0948"/><stop offset="1" stop-color="#54013f"/></linearGradient><linearGradient id="linear-gradient-2" x1="-1.7" y1="31.29" x2="63.56" y2="31.29" xlink:href="#linear-gradient"/><linearGradient id="linear-gradient-3" x1="-1.7" y1="20.84" x2="63.56" y2="20.84" xlink:href="#linear-gradient"/><linearGradient id="linear-gradient-4" x1="-1.7" y1="11.74" x2="63.56" y2="11.74" xlink:href="#linear-gradient"/><linearGradient id="linear-gradient-5" x1="-1.7" y1="38.64" x2="63.56" y2="38.64" xlink:href="#linear-gradient"/><linearGradient id="linear-gradient-6" x1="-1.7" y1="20.91" x2="63.56" y2="20.91" xlink:href="#linear-gradient"/><linearGradient id="linear-gradient-7" x1="-1.7" y1="12.7" x2="63.56" y2="12.7" xlink:href="#linear-gradient"/><linearGradient id="linear-gradient-8" x1="-1.7" y1="24.16" x2="63.56" y2="24.16" xlink:href="#linear-gradient"/><linearGradient id="linear-gradient-9" x1="-1.7" y1="17.36" x2="63.56" y2="17.36" xlink:href="#linear-gradient"/><linearGradient id="linear-gradient-10" x1="-1.7" y1="45.33" x2="63.56" y2="45.33" xlink:href="#linear-gradient"/><linearGradient id="linear-gradient-11" x1="-1.7" y1="38.55" x2="63.56" y2="38.55" xlink:href="#linear-gradient"/><linearGradient id="linear-gradient-12" x1="-1.7" y1="45.29" x2="63.56" y2="45.29" xlink:href="#linear-gradient"/><linearGradient id="linear-gradient-13" x1="-1.7" y1="51.13" x2="63.56" y2="51.13" xlink:href="#linear-gradient"/><linearGradient id="linear-gradient-14" x1="-1.7" y1="41.9" x2="63.56" y2="41.9" xlink:href="#linear-gradient"/><linearGradient id="linear-gradient-15" x1="-1.7" y1="31.29" x2="63.56" y2="31.29" xlink:href="#linear-gradient"/><linearGradient id="linear-gradient-16" x1="-1.7" y1="42.08" x2="63.56" y2="42.08" xlink:href="#linear-gradient"/><linearGradient id="linear-gradient-17" x1="-1.7" y1="49.94" x2="63.56" y2="49.94" xlink:href="#linear-gradient"/><linearGradient id="linear-gradient-18" x1="-1.7" y1="24.38" x2="63.56" y2="24.38" xlink:href="#linear-gradient"/><linearGradient id="linear-gradient-19" y1="13.68" x2="63.56" y2="13.68" xlink:href="#linear-gradient"/><linearGradient id="linear-gradient-20" x1="-1.7" y1="17.76" x2="63.56" y2="17.76" xlink:href="#linear-gradient"/><linearGradient id="linear-gradient-21" x1="-1.7" y1="49.42" x2="63.56" y2="49.42" xlink:href="#linear-gradient"/><linearGradient id="linear-gradient-22" x1="-1.7" y1="31.38" x2="63.56" y2="31.38" xlink:href="#linear-gradient"/></defs><g id="Layer_1-2"><g><path class="cls-13" d="M30.6,26.6c-2.59,0-4.68,2.1-4.68,4.68s2.1,4.68,4.68,4.68,4.68-2.1,4.68-4.68-2.1-4.68-4.68-4.68Zm0,8.06c-1.86,0-3.37-1.51-3.37-3.37s1.51-3.37,3.37-3.37,3.37,1.51,3.37,3.37-1.51,3.37-3.37,3.37Z"/><path class="cls-18" d="M30.6,25.48c-3.21,0-5.81,2.6-5.81,5.81s2.6,5.81,5.81,5.81,5.81-2.6,5.81-5.81-2.6-5.81-5.81-5.81Zm0,10.49c-2.59,0-4.68-2.1-4.68-4.68s2.1-4.68,4.68-4.68,4.68,2.1,4.68,4.68-2.1,4.68-4.68,4.68Z"/><path class="cls-1" d="M30.6,27.92c-1.86,0-3.37,1.51-3.37,3.37s1.51,3.37,3.37,3.37,3.37-1.51,3.37-3.37-1.51-3.37-3.37-3.37Z"/><path class="cls-17" d="M32.2,23.75c1.39-.03,2.64,.39,3.77,1.16,.18,.12,.32,.16,.45,.14,.18-.04,.29-.21,.32-.26,.22-.35,2.45-3.62,5.52-8.14-3.1,3.56-5.31,6.11-5.58,6.48-.04,.06-.18,.25-.42,.31-.14,.03-.3,0-.49-.09-.6-.28-1.24-.49-1.94-.76,.54-1.41,1.68-2.1,3.09-2.55-1.62-.35-4.53,1.59-5.08,3.63,.12,.03,.23,.1,.35,.1Z"/><path class="cls-20" d="M30.76,23.47c.37-1.51,.43-3.17,2.17-3.86-1.31-3.2-1.56-6.58-1.84-9.95-.27-3.24-.43-6.49-.64-9.66-.36,6.51,.04,13.18-1.82,19.69,1.64,.62,1.72,2.27,2.12,3.78Z"/><path class="cls-12" d="M24.2,37.55c.02-.13-.04-.27-.18-.44-.87-1.06-1.41-2.26-1.51-3.65,0-.12-.08-.23-.13-.34-1.97,.75-3.63,3.83-3.13,5.4,.31-1.45,.89-2.65,2.24-3.32,.33,.67,.6,1.28,.94,1.86,.11,.19,.15,.34,.14,.48-.03,.24-.21,.4-.27,.45-.34,.31-2.67,2.75-5.92,6.17,4.21-3.49,7.26-6.01,7.58-6.27,.05-.04,.21-.16,.23-.35Z"/><path class="cls-7" d="M27.05,22.28c-.68,.31-1.3,.56-1.88,.89-.19,.11-.34,.14-.49,.12-.24-.04-.39-.23-.44-.28-.3-.35-2.67-2.75-5.99-6.1,3.36,4.31,5.79,7.43,6.04,7.77,.04,.05,.15,.21,.34,.24,.13,.02,.27-.03,.44-.17,1.08-.84,2.3-1.34,3.69-1.4,.12,0,.23-.08,.34-.12-.69-1.99-3.72-3.74-5.31-3.29,1.44,.35,2.63,.97,3.25,2.34Z"/><path class="cls-14" d="M40.84,6.66c.3,.22,3.97,2.85,5.16,3.79,1.04,.82,1.72,1.53,2.52,2.36,1.37,1.42,2.32,2.68,2.77,3.25,.77,.96,1.44,2,2.17,3.02,0-.06,.02-.1,.01-.13-.05-.14-.09-.28-.15-.41-.91-2.15-2.11-4.13-3.67-5.88-.48-.54-.53-1.04-.28-1.64,.12-.28,.26-.57,.43-.83,.42-.63,.87-1.25,1.3-1.88l-.06-.04c-.18,.15-.34,.32-.54,.45-.71,.48-1.41,.97-2.15,1.39-.51,.29-1.01,.24-1.51-.19-1.62-1.39-3.45-2.45-5.41-3.29-.3-.13-.61-.23-.92-.34,.07,.19,.2,.26,.31,.34Z"/><path class="cls-21" d="M36.95,25.5c0,.13,.05,.27,.2,.43,.92,1.01,1.52,2.19,1.69,3.56,.01,.12,.1,.22,.15,.33,1.93-.85,3.43-4.01,2.85-5.56-.23,1.46-.75,2.69-2.07,3.43-.37-.65-.67-1.25-1.03-1.8-.12-.18-.17-.33-.16-.48,.02-.24,.19-.41,.24-.46,.32-.33,2.52-2.88,5.6-6.46-4.03,3.7-6.94,6.38-7.25,6.65-.05,.04-.2,.17-.21,.36Z"/><polygon class="cls-15" points="40.58 19.45 39.93 21.51 41.86 20.54 47.02 13.21 40.58 19.45"/><polygon class="cls-9" points="47.25 49.42 41.99 42.17 40.05 41.23 40.73 43.28 47.25 49.42"/><path class="cls-8" d="M44.58,44.17c-3.13-3.54-5.36-6.06-5.69-6.39-.05-.05-.23-.21-.25-.46-.01-.14,.04-.3,.15-.48,.36-.56,.65-1.16,1.01-1.82,1.33,.72,1.86,1.95,2.12,3.4,.56-1.56-.99-4.7-2.93-5.52-.05,.11-.13,.22-.14,.33-.15,1.38-.74,2.57-1.64,3.59-.14,.16-.21,.3-.19,.43,.02,.19,.17,.32,.22,.36,.32,.27,3.27,2.91,7.35,6.55Z"/><polygon class="cls-22" points="20.22 43.39 21.01 41.37 19.02 42.22 13.42 49.21 20.22 43.39"/><path class="cls-23" d="M30.85,39.39c-.38,1.52-.44,3.16-2.07,3.81,1.95,6.49,1.64,13.16,2.09,19.67,.16-3.17,.28-6.42,.5-9.67,.24-3.37,.44-6.76,1.7-9.98-1.76-.66-1.83-2.32-2.23-3.83Z"/><path class="cls-5" d="M33.94,40.25c.69-.28,1.33-.5,1.93-.79,.19-.1,.35-.13,.49-.1,.24,.05,.38,.24,.42,.3,.28,.37,2.52,2.88,5.67,6.4-3.14-4.48-5.41-7.72-5.64-8.07-.03-.05-.14-.22-.33-.26-.13-.03-.27,.02-.45,.14-1.12,.78-2.37,1.22-3.76,1.21-.12,0-.23,.07-.35,.1,.59,2.03,3.52,3.93,5.13,3.56-1.42-.42-2.57-1.1-3.13-2.5Z"/><path class="cls-3" d="M42.1,29.13c-.66,1.84-2.43,1.84-4.04,2.27,1.67,.32,3.33,.4,4.02,2.05,6.27-1.9,12.7-1.68,19.11-2.1-.33-.03-.66-.07-.98-.09-3.48-.19-6.96-.32-10.43-.59-2.59-.2-5.2-.46-7.68-1.54Z"/><path class="cls-10" d="M28.86,39.54c-1.39-.04-2.62-.53-3.71-1.35-.17-.13-.32-.18-.44-.16-.19,.03-.3,.2-.34,.25-.24,.34-2.63,3.49-5.93,7.85,3.28-3.4,5.61-5.83,5.91-6.19,.04-.05,.2-.24,.44-.28,.14-.02,.3,.01,.49,.12,.59,.32,1.21,.55,1.89,.86-.61,1.38-1.79,2.01-3.22,2.38,1.6,.43,4.6-1.36,5.26-3.37-.11-.04-.23-.11-.34-.11Z"/><path class="cls-2" d="M51.49,46.51c-.45,.58-1.38,1.85-2.73,3.29-.79,.84-1.46,1.56-2.49,2.4-1.18,.96-4.81,3.64-5.11,3.86-.11,.09-.24,.16-.31,.35,.3-.12,.61-.22,.91-.35,1.95-.86,3.76-1.95,5.36-3.36,.49-.44,.99-.49,1.5-.21,.75,.41,1.46,.89,2.17,1.36,.2,.13,.36,.3,.54,.45l.06-.04c-.44-.62-.9-1.23-1.33-1.86-.17-.25-.31-.54-.44-.82-.26-.6-.22-1.1,.26-1.64,1.53-1.77,2.7-3.76,3.58-5.93,.06-.14,.1-.27,.15-.41,0-.03,0-.07-.02-.13-.71,1.03-1.38,2.07-2.13,3.05Z"/><path class="cls-4" d="M21.45,27.78c-1.36-.65-1.96-1.85-2.29-3.29-.48,1.58,1.22,4.64,3.21,5.36,.04-.11,.12-.22,.12-.34,.08-1.38,.6-2.6,1.46-3.67,.14-.17,.19-.31,.17-.44-.03-.19-.19-.31-.24-.34-.33-.25-3.41-2.74-7.67-6.16,3.3,3.38,5.66,5.78,6.01,6.09,.05,.05,.24,.2,.27,.44,.02,.14-.02,.3-.13,.48-.33,.58-.59,1.19-.92,1.87Z"/><path class="cls-19" d="M8.49,17.17c.44-.58,1.35-1.87,2.68-3.32,.78-.85,1.44-1.58,2.46-2.43,1.16-.97,4.76-3.7,5.05-3.93,.11-.09,.23-.16,.3-.35-.3,.12-.61,.23-.91,.36-1.94,.89-3.74,2-5.32,3.43-.49,.44-.99,.5-1.5,.23-.75-.4-1.47-.87-2.19-1.33-.2-.12-.37-.29-.55-.44l-.06,.04c.45,.61,.91,1.22,1.35,1.84,.18,.25,.32,.53,.45,.81,.27,.59,.23,1.09-.23,1.65-1.5,1.79-2.65,3.8-3.5,5.98-.05,.14-.1,.28-.14,.42,0,.03,0,.07,.02,.13,.7-1.04,1.35-2.09,2.09-3.08Z"/><polygon class="cls-6" points="20.07 19.62 13.19 13.89 18.88 20.8 20.88 21.62 20.07 19.62"/><path class="cls-11" d="M19,55.55c-.3-.22-3.93-2.9-5.11-3.86-1.03-.84-1.7-1.56-2.49-2.4-1.35-1.44-2.28-2.71-2.73-3.29-.75-.97-1.41-2.02-2.13-3.05,0,.06-.02,.1-.02,.13,.04,.14,.09,.28,.15,.41,.88,2.16,2.05,4.16,3.58,5.93,.47,.55,.52,1.05,.26,1.64-.12,.28-.26,.57-.44,.82-.43,.63-.88,1.24-1.33,1.86l.06,.04c.18-.15,.35-.32,.54-.45,.72-.47,1.42-.95,2.17-1.36,.51-.28,1.01-.23,1.5,.21,1.6,1.41,3.41,2.5,5.36,3.36,.3,.13,.61,.24,.91,.35-.07-.19-.19-.26-.31-.35Z"/><path class="cls-16" d="M19.34,33.54c.67-1.8,2.38-1.84,4-2.25-1.62-.39-3.3-.4-3.97-2.07-6.33,1.94-12.85,1.66-19.38,2.09,3.37,.18,6.67,.31,9.96,.56,3.17,.24,6.36,.41,9.39,1.67Z"/></g></g></svg>