<?xml version="1.0" encoding="UTF-8"?><svg id="Layer_2" xmlns="http://www.w3.org/2000/svg" xmlns:xlink="http://www.w3.org/1999/xlink" viewBox="0 0 262.56 49.73"><defs><style>.cls-1{fill:url(#linear-gradient-2);}.cls-2{fill:url(#linear-gradient-17);}.cls-3{fill:url(#linear-gradient-15);}.cls-4{fill:url(#linear-gradient-18);}.cls-5{fill:url(#linear-gradient-28);}.cls-6{fill:url(#linear-gradient-14);}.cls-7{fill:url(#linear-gradient-20);}.cls-8{fill:url(#linear-gradient-6);}.cls-9{fill:url(#linear-gradient-11);}.cls-10{fill:url(#linear-gradient-10);}.cls-11{fill:url(#linear-gradient-16);}.cls-12{fill:url(#linear-gradient-31);}.cls-13{fill:url(#linear-gradient-21);}.cls-14{fill:url(#linear-gradient-25);}.cls-15{fill:url(#linear-gradient-5);}.cls-16{fill:url(#linear-gradient-7);}.cls-17{fill:url(#linear-gradient-24);}.cls-18{fill:url(#linear-gradient-9);}.cls-19{fill:url(#linear-gradient-22);}.cls-20{fill:url(#linear-gradient-3);}.cls-21{fill:url(#linear-gradient);}.cls-22{fill:url(#linear-gradient-27);}.cls-23{fill:url(#linear-gradient-29);}.cls-24{fill:url(#linear-gradient-30);}.cls-25{fill:url(#linear-gradient-23);}.cls-26{fill:url(#linear-gradient-19);}.cls-27{fill:url(#linear-gradient-4);}.cls-28{fill:url(#linear-gradient-8);}.cls-29{fill:url(#linear-gradient-12);}.cls-30{fill:url(#linear-gradient-13);}.cls-31{fill:url(#linear-gradient-26);}</style><linearGradient id="linear-gradient" x1="142.17" y1="343.1" x2="468.58" y2="362.08" gradientTransform="translate(367.45 375.04) rotate(-180)" gradientUnits="userSpaceOnUse"><stop offset="0" stop-color="#2761a9"/><stop offset=".25" stop-color="#652e61"/><stop offset=".5" stop-color="#54013f"/><stop offset=".75" stop-color="#e02820"/><stop offset="1" stop-color="#ff4500"/></linearGradient><linearGradient id="linear-gradient-2" x1="141.83" y1="348.89" x2="468.24" y2="367.87" xlink:href="#linear-gradient"/><linearGradient id="linear-gradient-3" x1="142.3" y1="340.78" x2="468.72" y2="359.76" xlink:href="#linear-gradient"/><linearGradient id="linear-gradient-4" x1="142.23" y1="342.06" x2="468.64" y2="361.04" xlink:href="#linear-gradient"/><linearGradient id="linear-gradient-5" x1="141.9" y1="347.65" x2="468.32" y2="366.63" xlink:href="#linear-gradient"/><linearGradient id="linear-gradient-6" x1="141.94" y1="347.08" x2="468.35" y2="366.06" xlink:href="#linear-gradient"/><linearGradient id="linear-gradient-7" x1="142.16" y1="343.29" x2="468.57" y2="362.27" xlink:href="#linear-gradient"/><linearGradient id="linear-gradient-8" x1="142.44" y1="338.36" x2="468.86" y2="357.34" xlink:href="#linear-gradient"/><linearGradient id="linear-gradient-9" x1="141.41" y1="356.08" x2="467.83" y2="375.06" xlink:href="#linear-gradient"/><linearGradient id="linear-gradient-10" x1="141.33" y1="357.53" x2="467.74" y2="376.51" xlink:href="#linear-gradient"/><linearGradient id="linear-gradient-11" x1="141.22" y1="359.32" x2="467.64" y2="378.3" xlink:href="#linear-gradient"/><linearGradient id="linear-gradient-12" x1="142.44" y1="338.33" x2="468.86" y2="357.31" xlink:href="#linear-gradient"/><linearGradient id="linear-gradient-13" x1="141.51" y1="354.46" x2="467.92" y2="373.44" xlink:href="#linear-gradient"/><linearGradient id="linear-gradient-14" x1="141.19" y1="359.92" x2="467.6" y2="378.9" xlink:href="#linear-gradient"/><linearGradient id="linear-gradient-15" x1="141.69" y1="351.27" x2="468.11" y2="370.25" xlink:href="#linear-gradient"/><linearGradient id="linear-gradient-16" x1="141.69" y1="351.27" x2="468.11" y2="370.25" xlink:href="#linear-gradient"/><linearGradient id="linear-gradient-17" x1="142.38" y1="339.36" x2="468.8" y2="358.34" xlink:href="#linear-gradient"/><linearGradient id="linear-gradient-18" x1="141.92" y1="347.31" x2="468.34" y2="366.29" xlink:href="#linear-gradient"/><linearGradient id="linear-gradient-19" x1="141.77" y1="349.87" x2="468.19" y2="368.85" xlink:href="#linear-gradient"/><linearGradient id="linear-gradient-20" x1="142.15" y1="343.39" x2="468.56" y2="362.37" xlink:href="#linear-gradient"/><linearGradient id="linear-gradient-21" x1="142.01" y1="345.86" x2="468.42" y2="364.85" xlink:href="#linear-gradient"/><linearGradient id="linear-gradient-22" x1="141.97" y1="346.57" x2="468.38" y2="365.55" xlink:href="#linear-gradient"/><linearGradient id="linear-gradient-23" x1="141.99" y1="346.14" x2="468.4" y2="365.12" xlink:href="#linear-gradient"/><linearGradient id="linear-gradient-24" x1="141.44" y1="355.65" x2="467.85" y2="374.63" xlink:href="#linear-gradient"/><linearGradient id="linear-gradient-25" x1="142.04" y1="345.26" x2="468.46" y2="364.25" xlink:href="#linear-gradient"/><linearGradient id="linear-gradient-26" x1="141.91" y1="347.5" x2="468.33" y2="366.48" xlink:href="#linear-gradient"/><linearGradient id="linear-gradient-27" x1="141.87" y1="348.26" x2="468.28" y2="367.24" xlink:href="#linear-gradient"/><linearGradient id="linear-gradient-28" x1="142.21" y1="342.32" x2="468.63" y2="361.3" xlink:href="#linear-gradient"/><linearGradient id="linear-gradient-29" x1="141.97" y1="346.53" x2="468.38" y2="365.51" xlink:href="#linear-gradient"/><linearGradient id="linear-gradient-30" x1="141.67" y1="351.57" x2="468.09" y2="370.55" xlink:href="#linear-gradient"/><linearGradient id="linear-gradient-31" x1="141.7" y1="351.21" x2="468.11" y2="370.19" xlink:href="#linear-gradient"/></defs><g id="Layer_1-2"><g><path d="M241.84,22.53c-1.2,0-2.18,.98-2.18,2.18s.98,2.18,2.18,2.18,2.18-.98,2.18-2.18-.98-2.18-2.18-2.18Zm0,3.75c-.87,0-1.57-.7-1.57-1.57s.7-1.57,1.57-1.57,1.57,.7,1.57,1.57-.7,1.57-1.57,1.57Z"/><path d="M17.99,17.54c-1.92,0-3.58,.71-4.99,2.14-1.41,1.43-2.11,3.1-2.11,5.03s.7,3.58,2.11,4.99c1.41,1.41,3.08,2.11,5.01,2.11s3.58-.7,4.96-2.11c1.37-1.41,2.06-3.08,2.06-5.01s-.69-3.61-2.08-5.02c-1.38-1.42-3.04-2.13-4.96-2.13Zm3.94,11c-1.07,1.11-2.36,1.67-3.88,1.67h-.21c-1.5,0-2.8-.56-3.88-1.68-1.08-1.12-1.62-2.43-1.62-3.91s.55-2.78,1.65-3.87c1.1-1.09,2.42-1.63,3.96-1.63s2.86,.54,3.95,1.63c1.09,1.09,1.63,2.38,1.63,3.88s-.53,2.8-1.6,3.91Z"/><path d="M129.15,17.54c-1.92,0-3.58,.71-4.99,2.14-1.41,1.43-2.11,3.1-2.11,5.03s.7,3.58,2.11,4.99c1.41,1.41,3.08,2.11,5.01,2.11s3.58-.7,4.96-2.11c1.37-1.41,2.06-3.08,2.06-5.01s-.69-3.61-2.07-5.02c-1.38-1.42-3.04-2.13-4.96-2.13Z"/><path d="M60.49,17.54c-1.92,0-3.58,.71-4.99,2.14-1.41,1.43-2.11,3.1-2.11,5.03s.7,3.58,2.11,4.99c1.41,1.41,3.08,2.11,5.01,2.11s3.58-.7,4.96-2.11c1.37-1.41,2.06-3.08,2.06-5.01s-.69-3.61-2.08-5.02c-1.38-1.42-3.04-2.13-4.96-2.13Z"/><path d="M200.54,32.48c-.56,.12-1.14,.19-1.75,.19h-.31c-.61,0-1.2-.07-1.77-.2-.37,.29-.68,.64-.91,1.04-.28,.49-.42,1.01-.42,1.55,0,.86,.32,1.61,.96,2.25,.64,.64,1.4,.96,2.28,.96,.88,0,1.64-.32,2.28-.96,.64-.64,.96-1.39,.96-2.25,0-.54-.14-1.05-.42-1.55-.23-.4-.53-.75-.89-1.03Z"/><path d="M237.7,0H24.87C11.13,0,0,11.13,0,24.87H0c0,13.73,11.13,24.87,24.87,24.87H237.7c13.73,0,24.87-11.13,24.87-24.87h0c0-13.73-11.13-24.87-24.87-24.87Zm9.87,14.16c.06,.02,.13,.04,.19,.07,1.01,.41,1.94,.96,2.76,1.67,.25,.22,.49,.24,.76,.12,.13-.06,.26-.12,.38-.2,.29-.2,.58-.41,.87-.62l.02,.03c-.07,.08-.15,.16-.21,.25-.22,.33-.44,.66-.63,1.01-.13,.24-.11,.47,.1,.7,.66,.74,1.16,1.59,1.56,2.5,.06,.14,.11,.28,.16,.42-.09-.03-.12-.09-.16-.14-.1-.14-1.35-1.83-1.8-2.38-.39-.48-.72-.79-1.12-1.16-.67-.63-1.26-1.06-1.53-1.27-.45-.35-.94-.66-1.42-.99,.03,0,.05-.01,.06,0Zm-1.92,8.27c.14,.28,.24,.57,.37,.9,.65-.26,.97-.8,1.16-1.46,.17,.75-.71,2.12-1.66,2.39-.02-.05-.05-.11-.05-.16,0-.65-.2-1.23-.56-1.75-.06-.08-.08-.15-.07-.21,.02-.09,.1-.14,.12-.15,.16-.11,1.67-1.16,3.75-2.62-1.64,1.47-2.81,2.51-2.98,2.64-.03,.02-.12,.09-.14,.2-.01,.07,0,.14,.05,.23Zm.23,5.36c.16,.14,1.3,1.22,2.88,2.75-2.03-1.54-3.5-2.65-3.65-2.76-.02-.02-.1-.07-.12-.16,0-.06,.01-.13,.07-.21,.38-.51,.61-1.08,.63-1.73,0-.05,.03-.11,.05-.16,.93,.31,1.76,1.7,1.57,2.45-.17-.67-.47-1.22-1.11-1.5-.14,.32-.25,.61-.4,.88-.05,.09-.07,.16-.05,.23,.02,.11,.11,.18,.13,.2Zm4.31,5.08l-3.25-2.61-.39-.92,.94,.36,2.71,3.17Zm-2.76-12.71l-.95,.32,.44-.9,3.38-2.45-2.86,3.03Zm-2.25-.56c-.68,.12-1.25,.37-1.58,.98,.31,.17,.59,.3,.85,.47,.08,.05,.16,.08,.22,.07,.11-.01,.19-.09,.21-.12,.15-.15,1.32-1.19,2.97-2.65-1.69,1.9-2.92,3.27-3.05,3.42-.02,.02-.08,.1-.17,.1-.06,0-.12-.02-.2-.09-.48-.42-1.03-.69-1.67-.77-.05,0-.1-.04-.16-.07,.38-.9,1.84-1.62,2.57-1.36Zm-.62,5.1c0,1.49-1.21,2.7-2.7,2.7s-2.7-1.21-2.7-2.7,1.21-2.7,2.7-2.7,2.7,1.21,2.7,2.7Zm-2.99-8.75c.13-1.61,.19-3.23,.28-4.85,0-.15,.03-.31,.04-.46,.2,2.98,.1,5.98,.98,8.89-.77,.32-.8,1.09-.95,1.87-.2-.75-.2-1.57-1.06-1.88,.5-1.15,.62-2.36,.72-3.57ZM26.05,32.39h-1.1v-3.84c-.64,1.3-1.6,2.33-2.88,3.09-1.28,.75-2.65,1.13-4.12,1.13-2.24,0-4.16-.79-5.76-2.38-1.6-1.59-2.4-3.49-2.4-5.71s.8-4.12,2.4-5.71c1.6-1.59,3.52-2.38,5.76-2.38,1.46,0,2.86,.39,4.2,1.17,1.34,.78,2.27,1.81,2.8,3.09v-3.88h1.1v15.44Zm16.77,0h-1.1v-3.12c-1.17,2.33-3.16,3.5-5.97,3.5-1.92,0-3.53-.66-4.84-1.99-1.3-1.33-1.96-2.94-1.96-4.84v-8.99h1.1v8.99c0,1.58,.55,2.95,1.66,4.12,1.11,1.17,2.45,1.75,4.03,1.75s2.97-.58,4.17-1.75c1.2-1.17,1.8-2.54,1.8-4.12v-8.99h1.1v15.44Zm8.44,.21c-1.62,0-3.01-.54-4.15-1.63-1.14-1.09-1.72-2.48-1.72-4.17V10.75h1.1v6.24h4.73v.96h-4.73v8.85c0,1.4,.46,2.55,1.39,3.46,.93,.91,2.05,1.37,3.38,1.37v.96Zm15.02-2.26c-1.56,1.62-3.44,2.44-5.66,2.44h-.31c-2.2,0-4.08-.82-5.66-2.45-1.58-1.63-2.37-3.54-2.37-5.71s.8-4.05,2.4-5.64c1.6-1.59,3.53-2.38,5.78-2.38s4.17,.79,5.76,2.38c1.59,1.59,2.38,3.48,2.38,5.66s-.78,4.09-2.33,5.71Zm26.2,2.06h-1.1v-10.22c0-1.33-.43-2.43-1.3-3.31-.87-.88-1.92-1.32-3.14-1.32s-2.31,.46-3.26,1.37c-.95,.91-1.42,1.98-1.42,3.19v10.29h-1.1v-10.29c0-1.23-.43-2.3-1.3-3.21-.87-.9-1.92-1.35-3.16-1.35s-2.31,.46-3.22,1.37-1.37,1.98-1.37,3.19v10.29h-1.1v-15.44h1.1v2.16c.46-.69,1.14-1.28,2.04-1.78,.9-.5,1.84-.75,2.81-.75s1.9,.34,2.8,1.01c.89,.67,1.54,1.55,1.95,2.62,.34-1.1,1-1.98,1.97-2.64,.97-.66,2.15-.99,3.55-.99s2.62,.5,3.67,1.51c1.05,1.01,1.58,2.37,1.58,4.08v10.22Zm18.66,0h-1.1v-3.84c-.64,1.3-1.6,2.33-2.88,3.09-1.28,.75-2.65,1.13-4.12,1.13-2.24,0-4.16-.79-5.76-2.38-1.6-1.59-2.4-3.49-2.4-5.71s.8-4.12,2.4-5.71c1.6-1.59,3.52-2.38,5.76-2.38,1.46,0,2.86,.39,4.2,1.17,1.34,.78,2.27,1.81,2.8,3.09v-3.88h1.1v15.44Zm8.78,.21c-1.62,0-3.01-.54-4.15-1.63-1.14-1.09-1.72-2.48-1.72-4.17V10.75h1.1v6.24h4.73v.96h-4.73v8.85c0,1.4,.46,2.55,1.39,3.46,.93,.91,2.05,1.37,3.38,1.37v.96Zm17.29-.21h-1.1v-3.84c-.64,1.3-1.6,2.33-2.88,3.09-1.28,.75-2.65,1.13-4.12,1.13-2.24,0-4.16-.79-5.76-2.38-1.6-1.59-2.4-3.49-2.4-5.71s.8-4.12,2.4-5.71c.82-.81,1.72-1.41,2.7-1.81-.75-.71-1.13-1.59-1.13-2.63v-.14c0-1,.37-1.85,1.1-2.57,.74-.72,1.6-1.07,2.59-1.07,.99,0,1.85,.36,2.57,1.09,.72,.73,1.08,1.62,1.08,2.68,0,.91-.3,1.71-.9,2.39,.66,.19,1.31,.47,1.95,.84,1.34,.78,2.27,1.81,2.8,3.09v-3.88h1.1v15.44Zm10.67-6h-4.8v5.9h-1.1v-15.88c0-1.69,.57-3.08,1.72-4.17,1.14-1.09,2.53-1.63,4.15-1.63v.96c-1.33,0-2.45,.46-3.38,1.37-.93,.91-1.39,2.07-1.39,3.46v9.02h4.8v.96Zm17.29,5.9h-1.1v-3.84c-.64,1.3-1.6,2.33-2.88,3.09-1.28,.75-2.65,1.13-4.12,1.13-2.24,0-4.16-.79-5.76-2.38-1.6-1.59-2.4-3.49-2.4-5.71s.8-4.12,2.4-5.71c1.6-1.59,3.52-2.38,5.76-2.38,1.46,0,2.86,.39,4.2,1.17,1.34,.78,2.27,1.81,2.8,3.09v-3.88h1.1v15.44Zm16.67-11.35c-.71-1.05-1.61-1.89-2.69-2.5-1.09-.62-2.22-.93-3.41-.93-1.9,0-3.55,.7-4.96,2.11-1.41,1.41-2.11,3.08-2.11,5.02s.7,3.62,2.11,5.02c1.41,1.41,3.06,2.11,4.96,2.11,1.19,0,2.33-.31,3.41-.93,1.09-.62,1.98-1.46,2.69-2.54v1.78c-1.6,1.76-3.58,2.64-5.93,2.64h-.31c-2.2,0-4.08-.81-5.66-2.44-1.58-1.62-2.37-3.53-2.37-5.71s.8-4.07,2.4-5.66c1.6-1.59,3.57-2.38,5.9-2.38s4.32,.88,5.97,2.64v1.75Zm7.58,11.56c-1.62,0-3.01-.54-4.15-1.63-1.14-1.09-1.72-2.48-1.72-4.17V10.65h1.1v6.24h4.73v.96h-4.73v8.85c0,1.4,.46,2.55,1.39,3.46,.93,.91,2.05,1.37,3.38,1.37v.96Zm15.02-2.26c-.98,1.02-2.08,1.72-3.32,2.1,.77,.74,1.16,1.63,1.16,2.67,0,1.06-.36,1.95-1.08,2.68-.72,.73-1.58,1.09-2.57,1.09-.99,0-1.85-.36-2.59-1.07-.74-.72-1.1-1.57-1.1-2.57v-.14c0-1.06,.39-1.95,1.17-2.67-1.22-.38-2.32-1.08-3.3-2.1-1.58-1.63-2.37-3.54-2.37-5.71s.8-4.05,2.4-5.64c1.6-1.59,3.53-2.38,5.78-2.38s4.17,.79,5.76,2.38c1.59,1.59,2.38,3.48,2.38,5.66s-.78,4.09-2.33,5.71Zm13.75-11.28c-1.01-1.01-2.12-1.51-3.33-1.51s-2.28,.46-3.21,1.37c-.93,.91-1.39,1.98-1.39,3.19v10.29h-1.1v-15.44h1.1v2.3c.41-.78,1.05-1.42,1.92-1.92,.87-.5,1.84-.75,2.92-.75s2.1,.37,3.09,1.1v1.37Zm15.57,12.86c0,2.04-.71,3.76-2.13,5.18-1.42,1.42-3.16,2.13-5.21,2.13-2.47,0-4.42-.95-5.87-2.85l.07-1.71c.64,1.1,1.48,1.97,2.52,2.62,1.04,.65,2.13,.98,3.28,.98,1.69,0,3.16-.61,4.39-1.84,1.24-1.22,1.85-2.69,1.85-4.41v-2.61c-1.12,2.24-3.08,3.36-5.87,3.36-1.9,0-3.52-.67-4.87-2.01-1.35-1.34-2.02-2.94-2.02-4.82v-8.99h1.1v8.99c0,1.58,.58,2.95,1.73,4.12,1.15,1.17,2.52,1.75,4.1,1.75s2.94-.58,4.1-1.75c1.15-1.17,1.73-2.54,1.73-4.12v-8.99h1.1v14.95Zm5.18-10.86s.1,.11,.21,.12c.07,0,.14-.02,.22-.07,.26-.17,.54-.3,.85-.47-.33-.62-.91-.87-1.58-.98,.73-.26,2.19,.46,2.57,1.36-.05,.02-.1,.06-.16,.07-.64,.07-1.19,.34-1.67,.77-.08,.07-.14,.1-.2,.09-.09,0-.15-.08-.17-.1-.12-.15-1.35-1.52-3.05-3.42,1.65,1.45,2.82,2.49,2.97,2.65Zm-.34,9.14c.67-.14,1.23-.41,1.55-1.04-.31-.16-.6-.28-.86-.44-.09-.05-.16-.07-.22-.06-.11,.01-.19,.1-.21,.12-.14,.16-1.28,1.24-2.87,2.76,1.62-1.96,2.8-3.38,2.92-3.53,.02-.02,.07-.1,.16-.11,.06,0,.12,.02,.2,.08,.49,.41,1.05,.65,1.7,.7,.05,0,.11,.04,.16,.06-.35,.92-1.78,1.69-2.51,1.46Zm3.5,4.39c-.12,1.53-.17,3.07-.26,4.63-.2-3.03-.07-6.07-.97-9.02,.78-.31,.78-1.09,.96-1.85,.19,.75,.21,1.55,1.05,1.86-.59,1.41-.67,2.89-.78,4.37Zm.59-5.78c.05-.02,.1-.06,.16-.06,.64-.05,1.21-.3,1.7-.7,.08-.06,.14-.09,.2-.08,.09,.01,.14,.09,.16,.11,.12,.15,1.29,1.57,2.92,3.53-1.59-1.51-2.73-2.6-2.87-2.76-.02-.02-.1-.11-.21-.12-.07,0-.14,.01-.22,.06-.27,.16-.55,.28-.86,.44,.31,.63,.87,.9,1.55,1.04-.73,.23-2.17-.54-2.51-1.46Zm10.43,1.85c-.4,.91-.91,1.75-1.56,2.5-.2,.23-.23,.46-.1,.7,.19,.35,.42,.68,.63,1.01,.06,.09,.14,.17,.21,.25l-.02,.03c-.29-.21-.57-.42-.87-.62-.12-.08-.25-.15-.38-.2-.28-.12-.51-.1-.76,.12-.82,.71-1.75,1.26-2.76,1.67-.06,.03-.13,.05-.19,.07-.01,0-.03,0-.06,0,.48-.33,.97-.64,1.42-.99,.27-.21,.86-.64,1.53-1.27,.39-.37,.73-.68,1.12-1.16,.45-.55,1.69-2.24,1.8-2.38,.04-.05,.07-.11,.16-.14-.05,.14-.1,.29-.16,.42Zm3.39-5.81c-3.02,.21-6.12,.07-9.13,.97-.3-.76-1.07-.79-1.77-.96,.7-.18,1.47-.22,1.78-1.04,1.5,.59,3.07,.68,4.64,.79,1.5,.11,3.01,.16,4.48,.23h0Z"/><path d="M126.59,16.97c.79-.25,1.63-.39,2.53-.39,.58,0,1.15,.06,1.7,.18,.23-.23,.43-.48,.59-.77,.28-.49,.42-1.01,.42-1.55,0-.86-.32-1.61-.96-2.25-.64-.64-1.4-.96-2.28-.96-.88,0-1.64,.32-2.28,.96-.64,.64-.96,1.39-.96,2.25,0,.54,.14,1.05,.42,1.55,.21,.37,.48,.69,.81,.97Z"/><path d="M103.09,17.54c-1.92,0-3.58,.71-4.99,2.14-1.41,1.43-2.11,3.1-2.11,5.03s.7,3.58,2.11,4.99c1.41,1.41,3.08,2.11,5.01,2.11s3.58-.7,4.96-2.11c1.37-1.41,2.06-3.08,2.06-5.01s-.69-3.61-2.07-5.02c-1.38-1.42-3.04-2.13-4.96-2.13Z"/><path d="M157.11,17.44c-1.92,0-3.58,.71-4.99,2.14-1.41,1.43-2.11,3.1-2.11,5.03s.7,3.58,2.11,4.99c1.41,1.41,3.08,2.11,5.01,2.11s3.58-.7,4.96-2.11c1.37-1.41,2.06-3.08,2.06-5.01s-.69-3.61-2.08-5.02c-1.38-1.42-3.04-2.13-4.96-2.13Z"/><path d="M256.51,24.75h0Z"/><path d="M46.49,26.8v-8.85h4.73v-.96h-4.73v-6.24h-1.1V26.8c0,1.69,.57,3.08,1.72,4.17,1.14,1.09,2.53,1.63,4.15,1.63v-.96c-1.33,0-2.45-.46-3.38-1.37-.93-.91-1.39-2.07-1.39-3.46Z"/><path class="cls-21" d="M46.49,26.8v-8.85h4.73v-.96h-4.73v-6.24h-1.1V26.8c0,1.69,.57,3.08,1.72,4.17,1.14,1.09,2.53,1.63,4.15,1.63v-.96c-1.33,0-2.45-.46-3.38-1.37-.93-.91-1.39-2.07-1.39-3.46Z"/><path d="M143.08,16.41c0-1.39,.46-2.55,1.39-3.46,.93-.91,2.05-1.37,3.38-1.37v-.96c-1.62,0-3.01,.54-4.15,1.63-1.14,1.09-1.72,2.48-1.72,4.17v15.88h1.1v-5.9h4.8v-.96h-4.8v-9.02Z"/><path class="cls-1" d="M143.08,16.41c0-1.39,.46-2.55,1.39-3.46,.93-.91,2.05-1.37,3.38-1.37v-.96c-1.62,0-3.01,.54-4.15,1.63-1.14,1.09-1.72,2.48-1.72,4.17v15.88h1.1v-5.9h4.8v-.96h-4.8v-9.02Z"/><path d="M60.47,16.58c-2.25,0-4.18,.79-5.78,2.38-1.6,1.59-2.4,3.47-2.4,5.64s.79,4.08,2.37,5.71c1.58,1.64,3.46,2.45,5.66,2.45h.31c2.22,0,4.1-.81,5.66-2.44,1.55-1.62,2.33-3.53,2.33-5.71s-.79-4.07-2.38-5.66c-1.59-1.59-3.51-2.38-5.76-2.38Zm4.99,13.12c-1.37,1.41-3.02,2.11-4.96,2.11s-3.6-.7-5.01-2.11c-1.41-1.41-2.11-3.07-2.11-4.99s.7-3.6,2.11-5.03c1.41-1.43,3.07-2.14,4.99-2.14s3.57,.71,4.96,2.13c1.38,1.42,2.08,3.09,2.08,5.02s-.69,3.6-2.06,5.01Z"/><path class="cls-20" d="M60.47,16.58c-2.25,0-4.18,.79-5.78,2.38-1.6,1.59-2.4,3.47-2.4,5.64s.79,4.08,2.37,5.71c1.58,1.64,3.46,2.45,5.66,2.45h.31c2.22,0,4.1-.81,5.66-2.44,1.55-1.62,2.33-3.53,2.33-5.71s-.79-4.07-2.38-5.66c-1.59-1.59-3.51-2.38-5.76-2.38Zm4.99,13.12c-1.37,1.41-3.02,2.11-4.96,2.11s-3.6-.7-5.01-2.11c-1.41-1.41-2.11-3.07-2.11-4.99s.7-3.6,2.11-5.03c1.41-1.43,3.07-2.14,4.99-2.14s3.57,.71,4.96,2.13c1.38,1.42,2.08,3.09,2.08,5.02s-.69,3.6-2.06,5.01Z"/><path d="M87.24,16.58c-1.4,0-2.58,.33-3.55,.99-.97,.66-1.63,1.54-1.97,2.64-.41-1.07-1.06-1.95-1.95-2.62-.89-.67-1.82-1.01-2.8-1.01s-1.91,.25-2.81,.75c-.9,.5-1.58,1.1-2.04,1.78v-2.16h-1.1v15.44h1.1v-10.29c0-1.21,.46-2.28,1.37-3.19s1.99-1.37,3.22-1.37,2.29,.45,3.16,1.35c.87,.9,1.3,1.97,1.3,3.21v10.29h1.1v-10.29c0-1.21,.47-2.28,1.42-3.19,.95-.91,2.04-1.37,3.26-1.37s2.27,.44,3.14,1.32c.87,.88,1.3,1.98,1.3,3.31v10.22h1.1v-10.22c0-1.71-.53-3.08-1.58-4.08-1.05-1.01-2.28-1.51-3.67-1.51Z"/><path class="cls-27" d="M87.24,16.58c-1.4,0-2.58,.33-3.55,.99-.97,.66-1.63,1.54-1.97,2.64-.41-1.07-1.06-1.95-1.95-2.62-.89-.67-1.82-1.01-2.8-1.01s-1.91,.25-2.81,.75c-.9,.5-1.58,1.1-2.04,1.78v-2.16h-1.1v15.44h1.1v-10.29c0-1.21,.46-2.28,1.37-3.19s1.99-1.37,3.22-1.37,2.29,.45,3.16,1.35c.87,.9,1.3,1.97,1.3,3.21v10.29h1.1v-10.29c0-1.21,.47-2.28,1.42-3.19,.95-.91,2.04-1.37,3.26-1.37s2.27,.44,3.14,1.32c.87,.88,1.3,1.98,1.3,3.31v10.22h1.1v-10.22c0-1.71-.53-3.08-1.58-4.08-1.05-1.01-2.28-1.51-3.67-1.51Z"/><path d="M136.12,20.84c-.53-1.28-1.46-2.31-2.8-3.09-.64-.37-1.28-.65-1.95-.84,.6-.68,.9-1.48,.9-2.39,0-1.06-.36-1.95-1.08-2.68-.72-.73-1.58-1.09-2.57-1.09-.99,0-1.85,.36-2.59,1.07-.74,.72-1.1,1.57-1.1,2.57v.14c0,1.04,.38,1.91,1.13,2.63-.98,.4-1.89,1-2.7,1.81-1.6,1.59-2.4,3.49-2.4,5.71s.8,4.12,2.4,5.71c1.6,1.59,3.52,2.38,5.76,2.38,1.46,0,2.84-.38,4.12-1.13,1.28-.75,2.24-1.78,2.88-3.09v3.84h1.1v-15.44h-1.1v3.88Zm-10.33-4.84c-.28-.49-.42-1.01-.42-1.55,0-.86,.32-1.61,.96-2.25,.64-.64,1.4-.96,2.28-.96,.88,0,1.64,.32,2.28,.96,.64,.64,.96,1.39,.96,2.25,0,.54-.14,1.05-.42,1.55-.16,.29-.36,.54-.59,.77-.56-.12-1.13-.18-1.7-.18-.89,0-1.73,.13-2.53,.39-.33-.27-.6-.6-.81-.97Zm8.34,13.7c-1.37,1.41-3.02,2.11-4.96,2.11s-3.6-.7-5.01-2.11c-1.41-1.41-2.11-3.07-2.11-4.99s.7-3.6,2.11-5.03c1.41-1.43,3.07-2.14,4.99-2.14s3.57,.71,4.96,2.13c1.38,1.42,2.07,3.09,2.07,5.02s-.69,3.6-2.06,5.01Z"/><path class="cls-15" d="M136.12,20.84c-.53-1.28-1.46-2.31-2.8-3.09-.64-.37-1.28-.65-1.95-.84,.6-.68,.9-1.48,.9-2.39,0-1.06-.36-1.95-1.08-2.68-.72-.73-1.58-1.09-2.57-1.09-.99,0-1.85,.36-2.59,1.07-.74,.72-1.1,1.57-1.1,2.57v.14c0,1.04,.38,1.91,1.13,2.63-.98,.4-1.89,1-2.7,1.81-1.6,1.59-2.4,3.49-2.4,5.71s.8,4.12,2.4,5.71c1.6,1.59,3.52,2.38,5.76,2.38,1.46,0,2.84-.38,4.12-1.13,1.28-.75,2.24-1.78,2.88-3.09v3.84h1.1v-15.44h-1.1v3.88Zm-10.33-4.84c-.28-.49-.42-1.01-.42-1.55,0-.86,.32-1.61,.96-2.25,.64-.64,1.4-.96,2.28-.96,.88,0,1.64,.32,2.28,.96,.64,.64,.96,1.39,.96,2.25,0,.54-.14,1.05-.42,1.55-.16,.29-.36,.54-.59,.77-.56-.12-1.13-.18-1.7-.18-.89,0-1.73,.13-2.53,.39-.33-.27-.6-.6-.81-.97Zm8.34,13.7c-1.37,1.41-3.02,2.11-4.96,2.11s-3.6-.7-5.01-2.11c-1.41-1.41-2.11-3.07-2.11-4.99s.7-3.6,2.11-5.03c1.41-1.43,3.07-2.14,4.99-2.14s3.57,.71,4.96,2.13c1.38,1.42,2.07,3.09,2.07,5.02s-.69,3.6-2.06,5.01Z"/><path d="M115.16,26.8v-8.85h4.73v-.96h-4.73v-6.24h-1.1V26.8c0,1.69,.57,3.08,1.72,4.17,1.14,1.09,2.53,1.63,4.15,1.63v-.96c-1.33,0-2.45-.46-3.38-1.37-.93-.91-1.39-2.07-1.39-3.46Z"/><path class="cls-8" d="M115.16,26.8v-8.85h4.73v-.96h-4.73v-6.24h-1.1V26.8c0,1.69,.57,3.08,1.72,4.17,1.14,1.09,2.53,1.63,4.15,1.63v-.96c-1.33,0-2.45-.46-3.38-1.37-.93-.91-1.39-2.07-1.39-3.46Z"/><path d="M110.05,20.84c-.53-1.28-1.46-2.31-2.8-3.09-1.34-.78-2.74-1.17-4.2-1.17-2.24,0-4.16,.79-5.76,2.38-1.6,1.59-2.4,3.49-2.4,5.71s.8,4.12,2.4,5.71c1.6,1.59,3.52,2.38,5.76,2.38,1.46,0,2.84-.38,4.12-1.13,1.28-.75,2.24-1.78,2.88-3.09v3.84h1.1v-15.44h-1.1v3.88Zm-1.99,8.87c-1.37,1.41-3.02,2.11-4.96,2.11s-3.6-.7-5.01-2.11c-1.41-1.41-2.11-3.07-2.11-4.99s.7-3.6,2.11-5.03c1.41-1.43,3.07-2.14,4.99-2.14s3.57,.71,4.96,2.13c1.38,1.42,2.07,3.09,2.07,5.02s-.69,3.6-2.06,5.01Z"/><path class="cls-16" d="M110.05,20.84c-.53-1.28-1.46-2.31-2.8-3.09-1.34-.78-2.74-1.17-4.2-1.17-2.24,0-4.16,.79-5.76,2.38-1.6,1.59-2.4,3.49-2.4,5.71s.8,4.12,2.4,5.71c1.6,1.59,3.52,2.38,5.76,2.38,1.46,0,2.84-.38,4.12-1.13,1.28-.75,2.24-1.78,2.88-3.09v3.84h1.1v-15.44h-1.1v3.88Zm-1.99,8.87c-1.37,1.41-3.02,2.11-4.96,2.11s-3.6-.7-5.01-2.11c-1.41-1.41-2.11-3.07-2.11-4.99s.7-3.6,2.11-5.03c1.41-1.43,3.07-2.14,4.99-2.14s3.57,.71,4.96,2.13c1.38,1.42,2.07,3.09,2.07,5.02s-.69,3.6-2.06,5.01Z"/><path d="M24.95,20.84c-.53-1.28-1.46-2.31-2.8-3.09-1.34-.78-2.74-1.17-4.2-1.17-2.24,0-4.16,.79-5.76,2.38-1.6,1.59-2.4,3.49-2.4,5.71s.8,4.12,2.4,5.71c1.6,1.59,3.52,2.38,5.76,2.38,1.46,0,2.84-.38,4.12-1.13,1.28-.75,2.24-1.78,2.88-3.09v3.84h1.1v-15.44h-1.1v3.88Zm-1.99,8.87c-1.37,1.41-3.02,2.11-4.96,2.11s-3.6-.7-5.01-2.11c-1.41-1.41-2.11-3.07-2.11-4.99s.7-3.6,2.11-5.03c1.41-1.43,3.07-2.14,4.99-2.14s3.57,.71,4.96,2.13c1.38,1.42,2.08,3.09,2.08,5.02s-.69,3.6-2.06,5.01Z"/><path class="cls-28" d="M24.95,20.84c-.53-1.28-1.46-2.31-2.8-3.09-1.34-.78-2.74-1.17-4.2-1.17-2.24,0-4.16,.79-5.76,2.38-1.6,1.59-2.4,3.49-2.4,5.71s.8,4.12,2.4,5.71c1.6,1.59,3.52,2.38,5.76,2.38,1.46,0,2.84-.38,4.12-1.13,1.28-.75,2.24-1.78,2.88-3.09v3.84h1.1v-15.44h-1.1v3.88Zm-1.99,8.87c-1.37,1.41-3.02,2.11-4.96,2.11s-3.6-.7-5.01-2.11c-1.41-1.41-2.11-3.07-2.11-4.99s.7-3.6,2.11-5.03c1.41-1.43,3.07-2.14,4.99-2.14s3.57,.71,4.96,2.13c1.38,1.42,2.08,3.09,2.08,5.02s-.69,3.6-2.06,5.01Z"/><path d="M242.76,21.04c.64,.07,1.19,.34,1.67,.77,.08,.07,.14,.1,.2,.09,.09,0,.15-.08,.17-.1,.12-.15,1.35-1.52,3.05-3.42-1.65,1.45-2.82,2.49-2.97,2.65-.02,.02-.1,.11-.21,.12-.07,0-.14-.02-.22-.07-.26-.17-.54-.3-.85-.47,.33-.62,.91-.87,1.58-.98-.73-.26-2.19,.46-2.57,1.36,.05,.02,.1,.06,.16,.07Z"/><path class="cls-18" d="M242.76,21.04c.64,.07,1.19,.34,1.67,.77,.08,.07,.14,.1,.2,.09,.09,0,.15-.08,.17-.1,.12-.15,1.35-1.52,3.05-3.42-1.65,1.45-2.82,2.49-2.97,2.65-.02,.02-.1,.11-.21,.12-.07,0-.14-.02-.22-.07-.26-.17-.54-.3-.85-.47,.33-.62,.91-.87,1.58-.98-.73-.26-2.19,.46-2.57,1.36,.05,.02,.1,.06,.16,.07Z"/><polygon points="246.9 19.58 246.47 20.48 247.42 20.16 250.28 17.13 246.9 19.58"/><polygon class="cls-10" points="246.9 19.58 246.47 20.48 247.42 20.16 250.28 17.13 246.9 19.58"/><path d="M250.45,16.43c.39,.37,.73,.68,1.12,1.16,.45,.55,1.69,2.24,1.8,2.38,.04,.05,.07,.11,.16,.14-.05-.14-.1-.29-.16-.42-.4-.91-.91-1.75-1.56-2.5-.2-.23-.23-.46-.1-.7,.19-.35,.42-.68,.63-1.01,.06-.09,.14-.17,.21-.25l-.02-.03c-.29,.21-.57,.42-.87,.62-.12,.08-.25,.15-.38,.2-.28,.12-.51,.1-.76-.12-.82-.71-1.75-1.26-2.76-1.67-.06-.03-.13-.05-.19-.07-.01,0-.03,0-.06,0,.48,.33,.97,.64,1.42,.99,.27,.21,.86,.64,1.53,1.27Z"/><path class="cls-9" d="M250.45,16.43c.39,.37,.73,.68,1.12,1.16,.45,.55,1.69,2.24,1.8,2.38,.04,.05,.07,.11,.16,.14-.05-.14-.1-.29-.16-.42-.4-.91-.91-1.75-1.56-2.5-.2-.23-.23-.46-.1-.7,.19-.35,.42-.68,.63-1.01,.06-.09,.14-.17,.21-.25l-.02-.03c-.29,.21-.57,.42-.87,.62-.12,.08-.25,.15-.38,.2-.28,.12-.51,.1-.76-.12-.82-.71-1.75-1.26-2.76-1.67-.06-.03-.13-.05-.19-.07-.01,0-.03,0-.06,0,.48,.33,.97,.64,1.42,.99,.27,.21,.86,.64,1.53,1.27Z"/><path d="M17.95,19.11c-1.54,0-2.86,.54-3.96,1.63-1.1,1.09-1.65,2.38-1.65,3.87s.54,2.79,1.62,3.91c1.08,1.12,2.37,1.68,3.88,1.68h.21c1.52,0,2.81-.56,3.88-1.67,1.07-1.11,1.6-2.42,1.6-3.91s-.54-2.79-1.63-3.88c-1.09-1.09-2.41-1.63-3.95-1.63Z"/><path class="cls-29" d="M17.95,19.11c-1.54,0-2.86,.54-3.96,1.63-1.1,1.09-1.65,2.38-1.65,3.87s.54,2.79,1.62,3.91c1.08,1.12,2.37,1.68,3.88,1.68h.21c1.52,0,2.81-.56,3.88-1.67,1.07-1.11,1.6-2.42,1.6-3.91s-.54-2.79-1.63-3.88c-1.09-1.09-2.41-1.63-3.95-1.63Z"/><path d="M245.74,22c.17-.13,1.34-1.17,2.98-2.64-2.08,1.46-3.59,2.52-3.75,2.62-.02,.02-.1,.07-.12,.15-.01,.06,0,.13,.07,.21,.36,.52,.57,1.1,.56,1.75,0,.05,.03,.11,.05,.16,.94-.27,1.83-1.64,1.66-2.39-.2,.66-.51,1.2-1.16,1.46-.13-.32-.23-.62-.37-.9-.04-.09-.06-.16-.05-.23,.02-.11,.11-.18,.14-.2Z"/><path class="cls-30" d="M245.74,22c.17-.13,1.34-1.17,2.98-2.64-2.08,1.46-3.59,2.52-3.75,2.62-.02,.02-.1,.07-.12,.15-.01,.06,0,.13,.07,.21,.36,.52,.57,1.1,.56,1.75,0,.05,.03,.11,.05,.16,.94-.27,1.83-1.64,1.66-2.39-.2,.66-.51,1.2-1.16,1.46-.13-.32-.23-.62-.37-.9-.04-.09-.06-.16-.05-.23,.02-.11,.11-.18,.14-.2Z"/><path d="M241.89,21.41c.15-.78,.18-1.55,.95-1.87-.88-2.92-.78-5.91-.98-8.89-.01,.15-.03,.31-.04,.46-.09,1.62-.15,3.24-.28,4.85-.09,1.21-.21,2.42-.72,3.57,.86,.31,.85,1.13,1.06,1.88Z"/><path class="cls-6" d="M241.89,21.41c.15-.78,.18-1.55,.95-1.87-.88-2.92-.78-5.91-.98-8.89-.01,.15-.03,.31-.04,.46-.09,1.62-.15,3.24-.28,4.85-.09,1.21-.21,2.42-.72,3.57,.86,.31,.85,1.13,1.06,1.88Z"/><path d="M241.84,22.01c-1.49,0-2.7,1.21-2.7,2.7s1.21,2.7,2.7,2.7,2.7-1.21,2.7-2.7-1.21-2.7-2.7-2.7Zm0,4.88c-1.2,0-2.18-.98-2.18-2.18s.98-2.18,2.18-2.18,2.18,.98,2.18,2.18-.98,2.18-2.18,2.18Z"/><path class="cls-3" d="M241.84,22.01c-1.49,0-2.7,1.21-2.7,2.7s1.21,2.7,2.7,2.7,2.7-1.21,2.7-2.7-1.21-2.7-2.7-2.7Zm0,4.88c-1.2,0-2.18-.98-2.18-2.18s.98-2.18,2.18-2.18,2.18,.98,2.18,2.18-.98,2.18-2.18,2.18Z"/><path d="M241.84,23.14c-.87,0-1.57,.7-1.57,1.57s.7,1.57,1.57,1.57,1.57-.7,1.57-1.57-.7-1.57-1.57-1.57Z"/><path class="cls-11" d="M241.84,23.14c-.87,0-1.57,.7-1.57,1.57s.7,1.57,1.57,1.57,1.57-.7,1.57-1.57-.7-1.57-1.57-1.57Z"/><path d="M41.73,25.95c0,1.58-.6,2.95-1.8,4.12-1.2,1.17-2.59,1.75-4.17,1.75s-2.92-.58-4.03-1.75c-1.11-1.17-1.66-2.54-1.66-4.12v-8.99h-1.1v8.99c0,1.9,.65,3.51,1.96,4.84,1.3,1.33,2.92,1.99,4.84,1.99,2.81,0,4.8-1.17,5.97-3.5v3.12h1.1v-15.44h-1.1v8.99Z"/><path class="cls-2" d="M41.73,25.95c0,1.58-.6,2.95-1.8,4.12-1.2,1.17-2.59,1.75-4.17,1.75s-2.92-.58-4.03-1.75c-1.11-1.17-1.66-2.54-1.66-4.12v-8.99h-1.1v8.99c0,1.9,.65,3.51,1.96,4.84,1.3,1.33,2.92,1.99,4.84,1.99,2.81,0,4.8-1.17,5.97-3.5v3.12h1.1v-15.44h-1.1v8.99Z"/><path d="M232.67,25.84c0,1.58-.58,2.95-1.73,4.12-1.15,1.17-2.52,1.75-4.1,1.75s-2.94-.58-4.1-1.75c-1.16-1.17-1.73-2.54-1.73-4.12v-8.99h-1.1v8.99c0,1.88,.67,3.48,2.02,4.82,1.35,1.34,2.97,2.01,4.87,2.01,2.79,0,4.74-1.12,5.87-3.36v2.61c0,1.71-.62,3.18-1.85,4.41-1.23,1.22-2.7,1.84-4.39,1.84-1.14,0-2.24-.33-3.28-.98-1.04-.65-1.88-1.53-2.52-2.62l-.07,1.71c1.44,1.9,3.4,2.85,5.87,2.85,2.06,0,3.8-.71,5.21-2.13,1.42-1.42,2.13-3.14,2.13-5.18v-14.95h-1.1v8.99Z"/><path class="cls-4" d="M232.67,25.84c0,1.58-.58,2.95-1.73,4.12-1.15,1.17-2.52,1.75-4.1,1.75s-2.94-.58-4.1-1.75c-1.16-1.17-1.73-2.54-1.73-4.12v-8.99h-1.1v8.99c0,1.88,.67,3.48,2.02,4.82,1.35,1.34,2.97,2.01,4.87,2.01,2.79,0,4.74-1.12,5.87-3.36v2.61c0,1.71-.62,3.18-1.85,4.41-1.23,1.22-2.7,1.84-4.39,1.84-1.14,0-2.24-.33-3.28-.98-1.04-.65-1.88-1.53-2.52-2.62l-.07,1.71c1.44,1.9,3.4,2.85,5.87,2.85,2.06,0,3.8-.71,5.21-2.13,1.42-1.42,2.13-3.14,2.13-5.18v-14.95h-1.1v8.99Z"/><path d="M212.19,17.23c-.87,.5-1.51,1.14-1.92,1.92v-2.3h-1.1v15.44h1.1v-10.29c0-1.21,.46-2.28,1.39-3.19,.93-.91,1.99-1.37,3.21-1.37s2.32,.5,3.33,1.51v-1.37c-.98-.73-2.01-1.1-3.09-1.1s-2.05,.25-2.92,.75Z"/><path class="cls-26" d="M212.19,17.23c-.87,.5-1.51,1.14-1.92,1.92v-2.3h-1.1v15.44h1.1v-10.29c0-1.21,.46-2.28,1.39-3.19,.93-.91,1.99-1.37,3.21-1.37s2.32,.5,3.33,1.51v-1.37c-.98-.73-2.01-1.1-3.09-1.1s-2.05,.25-2.92,.75Z"/><path d="M253.13,30.28c-.1,.14-1.35,1.83-1.8,2.38-.39,.48-.72,.79-1.12,1.16-.67,.63-1.26,1.06-1.53,1.27-.45,.35-.94,.66-1.42,.99,.03,0,.05,.01,.06,0,.06-.02,.13-.04,.19-.07,1.01-.41,1.94-.96,2.76-1.67,.25-.22,.49-.24,.76-.12,.13,.06,.26,.12,.38,.2,.29,.2,.58,.41,.87,.62l.02-.03c-.07-.08-.15-.16-.21-.25-.22-.33-.44-.66-.63-1.01-.13-.24-.11-.47,.1-.7,.66-.74,1.16-1.59,1.56-2.5,.06-.14,.11-.28,.16-.42-.09,.03-.12,.09-.16,.14Z"/><path class="cls-7" d="M253.13,30.28c-.1,.14-1.35,1.83-1.8,2.38-.39,.48-.72,.79-1.12,1.16-.67,.63-1.26,1.06-1.53,1.27-.45,.35-.94,.66-1.42,.99,.03,0,.05,.01,.06,0,.06-.02,.13-.04,.19-.07,1.01-.41,1.94-.96,2.76-1.67,.25-.22,.49-.24,.76-.12,.13,.06,.26,.12,.38,.2,.29,.2,.58,.41,.87,.62l.02-.03c-.07-.08-.15-.16-.21-.25-.22-.33-.44-.66-.63-1.01-.13-.24-.11-.47,.1-.7,.66-.74,1.16-1.59,1.56-2.5,.06-.14,.11-.28,.16-.42-.09,.03-.12,.09-.16,.14Z"/><path d="M198.63,16.48c-2.25,0-4.18,.79-5.78,2.38-1.6,1.59-2.4,3.47-2.4,5.64s.79,4.08,2.37,5.71c.98,1.02,2.08,1.72,3.3,2.1-.78,.72-1.17,1.61-1.17,2.67v.14c0,1,.37,1.85,1.1,2.57,.74,.72,1.6,1.07,2.59,1.07,.99,0,1.85-.36,2.57-1.09,.72-.73,1.08-1.62,1.08-2.68,0-1.04-.39-1.93-1.16-2.67,1.24-.38,2.34-1.08,3.32-2.1,1.55-1.62,2.33-3.53,2.33-5.71s-.79-4.07-2.38-5.66c-1.59-1.59-3.51-2.38-5.76-2.38Zm2.8,17.03c.28,.49,.42,1.01,.42,1.55,0,.86-.32,1.61-.96,2.25-.64,.64-1.4,.96-2.28,.96-.88,0-1.64-.32-2.28-.96-.64-.64-.96-1.39-.96-2.25,0-.54,.14-1.05,.42-1.55,.23-.41,.54-.75,.91-1.04,.57,.13,1.15,.2,1.77,.2h.31c.61,0,1.19-.07,1.75-.19,.36,.29,.66,.63,.89,1.03Z"/><path class="cls-13" d="M198.63,16.48c-2.25,0-4.18,.79-5.78,2.38-1.6,1.59-2.4,3.47-2.4,5.64s.79,4.08,2.37,5.71c.98,1.02,2.08,1.72,3.3,2.1-.78,.72-1.17,1.61-1.17,2.67v.14c0,1,.37,1.85,1.1,2.57,.74,.72,1.6,1.07,2.59,1.07,.99,0,1.85-.36,2.57-1.09,.72-.73,1.08-1.62,1.08-2.68,0-1.04-.39-1.93-1.16-2.67,1.24-.38,2.34-1.08,3.32-2.1,1.55-1.62,2.33-3.53,2.33-5.71s-.79-4.07-2.38-5.66c-1.59-1.59-3.51-2.38-5.76-2.38Zm2.8,17.03c.28,.49,.42,1.01,.42,1.55,0,.86-.32,1.61-.96,2.25-.64,.64-1.4,.96-2.28,.96-.88,0-1.64-.32-2.28-.96-.64-.64-.96-1.39-.96-2.25,0-.54,.14-1.05,.42-1.55,.23-.41,.54-.75,.91-1.04,.57,.13,1.15,.2,1.77,.2h.31c.61,0,1.19-.07,1.75-.19,.36,.29,.66,.63,.89,1.03Z"/><path d="M243.66,29.12c.31-.16,.6-.28,.86-.44,.09-.05,.16-.07,.22-.06,.11,.01,.19,.1,.21,.12,.14,.16,1.28,1.24,2.87,2.76-1.62-1.96-2.8-3.38-2.92-3.53-.02-.02-.07-.1-.16-.11-.06,0-.12,.02-.2,.08-.49,.41-1.05,.65-1.7,.7-.05,0-.11,.04-.16,.06,.35,.92,1.78,1.69,2.51,1.46-.67-.14-1.23-.41-1.55-1.04Z"/><path class="cls-19" d="M243.66,29.12c.31-.16,.6-.28,.86-.44,.09-.05,.16-.07,.22-.06,.11,.01,.19,.1,.21,.12,.14,.16,1.28,1.24,2.87,2.76-1.62-1.96-2.8-3.38-2.92-3.53-.02-.02-.07-.1-.16-.11-.06,0-.12,.02-.2,.08-.49,.41-1.05,.65-1.7,.7-.05,0-.11,.04-.16,.06,.35,.92,1.78,1.69,2.51,1.46-.67-.14-1.23-.41-1.55-1.04Z"/><path d="M240.97,28.57c-.64-.05-1.21-.3-1.7-.7-.08-.06-.14-.09-.2-.08-.09,.01-.14,.09-.16,.11-.12,.15-1.29,1.57-2.92,3.53,1.59-1.51,2.73-2.6,2.87-2.76,.02-.02,.1-.11,.21-.12,.07,0,.14,.01,.22,.06,.27,.16,.55,.28,.86,.44-.31,.63-.87,.9-1.55,1.04,.73,.23,2.17-.54,2.51-1.46-.05-.02-.1-.06-.16-.06Z"/><path class="cls-25" d="M240.97,28.57c-.64-.05-1.21-.3-1.7-.7-.08-.06-.14-.09-.2-.08-.09,.01-.14,.09-.16,.11-.12,.15-1.29,1.57-2.92,3.53,1.59-1.51,2.73-2.6,2.87-2.76,.02-.02,.1-.11,.21-.12,.07,0,.14,.01,.22,.06,.27,.16,.55,.28,.86,.44-.31,.63-.87,.9-1.55,1.04,.73,.23,2.17-.54,2.51-1.46-.05-.02-.1-.06-.16-.06Z"/><path d="M239.19,21.82c.06,0,.12-.02,.2-.09,.48-.42,1.03-.69,1.67-.77,.05,0,.1-.04,.16-.07-.38-.9-1.84-1.62-2.57-1.36,.68,.12,1.25,.37,1.58,.98-.31,.17-.59,.3-.85,.47-.08,.05-.16,.08-.22,.07-.11-.01-.19-.09-.21-.12-.15-.15-1.32-1.19-2.97-2.65,1.69,1.9,2.92,3.27,3.05,3.42,.02,.02,.08,.1,.17,.1Z"/><path class="cls-17" d="M239.19,21.82c.06,0,.12-.02,.2-.09,.48-.42,1.03-.69,1.67-.77,.05,0,.1-.04,.16-.07-.38-.9-1.84-1.62-2.57-1.36,.68,.12,1.25,.37,1.58,.98-.31,.17-.59,.3-.85,.47-.08,.05-.16,.08-.22,.07-.11-.01-.19-.09-.21-.12-.15-.15-1.32-1.19-2.97-2.65,1.69,1.9,2.92,3.27,3.05,3.42,.02,.02,.08,.1,.17,.1Z"/><polygon points="246.93 30.27 250.18 32.87 247.47 29.71 246.53 29.34 246.93 30.27"/><polygon class="cls-14" points="246.93 30.27 250.18 32.87 247.47 29.71 246.53 29.34 246.93 30.27"/><path d="M169.97,18.93c-1.6,1.59-2.4,3.48-2.4,5.66s.79,4.09,2.37,5.71c1.58,1.62,3.46,2.44,5.66,2.44h.31c2.36,0,4.33-.88,5.93-2.64v-1.78c-.71,1.07-1.61,1.92-2.69,2.54-1.09,.62-2.22,.93-3.41,.93-1.9,0-3.55-.7-4.96-2.11-1.41-1.41-2.11-3.08-2.11-5.02s.7-3.62,2.11-5.02c1.41-1.41,3.06-2.11,4.96-2.11,1.19,0,2.33,.31,3.41,.93,1.09,.62,1.98,1.45,2.69,2.5v-1.75c-1.65-1.76-3.64-2.64-5.97-2.64s-4.3,.79-5.9,2.38Z"/><path class="cls-31" d="M169.97,18.93c-1.6,1.59-2.4,3.48-2.4,5.66s.79,4.09,2.37,5.71c1.58,1.62,3.46,2.44,5.66,2.44h.31c2.36,0,4.33-.88,5.93-2.64v-1.78c-.71,1.07-1.61,1.92-2.69,2.54-1.09,.62-2.22,.93-3.41,.93-1.9,0-3.55-.7-4.96-2.11-1.41-1.41-2.11-3.08-2.11-5.02s.7-3.62,2.11-5.02c1.41-1.41,3.06-2.11,4.96-2.11,1.19,0,2.33,.31,3.41,.93,1.09,.62,1.98,1.45,2.69,2.5v-1.75c-1.65-1.76-3.64-2.64-5.97-2.64s-4.3,.79-5.9,2.38Z"/><path d="M246.19,26.48c.64,.28,.94,.83,1.11,1.5,.2-.74-.63-2.14-1.57-2.45-.02,.05-.05,.11-.05,.16-.02,.64-.24,1.22-.63,1.73-.06,.08-.08,.15-.07,.21,.01,.09,.09,.14,.12,.16,.16,.11,1.63,1.22,3.65,2.76-1.58-1.53-2.71-2.61-2.88-2.75-.03-.02-.11-.09-.13-.2-.01-.07,0-.14,.05-.23,.15-.27,.26-.56,.4-.88Z"/><path class="cls-22" d="M246.19,26.48c.64,.28,.94,.83,1.11,1.5,.2-.74-.63-2.14-1.57-2.45-.02,.05-.05,.11-.05,.16-.02,.64-.24,1.22-.63,1.73-.06,.08-.08,.15-.07,.21,.01,.09,.09,.14,.12,.16,.16,.11,1.63,1.22,3.65,2.76-1.58-1.53-2.71-2.61-2.88-2.75-.03-.02-.11-.09-.13-.2-.01-.07,0-.14,.05-.23,.15-.27,.26-.56,.4-.88Z"/><path d="M241.84,28.26c-.18,.75-.19,1.53-.96,1.85,.9,2.94,.77,5.98,.97,9.02,.08-1.57,.14-3.1,.26-4.63,.11-1.47,.19-2.96,.78-4.37-.84-.31-.86-1.11-1.05-1.86Z"/><path class="cls-5" d="M241.84,28.26c-.18,.75-.19,1.53-.96,1.85,.9,2.94,.77,5.98,.97,9.02,.08-1.57,.14-3.1,.26-4.63,.11-1.47,.19-2.96,.78-4.37-.84-.31-.86-1.11-1.05-1.86Z"/><path d="M164.07,20.73c-.53-1.28-1.46-2.31-2.8-3.09-1.34-.78-2.74-1.17-4.2-1.17-2.24,0-4.16,.79-5.76,2.38-1.6,1.59-2.4,3.49-2.4,5.71s.8,4.12,2.4,5.71c1.6,1.59,3.52,2.38,5.76,2.38,1.46,0,2.84-.38,4.12-1.13,1.28-.75,2.24-1.78,2.88-3.09v3.84h1.1v-15.44h-1.1v3.88Zm-1.99,8.87c-1.37,1.41-3.02,2.11-4.96,2.11s-3.6-.7-5.01-2.11c-1.41-1.41-2.11-3.07-2.11-4.99s.7-3.6,2.11-5.03c1.41-1.43,3.07-2.14,4.99-2.14s3.57,.71,4.96,2.13c1.38,1.42,2.08,3.09,2.08,5.02s-.69,3.6-2.06,5.01Z"/><path class="cls-23" d="M164.07,20.73c-.53-1.28-1.46-2.31-2.8-3.09-1.34-.78-2.74-1.17-4.2-1.17-2.24,0-4.16,.79-5.76,2.38-1.6,1.59-2.4,3.49-2.4,5.71s.8,4.12,2.4,5.71c1.6,1.59,3.52,2.38,5.76,2.38,1.46,0,2.84-.38,4.12-1.13,1.28-.75,2.24-1.78,2.88-3.09v3.84h1.1v-15.44h-1.1v3.88Zm-1.99,8.87c-1.37,1.41-3.02,2.11-4.96,2.11s-3.6-.7-5.01-2.11c-1.41-1.41-2.11-3.07-2.11-4.99s.7-3.6,2.11-5.03c1.41-1.43,3.07-2.14,4.99-2.14s3.57,.71,4.96,2.13c1.38,1.42,2.08,3.09,2.08,5.02s-.69,3.6-2.06,5.01Z"/><path d="M252.03,24.52c-1.57-.11-3.15-.2-4.64-.79-.31,.82-1.08,.85-1.78,1.04,.71,.18,1.47,.21,1.77,.96,3.01-.9,6.11-.76,9.13-.97h0c-1.47-.08-2.98-.13-4.48-.24Z"/><path class="cls-24" d="M252.03,24.52c-1.57-.11-3.15-.2-4.64-.79-.31,.82-1.08,.85-1.78,1.04,.71,.18,1.47,.21,1.77,.96,3.01-.9,6.11-.76,9.13-.97h0c-1.47-.08-2.98-.13-4.48-.24Z"/><path d="M184.65,26.7v-8.85h4.73v-.96h-4.73v-6.24h-1.1V26.7c0,1.69,.57,3.08,1.72,4.17,1.14,1.09,2.53,1.63,4.15,1.63v-.96c-1.33,0-2.45-.46-3.38-1.37-.93-.91-1.39-2.07-1.39-3.46Z"/><path class="cls-12" d="M184.65,26.7v-8.85h4.73v-.96h-4.73v-6.24h-1.1V26.7c0,1.69,.57,3.08,1.72,4.17,1.14,1.09,2.53,1.63,4.15,1.63v-.96c-1.33,0-2.45-.46-3.38-1.37-.93-.91-1.39-2.07-1.39-3.46Z"/></g></g></svg>