<svg id="Layer_1" data-name="Layer 1" xmlns="http://www.w3.org/2000/svg" viewBox="0 0 338.96 299.35"><defs><style>.cls-1{fill:#fff;opacity:0;}.cls-2{fill:#a61920;}.cls-3{fill:#0f6838;}.cls-4{fill:#7a1215;}.cls-5{fill:#f6b813;}.cls-6{fill:#231f20;}</style></defs><title>abdlogo</title><rect class="cls-1" width="338.96" height="299.35"/><path class="cls-2" d="M119.81,235.1a5.58,5.58,0,0,1-1.06-.07,4,4,0,0,0-.82-2.25,2.41,2.41,0,0,0-2-1,19.75,19.75,0,0,0-5.35,1.1,19.69,19.69,0,0,1-5.34,1.1c-1,0-2.21-.76-3.49-2.27a18.45,18.45,0,0,1-2.58-3.88l0-1.1q0-1.41,1-1.41a1.19,1.19,0,0,1,.78.35q1,4.91,6,4.9a23.25,23.25,0,0,0,3.47-.37,23.6,23.6,0,0,1,3.46-.38,9.06,9.06,0,0,1,1.8.22c.06,0,.83.18,2.32.53a78.88,78.88,0,0,1-.51-7.95c0-1.1.06-2.57.19-4.4.16-2.21.25-3.74.28-4.6a4.58,4.58,0,0,0-1.84-.36,7.93,7.93,0,0,0-3.8,1.21,5.88,5.88,0,0,0-2.74,2.67c1.59.28,2.49.46,2.7.5,1.22.4,1.84.92,1.84,1.57A2.78,2.78,0,0,1,113,221.1a3.08,3.08,0,0,1-1.94,1,4.3,4.3,0,0,1-2.86-1.27,3.67,3.67,0,0,1-1.4-2.72q0-3,3.87-6c2.48-2,4.76-2.93,6.82-2.93a5,5,0,0,1,2.39.54,2.08,2.08,0,0,1,1.25,1.89,32.74,32.74,0,0,1-.49,4.69,33.12,33.12,0,0,0-.49,4.7c0,2,.28,5.41.82,10.11a3.93,3.93,0,0,1,1.14,2.23c0,.78-.21,1.3-.63,1.53A3.79,3.79,0,0,1,119.81,235.1Z" transform="translate(-34.37 -63.46)"/><path class="cls-2" d="M136.54,211.48q-3.69.12-6.24,6a22.32,22.32,0,0,0-2.07,8.83,16.58,16.58,0,0,0,.47,3.72c.44,1.93,1,2.89,1.68,2.89l.4-.15c0-.14.14-.53.34-1.18.34-1.1.91-1.65,1.69-1.65a3.91,3.91,0,0,1,1.6.35c.66.29,1,.67,1,1.14a3.91,3.91,0,0,1-1.11,2.73,3.52,3.52,0,0,1-2.65,1.19q-2.92,0-4.77-4.19a16.32,16.32,0,0,1-1.45-6.58,15.69,15.69,0,0,1,1.61-6.7,18.63,18.63,0,0,1,4-5.64,14.25,14.25,0,0,0-4.58-1,16.15,16.15,0,0,0-2.9.32,5.12,5.12,0,0,1-.79-2.12c0-.21.08-.31.24-.31h2.27a13.24,13.24,0,0,1,7.09,2.31l2-1.62a3.15,3.15,0,0,1,1.93-.69,1.18,1.18,0,0,1,.63.1c.07.06.11.26.11.6A2.65,2.65,0,0,1,136.54,211.48Z" transform="translate(-34.37 -63.46)"/><path class="cls-2" d="M167.82,211.26l-.19.19-.82,0a5.33,5.33,0,0,1-1.45-.15,7.61,7.61,0,0,0-1.41-.19,70,70,0,0,0-11.48,1.09q-.39.87-1.17,2.82a12,12,0,0,0,5.17,1.14,12.32,12.32,0,0,0,6.3-1.49c2.32.44,3.48.9,3.48,1.37a16.18,16.18,0,0,1-.42,3c-.29,1.48-.46,2.52-.51,3.09q-.39,5-.39,7.21a16.54,16.54,0,0,1-.2,2.09,16.82,16.82,0,0,0-.2,2.1,16.64,16.64,0,0,0,.22,2.29,18.41,18.41,0,0,1,.22,2.29v.43a1.26,1.26,0,0,1-.16.74q-1.45-.81-1.92-9.32,0-2.62-.27-11.82a61.78,61.78,0,0,1-11.83-1,17,17,0,0,0-.91,3.53c0,.76.58,1.14,1.73,1.14a8.64,8.64,0,0,0,4.78-1.65l.35-.23a10.69,10.69,0,0,1,3.49,1.25,25.57,25.57,0,0,1,.15,3c0,3.21-.53,5.43-1.61,6.65s-3.34,2-6.49,2a22.44,22.44,0,0,1-14.3-5.36q-1.26-1-1.26-1.53a.38.38,0,0,1,.44-.43,12.42,12.42,0,0,1,1.6.78c5.53,2.95,9.93,4.43,13.16,4.43s5-1.6,4.94-4.78v-2.63a11.32,11.32,0,0,1-4,.83q-5.59,0-5.59-5.13a18.37,18.37,0,0,1,1.49-6.62,16,16,0,0,0-6.78-1.22c-.68,0-1.7,0-3.07.12s-2.4.11-3.07.11c-.21,0-.32-.17-.32-.53a3.47,3.47,0,0,1,.44-1.81q9.83,0,15.07,1.57a119.55,119.55,0,0,1,14.89-1.77,8.19,8.19,0,0,1,1.88.19,3.12,3.12,0,0,1,.23,1.22A2.34,2.34,0,0,1,167.82,211.26Z" transform="translate(-34.37 -63.46)"/><path class="cls-2" d="M177.62,211.45q-6-.47-6.55-.47a29.93,29.93,0,0,0-3.72.47,1.23,1.23,0,0,1-.66-1.23c0-.75.6-1.12,1.8-1.12l7.6.12a13.31,13.31,0,0,1,1.76.11c.21,0,.31.19.31.47A3.45,3.45,0,0,1,177.62,211.45Zm1.53,9.12q-1.77-3.87-4.55-3.87c-.7,0-1.68.62-2.92,1.86s-1.89,2.21-1.94,2.92l.75.7a7.23,7.23,0,0,0,2.82-1.49,1.51,1.51,0,0,1,.39-.16c.26,0,.49.37.7,1.1a5.63,5.63,0,0,1,.24,1.45c0,1-1,1.57-3.14,1.57-.65,0-1.29-.71-1.91-2.12a7.77,7.77,0,0,1-.79-3,5.72,5.72,0,0,1,.82-3,2.85,2.85,0,0,1,2.51-1.53,15.37,15.37,0,0,1,4.5.95c2.14.7,3.22,1.39,3.22,2.07A4.62,4.62,0,0,1,179.15,220.57Z" transform="translate(-34.37 -63.46)"/><path class="cls-2" d="M195.87,211.45a45,45,0,0,0-10-1.22q-3.88,0-5.29,1.34c.18,4.38.27,7.78.27,10.18a46.85,46.85,0,0,1-.74,9.36,29.49,29.49,0,0,0,7.36-4q4.13-3.18,4.12-6.55c0-.67-.25-1-.75-1s-1,.37-1.68,1.1l-.55.59c-.92,1-1.64,1.45-2.19,1.45s-.89-.38-1.26-1.14a4,4,0,0,1-.47-1.76q0-2.86,5.92-2.86a6.8,6.8,0,0,1,3.09.47c.68.42,1,1.31,1,2.66q0,4.2-4.47,8.07a26.59,26.59,0,0,1-8.53,4.9,15.63,15.63,0,0,1-3.92,1.09c-.55,0-.83-.33-.83-1a9,9,0,0,1,.4-2.27,21.37,21.37,0,0,0,.55-2.27,64.76,64.76,0,0,0,.35-7.41c0-2.71-.13-5.6-.39-8.65a5.65,5.65,0,0,0-2.59-.94,3.06,3.06,0,0,1-.47-1.77,1,1,0,0,1,.32-.7h.08c.57,0,1.5.54,2.77,1.61a12.87,12.87,0,0,1,5.92-1.89q2.12-.23,6.39-.23c.93-.81,1.4-1.44,1.4-1.88q0-1.76-5.36-2.75a38,38,0,0,0-6.74-.65,3,3,0,0,0-.72.13,3.17,3.17,0,0,1-.73.14c-.21,0-.31-.16-.31-.47s1.54-.62,4.62-.75c.63,0,2.68,0,6.15,0q4.81,0,4.81,2.82a8.62,8.62,0,0,1-1.05,3.53l4,.39a1.68,1.68,0,0,1,.08.59A3,3,0,0,1,195.87,211.45Z" transform="translate(-34.37 -63.46)"/><path class="cls-2" d="M229.47,211.45q-3.33,0-3.33,8.58a85.31,85.31,0,0,0,.67,10.25A6.82,6.82,0,0,1,228.1,233a2.92,2.92,0,0,1-.27.7,5.15,5.15,0,0,1-2.74.75H225q-2.46-6.12-11.79-6.11a20.06,20.06,0,0,0-2.89.2c-1.83-1.36-2.76-2.33-2.78-2.9l0-.24a17.69,17.69,0,0,1,5.52-7.59,57.43,57.43,0,0,1,8.54-5.84,26.33,26.33,0,0,0-6.7-1.22,39.54,39.54,0,0,0-8.81.63c-.32-.16-.47-.64-.47-1.45a4.07,4.07,0,0,1,.08-.9c1-.1,2.31-.16,3.95-.16q9.67,0,13.91,1.1a4,4,0,0,1,1.68-.39,5.29,5.29,0,0,1,2,.39,7,7,0,0,1,2.66-.71l.24,0a2.25,2.25,0,0,1,.35,1.14c0,.44-.07.72-.2.82A1.68,1.68,0,0,1,229.47,211.45Zm-17,13.39a22.16,22.16,0,0,1,6.23,1.61,33.44,33.44,0,0,1,5.64,3.91,40.76,40.76,0,0,1-.9-8.81,38.47,38.47,0,0,1,1.06-9A26.94,26.94,0,0,0,212.47,224.84Z" transform="translate(-34.37 -63.46)"/><path class="cls-2" d="M240,211.41a6.42,6.42,0,0,1-.84-.1,6.42,6.42,0,0,0-.84-.1c-.1,0-.4.08-.9.16q-3.84,3.45-3.84,5.65,0,.66,3,6.27a6.66,6.66,0,0,1,.74,3.1,9.94,9.94,0,0,1-.76,3.58,12.18,12.18,0,0,1-1.82,3.25c-.45.55-1.24,1.52-2.39,2.9a3.83,3.83,0,0,1-1.3.36.58.58,0,0,1-.35-.09c.81-.91,1.75-2.1,2.84-3.57.28-.47.54-.95.82-1.45a18,18,0,0,0,.85-3.21,5.68,5.68,0,0,0,.08-1,5,5,0,0,0-.8-3.1,16.55,16.55,0,0,1-2-3.32,8.63,8.63,0,0,1-1-3.68,11,11,0,0,1,.23-2.31,12.38,12.38,0,0,1,1.37-3.17,13.06,13.06,0,0,0-2.51-.4,13.58,13.58,0,0,0-2.38.24,3.21,3.21,0,0,1-.32-1.29c0-.73.5-1.1,1.49-1.1a9.13,9.13,0,0,1,4.5,1,4.09,4.09,0,0,1,3.22-1,14,14,0,0,1,3.24.42,2.35,2.35,0,0,1,.36,1.21A.64.64,0,0,1,240,211.41Z" transform="translate(-34.37 -63.46)"/><path class="cls-2" d="M241.57,207.85c.42,0,.91,0,1.47,0a2.84,2.84,0,0,1,1.47.27,4.7,4.7,0,0,1-.16,1.17c.31,0,.8,0,1.45-.07s1.14-.08,1.45-.08l.24.08a7.61,7.61,0,0,1,0,.82c0,.86-.23,1.38-.67,1.57a4.07,4.07,0,0,1-.9.08l-1.61-.24-.16,9.87q0,1.88.39,6.66c.22,2.37.32,4.56.32,6.58V235a6,6,0,0,1-2.94.51c-.26,0-.39-.09-.39-.28q0-3.6.16-10.82t.15-10.83c0-.6,0-1,0-1.1a.93.93,0,0,0-1-1h-1a3,3,0,0,1-.75-.07,7.48,7.48,0,0,1-.19-1.49,2.41,2.41,0,0,1,.11-.82,10.28,10.28,0,0,1,2.71.15,3.48,3.48,0,0,1-.12-.83A1.64,1.64,0,0,1,241.57,207.85Z" transform="translate(-34.37 -63.46)"/><path class="cls-2" d="M255.32,222.61c-4.21,0-6.3-2.64-6.3-7.91a4.77,4.77,0,0,1,1-3,3.19,3.19,0,0,1,2.64-1.29,7.61,7.61,0,0,1,2.67.47c1.09.39,1.72,1,1.88,1.72l1-.51a8.47,8.47,0,0,1,1.09,4.59,7.51,7.51,0,0,1-1.05,3.76C257.47,221.89,256.49,222.61,255.32,222.61Zm6.3,13.08a15.6,15.6,0,0,0-5-4.66,23.62,23.62,0,0,0-6.42-2.31,7.57,7.57,0,0,1-.59-2.74,1.87,1.87,0,0,1,.35-1.25,18.66,18.66,0,0,1,8.23,5.67c.41.53,1.23,1.53,2.46,3a9.32,9.32,0,0,1,1.26,1.84Zm-4.5-21.35a1.59,1.59,0,0,0-1.61-1.29,5.44,5.44,0,0,0-3.29,1.18,3.59,3.59,0,0,0-1.72,2.94,2.51,2.51,0,0,0,1.1,2.46,5.61,5.61,0,0,0,2.55.4c1.9,0,3.11-1.3,3.63-3.88.06-.26.2-1.15.44-2.67Z" transform="translate(-34.37 -63.46)"/><path class="cls-2" d="M288.84,204.08a35.78,35.78,0,0,1-8-1.31,36.52,36.52,0,0,0-8-1.31,8.67,8.67,0,0,0-4.23,1,3.79,3.79,0,0,0-2.23,3.46,8,8,0,0,0,1.06,3.46,32.35,32.35,0,0,1,4.19-.23h.51a1.41,1.41,0,0,1,.15.84,1.31,1.31,0,0,1-1.48,1.5h-1.1c-1.36,0-2.17,1.45-2.43,4.32,0,1.28-.13,3.19-.23,5.73q0,.56-.78,10.47a31.18,31.18,0,0,1-.63,3.53c-.11.27-.2.4-.28.4s-.09-.16-.12-.4a28.48,28.48,0,0,1-.19-3.61q0-6.42-.51-19.64c-.58-.81-1.71-1.14-3.41-1a2.72,2.72,0,0,1-.39-1.33.93.93,0,0,1,.51-.82h1.25a6,6,0,0,1,2,.54c0-.1-.46-1.3-1.29-3.6a8.73,8.73,0,0,1-.59-2.86q0-4,8.54-4a32.72,32.72,0,0,1,8.74,1.33,44.19,44.19,0,0,1,9.27,3.52Z" transform="translate(-34.37 -63.46)"/><path class="cls-2" d="M302.16,210.94l0,.27-.2.16c-3.13-.39-5.08-.59-5.83-.59a19.82,19.82,0,0,0-3.69.39q8.48,3.89,8.47,10a4.86,4.86,0,0,1-1.41,3.72,5.31,5.31,0,0,1-3.8,1.34c-1.91,0-2.86-.67-2.86-2a3.55,3.55,0,0,1,.74-1.84c.5-.73,1-1.1,1.45-1.1a12,12,0,0,1,3.06,1.84,1,1,0,0,0,.7-1.1q0-3.36-5-7c-.89-.62-1.71-1.21-2.47-1.76a69.51,69.51,0,0,0-.9,9.63c0,1.65.19,4.14.55,7.48l1.21,2.36c-.13,1-.81,1.56-2,1.56a6.15,6.15,0,0,1-1.49-.19,1.7,1.7,0,0,0,0-.28c0-1.64-1.27-2.86-3.8-3.64a23.62,23.62,0,0,0-6.85-.86,20.37,20.37,0,0,0-2.4.12c-1.85-1.31-2.78-2.28-2.78-2.9v-.2a21.16,21.16,0,0,1,5.6-7.83,88.57,88.57,0,0,1,8.27-6.62A69.6,69.6,0,0,0,276.5,211a24.11,24.11,0,0,0-5.48.39,1.17,1.17,0,0,1-.39-1,5.72,5.72,0,0,1,.2-1.33c1.07-.1,2.5-.16,4.3-.16,5.77,0,10,.37,12.69,1.1a3.83,3.83,0,0,1,1.65-.39,5.48,5.48,0,0,1,2,.39,22.88,22.88,0,0,1,5.29-.75l5.36-.15c0,.34,0,.84,0,1.49A3,3,0,0,1,302.16,210.94ZM277.68,226a42.19,42.19,0,0,1,5.44,1.13,16.78,16.78,0,0,1,5.18,2.59,41.66,41.66,0,0,1-.71-7.05,42.73,42.73,0,0,1,1.21-9.55,38.38,38.38,0,0,0-6.73,5.63A25.83,25.83,0,0,0,277.68,226Z" transform="translate(-34.37 -63.46)"/><path class="cls-2" d="M309.88,222.61q-6.31,0-6.31-7.91a4.72,4.72,0,0,1,1-3,3.17,3.17,0,0,1,2.64-1.29,7.65,7.65,0,0,1,2.67.47c1.09.39,1.72,1,1.87,1.72l1-.51a8.47,8.47,0,0,1,1.1,4.59,7.42,7.42,0,0,1-1.06,3.76C312,221.89,311.05,222.61,309.88,222.61Zm6.3,13.08a15.7,15.7,0,0,0-5-4.66,23.7,23.7,0,0,0-6.43-2.31,7.57,7.57,0,0,1-.59-2.74,1.81,1.81,0,0,1,.36-1.25,18.63,18.63,0,0,1,8.22,5.67c.42.53,1.24,1.53,2.47,3a9.19,9.19,0,0,1,1.25,1.84Zm-4.5-21.35a1.59,1.59,0,0,0-1.61-1.29,5.44,5.44,0,0,0-3.29,1.18,3.59,3.59,0,0,0-1.72,2.94,2.53,2.53,0,0,0,1.09,2.46,5.61,5.61,0,0,0,2.55.4c1.91,0,3.12-1.3,3.64-3.88.06-.26.2-1.15.43-2.67Z" transform="translate(-34.37 -63.46)"/><path class="cls-3" d="M254.92,143.71a107.84,107.84,0,0,0-24.31-23.85s-9.1-1.33-98.15,79.86C132.46,199.72,234.86,131.4,254.92,143.71Z" transform="translate(-34.37 -63.46)"/><path class="cls-4" d="M272.42,166.36s-12.66-16.27-22.3-13.48c0,0-23,3.37-77.82,41.24,0,0,66-28.58,96.17-24.4C268.47,169.72,274.45,170.48,272.42,166.36Z" transform="translate(-34.37 -63.46)"/><path class="cls-5" d="M282.35,187.22s-14.63-19.68-68.16,8.33c0,0,33.17-9.09,51.46-5.52,0,0,13.27,3.85,16.81-.25C282.46,189.78,284.11,188.9,282.35,187.22Z" transform="translate(-34.37 -63.46)"/><path class="cls-6" d="M149.5,250.9h-3.14v13.17l-1.26-1.47v-5.92a2.23,2.23,0,0,0-1.81-1.49,1.66,1.66,0,0,0-1.34.88c-1.39,2.09-2.28,3.17-2.65,3.24a3,3,0,0,1-.47,0c-.6,0-1-.07-1-.23-.36-.05-.84-.59-1.42-1.61,0-.11-.23-.43-.52-1l.85-.82a2.52,2.52,0,0,0,.29.77,2.56,2.56,0,0,0,.44.69.74.74,0,0,0,.51.26c.29,0,.7-.36,1.24-1.08l1.1-1.49a5.62,5.62,0,0,0-.21-1.26A2.15,2.15,0,0,0,138,252a9.44,9.44,0,0,1-1.45-.13,2.24,2.24,0,0,1-1.08-1l-.35-.19-1.16-1.13h14.31Zm-4.4,4.52V250.9h-5.81l.71.58a2.67,2.67,0,0,1,.93,2.2,1.86,1.86,0,0,1-.05.48,3.32,3.32,0,0,0,.84-.51,1.92,1.92,0,0,1,.89-.47,1.84,1.84,0,0,1,1.1.57A18.27,18.27,0,0,1,145.1,255.42Z" transform="translate(-34.37 -63.46)"/><path class="cls-6" d="M161,250.9h-3.16v13.27l-.67-1a8.07,8.07,0,0,0-3.37-4.11,7.68,7.68,0,0,0-3.24-1.06l-1.65-2.33a28,28,0,0,1,3.16-2,32.94,32.94,0,0,1,4.5-1.92v-.87h-8.3L147,249.58h12.74Zm-4.43,9.67V253.8a22.35,22.35,0,0,0-5,2.58A10.37,10.37,0,0,1,156.52,260.57Z" transform="translate(-34.37 -63.46)"/><path class="cls-6" d="M166.15,250.9h-3.22v13.48l-1.23-1.33v-9.61a2.42,2.42,0,0,0-.36-1.37,2.45,2.45,0,0,0-2.06-1.17h-.34l-1.31-1.32a8.66,8.66,0,0,1,2,0,2.48,2.48,0,0,1,2,1.75,12.86,12.86,0,0,1,.59,1.57,32.9,32.9,0,0,1-.44-3.55c-.05-.6-.07-1.29-.07-2.08l.49.41a5.66,5.66,0,0,0,.35,1.39,3.15,3.15,0,0,0,.39.51h1.93Z" transform="translate(-34.37 -63.46)"/><path class="cls-6" d="M177.11,250.9h-3v13l-.49-.46-1.15-2.13A6.38,6.38,0,0,0,170.1,259a7,7,0,0,0-3.25-1l-1.68-2.29a27.07,27.07,0,0,1,7.62-3.88v-.84h-7.85l-1.31-1.32H175.8Zm-7.9,12a1.37,1.37,0,0,1-.86-.32,1.43,1.43,0,0,1-.5-.79,1.17,1.17,0,0,1,.25-1.05,1.12,1.12,0,0,1,1-.49,1.34,1.34,0,0,1,1.1,2.14A1.1,1.1,0,0,1,169.21,262.86Zm3.58-2.11v-7.13a20.9,20.9,0,0,0-2.84,1.21,23.61,23.61,0,0,0-2.13,1.42A9.2,9.2,0,0,1,172.79,260.75Z" transform="translate(-34.37 -63.46)"/><path class="cls-6" d="M199.4,250.9h-8a3.81,3.81,0,0,0-.79.43.48.48,0,0,0-.21.38c0,.39.43.72,1.29,1a4.9,4.9,0,0,0,1.75.29,12.67,12.67,0,0,0,2.31-.62c.55.55,1.19,1.21,1.93,2a7.26,7.26,0,0,0-1.15,1.62,5.7,5.7,0,0,0-.85,2.63,9.88,9.88,0,0,0-.13,1.54,9.4,9.4,0,0,0,1,3.68s-.05,0-.09,0a3.32,3.32,0,0,1-.66-.13c-.34-.1-.53-.17-.54-.22s-.22-1-.57-2.4a12.72,12.72,0,0,1-.43-2.8,10.71,10.71,0,0,1,.79-3.78,10.26,10.26,0,0,1-2.62-.37,4.22,4.22,0,0,1-2.29-1.15c-.05-.09-.3-.41-.75-1a.2.2,0,0,0-.1,0c-.36,0-.79.39-1.29,1.18a4,4,0,0,0-.74,1.8c0,.58.31.87,1,.87a7,7,0,0,0,2.16-.84,4.52,4.52,0,0,1,.62-.29.27.27,0,0,1,.18.08c.1,0,.36.21.77.72a4.77,4.77,0,0,1,1.05,2,3.21,3.21,0,0,1-.05,1.63,3.53,3.53,0,0,1-1.88,2.29,3.42,3.42,0,0,1-1.49.33,4.85,4.85,0,0,1-3.88-2.15,9.39,9.39,0,0,1-1.34-2.72,16.7,16.7,0,0,1-.5-4.93,4.52,4.52,0,0,1,.73.4,9.1,9.1,0,0,0,.8,4.3,5.63,5.63,0,0,0,2.39,2.6,2.53,2.53,0,0,0,1.49.37,5.59,5.59,0,0,0,1.83-.44c.72-.33,1.08-.78,1.08-1.34a1.12,1.12,0,0,0-.18-.62.53.53,0,0,0-.52-.44.79.79,0,0,0-.3.08,5.42,5.42,0,0,1-2,.54,2.78,2.78,0,0,1-1.28-.31,3.47,3.47,0,0,1-1.6-2.23,3.17,3.17,0,0,1,.1-1.79,6.27,6.27,0,0,1,1-1.46c.15-.15.38-.4.69-.74h-5.09l-1.29-1.32h16.54Z" transform="translate(-34.37 -63.46)"/><path class="cls-6" d="M211.16,250.9h-3.27v13.4l-.49-.64a7.51,7.51,0,0,0-.39-2.76,9.16,9.16,0,0,0-2.42-4.65,3.07,3.07,0,0,0-2.18-.93c-.14,0-.21,0-.21.08l.41.59a2.39,2.39,0,0,1,.36.82,1.59,1.59,0,0,1-1.7,2.11,2.11,2.11,0,0,1-2.39-1.85,4.15,4.15,0,0,1,0-.59,2.7,2.7,0,0,1,.91-2.08,3.12,3.12,0,0,1,2.19-.83c1.54,0,2.88,1,4,3a11.69,11.69,0,0,1,.65,1.21V250.9h-8.76l-1.28-1.32h13.28Z" transform="translate(-34.37 -63.46)"/><path class="cls-6" d="M213.14,252.54a11.6,11.6,0,0,0,.26,3.9,30.71,30.71,0,0,1,.54,3.68,4,4,0,0,1-2.19,3.49,3.3,3.3,0,0,1-1.57.64.66.66,0,0,1-.62-.46c-.06-.19.06-.33.39-.41a3.68,3.68,0,0,0,.85-.28,7.06,7.06,0,0,0,1-.9,3.84,3.84,0,0,0,.46-1.72,9.21,9.21,0,0,0-.43-2.52,12.41,12.41,0,0,1-.52-2.75,5.85,5.85,0,0,1,.7-2.64c.41-.55.81-1.11,1.21-1.67h-3.61l-1.31-1.32H216l1.29,1.21h-1.81a2.54,2.54,0,0,0-1.5.46A1.94,1.94,0,0,0,213.14,252.54Z" transform="translate(-34.37 -63.46)"/><path class="cls-6" d="M235.45,250.9h-3.17v13.27l-.67-1a8,8,0,0,0-3.36-4.11A7.68,7.68,0,0,0,225,258l-1.65-2.33a27.11,27.11,0,0,1,3.17-2,32.42,32.42,0,0,1,4.5-1.92v-.87h-8.31l-1.26-1.32h12.74ZM231,260.57V253.8a22.14,22.14,0,0,0-5,2.58A10.32,10.32,0,0,1,231,260.57Z" transform="translate(-34.37 -63.46)"/><path class="cls-6" d="M237.69,252.54a11.8,11.8,0,0,0,.25,3.9,30.71,30.71,0,0,1,.54,3.68,4,4,0,0,1-2.18,3.49,3.34,3.34,0,0,1-1.57.64.66.66,0,0,1-.62-.46c-.07-.19.06-.33.39-.41a3.68,3.68,0,0,0,.85-.28,6.49,6.49,0,0,0,1-.9,3.84,3.84,0,0,0,.46-1.72,9,9,0,0,0-.44-2.52,12.84,12.84,0,0,1-.51-2.75,6,6,0,0,1,.69-2.64c.42-.55.82-1.11,1.22-1.67h-3.61l-1.31-1.32h7.67l1.29,1.21H240a2.54,2.54,0,0,0-1.5.46A1.94,1.94,0,0,0,237.69,252.54Z" transform="translate(-34.37 -63.46)"/><path class="cls-6" d="M246.85,250.9h-3.22v13.48l-1.23-1.33v-9.61a2.34,2.34,0,0,0-.36-1.37A2.45,2.45,0,0,0,240,250.9h-.34l-1.31-1.32a8.57,8.57,0,0,1,2,0,2.46,2.46,0,0,1,2,1.75,14.85,14.85,0,0,1,.59,1.57,28.51,28.51,0,0,1-.44-3.55c-.05-.6-.07-1.29-.07-2.08l.49.41a5.66,5.66,0,0,0,.35,1.39,3.15,3.15,0,0,0,.39.51h1.93Z" transform="translate(-34.37 -63.46)"/><path class="cls-6" d="M251.33,255.32a2.81,2.81,0,0,1-1,.8,2.84,2.84,0,0,1-.9.1,2.79,2.79,0,0,1-2.08-.9,2.94,2.94,0,0,1-.88-2.11,3,3,0,0,1,1.19-2.29,2.37,2.37,0,0,1,1.64-.64,2.62,2.62,0,0,1,2,.93,3,3,0,0,1,.84,2.1A3,3,0,0,1,251.33,255.32Zm3.06,10.11-1.54-1.49a49,49,0,0,0-5.59-4.27v-2.91c.65.52,1.62,1.39,2.91,2.63a62.67,62.67,0,0,1,4.22,4.94ZM250,254.32a2.29,2.29,0,0,0,.78-.8,2.83,2.83,0,0,0,.09-.87c0-.71-.28-1.06-.84-1.06a2.59,2.59,0,0,0-1.57.82,2.11,2.11,0,0,0-.65,1.6c0,.63.24,1,.75,1A2.76,2.76,0,0,0,250,254.32Z" transform="translate(-34.37 -63.46)"/><path class="cls-6" d="M266.71,248.19l-2.18-1.65a7.33,7.33,0,0,0-4.51-1.48,4.35,4.35,0,0,0-2.47.69l-.61.41a4.89,4.89,0,0,0-.59.7c-.66.84-1,1.37-.89,1.62l.49,1.1h2.4l1.29,1.32H256.4v13l-1.32-1.25V250.9h-1.89l-1.27-1.32h3.32l-1.13-1.21a.87.87,0,0,1-.18-.59,2.26,2.26,0,0,1,.25-1.08,8.84,8.84,0,0,1,.95-1.36,6.84,6.84,0,0,1,2-1.37,3.93,3.93,0,0,1,1.68-.33,10.16,10.16,0,0,1,5.3,1.75,13.65,13.65,0,0,1,2.29,2Z" transform="translate(-34.37 -63.46)"/><path class="cls-6" d="M274.07,250.9h-6.89v.95a.48.48,0,0,1,.26,0,4,4,0,0,1,2.84,1.31,5.27,5.27,0,0,1,1.6,2.75,4.94,4.94,0,0,1,.13,1.08,2.76,2.76,0,0,1-.54,1.7,1.84,1.84,0,0,1-1.54.8,1.69,1.69,0,0,1-1.16-.47,1.43,1.43,0,0,1-.51-1.1,1.68,1.68,0,0,1,.72-1.31,2.36,2.36,0,0,1,.74-.13,2.12,2.12,0,0,1,1.32.67,1,1,0,0,0,0-.24,3.08,3.08,0,0,0-1-2.19,3.43,3.43,0,0,0-2.88-1.07v10.26l-.47-.46-.38-1.13a6,6,0,0,0-1.13-1.77,7.41,7.41,0,0,0-1.57-1.46,7.56,7.56,0,0,0-3.14-1.11l-1.78-2.18a17.93,17.93,0,0,1,2.38-1.64,21.8,21.8,0,0,1,4.83-2.21v-1h-7.84l-1.3-1.32h16Zm-8.15,9.46v-6.74a16.47,16.47,0,0,0-3,1.42l-1.65,1.16A9.12,9.12,0,0,1,265.92,260.36Z" transform="translate(-34.37 -63.46)"/><path class="cls-6" d="M278.65,255.32a2.79,2.79,0,0,1-1,.8,2.84,2.84,0,0,1-.9.1,2.79,2.79,0,0,1-2.08-.9,2.9,2.9,0,0,1-.88-2.11,3,3,0,0,1,1.18-2.29,2.41,2.41,0,0,1,1.65-.64,2.62,2.62,0,0,1,2,.93,3,3,0,0,1,.83,2.1A3,3,0,0,1,278.65,255.32Zm3.06,10.11-1.54-1.49a48.62,48.62,0,0,0-5.58-4.27v-2.91c.65.52,1.62,1.39,2.91,2.63a63.35,63.35,0,0,1,4.21,4.94Zm-4.42-11.11a2.15,2.15,0,0,0,.77-.8,2.48,2.48,0,0,0,.1-.87c0-.71-.28-1.06-.85-1.06a2.57,2.57,0,0,0-1.56.82,2.08,2.08,0,0,0-.65,1.6c0,.63.23,1,.75,1A2.76,2.76,0,0,0,277.29,254.32Z" transform="translate(-34.37 -63.46)"/></svg>