<svg id="Layer_1" data-name="Layer 1" xmlns="http://www.w3.org/2000/svg" viewBox="0 0 456 76.57"><defs><style>.cls-1,.cls-2{fill:#11100f;}.cls-1{fill-rule:evenodd;}</style></defs><title>Untitled-1</title><path class="cls-1" d="M72.53,35.69l5.09-.52a7,7,0,0,0,1.85,4.1,5.34,5.34,0,0,0,3.78,1.3A5.49,5.49,0,0,0,87,39.41a3.56,3.56,0,0,0,1.27-2.72,2.76,2.76,0,0,0-.53-1.7,4.27,4.27,0,0,0-1.87-1.22c-.61-.23-2-.64-4.16-1.23C79,31.78,77,30.85,75.89,29.75a7.89,7.89,0,0,1-1.25-9.69,7.17,7.17,0,0,1,3.22-2.85,12,12,0,0,1,5.08-1q4.84,0,7.31,2.34a8.64,8.64,0,0,1,2.58,6.23l-5.25.2a5,5,0,0,0-1.42-3.1A5,5,0,0,0,82.87,21a5.53,5.53,0,0,0-3.54,1,2.1,2.1,0,0,0-.83,1.74,2.22,2.22,0,0,0,.78,1.7c.65.6,2.25,1.23,4.78,1.88a23.72,23.72,0,0,1,5.62,2,7.48,7.48,0,0,1,2.84,2.88,9.65,9.65,0,0,1-.2,9.06,7.65,7.65,0,0,1-3.49,3.16,13.52,13.52,0,0,1-5.63,1c-3.26,0-5.78-.83-7.53-2.49a11.34,11.34,0,0,1-3.14-7.27" transform="translate(-6.63)"/><path class="cls-1" d="M106.55,24.48v4.31h-3.37v8.3a21.15,21.15,0,0,0,.1,2.93,1.13,1.13,0,0,0,.43.69,1.25,1.25,0,0,0,.82.27,5.69,5.69,0,0,0,2-.52l.44,4.18a9.05,9.05,0,0,1-3.89.81,5.86,5.86,0,0,1-2.41-.49,3.59,3.59,0,0,1-1.57-1.28,5.45,5.45,0,0,1-.69-2.11,28.16,28.16,0,0,1-.16-3.83v-9H95.91V24.48H98.2V20.43l5-3.16v7.21Z" transform="translate(-6.63)"/><path class="cls-1" d="M120.36,35.22a27.29,27.29,0,0,1-3,.83,8.64,8.64,0,0,0-2.71.94,2.29,2.29,0,0,0-1,1.9,2.74,2.74,0,0,0,.78,2,2.6,2.6,0,0,0,2,.82,4.1,4.1,0,0,0,2.56-1,3.33,3.33,0,0,0,1.18-1.78,11.33,11.33,0,0,0,.2-2.62Zm-6.7-4.4-4.46-.89a7.77,7.77,0,0,1,2.62-4.42,8.86,8.86,0,0,1,5.51-1.44,11,11,0,0,1,5,.85,5,5,0,0,1,2.29,2.17,12.06,12.06,0,0,1,.66,4.83l0,6.31a23.52,23.52,0,0,0,.24,4,11.57,11.57,0,0,0,.91,2.74h-4.94c-.13-.35-.29-.87-.47-1.56-.09-.31-.14-.52-.18-.62a9.24,9.24,0,0,1-2.72,2,7.41,7.41,0,0,1-3.1.67,6.09,6.09,0,0,1-4.57-1.71,5.9,5.9,0,0,1-1.67-4.31,6.14,6.14,0,0,1,.76-3.08,5.18,5.18,0,0,1,2.13-2.07,15.92,15.92,0,0,1,4-1.26,27,27,0,0,0,4.83-1.32v-.55a3,3,0,0,0-.71-2.25,4,4,0,0,0-2.7-.68,3.32,3.32,0,0,0-2.08.58,4,4,0,0,0-1.21,2" transform="translate(-6.63)"/><path class="cls-1" d="M147.1,44.93h-5V34.53a17.51,17.51,0,0,0-.32-4.27,3,3,0,0,0-1-1.5,2.73,2.73,0,0,0-1.71-.54,3.72,3.72,0,0,0-2.29.77,3.83,3.83,0,0,0-1.39,2A18.75,18.75,0,0,0,135,35.7v9.23h-5V24.48h4.62v3a7.33,7.33,0,0,1,6.16-3.41,6.93,6.93,0,0,1,3,.64,5.06,5.06,0,0,1,2.05,1.65,6.2,6.2,0,0,1,1,2.26,18.61,18.61,0,0,1,.27,3.63Z" transform="translate(-6.63)"/><path class="cls-1" d="M156.15,34.33a10.11,10.11,0,0,0,.83,4.74,3.72,3.72,0,0,0,3.36,2.12,3.55,3.55,0,0,0,2.92-1.59,7.82,7.82,0,0,0,1.2-4.75q0-3.53-1.17-5.08a3.63,3.63,0,0,0-5.94,0,7.35,7.35,0,0,0-1.2,4.58m13.24,10.6h-4.62v-3a7.91,7.91,0,0,1-2.71,2.64,6.42,6.42,0,0,1-3.15.88,6.94,6.94,0,0,1-5.54-2.84q-2.3-2.85-2.3-7.93c0-3.47.74-6.1,2.24-7.91a7,7,0,0,1,5.66-2.7,6.77,6.77,0,0,1,5.43,2.84V16.75h5Z" transform="translate(-6.63)"/><path class="cls-1" d="M184.62,35.22a27,27,0,0,1-3,.83,8.66,8.66,0,0,0-2.7.94,2.32,2.32,0,0,0-1,1.9,2.74,2.74,0,0,0,.78,2,2.6,2.6,0,0,0,2,.82,4.08,4.08,0,0,0,2.56-1,3.33,3.33,0,0,0,1.18-1.78,11.33,11.33,0,0,0,.2-2.62Zm-6.7-4.4-4.46-.89a7.82,7.82,0,0,1,2.61-4.42,8.92,8.92,0,0,1,5.52-1.44,11,11,0,0,1,4.95.85,5,5,0,0,1,2.29,2.17,12,12,0,0,1,.67,4.83l-.06,6.31a23.52,23.52,0,0,0,.24,4,12,12,0,0,0,.9,2.74h-4.92a16.06,16.06,0,0,1-.49-1.56c-.08-.31-.13-.52-.17-.62a9.24,9.24,0,0,1-2.72,2,7.41,7.41,0,0,1-3.1.67,6.11,6.11,0,0,1-4.57-1.71,5.9,5.9,0,0,1-1.67-4.31,6.14,6.14,0,0,1,.76-3.08,5.18,5.18,0,0,1,2.13-2.07,15.92,15.92,0,0,1,4-1.26,27,27,0,0,0,4.83-1.32v-.55a3,3,0,0,0-.72-2.25,3.9,3.9,0,0,0-2.68-.68,3.33,3.33,0,0,0-2.09.58,4,4,0,0,0-1.21,2" transform="translate(-6.63)"/><path class="cls-1" d="M199.11,44.93h-5V24.48h4.62v2.9a8.45,8.45,0,0,1,2.12-2.68,3.79,3.79,0,0,1,2.14-.63,6,6,0,0,1,3.26,1l-1.53,4.7a4.09,4.09,0,0,0-2.32-.89,2.58,2.58,0,0,0-1.76.63,4.36,4.36,0,0,0-1.13,2.26,34.44,34.44,0,0,0-.42,6.84Z" transform="translate(-6.63)"/><path class="cls-1" d="M212.4,34.33a10.11,10.11,0,0,0,.83,4.74,3.7,3.7,0,0,0,3.36,2.12,3.55,3.55,0,0,0,2.91-1.59,7.82,7.82,0,0,0,1.2-4.75c0-2.35-.38-4-1.16-5.08a3.64,3.64,0,0,0-5.95,0,7.41,7.41,0,0,0-1.19,4.58m13.23,10.6H221v-3a7.94,7.94,0,0,1-2.72,2.64,6.41,6.41,0,0,1-3.14.88,6.92,6.92,0,0,1-5.54-2.84q-2.31-2.85-2.31-7.93c0-3.47.75-6.1,2.25-7.91a7,7,0,0,1,5.66-2.7,6.79,6.79,0,0,1,5.43,2.84V16.75h5Z" transform="translate(-6.63)"/><path class="cls-1" d="M245.87,32.63v7.53h4.81a22.28,22.28,0,0,0,3.57-.17,3.14,3.14,0,0,0,1.89-1.13,3.65,3.65,0,0,0,.73-2.39,4,4,0,0,0-.56-2.15A3.24,3.24,0,0,0,254.68,33a16.53,16.53,0,0,0-4.61-.4Zm0-11.21V28h3.4c2,0,3.27,0,3.76-.1a3.22,3.22,0,0,0,2.09-1,3.15,3.15,0,0,0,.77-2.21,3.3,3.3,0,0,0-.66-2.13,2.88,2.88,0,0,0-1.95-1c-.52-.07-2-.1-4.43-.1Zm-5.24-4.67h10.31a28,28,0,0,1,4.57.28,6.31,6.31,0,0,1,2.69,1.16,7.11,7.11,0,0,1,2,2.36,6.81,6.81,0,0,1,.79,3.29,7,7,0,0,1-1,3.63A6.24,6.24,0,0,1,257.36,30,6.78,6.78,0,0,1,261,32.51a7.24,7.24,0,0,1,1.27,4.25,9,9,0,0,1-.82,3.74,7.47,7.47,0,0,1-2.24,2.9,7.05,7.05,0,0,1-3.5,1.34q-1.29.15-6.29.19h-8.79Z" transform="translate(-6.63)"/><path class="cls-1" d="M277,35.22a26.66,26.66,0,0,1-3,.83,8.64,8.64,0,0,0-2.71.94,2.32,2.32,0,0,0-1,1.9,2.74,2.74,0,0,0,.78,2,2.6,2.6,0,0,0,2,.82,4.08,4.08,0,0,0,2.56-1,3.33,3.33,0,0,0,1.18-1.78,11.33,11.33,0,0,0,.2-2.62Zm-6.7-4.4-4.46-.89a7.77,7.77,0,0,1,2.62-4.42A8.86,8.86,0,0,1,274,24.07a11,11,0,0,1,4.95.85,5,5,0,0,1,2.29,2.17,11.84,11.84,0,0,1,.67,4.83l-.06,6.31a23.28,23.28,0,0,0,.25,4,11.51,11.51,0,0,0,.9,2.74H278c-.12-.35-.28-.87-.47-1.56-.08-.31-.14-.52-.18-.62a9.24,9.24,0,0,1-2.72,2,7.41,7.41,0,0,1-3.1.67A6.11,6.11,0,0,1,267,43.74a5.9,5.9,0,0,1-1.67-4.31,6.25,6.25,0,0,1,.76-3.08,5.18,5.18,0,0,1,2.13-2.07,15.92,15.92,0,0,1,4-1.26A27,27,0,0,0,277,31.7v-.55a3,3,0,0,0-.71-2.25,3.94,3.94,0,0,0-2.69-.68,3.33,3.33,0,0,0-2.09.58,4,4,0,0,0-1.21,2" transform="translate(-6.63)"/><path class="cls-1" d="M303.75,44.93h-5V34.53a17,17,0,0,0-.32-4.27,3,3,0,0,0-1-1.5,2.73,2.73,0,0,0-1.71-.54,3.72,3.72,0,0,0-2.29.77A3.83,3.83,0,0,0,292,31a19.26,19.26,0,0,0-.38,4.68v9.23h-5V24.48h4.62v3a7.33,7.33,0,0,1,6.16-3.41,6.9,6.9,0,0,1,3,.64,5.06,5.06,0,0,1,2.05,1.65,6.2,6.2,0,0,1,1,2.26,18.61,18.61,0,0,1,.27,3.63Z" transform="translate(-6.63)"/><polygon class="cls-1" points="302.03 44.93 302.03 16.75 307.01 16.75 307.01 31.68 312.8 24.48 318.92 24.48 312.5 31.98 319.39 44.93 314.04 44.93 309.28 35.74 307.01 38.38 307.01 44.93 302.03 44.93"/><polygon class="cls-1" points="332.49 44.93 332.49 17.01 337.73 17.01 337.73 40.16 350.75 40.16 350.75 44.93 332.49 44.93"/><path class="cls-1" d="M361,24.48h5V44.93h-5Zm0-7.73h5v5h-5Z" transform="translate(-6.63)"/><path class="cls-1" d="M370.71,24.48h4.57v2.79a7.25,7.25,0,0,1,5.87-3.2,5.92,5.92,0,0,1,3.14.81,6,6,0,0,1,2.18,2.45,9,9,0,0,1,2.68-2.45,6.09,6.09,0,0,1,3.06-.81,6.41,6.41,0,0,1,3.51.91,5.54,5.54,0,0,1,2.14,2.68,12.63,12.63,0,0,1,.51,4.23v13h-5V33.28a9.36,9.36,0,0,0-.51-3.91,2.32,2.32,0,0,0-2.13-1.15,3.21,3.21,0,0,0-2,.69,3.92,3.92,0,0,0-1.33,2,16.22,16.22,0,0,0-.4,4.21v9.78h-5V33.77a16.43,16.43,0,0,0-.27-3.84,2.16,2.16,0,0,0-2.33-1.71,3.39,3.39,0,0,0-2.07.67,3.66,3.66,0,0,0-1.32,1.94,15.31,15.31,0,0,0-.4,4.2v9.9h-5Z" transform="translate(-6.63)"/><path class="cls-1" d="M403.16,24.48h5V44.93h-5Zm0-7.73h5v5h-5Z" transform="translate(-6.63)"/><path class="cls-1" d="M421.87,24.48v4.31H418.5v8.3a24.17,24.17,0,0,0,.09,2.93,1.22,1.22,0,0,0,.43.69,1.28,1.28,0,0,0,.82.27,5.64,5.64,0,0,0,2-.52l.44,4.18a9,9,0,0,1-3.89.81,5.78,5.78,0,0,1-2.4-.49,3.53,3.53,0,0,1-1.57-1.28,5.28,5.28,0,0,1-.7-2.11,30.64,30.64,0,0,1-.15-3.83v-9h-2.29V24.48h2.29V20.43l5-3.16v7.21Z" transform="translate(-6.63)"/><path class="cls-1" d="M436.45,33a5.46,5.46,0,0,0-1.12-3.56,3.27,3.27,0,0,0-2.58-1.22,3.33,3.33,0,0,0-2.69,1.29A5.18,5.18,0,0,0,429,33Zm-.26,5.49,4.93.89a8.81,8.81,0,0,1-3,4.52A8.34,8.34,0,0,1,433,45.45q-4.9,0-7.25-3.49a12.45,12.45,0,0,1-1.86-7.05c0-3.39.82-6,2.44-8a7.74,7.74,0,0,1,6.17-2.88,8,8,0,0,1,6.61,3q2.43,3,2.32,9.24H428.93a5.77,5.77,0,0,0,1.2,3.74A3.66,3.66,0,0,0,433,41.4a2.9,2.9,0,0,0,2-.69,4.27,4.27,0,0,0,1.21-2.22" transform="translate(-6.63)"/><path class="cls-1" d="M449.39,34.33a10.11,10.11,0,0,0,.83,4.74,3.7,3.7,0,0,0,3.36,2.12,3.55,3.55,0,0,0,2.91-1.59,7.82,7.82,0,0,0,1.2-4.75q0-3.53-1.16-5.08a3.64,3.64,0,0,0-5.95,0,7.41,7.41,0,0,0-1.19,4.58m13.23,10.6H458v-3a7.89,7.89,0,0,1-2.7,2.64,6.48,6.48,0,0,1-3.15.88,6.92,6.92,0,0,1-5.54-2.84q-2.31-2.85-2.31-7.93c0-3.47.75-6.1,2.25-7.91a7,7,0,0,1,5.66-2.7,6.79,6.79,0,0,1,5.43,2.84V16.75h5Z" transform="translate(-6.63)"/><path class="cls-1" d="M19.87,27.74c.88.6,3.93,2.49,6.62,2.21S29.1,28.14,29,27.5a1.57,1.57,0,0,0-1.71-.45v2.24a5.82,5.82,0,0,1-3.79-.23v-4h7.21A2.27,2.27,0,0,1,32.47,28c-.23,1.07-1.17,3.3-5,3.41a11.74,11.74,0,0,1-6.69-2.54,6.48,6.48,0,0,1-1-1.06c-.06-.09,0-.14,0-.1Z" transform="translate(-6.63)"/><path class="cls-1" d="M23.45,36.53V30.85a9,9,0,0,0,3.79.88V34.6c0,.31,2.59-.23,2.13-2.91.38-.08,2.3-.71,2.69-1.77.33.07,2.15,1.32,1.13,3.93a3.86,3.86,0,0,1-3.63,2.68Z" transform="translate(-6.63)"/><path class="cls-1" d="M33.54,25.23h4.3v6.2h3.67v5.14h-8V35s1.68-2.7,0-4.89Z" transform="translate(-6.63)"/><path class="cls-1" d="M19.68,27.41a12.78,12.78,0,0,0,2.77,1.31V25.08H20.56l10.63-10.9s6.84-1.69,8.73,3c.41,1.4.64,3.18-1.1,3.78,0-.79-.51-4.08-4.35-2.91a3,3,0,0,0-1.77,3.6c.3.86,1.92,3.51,5.86,2.75.94-.15,5.89-.87,6.31-5.9a10.4,10.4,0,0,0-3-7c-.41-.42-9-10.81-9-10.81L32.24,0,6.63,25.17V36.39H22.38v-6s-2.63-1.52-2.9-2.79c0,0,0-.27.2-.17" transform="translate(-6.63)"/><path class="cls-1" d="M42.53,25.26H58.75V36.81L33.26,61.68,23.5,50.19s-4.91-5.07-2-10c1.3-2.39,6.81-4.54,10.21-1.81,1,.69,2.46,3.7-.24,5.23-1.24.57-4.37.7-4.68-2.78-2.41.18-2.87,8.85,7.62,6.69.71-.76,10.49-10.85,10.49-10.85H42.53Z" transform="translate(-6.63)"/><path class="cls-2" d="M135.61,71.34l1.93-.16a4.31,4.31,0,0,0,.63,1.9,3.56,3.56,0,0,0,1.56,1.2,6,6,0,0,0,2.37.46,5.66,5.66,0,0,0,2.06-.35,2.93,2.93,0,0,0,1.34-1,2.24,2.24,0,0,0,.43-1.33,2,2,0,0,0-.42-1.27,3.14,3.14,0,0,0-1.39-.91,27.3,27.3,0,0,0-2.75-.75,14.16,14.16,0,0,1-3-1,4.21,4.21,0,0,1-1.65-1.44,3.58,3.58,0,0,1-.54-1.93,3.93,3.93,0,0,1,.66-2.18,4.15,4.15,0,0,1,1.94-1.55,7.35,7.35,0,0,1,2.83-.52,7.69,7.69,0,0,1,3,.55,4.33,4.33,0,0,1,2,1.63,4.71,4.71,0,0,1,.76,2.43l-2,.15a3.16,3.16,0,0,0-1.07-2.21,4.15,4.15,0,0,0-2.69-.75,4.31,4.31,0,0,0-2.7.68,2,2,0,0,0-.85,1.64,1.77,1.77,0,0,0,.6,1.37,8.16,8.16,0,0,0,3.08,1.1,20.16,20.16,0,0,1,3.42,1,4.7,4.7,0,0,1,2,1.58,3.81,3.81,0,0,1,.64,2.19,4.21,4.21,0,0,1-.7,2.33,4.6,4.6,0,0,1-2,1.69,7,7,0,0,1-3,.61,8.83,8.83,0,0,1-3.51-.61,4.86,4.86,0,0,1-2.22-1.84A5.21,5.21,0,0,1,135.61,71.34Z" transform="translate(-6.63)"/><path class="cls-2" d="M150.45,76.31V60.86h1.9V66.4a4.26,4.26,0,0,1,3.35-1.54,4.59,4.59,0,0,1,2.16.49,2.87,2.87,0,0,1,1.31,1.36,6.1,6.1,0,0,1,.4,2.51v7.09h-1.9V69.22a2.88,2.88,0,0,0-.62-2.07,2.26,2.26,0,0,0-1.74-.65,3.05,3.05,0,0,0-1.58.43,2.49,2.49,0,0,0-1.06,1.19,5.47,5.47,0,0,0-.32,2.07v6.12Z" transform="translate(-6.63)"/><path class="cls-2" d="M169.76,74.93a7.17,7.17,0,0,1-2,1.26,5.78,5.78,0,0,1-2.09.37,4.08,4.08,0,0,1-2.84-.9,3,3,0,0,1-1-2.3,3,3,0,0,1,.38-1.5,3,3,0,0,1,1-1.09,4.35,4.35,0,0,1,1.36-.63,12.93,12.93,0,0,1,1.69-.28,17.5,17.5,0,0,0,3.38-.65c0-.26,0-.43,0-.5a2.08,2.08,0,0,0-.54-1.63,3.15,3.15,0,0,0-2.16-.65,3.34,3.34,0,0,0-2,.47,2.92,2.92,0,0,0-.95,1.66l-1.85-.25a4.58,4.58,0,0,1,.83-1.92,3.65,3.65,0,0,1,1.68-1.13,7.52,7.52,0,0,1,2.54-.4,6.77,6.77,0,0,1,2.32.34,3.11,3.11,0,0,1,1.32.85,3,3,0,0,1,.59,1.29,10.9,10.9,0,0,1,.1,1.75v2.53a26.94,26.94,0,0,0,.12,3.34,4.2,4.2,0,0,0,.48,1.35h-2A3.9,3.9,0,0,1,169.76,74.93Zm-.16-4.24a14.13,14.13,0,0,1-3.1.72,7,7,0,0,0-1.65.38,1.62,1.62,0,0,0-1,1.51,1.64,1.64,0,0,0,.58,1.27,2.44,2.44,0,0,0,1.68.5A4,4,0,0,0,168,74.6a2.9,2.9,0,0,0,1.25-1.32,4.46,4.46,0,0,0,.31-1.89Z" transform="translate(-6.63)"/><path class="cls-2" d="M174.43,76.31V65.12h1.71v1.69a4.79,4.79,0,0,1,1.21-1.57,2.11,2.11,0,0,1,1.21-.38,3.69,3.69,0,0,1,1.95.62l-.65,1.76a2.67,2.67,0,0,0-1.39-.42,1.83,1.83,0,0,0-1.12.38,2,2,0,0,0-.7,1,7.37,7.37,0,0,0-.32,2.21v5.86Z" transform="translate(-6.63)"/><path class="cls-2" d="M181.65,63V60.86h1.9V63Zm0,13.27V65.12h1.9V76.31Z" transform="translate(-6.63)"/><path class="cls-2" d="M198.74,74.93a7,7,0,0,1-2,1.26,5.78,5.78,0,0,1-2.09.37,4.08,4.08,0,0,1-2.84-.9,3,3,0,0,1-1-2.3,3,3,0,0,1,.38-1.5,3,3,0,0,1,1-1.09,4.46,4.46,0,0,1,1.36-.63,13.24,13.24,0,0,1,1.69-.28,17.34,17.34,0,0,0,3.38-.65c0-.26,0-.43,0-.5a2.08,2.08,0,0,0-.54-1.63,3.15,3.15,0,0,0-2.16-.65,3.34,3.34,0,0,0-2,.47,2.92,2.92,0,0,0-.95,1.66l-1.85-.25a4.71,4.71,0,0,1,.83-1.92,3.65,3.65,0,0,1,1.68-1.13,7.52,7.52,0,0,1,2.54-.4,6.87,6.87,0,0,1,2.33.34,3.14,3.14,0,0,1,1.31.85,3,3,0,0,1,.59,1.29,9.81,9.81,0,0,1,.1,1.75v2.53a26.94,26.94,0,0,0,.12,3.34,4.2,4.2,0,0,0,.48,1.35h-2A3.9,3.9,0,0,1,198.74,74.93Zm-.16-4.24a14.13,14.13,0,0,1-3.1.72,7,7,0,0,0-1.65.38,1.59,1.59,0,0,0-1,1.51,1.63,1.63,0,0,0,.57,1.27,2.44,2.44,0,0,0,1.68.5,4,4,0,0,0,2-.47,2.9,2.9,0,0,0,1.25-1.32,4.46,4.46,0,0,0,.31-1.89Z" transform="translate(-6.63)"/><path class="cls-2" d="M203.44,76.31V60.86h1.89V66.4a4.27,4.27,0,0,1,3.35-1.54,4.59,4.59,0,0,1,2.16.49,2.89,2.89,0,0,1,1.32,1.36,6.29,6.29,0,0,1,.39,2.51v7.09h-1.9V69.22a2.93,2.93,0,0,0-.61-2.07,2.26,2.26,0,0,0-1.75-.65,3.05,3.05,0,0,0-1.58.43,2.49,2.49,0,0,0-1.06,1.19,5.47,5.47,0,0,0-.32,2.07v6.12Z" transform="translate(-6.63)"/><path class="cls-2" d="M223.59,76.31V60.86h5.8a7.24,7.24,0,0,1,2.84.47,3.61,3.61,0,0,1,1.67,1.44,3.76,3.76,0,0,1,.61,2,3.53,3.53,0,0,1-.54,1.87,3.89,3.89,0,0,1-1.62,1.41,4,4,0,0,1,2.15,1.4,3.77,3.77,0,0,1,.76,2.34,4.6,4.6,0,0,1-.46,2,4,4,0,0,1-1.14,1.44,4.79,4.79,0,0,1-1.69.76,10.34,10.34,0,0,1-2.49.26Zm2-9H229a7.35,7.35,0,0,0,1.94-.18,2.14,2.14,0,0,0,1.18-.77,2.25,2.25,0,0,0,.39-1.35,2.52,2.52,0,0,0-.36-1.35,1.86,1.86,0,0,0-1.06-.8,8.9,8.9,0,0,0-2.35-.22h-3.08Zm0,7.13h3.84a8.89,8.89,0,0,0,1.39-.07,3.15,3.15,0,0,0,1.18-.42,2.18,2.18,0,0,0,.78-.86,2.63,2.63,0,0,0,.31-1.3,2.51,2.51,0,0,0-.45-1.5,2.28,2.28,0,0,0-1.22-.9,7.72,7.72,0,0,0-2.26-.26h-3.57Z" transform="translate(-6.63)"/><path class="cls-2" d="M245.13,74.93a7,7,0,0,1-2,1.26,5.78,5.78,0,0,1-2.09.37,4.08,4.08,0,0,1-2.84-.9,3,3,0,0,1-1-2.3,3,3,0,0,1,.38-1.5,3,3,0,0,1,1-1.09,4.46,4.46,0,0,1,1.36-.63,13.24,13.24,0,0,1,1.69-.28,17.34,17.34,0,0,0,3.38-.65c0-.26,0-.43,0-.5a2.08,2.08,0,0,0-.54-1.63,3.15,3.15,0,0,0-2.16-.65,3.34,3.34,0,0,0-2,.47,2.92,2.92,0,0,0-.95,1.66l-1.85-.25a4.71,4.71,0,0,1,.83-1.92A3.65,3.65,0,0,1,240,65.26a7.52,7.52,0,0,1,2.54-.4,6.87,6.87,0,0,1,2.33.34,3.14,3.14,0,0,1,1.31.85,3,3,0,0,1,.59,1.29,9.81,9.81,0,0,1,.1,1.75v2.53A26.94,26.94,0,0,0,247,75a4.2,4.2,0,0,0,.48,1.35h-2A3.9,3.9,0,0,1,245.13,74.93ZM245,70.69a14.13,14.13,0,0,1-3.1.72,7,7,0,0,0-1.65.38,1.68,1.68,0,0,0-.75.61,1.58,1.58,0,0,0-.26.9,1.63,1.63,0,0,0,.57,1.27,2.44,2.44,0,0,0,1.68.5,4,4,0,0,0,1.95-.47,2.9,2.9,0,0,0,1.25-1.32,4.46,4.46,0,0,0,.31-1.89Z" transform="translate(-6.63)"/><path class="cls-2" d="M249.07,73l1.87-.3a2.65,2.65,0,0,0,.88,1.73,3.1,3.1,0,0,0,2,.6,3,3,0,0,0,1.94-.53,1.6,1.6,0,0,0,.63-1.25,1.13,1.13,0,0,0-.56-1,8.13,8.13,0,0,0-1.93-.64,17,17,0,0,1-2.9-.92,2.82,2.82,0,0,1-1.22-1.06,2.77,2.77,0,0,1-.41-1.5,2.89,2.89,0,0,1,.34-1.39,3.26,3.26,0,0,1,.93-1.06,4,4,0,0,1,1.21-.55,5.73,5.73,0,0,1,1.63-.23,6.6,6.6,0,0,1,2.32.38,3.26,3.26,0,0,1,1.47,1,4.09,4.09,0,0,1,.65,1.73l-1.85.26a2,2,0,0,0-.74-1.35,2.68,2.68,0,0,0-1.71-.49,3.06,3.06,0,0,0-1.86.44,1.22,1.22,0,0,0-.56,1,1.08,1.08,0,0,0,.23.66,1.75,1.75,0,0,0,.73.51c.19.07.75.23,1.67.48a23.47,23.47,0,0,1,2.81.88,2.83,2.83,0,0,1,1.25,1,2.76,2.76,0,0,1,.45,1.62,3.19,3.19,0,0,1-.55,1.79,3.58,3.58,0,0,1-1.6,1.29,5.71,5.71,0,0,1-2.36.46,5.21,5.21,0,0,1-3.32-.91A4.21,4.21,0,0,1,249.07,73Z" transform="translate(-6.63)"/><path class="cls-2" d="M268.28,72.7l2,.25a4.82,4.82,0,0,1-1.72,2.66,5.18,5.18,0,0,1-3.2,1,5.12,5.12,0,0,1-3.9-1.51A5.9,5.9,0,0,1,260,70.81a6.19,6.19,0,0,1,1.46-4.39,4.93,4.93,0,0,1,3.77-1.56,4.78,4.78,0,0,1,3.67,1.53,6.06,6.06,0,0,1,1.42,4.3c0,.11,0,.28,0,.51h-8.35A4.26,4.26,0,0,0,263,74a3.1,3.1,0,0,0,2.34,1,2.88,2.88,0,0,0,1.78-.55A3.64,3.64,0,0,0,268.28,72.7Zm-6.23-3.06h6.25a3.87,3.87,0,0,0-.72-2.12,2.91,2.91,0,0,0-2.35-1.1,3,3,0,0,0-2.2.88A3.45,3.45,0,0,0,262.05,69.64Z" transform="translate(-6.63)"/><path class="cls-2" d="M279.88,76.31V74.9a3.49,3.49,0,0,1-3.13,1.66,4.41,4.41,0,0,1-2.46-.74,4.83,4.83,0,0,1-1.74-2.06,7.11,7.11,0,0,1-.62-3,8,8,0,0,1,.56-3,4.39,4.39,0,0,1,1.68-2.09,4.49,4.49,0,0,1,2.49-.73,3.81,3.81,0,0,1,1.81.43,3.94,3.94,0,0,1,1.28,1.11V60.86h1.89V76.31Zm-6-5.59a4.83,4.83,0,0,0,.91,3.22A2.72,2.72,0,0,0,276.93,75,2.67,2.67,0,0,0,279,74a4.66,4.66,0,0,0,.87-3.1,5.26,5.26,0,0,0-.89-3.37,2.71,2.71,0,0,0-2.18-1.08,2.64,2.64,0,0,0-2.11,1A5.06,5.06,0,0,0,273.88,70.72Z" transform="translate(-6.63)"/><path class="cls-2" d="M291.2,76.31V60.86h2.05V76.31Z" transform="translate(-6.63)"/><path class="cls-2" d="M295.85,73l1.88-.3a2.61,2.61,0,0,0,.88,1.73,3.05,3.05,0,0,0,2,.6,3,3,0,0,0,1.94-.53,1.6,1.6,0,0,0,.63-1.25,1.14,1.14,0,0,0-.55-1,8.27,8.27,0,0,0-1.94-.64,16.78,16.78,0,0,1-2.89-.92,2.79,2.79,0,0,1-1.23-1.06,3,3,0,0,1-.07-2.89,3.26,3.26,0,0,1,.93-1.06,4.15,4.15,0,0,1,1.21-.55,5.75,5.75,0,0,1,1.64-.23,6.54,6.54,0,0,1,2.31.38,3.26,3.26,0,0,1,1.47,1,4,4,0,0,1,.65,1.73l-1.85.26a2.05,2.05,0,0,0-.73-1.35,2.73,2.73,0,0,0-1.72-.49,3.06,3.06,0,0,0-1.86.44,1.25,1.25,0,0,0-.56,1,1.08,1.08,0,0,0,.23.66A1.82,1.82,0,0,0,299,69c.19.07.75.23,1.67.48a22.86,22.86,0,0,1,2.81.88,2.83,2.83,0,0,1,1.25,1,2.76,2.76,0,0,1,.45,1.62,3.19,3.19,0,0,1-.55,1.79A3.58,3.58,0,0,1,303,76.1a5.71,5.71,0,0,1-2.36.46,5.21,5.21,0,0,1-3.32-.91A4.21,4.21,0,0,1,295.85,73Z" transform="translate(-6.63)"/><path class="cls-2" d="M307.36,76.31V60.86h1.89V76.31Z" transform="translate(-6.63)"/><path class="cls-2" d="M319.49,74.93a7,7,0,0,1-2,1.26,5.78,5.78,0,0,1-2.09.37,4.08,4.08,0,0,1-2.84-.9,3,3,0,0,1-1-2.3,3.14,3.14,0,0,1,.37-1.5,3,3,0,0,1,1-1.09,4.52,4.52,0,0,1,1.37-.63,13,13,0,0,1,1.68-.28,17.47,17.47,0,0,0,3.39-.65c0-.26,0-.43,0-.5a2.08,2.08,0,0,0-.54-1.63,3.15,3.15,0,0,0-2.16-.65,3.4,3.4,0,0,0-2,.47,3,3,0,0,0-.94,1.66l-1.85-.25a4.58,4.58,0,0,1,.83-1.92,3.62,3.62,0,0,1,1.67-1.13,7.61,7.61,0,0,1,2.54-.4,6.79,6.79,0,0,1,2.33.34,3.11,3.11,0,0,1,1.32.85,3,3,0,0,1,.59,1.29,11.26,11.26,0,0,1,.09,1.75v2.53a24.3,24.3,0,0,0,.13,3.34,4.2,4.2,0,0,0,.48,1.35h-2A4.37,4.37,0,0,1,319.49,74.93Zm-.15-4.24a14.13,14.13,0,0,1-3.1.72,7.21,7.21,0,0,0-1.66.38,1.65,1.65,0,0,0-.43,2.78,2.44,2.44,0,0,0,1.68.5,4,4,0,0,0,1.95-.47A3,3,0,0,0,319,73.28a4.46,4.46,0,0,0,.31-1.89Z" transform="translate(-6.63)"/><path class="cls-2" d="M324.19,76.31V65.12h1.7v1.57a4,4,0,0,1,3.39-1.83,3.72,3.72,0,0,1,2,.52,2.77,2.77,0,0,1,1.12,1.44,4,4,0,0,1,3.46-2,3.39,3.39,0,0,1,2.56.93,3.92,3.92,0,0,1,.9,2.84v7.68h-1.89v-7a5.3,5.3,0,0,0-.18-1.64,1.69,1.69,0,0,0-.67-.81,2.16,2.16,0,0,0-1.14-.3,2.65,2.65,0,0,0-2,.78,3.47,3.47,0,0,0-.78,2.52v6.5h-1.9V69a3.19,3.19,0,0,0-.46-1.9,1.77,1.77,0,0,0-1.52-.63,2.76,2.76,0,0,0-1.48.42,2.37,2.37,0,0,0-1,1.23,6.76,6.76,0,0,0-.31,2.34v5.81Z" transform="translate(-6.63)"/><path class="cls-2" d="M342.18,63V60.86h1.9V63Zm0,13.27V65.12h1.9V76.31Z" transform="translate(-6.63)"/><path class="cls-2" d="M353.12,76.31V60.86h5.79a7.21,7.21,0,0,1,2.84.47,3.68,3.68,0,0,1,1.68,1.44,3.84,3.84,0,0,1,.6,2,3.61,3.61,0,0,1-.53,1.87,3.86,3.86,0,0,1-1.63,1.41,4,4,0,0,1,2.16,1.4,3.76,3.76,0,0,1,.75,2.34,4.47,4.47,0,0,1-.46,2,3.88,3.88,0,0,1-1.13,1.44,4.79,4.79,0,0,1-1.69.76,10.4,10.4,0,0,1-2.49.26Zm2-9h3.34a7.39,7.39,0,0,0,1.95-.18,2.17,2.17,0,0,0,1.18-.77,2.25,2.25,0,0,0,.39-1.35,2.44,2.44,0,0,0-.37-1.35,1.84,1.84,0,0,0-1-.8,9,9,0,0,0-2.35-.22h-3.09Zm0,7.13H359a8.89,8.89,0,0,0,1.39-.07,3.22,3.22,0,0,0,1.18-.42,2.34,2.34,0,0,0,.78-.86,2.74,2.74,0,0,0,.3-1.3,2.51,2.51,0,0,0-.44-1.5,2.27,2.27,0,0,0-1.23-.9,7.62,7.62,0,0,0-2.26-.26h-3.57Z" transform="translate(-6.63)"/><path class="cls-2" d="M374.65,74.93a7,7,0,0,1-2,1.26,5.8,5.8,0,0,1-2.1.37,4.06,4.06,0,0,1-2.83-.9,3,3,0,0,1-1-2.3,3.1,3.1,0,0,1,1.35-2.59,4.52,4.52,0,0,1,1.37-.63,13,13,0,0,1,1.68-.28,17.47,17.47,0,0,0,3.39-.65c0-.26,0-.43,0-.5a2.08,2.08,0,0,0-.54-1.63,3.19,3.19,0,0,0-2.16-.65,3.4,3.4,0,0,0-2,.47,2.91,2.91,0,0,0-.94,1.66L367,68.31a4.46,4.46,0,0,1,.83-1.92,3.57,3.57,0,0,1,1.67-1.13,7.56,7.56,0,0,1,2.54-.4,6.83,6.83,0,0,1,2.33.34,3.11,3.11,0,0,1,1.32.85,3,3,0,0,1,.59,1.29,11.26,11.26,0,0,1,.09,1.75v2.53a26.94,26.94,0,0,0,.12,3.34,4.74,4.74,0,0,0,.48,1.35h-2A4.37,4.37,0,0,1,374.65,74.93Zm-.15-4.24a14.28,14.28,0,0,1-3.1.72,7.21,7.21,0,0,0-1.66.38,1.65,1.65,0,0,0-.43,2.78,2.44,2.44,0,0,0,1.68.5,4,4,0,0,0,1.95-.47,3,3,0,0,0,1.25-1.32,4.62,4.62,0,0,0,.31-1.89Z" transform="translate(-6.63)"/><path class="cls-2" d="M379.35,76.31V65.12h1.71v1.59a4,4,0,0,1,3.56-1.85,4.68,4.68,0,0,1,1.86.37,2.9,2.9,0,0,1,1.27,1,3.68,3.68,0,0,1,.59,1.4,10.81,10.81,0,0,1,.11,1.85v6.88h-1.9V69.5a5,5,0,0,0-.22-1.73,1.85,1.85,0,0,0-.79-.92,2.45,2.45,0,0,0-1.32-.34,3,3,0,0,0-2.09.77,3.77,3.77,0,0,0-.88,2.92v6.11Z" transform="translate(-6.63)"/><path class="cls-2" d="M391.36,76.31V60.86h1.9v8.81l4.49-4.55h2.45l-4.27,4.15,4.71,7H398.3l-3.7-5.72-1.34,1.28v4.44Z" transform="translate(-6.63)"/><path class="cls-2" d="M189.25,66.18a1.54,1.54,0,0,1-.49,1.15,1.59,1.59,0,0,1-1.17.48,1.66,1.66,0,0,1-1.37-.69,2.53,2.53,0,0,1-.53-1.55,3.54,3.54,0,0,1,.76-2.17A4.17,4.17,0,0,1,188.31,62l.29.58A3.23,3.23,0,0,0,187,65a1.47,1.47,0,0,1,.91-.34C188.78,64.66,189.25,65.17,189.25,66.18Z" transform="translate(-6.63)"/></svg>