<?xml version="1.0" encoding="utf-8"?>
<!-- Generator: Adobe Illustrator 23.0.1, SVG Export Plug-In . SVG Version: 6.00 Build 0)  -->
<svg version="1.1" id="Layer_1" xmlns="http://www.w3.org/2000/svg" xmlns:xlink="http://www.w3.org/1999/xlink" x="0px" y="0px"
	 viewBox="0 0 524.6 66.7" style="enable-background:new 0 0 524.6 66.7;" xml:space="preserve">
<style type="text/css">
	.st0{fill-rule:evenodd;clip-rule:evenodd;fill:#232323;}
	.st1{fill:#232323;}
</style>
<title>StandardBankLtd</title>
<g>
	<path class="st0" d="M70.5,30.6l5.9-0.5c0.1,1.8,1,3.4,2.2,4.8c1.2,1,2.7,1.6,4.4,1.6c1.6,0.1,3.1-0.4,4.4-1.4
		c1-0.8,1.4-1.9,1.4-3.1c0-0.8-0.1-1.4-0.5-1.9c-0.5-0.5-1.4-1.2-2.2-1.4c-0.8-0.1-2.3-0.8-4.8-1.4c-3.1-0.8-5.6-1.9-6.7-3.1
		c-3-3-3.5-7.5-1.4-11c0.8-1.4,2.2-2.6,3.8-3.4c1.8-0.8,3.8-1.2,5.9-1.2c3.8,0,6.5,1,8.5,2.7c1.9,1.9,3,4.5,3,7.1l-6.5,0.1
		c-0.1-1.4-0.8-2.6-1.6-3.5c-1-0.8-2.3-1.2-3.8-1.2c-1.4,0-3,0.4-4.1,1.2c-0.5,0.4-1,1.2-1,1.9c0,0.8,0.4,1.4,1,1.9
		c0.8,0.5,2.6,1.4,5.6,2.2c2.2,0.4,4.4,1.2,6.5,2.3c1.4,0.8,2.6,1.9,3.4,3.4c1.6,3.4,1.6,7.1-0.1,10.5c-1.2,1.5-2.6,2.9-4.1,3.4
		c-1.9,0.8-4.4,1.2-6.5,1.2c-3.8,0-6.7-1-8.7-2.7C71.9,36.6,70.6,33.7,70.5,30.6"/>
	<path class="st0" d="M109.6,17.6v4.9h-4v9.5c0,1.2,0,2.2,0.1,3.4c0,0.4,0.1,0.5,0.5,0.8c0.1,0.1,0.5,0.4,1,0.4
		c0.8,0,1.6-0.1,2.2-0.5L110,41c-1.4,0.5-3,1-4.5,1c-1,0-1.9-0.1-2.7-0.5c-0.8-0.4-1.4-0.8-1.8-1.4c-0.4-0.8-0.8-1.6-0.8-2.3
		c-0.4-1.6-0.4-3-0.4-4.5V23h-2.6V18h2.6v-5l5.7-3.5v8.3h4.1V17.6z"/>
	<path class="st0" d="M125.3,30.2c-0.8,0.1-1.9,0.5-3.4,1c-1.2,0.1-2.2,0.5-3.1,1c-0.8,0.4-1.2,1.4-1.2,2.2s0.4,1.8,1,2.3
		c0.5,0.5,1.4,1,2.3,1c1,0,2.2-0.4,3-1.2c0.5-0.5,1.2-1.2,1.4-1.9c0.1-1,0.1-1.9,0.1-3L125.3,30.2z M117.7,25l-5.2-1
		c0.4-1.9,1.4-3.8,3-5.2c1.8-1.2,4.1-1.8,6.3-1.6c1.9-0.1,4,0.1,5.7,1c1.2,0.5,1.9,1.4,2.6,2.3c0.5,1.8,0.8,3.8,0.8,5.6v7.4
		c0,1.6,0,3.1,0.1,4.5c0.1,1,0.5,2.2,1,3.1h-5.6c-0.1-0.4-0.4-1-0.5-1.8c-0.1-0.4-0.1-0.5-0.1-0.8c-0.8,1-1.9,1.8-3.1,2.3
		c-1.2,0.5-2.3,0.8-3.5,0.8c-1.9,0.1-3.8-0.5-5.3-1.9c-1.4-1.4-1.9-3.1-1.9-4.9c0-1.2,0.1-2.3,0.8-3.5c0.5-1,1.4-1.8,2.3-2.3
		c1.4-0.5,3-1.2,4.5-1.4c1.9-0.4,3.8-0.8,5.6-1.6v-0.5c0-1-0.1-1.8-0.8-2.6c-1-0.5-1.9-1-3.1-0.8c-0.8,0-1.8,0.1-2.3,0.5
		C118.5,23.2,118.1,24,117.7,25"/>
	<path class="st0" d="M156.1,41.2h-5.7V29.4c0-1.6,0-3.4-0.4-4.9c-0.1-0.5-0.5-1.4-1.2-1.8c-0.5-0.4-1.2-0.5-1.9-0.5
		c-1,0-1.8,0.4-2.6,0.8c-0.8,0.5-1.4,1.4-1.6,2.3c-0.4,1.8-0.5,3.5-0.4,5.3v10.6h-5.7V17.6h5.3V21c1.6-2.3,4.1-4,7.1-4
		c1.2,0,2.3,0.1,3.4,0.8c1,0.4,1.8,1,2.3,1.9c0.5,0.8,1,1.6,1.2,2.6c0.1,1.4,0.4,2.7,0.4,4.1L156.1,41.2z"/>
	<path class="st0" d="M166.5,29.1c-0.1,1.8,0.1,3.8,1,5.6c0.8,1.6,2.2,2.3,4,2.3c1.4,0,2.6-0.8,3.4-1.8c1-1.6,1.6-3.5,1.4-5.6
		c0-2.7-0.4-4.8-1.4-5.9c-1.4-1.9-4-2.3-5.7-1c-0.4,0.1-0.8,0.5-1,1C166.9,25.4,166.2,27.2,166.5,29.1 M181.6,41.2h-5.3v-3.4
		c-0.8,1.2-1.8,2.3-3.1,3c-1.2,0.5-2.3,1-3.5,1c-2.6,0-4.9-1.2-6.3-3.4c-1.8-2.2-2.6-5.2-2.6-9.1s0.8-7,2.6-9.1
		c1.6-1.9,4-3.1,6.5-3.1s4.8,1.2,6.3,3.4V8.8h5.7L181.6,41.2z"/>
	<path class="st0" d="M199.2,30.2c-0.8,0.1-1.9,0.5-3.4,1c-1,0.1-2.2,0.5-3.1,1c-0.8,0.5-1.2,1.4-1.2,2.2s0.4,1.8,1,2.3
		c0.5,0.5,1.4,1,2.3,1s2.2-0.4,3-1.2c0.5-0.5,1.2-1.2,1.4-1.9c0.1-1,0.1-1.9,0.1-3V30.2z M191.6,25l-5.2-1c0.4-1.9,1.4-3.8,3-5.2
		c1.9-1.2,4.1-1.8,6.3-1.6c1.9-0.1,4,0.1,5.7,1c1.2,0.5,1.9,1.4,2.6,2.3c0.5,1.8,1,3.8,0.8,5.6v7.4c0,1.6,0,3.1,0.1,4.5
		c0.1,1,0.5,2.2,1,3.1h-5.7c-0.1-0.5-0.4-1.2-0.5-1.8c0-0.4-0.1-0.5-0.1-0.8c-0.8,1-1.9,1.8-3.1,2.3c-1.2,0.5-2.3,0.8-3.5,0.8
		c-1.9,0.1-3.8-0.5-5.3-1.9c-1.4-1.4-1.9-3.1-1.9-4.9c0-1.2,0.1-2.3,0.8-3.5c0.5-1,1.4-1.8,2.3-2.3c1.4-0.5,3-1.2,4.5-1.4
		c1.9-0.4,3.8-0.8,5.6-1.6v-0.5c0-1-0.1-1.8-0.8-2.6c-1-0.5-1.9-0.8-3.1-0.8c-0.8,0-1.8,0.1-2.3,0.5C192.1,23.2,191.7,24,191.6,25"
		/>
	<path class="st0" d="M215.9,41.2h-5.7V17.6h5.3V21c0.5-1.2,1.4-2.2,2.3-3.1c0.8-0.4,1.6-0.8,2.3-0.8c1.4,0,2.6,0.4,3.8,1.2
		l-1.8,5.3c-0.8-0.5-1.8-1-2.6-1c-0.8,0-1.4,0.1-1.9,0.8c-0.5,0.8-1.2,1.6-1.4,2.6c-0.4,2.6-0.5,5.3-0.4,7.9V41.2z"/>
	<path class="st0" d="M231,29.1c-0.1,1.8,0.1,3.8,1,5.6c0.8,1.6,2.2,2.3,4,2.3c1.4,0,2.6-0.8,3.4-1.8c1-1.6,1.6-3.5,1.4-5.6
		c0-2.7-0.4-4.5-1.4-5.9c-1.4-1.9-4-2.3-5.9-1c-0.4,0.1-0.8,0.5-1,1C231.4,25.4,231,27.2,231,29.1 M246.3,41.2H241v-3.4
		c-0.8,1.2-1.8,2.3-3.1,3c-1.2,0.5-2.3,1-3.5,1c-2.6,0-4.9-1.2-6.3-3.4c-1.8-2.2-2.6-5.2-2.6-9.1s0.8-7,2.6-9.1
		c1.6-1.9,4-3.1,6.5-3.1c2.6,0,4.8,1.2,6.3,3.4V8.8h5.7L246.3,41.2z"/>
	<path class="st0" d="M269.6,27.2v8.7h5.6c1.4,0,2.7,0,4.1-0.1c0.8-0.1,1.6-0.5,2.2-1.4s1-1.8,0.8-2.7c0-0.8-0.1-1.8-0.5-2.6
		c-0.4-0.5-1.2-1.2-1.8-1.4c-1.8-0.4-3.5-0.5-5.3-0.4L269.6,27.2z M269.6,14.1v7.5h4c2.3,0,3.8,0,4.4-0.1c1,0,1.8-0.4,2.3-1.2
		c0.5-0.8,1-1.6,0.8-2.6c0-0.8-0.1-1.8-0.8-2.3c-0.5-0.5-1.4-1.2-2.3-1.2c-0.5,0-2.3-0.1-5.2-0.1L269.6,14.1z M263.6,8.8h11.9
		c1.8,0,3.5,0,5.3,0.4c1.2,0.1,2.2,0.5,3.1,1.4c1,0.8,1.8,1.6,2.3,2.7s1,2.6,1,3.8c0,1.4-0.4,3-1.2,4.1c-0.8,1.2-1.8,2.2-3,2.7
		c1.8,0.4,3.1,1.6,4.1,3s1.6,3.1,1.4,4.9c0,1.6-0.4,3-1,4.4s-1.4,2.3-2.6,3.4c-1.2,0.8-2.6,1.4-4,1.6c-1,0.1-3.4,0.1-7.4,0.1h-10.1
		V8.8H263.6z"/>
	<path class="st0" d="M305.3,30.2c-0.8,0.1-1.9,0.5-3.4,1c-1.2,0.1-2.2,0.5-3.1,1c-0.8,0.5-1.2,1.4-1.2,2.2s0.4,1.8,1,2.3
		c0.5,0.5,1.4,1,2.3,1s2.2-0.4,3-1.2c0.5-0.5,1.2-1.2,1.4-1.9c0.1-1,0.1-1.9,0.1-3V30.2z M297.7,25l-5.2-1c0.4-1.9,1.4-3.8,3-5.2
		c1.8-1.2,4.1-1.8,6.3-1.6c1.9-0.1,4,0.1,5.7,1c1.2,0.5,1.9,1.4,2.6,2.3c0.5,1.8,1,3.8,0.8,5.6v7.4c0,1.6,0,3.1,0.1,4.5
		c0.1,1,0.5,2.2,1,3.1h-5.7c-0.1-0.4-0.4-1-0.5-1.8c0-0.4-0.1-0.5-0.1-0.8c-0.8,1-1.9,1.8-3.1,2.3c-1.2,0.5-2.3,0.8-3.5,0.8
		c-1.9,0.1-3.8-0.5-5.3-1.9c-1.4-1.4-1.9-3.1-1.9-4.9c0-1.2,0.1-2.3,0.8-3.5c0.5-1,1.4-1.8,2.3-2.3c1.4-0.5,3-1.2,4.5-1.4
		c1.9-0.4,3.8-0.8,5.6-1.6v-0.5c0-1-0.1-1.8-0.8-2.6c-1-0.5-1.9-1-3.1-0.8c-0.8,0-1.8,0.1-2.3,0.5C298.4,23.2,298.1,24,297.7,25"/>
	<path class="st0" d="M336.1,41.2h-5.7V29.4c0-1.6,0-3.4-0.4-4.9c-0.1-0.5-0.5-1.4-1.2-1.8c-0.5-0.4-1.2-0.5-1.9-0.5
		c-1,0-1.8,0.4-2.6,0.8c-0.8,0.5-1.4,1.4-1.6,2.3c-0.4,1.8-0.5,3.5-0.4,5.3v10.6h-5.7V17.6h5.3V21c1.6-2.3,4.1-4,7.1-4
		c1.2,0,2.3,0.1,3.4,0.8c1,0.4,1.8,1,2.3,1.9c0.5,0.8,1,1.6,1.2,2.6c0.1,1.4,0.4,2.7,0.4,4.1L336.1,41.2z"/>
	<polygon class="st0" points="341.7,41.2 341.7,8.8 347.5,8.8 347.5,26 354.1,17.6 361.2,17.6 353.7,26.4 361.6,41.2 355.5,41.2 
		350.2,30.7 347.5,33.7 347.5,41.2 	"/>
	<polygon class="st0" points="376.9,41.2 376.9,9.2 382.8,9.2 382.8,35.6 397.8,35.6 397.8,41.2 	"/>
	<path class="st0" d="M402,17.6h5.7v23.5H402V17.6z M402,8.8h5.7v5.7H402V8.8z"/>
	<path class="st0" d="M413,17.6h5.3v3.1c1.6-2.2,4-3.5,6.7-3.8c1.2,0,2.6,0.1,3.5,1c1,0.5,1.9,1.6,2.6,2.7c0.8-1.2,1.8-2.2,3.1-2.7
		c1-0.5,2.3-1,3.5-1c1.4,0,2.7,0.4,4,1c1.2,0.8,1.9,1.8,2.3,3.1c0.4,1.6,0.5,3.1,0.5,4.9v15H439V27.7c0.1-1.6,0-3-0.5-4.5
		c-0.5-0.8-1.4-1.4-2.3-1.4c-0.8,0-1.6,0.1-2.3,0.8c-0.8,0.5-1.2,1.4-1.6,2.3c-0.4,1.6-0.5,3.1-0.4,4.8v11.3H426V28.3
		c0-1.4,0-3-0.4-4.4c-0.1-1.2-1.4-2.2-2.7-1.9c-0.8,0-1.8,0.1-2.3,0.8c-0.5,0.5-1.2,1.4-1.4,2.2c-0.4,1.6-0.5,3.1-0.4,4.8v11.5H413
		L413,17.6z"/>
	<path class="st0" d="M450.3,17.6h5.7v23.5h-5.7V17.6z M450.3,8.8h5.7v5.7h-5.7V8.8z"/>
	<path class="st0" d="M471.8,17.6v4.9h-4v9.5c0,1.2,0,2.2,0.1,3.4c0,0.4,0.1,0.5,0.5,0.8c0.1,0.1,0.5,0.4,1,0.4
		c0.8,0,1.6-0.1,2.3-0.5l0.5,4.8c-1.4,0.5-3,1-4.5,1c-1,0-1.9-0.1-2.7-0.5c-0.8-0.4-1.4-0.8-1.8-1.4c-0.4-0.8-0.8-1.6-0.8-2.3
		c-0.1-1.4-0.1-3-0.1-4.4V22.8h-2.7v-4.9h2.6v-4.8l5.7-3.5v8.3L471.8,17.6z"/>
	<path class="st0" d="M488.6,27.6c0-1.4-0.4-3-1.4-4.1c-1.4-1.6-4-1.8-5.6-0.4c-0.1,0.1-0.4,0.4-0.5,0.5c-0.8,1.2-1.2,2.6-1.2,4
		C480,27.6,488.6,27.6,488.6,27.6z M488.3,33.9l5.7,1c-0.5,1.9-1.8,4-3.4,5.2c-1.8,1.2-3.8,1.8-5.9,1.8c-3.8,0-6.5-1.4-8.3-4
		c-1.6-2.3-2.2-5.2-2.2-8c0-4,1-7,2.7-9.3c1.8-2.2,4.4-3.4,7.1-3.4c3-0.1,5.7,1.2,7.5,3.4c1.8,2.3,2.7,5.9,2.6,10.6H480
		c0,1.6,0.4,3.1,1.4,4.4c0.8,1,1.9,1.6,3.4,1.6c0.8,0,1.6-0.1,2.3-0.8C487.6,35.6,488,34.8,488.3,33.9"/>
	<path class="st0" d="M503.4,29.1c-0.1,1.8,0.1,3.8,1,5.6c0.8,1.6,2.2,2.3,4,2.3c1.4,0,2.6-0.8,3.4-1.8c1-1.6,1.6-3.5,1.4-5.6
		c0-2.7-0.4-4.8-1.4-5.9c-1.4-1.9-4-2.3-5.9-1c-0.4,0.1-0.8,0.5-1,1C503.9,25.4,503.3,27.2,503.4,29.1 M518.7,41.2h-5.3v-3.4
		c-0.8,1.2-1.8,2.3-3.1,3c-1.2,0.5-2.3,1-3.5,1c-2.6,0-4.9-1.2-6.3-3.4c-1.8-2.2-2.6-5.2-2.6-9.1s0.8-7,2.6-9.1
		c1.6-1.9,4-3.1,6.5-3.1c2.6,0,4.8,1.2,6.3,3.4V8.8h5.7L518.7,41.2z"/>
</g>
<g>
	<path class="st0" d="M25,26c0.7,0.5,3.2,2.2,5.4,1.9s2.2-1.6,2-2.2c-0.4-0.4-0.9-0.5-1.4-0.4v1.9c-1.1,0.3-2.2,0.3-3.1-0.3v-3.5h6
		c1.1,0.1,1.8,1.2,1.5,2.3c0,0.1,0,0.1,0,0.3c-0.1,0.9-0.9,2.8-4.2,3c-2-0.1-3.9-0.8-5.5-2.2C25.4,26.7,25.1,26.4,25,26
		C24.9,26,25,26,25,26L25,26z"/>
	<path class="st0" d="M28,33.6v-4.9c0.9,0.5,2,0.8,3.1,0.8V32c0,0.3,2.2-0.1,1.8-2.6c0.3-0.1,1.9-0.7,2.2-1.5c0.3,0,1.8,1.1,0.9,3.4
		c-0.4,1.4-1.6,2.3-3,2.3H28z"/>
	<path class="st0" d="M36.4,23.8h3.5v5.4h3v4.5h-6.6v-1.4c0,0,1.4-2.3,0-4.2L36.4,23.8z"/>
	<path class="st0" d="M24.9,25.7c0.7,0.4,1.5,0.8,2.3,1.1v-3.1h-1.6l8.8-9.5c0,0,5.7-1.5,7.2,2.6c0.4,1.2,0.5,2.7-0.9,3.2
		c0-0.7-0.4-3.5-3.7-2.6c-1.2,0.5-1.8,1.9-1.5,3.1c0.3,0.7,1.6,3,4.9,2.4c0.8-0.1,4.9-0.7,5.3-5.1c0-2.3-0.9-4.5-2.4-6.1
		c-0.4-0.4-7.4-9.3-7.4-9.3l-0.5-0.5L14,23.8v9.7h13v-5.1c0,0-2.2-1.4-2.4-2.4C24.7,25.9,24.7,25.7,24.9,25.7"/>
	<path class="st0" d="M43.8,23.8h13.4v10L36.1,55.4l-8.1-10c0,0-4.1-4.3-1.6-8.7c1.1-2,5.7-3.9,8.4-1.6c0.8,0.5,2,3.2-0.1,4.5
		c-1.1,0.5-3.7,0.7-3.9-2.4c-2,0.1-2.4,7.7,6.4,5.8c0.5-0.7,8.7-9.3,8.7-9.3H44C43.8,33.6,43.8,23.8,43.8,23.8z"/>
</g>
<g>
	<path class="st1" d="M196.8,59.8l1.5-0.1c0,0.5,0.1,1.1,0.4,1.5s0.7,0.8,1.2,1c0.5,0.3,1.2,0.4,1.9,0.4c0.5,0,1.1-0.1,1.6-0.3
		c0.4-0.1,0.8-0.4,1.1-0.8c0.3-0.3,0.4-0.7,0.4-1.1s-0.1-0.7-0.3-1c-0.3-0.3-0.7-0.5-1.1-0.7c-0.7-0.3-1.5-0.4-2.2-0.5
		c-0.8-0.1-1.6-0.4-2.3-0.8c-0.5-0.3-1-0.7-1.4-1.1c-0.3-0.4-0.4-1-0.4-1.5c0-0.7,0.1-1.2,0.5-1.8c0.4-0.5,1-1,1.5-1.2
		c0.7-0.3,1.5-0.4,2.2-0.4c0.8,0,1.6,0.1,2.3,0.4c0.7,0.3,1.2,0.7,1.6,1.2c0.4,0.5,0.5,1.2,0.5,1.9l-1.6,0.1c0-0.7-0.4-1.4-0.8-1.8
		c-0.7-0.4-1.4-0.7-2.2-0.5c-0.8,0-1.5,0.1-2.2,0.5c-0.4,0.3-0.7,0.8-0.7,1.4c0,0.4,0.1,0.8,0.4,1.1c0.7,0.4,1.6,0.8,2.5,0.8
		c1,0.1,1.8,0.4,2.7,0.8c0.7,0.3,1.2,0.7,1.6,1.2c0.4,0.5,0.5,1.1,0.5,1.8c0,0.7-0.1,1.2-0.5,1.8c-0.4,0.5-1,1.1-1.6,1.4
		s-1.5,0.5-2.3,0.5c-1,0-1.9-0.1-2.7-0.5c-0.7-0.3-1.4-0.8-1.8-1.5C196.9,61.3,196.8,60.5,196.8,59.8z"/>
	<path class="st1" d="M208.5,63.7V51.5h1.5v4.4c0.7-0.8,1.6-1.2,2.6-1.2c0.5,0,1.2,0.1,1.8,0.4c0.4,0.3,0.8,0.5,1,1.1
		c0.3,0.7,0.4,1.4,0.3,2v5.6h-1.5v-5.6c0-0.5-0.1-1.2-0.5-1.6c-0.4-0.4-0.8-0.5-1.4-0.5c-0.4,0-0.8,0.1-1.2,0.4
		c-0.4,0.3-0.7,0.5-0.8,1c-0.1,0.5-0.3,1.1-0.3,1.6v4.9L208.5,63.7z"/>
	<path class="st1" d="M223.9,62.6c-0.4,0.4-1,0.8-1.6,1c-0.5,0.1-1.1,0.3-1.6,0.3c-0.8,0-1.6-0.1-2.3-0.7c-0.5-0.4-0.8-1.1-0.8-1.8
		c0-0.4,0.1-0.8,0.3-1.2c0.1-0.4,0.4-0.7,0.8-0.8c0.3-0.3,0.7-0.4,1.1-0.5c0.4-0.1,1-0.1,1.4-0.3c1-0.1,1.8-0.3,2.7-0.5
		c0-0.3,0-0.3,0-0.4c0-0.4-0.1-1-0.4-1.2c-0.5-0.4-1.1-0.5-1.8-0.5c-0.5,0-1.1,0.1-1.6,0.4c-0.4,0.3-0.7,0.8-0.8,1.4l-1.4-0.3
		c0.1-0.5,0.3-1.1,0.7-1.5c0.4-0.4,0.8-0.7,1.4-1c0.7-0.3,1.4-0.3,2-0.3s1.2,0.1,1.8,0.3c0.8,0.3,1.4,0.8,1.5,1.6
		c0,0.4,0.1,1,0.1,1.4v2c0,1,0,1.8,0.1,2.6c0,0.4,0.1,0.7,0.4,1.1h-1.6C223.9,63.3,223.9,62.9,223.9,62.6z M223.8,59.2
		c-0.8,0.3-1.6,0.4-2.5,0.5c-0.4,0-0.8,0.1-1.4,0.3c-0.7,0.3-1,1.1-0.7,1.8c0.1,0.1,0.1,0.4,0.4,0.5c0.4,0.3,0.8,0.4,1.4,0.4
		s1.1-0.1,1.5-0.4c0.4-0.3,0.8-0.5,1-1.1c0.1-0.5,0.3-1,0.3-1.5V59.2z"/>
	<path class="st1" d="M227.6,63.7v-8.9h1.4v1.4c0.3-0.5,0.5-1,1-1.2c0.3-0.1,0.7-0.3,1-0.3c0.5,0,1.1,0.1,1.5,0.5l-0.5,1.4
		c-0.3-0.3-0.7-0.3-1.1-0.3c-0.3,0-0.7,0.1-1,0.3c-0.3,0.1-0.4,0.5-0.5,0.8c-0.1,0.5-0.3,1.2-0.3,1.8v4.6L227.6,63.7z"/>
	<path class="st1" d="M233.3,53.2v-1.8h1.5v1.8H233.3z M233.3,63.7v-8.9h1.5v8.9H233.3z"/>
	<path class="st1" d="M246.8,62.6c-0.4,0.4-1,0.8-1.6,1c-0.5,0.1-1.1,0.3-1.6,0.3c-0.8,0-1.6-0.1-2.3-0.7c-0.5-0.4-0.8-1.1-0.8-1.8
		c0-0.8,0.4-1.6,1.1-2c0.3-0.3,0.7-0.4,1.1-0.5c0.4-0.1,1-0.1,1.4-0.3c1-0.1,1.8-0.3,2.7-0.5c0-0.3,0-0.3,0-0.4c0-0.4-0.1-1-0.4-1.2
		c-0.5-0.4-1.1-0.5-1.8-0.5c-0.5,0-1.1,0.1-1.6,0.4c-0.4,0.3-0.7,0.8-0.8,1.4l-1.4-0.3c0.1-0.5,0.3-1.1,0.7-1.5s0.8-0.7,1.4-1
		c0.7-0.3,1.4-0.3,1.9-0.3c0.7,0,1.2,0.1,1.8,0.3c0.8,0.3,1.4,0.8,1.5,1.6c0,0.4,0.1,1,0.1,1.4v2c0,1,0,1.8,0.1,2.6
		c0,0.4,0.1,0.7,0.4,1.1h-1.5C247,63.3,246.8,62.9,246.8,62.6z M246.7,59.2c-0.8,0.3-1.6,0.4-2.5,0.5c-0.4,0-0.8,0.1-1.4,0.3
		c-0.3,0.1-0.4,0.3-0.5,0.5c-0.1,0.3-0.3,0.4-0.3,0.7c0,0.4,0.1,0.8,0.4,1c0.4,0.3,0.8,0.4,1.4,0.4s1.1-0.1,1.5-0.4
		c0.4-0.3,0.8-0.5,1-1.1c0.1-0.5,0.3-1,0.3-1.5v-0.4C246.5,59.2,246.7,59.2,246.7,59.2z"/>
	<path class="st1" d="M250.5,63.7V51.5h1.5v4.4c0.7-0.8,1.6-1.2,2.6-1.2c0.5,0,1.2,0.1,1.8,0.4c0.4,0.3,0.8,0.7,1.1,1.1
		c0.3,0.7,0.4,1.4,0.3,2v5.6h-1.5v-5.6c0-0.5-0.1-1.2-0.5-1.6c-0.4-0.4-0.8-0.5-1.4-0.5c-0.4,0-0.8,0.1-1.2,0.4
		c-0.4,0.3-0.7,0.5-0.8,1c-0.1,0.5-0.3,1.1-0.3,1.6v4.9L250.5,63.7z"/>
	<path class="st1" d="M266.6,63.7V51.5h4.6c0.8,0,1.5,0.1,2.3,0.4c0.5,0.3,1,0.7,1.4,1.1c0.3,0.4,0.4,1.1,0.5,1.6
		c0,0.5-0.1,1.1-0.4,1.5c-0.3,0.5-0.8,1-1.2,1.1c0.7,0.1,1.2,0.5,1.8,1.1c0.4,0.5,0.5,1.2,0.5,1.9c0,0.5-0.1,1.1-0.4,1.6
		c-0.3,0.4-0.5,0.8-1,1.1c-0.4,0.3-0.8,0.5-1.4,0.5c-0.7,0.1-1.4,0.3-1.9,0.3H266.6z M268.1,56.5h2.6c0.5,0,1.1,0,1.5-0.1
		c0.4-0.1,0.7-0.3,1-0.5c0.3-0.3,0.3-0.7,0.3-1.1c0-0.4-0.1-0.7-0.3-1.1c-0.1-0.3-0.5-0.5-0.8-0.7c-0.5-0.1-1.2-0.1-1.9-0.1H268
		L268.1,56.5z M268.1,62.2h3c0.4,0,0.7,0,1.1,0c0.3,0,0.7-0.1,1-0.4c0.3-0.1,0.5-0.4,0.7-0.7c0.1-0.3,0.3-0.7,0.3-1.1
		s-0.1-0.8-0.4-1.2c-0.3-0.3-0.5-0.5-1-0.7c-0.5-0.1-1.2-0.3-1.8-0.3h-2.9L268.1,62.2L268.1,62.2z"/>
	<path class="st1" d="M283.6,62.6c-0.4,0.4-1,0.8-1.6,1c-0.5,0.1-1.1,0.3-1.6,0.3c-0.8,0-1.6-0.1-2.3-0.7c-0.5-0.4-0.8-1.1-0.8-1.8
		c0-0.8,0.4-1.6,1.1-2c0.3-0.3,0.7-0.4,1.1-0.5c0.4-0.1,1-0.1,1.4-0.3c1-0.1,1.8-0.3,2.7-0.5c0-0.3,0-0.3,0-0.4c0-0.4-0.1-1-0.4-1.2
		c-0.5-0.4-1.1-0.5-1.8-0.5c-0.5,0-1.1,0.1-1.6,0.4c-0.4,0.3-0.7,0.8-0.8,1.4l-1.5-0.3c0.1-0.5,0.3-1.1,0.7-1.5s0.8-0.7,1.4-1
		c0.7-0.3,1.4-0.3,2-0.3c0.7,0,1.2,0.1,1.9,0.3c0.8,0.3,1.4,1,1.5,1.6c0,0.4,0.1,1,0.1,1.4v2c0,1,0,1.8,0.1,2.6
		c0,0.4,0.1,0.7,0.4,1.1h-1.6C283.8,63.3,283.6,62.9,283.6,62.6z M283.5,59.2c-0.8,0.3-1.6,0.4-2.5,0.5c-0.4,0-0.8,0.1-1.4,0.3
		c-0.3,0.1-0.4,0.3-0.5,0.5c-0.1,0.3-0.3,0.4-0.3,0.7c0,0.4,0.1,0.8,0.4,1c0.4,0.3,0.8,0.4,1.4,0.4s1.1-0.1,1.5-0.4
		c0.4-0.3,0.8-0.5,1-1.1c0.1-0.5,0.3-1,0.3-1.5L283.5,59.2L283.5,59.2z"/>
	<path class="st1" d="M286.8,61l1.5-0.3c0,0.5,0.3,1,0.7,1.4c0.4,0.3,1,0.5,1.6,0.4c0.5,0,1.1-0.1,1.5-0.4c0.3-0.3,0.5-0.5,0.5-1
		c0-0.3-0.1-0.7-0.4-0.8c-0.5-0.3-1-0.4-1.5-0.5c-0.8-0.1-1.5-0.4-2.3-0.7c-0.4-0.1-0.7-0.4-1-0.8c-0.4-0.7-0.4-1.6,0-2.3
		c0.1-0.3,0.4-0.7,0.7-0.8c0.3-0.1,0.7-0.4,1-0.4c0.4-0.1,0.8-0.1,1.2-0.1c0.7,0,1.2,0.1,1.8,0.3c0.4,0.1,0.8,0.4,1.2,0.8
		c0.3,0.4,0.4,0.8,0.5,1.4l-1.5,0.1c0-0.4-0.3-0.8-0.5-1.1c-0.4-0.3-0.8-0.4-1.4-0.4s-1.1,0.1-1.5,0.4c-0.3,0.1-0.4,0.4-0.4,0.8
		c0,0.1,0,0.4,0.1,0.5c0.1,0.1,0.4,0.3,0.5,0.4c0.1,0,0.5,0.1,1.4,0.4c0.8,0.1,1.5,0.4,2.2,0.7c0.8,0.3,1.4,1.2,1.4,2
		c0,0.5-0.1,1-0.4,1.4c-0.3,0.4-0.8,0.8-1.2,1.1c-0.5,0.3-1.2,0.4-1.9,0.4c-1,0-1.9-0.1-2.6-0.7C287.3,62.6,286.9,61.8,286.8,61z"/>
	<path class="st1" d="M302,60.9l1.6,0.1c-0.1,0.8-0.7,1.6-1.4,2.2c-1.8,1.1-4.1,1-5.6-0.4c-0.8-1-1.2-2.2-1.1-3.4
		c-0.1-1.2,0.3-2.5,1.1-3.4c0.8-0.8,1.9-1.2,3-1.2c1.1,0,2.2,0.4,2.9,1.2c0.8,1,1.2,2.2,1.1,3.4c0,0.1,0,0.3,0,0.4H297
		c0,0.8,0.3,1.6,0.8,2.3c0.4,0.5,1.1,0.8,1.9,0.8c0.5,0,1-0.1,1.4-0.4C301.5,61.8,301.9,61.4,302,60.9z M297,58.4h4.9
		c0-0.5-0.3-1.2-0.5-1.6c-0.4-0.5-1.1-0.8-1.9-0.8c-0.7,0-1.2,0.3-1.8,0.7C297.4,57,297.1,57.7,297,58.4L297,58.4z"/>
	<path class="st1" d="M311.2,63.7v-1.1c-0.5,0.8-1.5,1.4-2.5,1.4c-0.7,0-1.4-0.1-1.9-0.5c-0.5-0.4-1.1-1-1.4-1.6
		c-0.3-0.7-0.5-1.5-0.5-2.3c0-0.8,0.1-1.6,0.4-2.3c0.3-0.7,0.7-1.4,1.4-1.8c0.5-0.4,1.2-0.5,1.9-0.5c1,0,1.9,0.4,2.5,1.2v-4.4h1.5
		V64h-1.4V63.7L311.2,63.7z M306.4,59.2c-0.1,1,0.1,1.8,0.7,2.6c0.4,0.5,1.1,0.8,1.6,0.8c0.7,0,1.2-0.3,1.6-0.8
		c0.5-0.7,0.8-1.6,0.7-2.5c0.1-1-0.1-1.9-0.7-2.7c-0.4-0.5-1.1-0.8-1.8-0.8c-0.7,0-1.2,0.3-1.6,0.8
		C306.5,57.5,306.4,58.3,306.4,59.2z"/>
	<path class="st1" d="M320.2,63.7V51.5h1.6v12.3H320.2z"/>
	<path class="st1" d="M323.9,61l1.5-0.3c0,0.5,0.3,1,0.7,1.4c0.4,0.3,1,0.5,1.6,0.4c0.5,0,1.1-0.1,1.5-0.4c0.3-0.3,0.5-0.5,0.5-1
		c0-0.3-0.1-0.7-0.4-0.8c-0.5-0.3-1-0.4-1.5-0.5c-0.8-0.1-1.5-0.4-2.3-0.7c-0.4-0.1-0.7-0.4-1-0.8c-0.3-0.4-0.4-0.8-0.4-1.2
		s0.1-0.8,0.3-1.1s0.4-0.7,0.7-0.8c0.3-0.1,0.7-0.4,1-0.4c0.4-0.1,0.8-0.1,1.4-0.1c0.7,0,1.2,0.1,1.8,0.3c0.4,0.1,0.8,0.4,1.2,0.8
		c0.3,0.4,0.4,0.8,0.5,1.4l-1.5,0.1c0-0.4-0.3-0.8-0.5-1.1c-0.4-0.3-0.8-0.4-1.4-0.4s-1.1,0.1-1.5,0.4c-0.3,0.1-0.4,0.4-0.4,0.8
		c0,0.1,0,0.4,0.1,0.5c0.1,0.1,0.4,0.3,0.5,0.4c0.1,0,0.5,0.1,1.4,0.4c0.8,0.1,1.5,0.4,2.2,0.7c1,0.3,1.5,1.2,1.4,2.2
		c0,0.5-0.1,1-0.4,1.4c-0.3,0.4-0.8,0.8-1.2,1.1c-0.5,0.3-1.2,0.4-1.9,0.4c-1,0-1.9-0.1-2.6-0.7C324.4,62.6,324,61.8,323.9,61z"/>
	<path class="st1" d="M333,63.7V51.5h1.5v12.3H333z"/>
	<path class="st1" d="M342.7,62.6c-0.4,0.4-1,0.8-1.6,1c-0.5,0.1-1.1,0.3-1.6,0.3c-0.8,0-1.6-0.1-2.2-0.7c-0.5-0.4-0.8-1.1-0.8-1.8
		c0-0.4,0.1-0.8,0.3-1.2c0.1-0.4,0.4-0.7,0.8-0.8c0.3-0.3,0.7-0.4,1.1-0.5c0.4-0.1,0.8-0.1,1.4-0.3c1-0.1,1.8-0.3,2.7-0.5
		c0-0.3,0-0.3,0-0.4c0-0.4-0.1-1-0.4-1.2c-0.5-0.4-1.1-0.5-1.8-0.5c-0.5,0-1.1,0.1-1.6,0.4c-0.4,0.3-0.7,0.8-0.7,1.4l-1.5-0.3
		c0.1-0.5,0.3-1.1,0.7-1.5s0.8-0.7,1.4-1c0.7-0.3,1.4-0.3,2-0.3s1.2,0.1,1.9,0.3c0.8,0.3,1.4,1,1.5,1.6c0,0.4,0.1,1,0.1,1.4v2
		c0,1,0,1.8,0.1,2.6c0,0.4,0.1,0.7,0.4,1.1h-1.6C342.7,63.3,342.7,62.9,342.7,62.6z M342.5,59.2c-0.8,0.3-1.6,0.4-2.5,0.5
		c-0.4,0-1,0.1-1.4,0.3c-0.3,0.1-0.4,0.3-0.5,0.5c-0.4,0.5-0.3,1.2,0.3,1.8c0.4,0.3,0.8,0.4,1.4,0.4s1.1-0.1,1.5-0.4
		c0.4-0.3,0.8-0.5,1-1.1c0.1-0.5,0.3-1,0.3-1.5V59.2z"/>
	<path class="st1" d="M346.4,63.7v-8.9h1.4v1.2c0.5-1,1.6-1.5,2.7-1.5c0.5,0,1.1,0.1,1.6,0.4c0.4,0.3,0.7,0.7,1,1.1
		c0.5-1,1.6-1.6,2.7-1.6c0.7,0,1.5,0.3,2,0.7c0.5,0.7,0.8,1.5,0.7,2.3v6.1H357V58c0-0.4,0-0.8-0.1-1.4c-0.1-0.3-0.3-0.5-0.5-0.7
		c-0.3-0.1-0.5-0.3-1-0.3c-0.5,0-1.2,0.1-1.6,0.7c-0.4,0.5-0.7,1.2-0.7,2v5.2h-1.5v-5.7c0-0.5-0.1-1.1-0.4-1.5
		c-0.3-0.4-0.7-0.5-1.2-0.5c-0.4,0-0.8,0.1-1.2,0.3c-0.4,0.3-0.7,0.5-0.8,1c-0.1,0.5-0.3,1.2-0.3,1.9v4.6L346.4,63.7z"/>
	<path class="st1" d="M360.7,53.2v-1.8h1.5v1.8H360.7z M360.7,63.7v-8.9h1.5v8.9H360.7z"/>
	<path class="st1" d="M369.3,63.7V51.5h4.6c0.8,0,1.5,0.1,2.3,0.4c0.5,0.3,1,0.7,1.4,1.1c0.3,0.4,0.4,1.1,0.4,1.6
		c0,0.5-0.1,1.1-0.4,1.5c-0.3,0.5-0.8,1-1.4,1.1c0.7,0.1,1.2,0.5,1.8,1.1c0.4,0.5,0.5,1.2,0.5,1.9c0,0.5-0.1,1.1-0.4,1.6
		c-0.1,0.4-0.5,0.8-1,1.1c-0.4,0.3-0.8,0.5-1.4,0.5c-0.7,0.1-1.4,0.3-1.9,0.3H369.3z M370.9,56.5h2.6c0.5,0,1.1,0,1.5-0.1
		c0.4-0.1,0.7-0.3,1-0.5c0.3-0.3,0.3-0.7,0.3-1.1c0-0.4-0.1-0.8-0.3-1.1c-0.1-0.3-0.4-0.5-0.8-0.7c-0.5-0.1-1.2-0.1-1.9-0.1h-2.5
		v3.7H370.9z M370.9,62.2h3c0.4,0,0.7,0,1.1,0c0.3,0,0.7-0.1,1-0.4c0.3-0.1,0.4-0.4,0.7-0.7c0.1-0.3,0.3-0.7,0.3-1.1
		s-0.1-0.8-0.4-1.2c-0.3-0.3-0.5-0.5-1-0.7c-0.5-0.1-1.2-0.3-1.8-0.3h-2.9L370.9,62.2L370.9,62.2z"/>
	<path class="st1" d="M386.3,62.6c-0.4,0.4-1,0.8-1.6,1c-0.5,0.1-1.1,0.3-1.6,0.3c-0.8,0-1.6-0.1-2.2-0.7c-0.5-0.4-0.8-1.1-0.8-1.8
		c0-0.4,0.1-0.8,0.3-1.2c0.1-0.4,0.4-0.7,0.8-0.8c0.3-0.3,0.7-0.4,1.1-0.5c0.4-0.1,0.8-0.1,1.4-0.3c1-0.1,1.8-0.3,2.7-0.5
		c0-0.3,0-0.3,0-0.4c0-0.4-0.1-1-0.4-1.2c-0.5-0.4-1.1-0.5-1.8-0.5c-0.5,0-1.1,0.1-1.6,0.4c-0.4,0.3-0.7,0.8-0.7,1.4l-1.5-0.3
		c0.1-0.5,0.3-1.1,0.7-1.5s0.8-0.7,1.4-1c0.7-0.3,1.4-0.3,2-0.3c0.7,0,1.2,0.1,1.9,0.3c0.8,0.3,1.4,0.8,1.5,1.6c0,0.4,0.1,1,0.1,1.4
		v2c0,1,0,1.8,0.1,2.6c0.1,0.4,0.1,0.7,0.4,1.1h-1.6C386.6,63.3,386.5,62.9,386.3,62.6z M386.3,59.2c-0.8,0.3-1.6,0.4-2.5,0.5
		c-0.4,0-1,0.1-1.4,0.3c-0.3,0.1-0.4,0.3-0.5,0.5c-0.4,0.5-0.3,1.2,0.3,1.8c0.4,0.3,0.8,0.4,1.4,0.4s1.1-0.1,1.5-0.4
		c0.4-0.3,0.8-0.5,1-1.1c0.1-0.5,0.3-1,0.3-1.5L386.3,59.2L386.3,59.2z"/>
	<path class="st1" d="M390.1,63.7v-8.9h1.4v1.2c0.5-1,1.6-1.5,2.9-1.5c0.5,0,1,0.1,1.5,0.3c0.4,0.1,0.8,0.4,1,0.8
		c0.3,0.3,0.4,0.7,0.4,1.1c0.1,0.5,0.1,1,0.1,1.5v5.5h-1.5v-5.5c0-0.4,0-1-0.1-1.4c-0.1-0.3-0.3-0.5-0.7-0.7
		c-0.3-0.1-0.7-0.3-1.1-0.3c-0.5,0-1.2,0.3-1.6,0.5c-0.5,0.7-0.8,1.5-0.7,2.3v4.9H390.1z"/>
	<path class="st1" d="M399.7,63.7V51.5h1.5v7l3.5-3.5h1.9l-3.4,3.3l3.7,5.6H405l-3-4.5l-1.1,1.1v3.5L399.7,63.7z"/>
	<path class="st1" d="M239.3,55.7c0,0.4-0.1,0.7-0.4,1c-0.3,0.3-0.5,0.4-1,0.4s-0.8-0.1-1.1-0.5c-0.3-0.4-0.4-0.8-0.4-1.2
		c0-0.7,0.3-1.2,0.5-1.8c0.4-0.5,1-1,1.5-1.1l0.3,0.4c-0.7,0.4-1.2,1.1-1.4,1.9c0.1-0.1,0.4-0.3,0.7-0.3
		C238.9,54.5,239.3,54.9,239.3,55.7z"/>
</g>
</svg>
