<svg id="Layer_1" data-name="Layer 1" xmlns="http://www.w3.org/2000/svg" viewBox="0 0 456 76.57"><defs><style>.cls-1,.cls-2{fill:#ccc;}.cls-1{fill-rule:evenodd;}</style></defs><title>StandardBankLtd</title><path class="cls-1" d="M79.4,45.63l5.09-.52a7,7,0,0,0,1.85,4.09,5.33,5.33,0,0,0,3.78,1.31,5.44,5.44,0,0,0,3.79-1.17,3.59,3.59,0,0,0,1.27-2.71,2.74,2.74,0,0,0-.53-1.7,4.27,4.27,0,0,0-1.87-1.23c-.61-.23-2-.63-4.16-1.22-2.78-.76-4.74-1.69-5.86-2.79A7.89,7.89,0,0,1,81.51,30a7.12,7.12,0,0,1,3.22-2.85,12,12,0,0,1,5.08-1q4.84,0,7.31,2.33a8.65,8.65,0,0,1,2.58,6.23l-5.25.21A4.93,4.93,0,0,0,93,31.84a4.9,4.9,0,0,0-3.28-.95,5.58,5.58,0,0,0-3.54,1,2.13,2.13,0,0,0-.83,1.75,2.23,2.23,0,0,0,.78,1.7c.65.59,2.25,1.22,4.78,1.88a23.72,23.72,0,0,1,5.62,2,7.53,7.53,0,0,1,2.84,2.87,9.67,9.67,0,0,1-.2,9.07,7.63,7.63,0,0,1-3.49,3.15,13.52,13.52,0,0,1-5.63,1q-4.91,0-7.53-2.49a11.33,11.33,0,0,1-3.14-7.26" transform="translate(-13.49 -9.93)"/><path class="cls-1" d="M113.42,34.42v4.31h-3.37V47a21.45,21.45,0,0,0,.1,2.94,1.15,1.15,0,0,0,.43.69,1.25,1.25,0,0,0,.82.27,5.6,5.6,0,0,0,1.94-.52l.45,4.18a9.05,9.05,0,0,1-3.89.81,5.68,5.68,0,0,1-2.41-.5,3.57,3.57,0,0,1-1.57-1.27,5.5,5.5,0,0,1-.69-2.12,28,28,0,0,1-.16-3.82v-9h-2.29V34.42h2.29V30.37l5-3.17v7.22Z" transform="translate(-13.49 -9.93)"/><path class="cls-1" d="M127.23,45.16c-.64.23-1.65.5-3,.83a8.71,8.71,0,0,0-2.71.93,2.29,2.29,0,0,0-1,1.9,2.74,2.74,0,0,0,.78,2,2.61,2.61,0,0,0,2,.83,4.1,4.1,0,0,0,2.56-1A3.41,3.41,0,0,0,127,48.86a11.43,11.43,0,0,0,.2-2.63Zm-6.7-4.41-4.46-.88a7.8,7.8,0,0,1,2.62-4.43A8.93,8.93,0,0,1,124.2,34a11,11,0,0,1,5,.86A5,5,0,0,1,131.44,37a12,12,0,0,1,.66,4.83l0,6.3a23.66,23.66,0,0,0,.24,4,12.3,12.3,0,0,0,.9,2.74h-4.93c-.13-.36-.29-.87-.47-1.57-.09-.31-.14-.51-.18-.62a9.07,9.07,0,0,1-2.72,2,7.26,7.26,0,0,1-3.1.67,6.13,6.13,0,0,1-4.57-1.7,5.94,5.94,0,0,1-1.67-4.32,6.14,6.14,0,0,1,.76-3.08,5.18,5.18,0,0,1,2.13-2.07,16.06,16.06,0,0,1,4-1.26,25.33,25.33,0,0,0,4.83-1.32v-.55a3,3,0,0,0-.71-2.25,4,4,0,0,0-2.7-.67,3.3,3.3,0,0,0-2.08.57,4,4,0,0,0-1.21,2" transform="translate(-13.49 -9.93)"/><path class="cls-1" d="M154,54.86h-5V44.47a17.45,17.45,0,0,0-.32-4.27,2.94,2.94,0,0,0-1-1.51,2.79,2.79,0,0,0-1.71-.53,3.71,3.71,0,0,0-2.29.76,3.82,3.82,0,0,0-1.39,2,18.64,18.64,0,0,0-.38,4.68v9.22h-5V34.42h4.62v3A7.33,7.33,0,0,1,147.68,34a6.94,6.94,0,0,1,3,.65,5,5,0,0,1,2,1.64,6.35,6.35,0,0,1,1,2.27,18.42,18.42,0,0,1,.27,3.62Z" transform="translate(-13.49 -9.93)"/><path class="cls-1" d="M163,44.27a10.16,10.16,0,0,0,.83,4.74,3.72,3.72,0,0,0,3.36,2.12,3.57,3.57,0,0,0,2.92-1.59,7.84,7.84,0,0,0,1.2-4.75q0-3.54-1.17-5.08a3.63,3.63,0,0,0-5.94,0,7.33,7.33,0,0,0-1.2,4.58m13.24,10.59h-4.62v-3a8,8,0,0,1-2.71,2.63,6.35,6.35,0,0,1-3.15.88,6.91,6.91,0,0,1-5.54-2.84q-2.3-2.84-2.3-7.93c0-3.46.74-6.09,2.24-7.9A7,7,0,0,1,165.84,34a6.78,6.78,0,0,1,5.43,2.85V26.69h5Z" transform="translate(-13.49 -9.93)"/><path class="cls-1" d="M191.49,45.16c-.64.23-1.65.5-3,.83a8.72,8.72,0,0,0-2.7.93,2.32,2.32,0,0,0-1,1.9,2.74,2.74,0,0,0,.78,2,2.61,2.61,0,0,0,2,.83,4.08,4.08,0,0,0,2.56-1,3.41,3.41,0,0,0,1.18-1.78,11.43,11.43,0,0,0,.2-2.63Zm-6.7-4.41-4.46-.88a7.85,7.85,0,0,1,2.61-4.43A9,9,0,0,1,188.46,34a11,11,0,0,1,4.95.86A5,5,0,0,1,195.7,37a12,12,0,0,1,.67,4.83l-.06,6.3a23.66,23.66,0,0,0,.24,4,12.3,12.3,0,0,0,.9,2.74h-4.92A16.44,16.44,0,0,1,192,53.3c-.08-.31-.14-.51-.17-.62a9.07,9.07,0,0,1-2.72,2,7.26,7.26,0,0,1-3.1.67,6.14,6.14,0,0,1-4.57-1.7,5.94,5.94,0,0,1-1.67-4.32,6.14,6.14,0,0,1,.76-3.08,5.18,5.18,0,0,1,2.13-2.07,16.35,16.35,0,0,1,4-1.26,25.33,25.33,0,0,0,4.83-1.32v-.55a3,3,0,0,0-.72-2.25,4,4,0,0,0-2.68-.67,3.33,3.33,0,0,0-2.09.57,4,4,0,0,0-1.21,2" transform="translate(-13.49 -9.93)"/><path class="cls-1" d="M206,54.86h-5V34.42h4.62v2.9a8.4,8.4,0,0,1,2.12-2.69,3.79,3.79,0,0,1,2.14-.63,5.88,5.88,0,0,1,3.26,1l-1.53,4.69a4.14,4.14,0,0,0-2.32-.88,2.63,2.63,0,0,0-1.76.62,4.36,4.36,0,0,0-1.13,2.26,34.5,34.5,0,0,0-.42,6.85Z" transform="translate(-13.49 -9.93)"/><path class="cls-1" d="M219.27,44.27A10.16,10.16,0,0,0,220.1,49a3.71,3.71,0,0,0,3.36,2.12,3.55,3.55,0,0,0,2.91-1.59,7.84,7.84,0,0,0,1.2-4.75c0-2.36-.38-4-1.16-5.08a3.64,3.64,0,0,0-5.95,0,7.39,7.39,0,0,0-1.19,4.58M232.5,54.86h-4.62v-3a7.79,7.79,0,0,1-2.71,2.63,6.31,6.31,0,0,1-3.14.88,6.89,6.89,0,0,1-5.54-2.84q-2.31-2.84-2.31-7.93t2.25-7.9A7,7,0,0,1,222.09,34a6.8,6.8,0,0,1,5.43,2.85V26.69h5Z" transform="translate(-13.49 -9.93)"/><path class="cls-1" d="M252.74,42.57v7.52h4.81a22.28,22.28,0,0,0,3.57-.17A3.17,3.17,0,0,0,263,48.8a3.67,3.67,0,0,0,.73-2.39,4,4,0,0,0-.56-2.15A3.24,3.24,0,0,0,261.55,43a16.18,16.18,0,0,0-4.61-.4Zm0-11.21V37.9h3.4c2,0,3.27,0,3.76-.1a3.27,3.27,0,0,0,2.09-1,3.16,3.16,0,0,0,.77-2.21,3.29,3.29,0,0,0-.66-2.13,2.89,2.89,0,0,0-2-1c-.52-.06-2-.09-4.43-.09Zm-5.24-4.67h10.31a26.94,26.94,0,0,1,4.57.28,6.31,6.31,0,0,1,2.69,1.16,7.07,7.07,0,0,1,2,2.35,6.82,6.82,0,0,1,.79,3.3,7,7,0,0,1-1,3.63,6.24,6.24,0,0,1-2.64,2.48,6.82,6.82,0,0,1,3.64,2.55,7.26,7.26,0,0,1,1.27,4.25,8.92,8.92,0,0,1-.82,3.74,7.58,7.58,0,0,1-2.24,2.91,7,7,0,0,1-3.5,1.33q-1.29.16-6.29.19H247.5Z" transform="translate(-13.49 -9.93)"/><path class="cls-1" d="M283.88,45.16c-.64.23-1.64.5-3,.83a8.71,8.71,0,0,0-2.71.93,2.32,2.32,0,0,0-1,1.9,2.74,2.74,0,0,0,.78,2,2.61,2.61,0,0,0,2,.83,4.08,4.08,0,0,0,2.56-1,3.41,3.41,0,0,0,1.18-1.78,11.43,11.43,0,0,0,.2-2.63Zm-6.7-4.41-4.46-.88a7.8,7.8,0,0,1,2.62-4.43A8.93,8.93,0,0,1,280.85,34a11,11,0,0,1,4.95.86A5,5,0,0,1,288.09,37a11.81,11.81,0,0,1,.67,4.83l-.06,6.3a23.42,23.42,0,0,0,.25,4,12.24,12.24,0,0,0,.89,2.74h-4.93c-.12-.36-.28-.87-.47-1.57-.08-.31-.14-.51-.18-.62a9.07,9.07,0,0,1-2.72,2,7.26,7.26,0,0,1-3.1.67,6.14,6.14,0,0,1-4.57-1.7,5.94,5.94,0,0,1-1.67-4.32,6.14,6.14,0,0,1,.76-3.08,5.18,5.18,0,0,1,2.13-2.07,16.35,16.35,0,0,1,4-1.26,25.33,25.33,0,0,0,4.83-1.32v-.55a3,3,0,0,0-.71-2.25,4,4,0,0,0-2.69-.67,3.33,3.33,0,0,0-2.09.57,4,4,0,0,0-1.21,2" transform="translate(-13.49 -9.93)"/><path class="cls-1" d="M310.62,54.86h-5V44.47a16.94,16.94,0,0,0-.32-4.27,2.94,2.94,0,0,0-1-1.51,2.79,2.79,0,0,0-1.71-.53,3.71,3.71,0,0,0-2.29.76,3.82,3.82,0,0,0-1.39,2,19.14,19.14,0,0,0-.38,4.68v9.22h-5V34.42h4.62v3A7.33,7.33,0,0,1,304.33,34a6.9,6.9,0,0,1,3,.65,5,5,0,0,1,2.05,1.64,6.18,6.18,0,0,1,1,2.27,18.42,18.42,0,0,1,.27,3.62Z" transform="translate(-13.49 -9.93)"/><polygon class="cls-1" points="302.03 44.93 302.03 16.75 307.01 16.75 307.01 31.68 312.8 24.48 318.92 24.48 312.5 31.98 319.39 44.93 314.04 44.93 309.28 35.74 307.01 38.38 307.01 44.93 302.03 44.93"/><polygon class="cls-1" points="332.49 44.93 332.49 17.01 337.73 17.01 337.73 40.16 350.75 40.16 350.75 44.93 332.49 44.93"/><path class="cls-1" d="M367.85,34.42h5V54.86h-5Zm0-7.73h5v5h-5Z" transform="translate(-13.49 -9.93)"/><path class="cls-1" d="M377.58,34.42h4.57V37.2A7.25,7.25,0,0,1,388,34a5.83,5.83,0,0,1,3.14.82,6,6,0,0,1,2.18,2.45A8.84,8.84,0,0,1,396,34.82a6,6,0,0,1,3.06-.82,6.42,6.42,0,0,1,3.51.92,5.5,5.5,0,0,1,2.14,2.68,12.6,12.6,0,0,1,.51,4.22v13h-5V43.22a9.36,9.36,0,0,0-.51-3.91,2.32,2.32,0,0,0-2.13-1.16,3.27,3.27,0,0,0-2,.69,4,4,0,0,0-1.33,2,15.84,15.84,0,0,0-.4,4.21v9.78h-5V43.7a16.55,16.55,0,0,0-.27-3.84,2.18,2.18,0,0,0-2.33-1.71,3.4,3.4,0,0,0-2.07.68A3.62,3.62,0,0,0,383,40.77a15.31,15.31,0,0,0-.4,4.2v9.89h-5Z" transform="translate(-13.49 -9.93)"/><path class="cls-1" d="M410,34.42h5V54.86h-5Zm0-7.73h5v5h-5Z" transform="translate(-13.49 -9.93)"/><path class="cls-1" d="M428.74,34.42v4.31h-3.37V47a24.51,24.51,0,0,0,.09,2.94,1.26,1.26,0,0,0,.43.69,1.28,1.28,0,0,0,.82.27,5.64,5.64,0,0,0,2-.52l.44,4.18a9,9,0,0,1-3.89.81,5.71,5.71,0,0,1-2.41-.5,3.54,3.54,0,0,1-1.56-1.27,5.33,5.33,0,0,1-.7-2.12,30.45,30.45,0,0,1-.15-3.82v-9H418.1V34.42h2.29V30.37l5-3.17v7.22Z" transform="translate(-13.49 -9.93)"/><path class="cls-1" d="M443.32,42.93a5.5,5.5,0,0,0-1.12-3.56,3.41,3.41,0,0,0-5.27.07,5.18,5.18,0,0,0-1,3.49Zm-.26,5.5,4.93.88a8.81,8.81,0,0,1-3,4.52,8.34,8.34,0,0,1-5.15,1.55q-4.9,0-7.26-3.48a12.53,12.53,0,0,1-1.85-7c0-3.39.82-6,2.44-8A7.74,7.74,0,0,1,439.32,34a8,8,0,0,1,6.61,3c1.62,2,2.39,5.08,2.32,9.23H435.8A5.8,5.8,0,0,0,437,50a3.66,3.66,0,0,0,2.88,1.34,2.9,2.9,0,0,0,2-.69,4.27,4.27,0,0,0,1.21-2.22" transform="translate(-13.49 -9.93)"/><path class="cls-1" d="M456.26,44.27a10.16,10.16,0,0,0,.83,4.74,3.71,3.71,0,0,0,3.36,2.12,3.55,3.55,0,0,0,2.91-1.59,7.84,7.84,0,0,0,1.2-4.75q0-3.54-1.16-5.08a3.64,3.64,0,0,0-5.95,0,7.39,7.39,0,0,0-1.19,4.58m13.23,10.59h-4.62v-3a7.85,7.85,0,0,1-2.7,2.63,6.38,6.38,0,0,1-3.16.88,6.89,6.89,0,0,1-5.53-2.84q-2.31-2.84-2.31-7.93t2.24-7.9A7.05,7.05,0,0,1,459.08,34a6.8,6.8,0,0,1,5.43,2.85V26.69h5Z" transform="translate(-13.49 -9.93)"/><path class="cls-1" d="M26.74,37.67c.88.6,3.93,2.49,6.62,2.21s2.61-1.81,2.46-2.45A1.61,1.61,0,0,0,34.11,37v2.25A5.86,5.86,0,0,1,30.32,39V35h7.21a2.28,2.28,0,0,1,1.81,2.91c-.23,1.06-1.17,3.29-5,3.4a11.56,11.56,0,0,1-6.69-2.54,6,6,0,0,1-1-1.05c-.06-.09,0-.14,0-.1Z" transform="translate(-13.49 -9.93)"/><path class="cls-1" d="M30.32,46.47V40.78a9,9,0,0,0,3.79.88v2.88c0,.3,2.59-.23,2.13-2.91.38-.08,2.3-.72,2.69-1.78.33.07,2.15,1.32,1.13,3.93a3.87,3.87,0,0,1-3.64,2.69Z" transform="translate(-13.49 -9.93)"/><path class="cls-1" d="M40.41,35.16h4.3v6.2h3.67V46.5h-8V45s1.68-2.69,0-4.89Z" transform="translate(-13.49 -9.93)"/><path class="cls-1" d="M26.55,37.35a12.78,12.78,0,0,0,2.77,1.3V35H27.43L38.06,24.12s6.84-1.7,8.73,3c.41,1.41.64,3.19-1.1,3.79,0-.79-.51-4.09-4.35-2.91a3,3,0,0,0-1.77,3.6c.3.85,1.92,3.51,5.86,2.74.94-.14,5.89-.86,6.31-5.89a10.37,10.37,0,0,0-3-7c-.41-.42-9-10.82-9-10.82l-.61-.65L13.49,35.11V46.33H29.25v-6s-2.63-1.52-2.9-2.79c0,0,0-.26.2-.16" transform="translate(-13.49 -9.93)"/><path class="cls-1" d="M49.4,35.2H65.62V46.74L40.13,71.62l-9.76-11.5s-4.91-5.07-2-10c1.3-2.39,6.81-4.53,10.21-1.81,1,.7,2.46,3.7-.24,5.23-1.24.57-4.37.71-4.68-2.78-2.41.18-2.87,8.85,7.62,6.69C42,56.7,51.73,46.61,51.73,46.61H49.4Z" transform="translate(-13.49 -9.93)"/><path class="cls-2" d="M142.48,81.28l1.93-.17A4.27,4.27,0,0,0,145,83a3.42,3.42,0,0,0,1.56,1.2,5.79,5.79,0,0,0,2.37.46,5.46,5.46,0,0,0,2.06-.35,2.86,2.86,0,0,0,1.34-.95,2.19,2.19,0,0,0,.43-1.32,2,2,0,0,0-.42-1.27,3.06,3.06,0,0,0-1.39-.91,26.37,26.37,0,0,0-2.75-.76,14.16,14.16,0,0,1-3-1,4.21,4.21,0,0,1-1.65-1.44,3.52,3.52,0,0,1-.54-1.92,4,4,0,0,1,.66-2.19,4.08,4.08,0,0,1,1.94-1.54,7.35,7.35,0,0,1,2.83-.53,7.88,7.88,0,0,1,3,.55,4.4,4.4,0,0,1,2,1.63,4.75,4.75,0,0,1,.76,2.44l-2,.14a3.18,3.18,0,0,0-1.07-2.21,4.15,4.15,0,0,0-2.69-.75,4.31,4.31,0,0,0-2.7.68,2,2,0,0,0-.85,1.64,1.75,1.75,0,0,0,.6,1.37,8,8,0,0,0,3.08,1.1,20.9,20.9,0,0,1,3.42,1,4.68,4.68,0,0,1,2,1.57,3.84,3.84,0,0,1,.64,2.2,4.18,4.18,0,0,1-.7,2.32,4.62,4.62,0,0,1-2,1.7,7.11,7.11,0,0,1-3,.61,8.79,8.79,0,0,1-3.51-.62,4.84,4.84,0,0,1-2.22-1.83A5.23,5.23,0,0,1,142.48,81.28Z" transform="translate(-13.49 -9.93)"/><path class="cls-2" d="M157.32,86.24V70.8h1.9v5.54a4.21,4.21,0,0,1,3.35-1.54,4.47,4.47,0,0,1,2.16.49A2.9,2.9,0,0,1,166,76.64a6.16,6.16,0,0,1,.4,2.51v7.09h-1.9V79.15a2.88,2.88,0,0,0-.62-2.07,2.29,2.29,0,0,0-1.74-.65,3.13,3.13,0,0,0-1.59.44,2.47,2.47,0,0,0-1.05,1.19,5.2,5.2,0,0,0-.32,2.06v6.12Z" transform="translate(-13.49 -9.93)"/><path class="cls-2" d="M176.63,84.86a7.23,7.23,0,0,1-2,1.27,6,6,0,0,1-2.09.36,4.08,4.08,0,0,1-2.84-.9,3,3,0,0,1-1-2.3,3,3,0,0,1,.38-1.5,3,3,0,0,1,1-1.09,4.57,4.57,0,0,1,1.36-.62,14.45,14.45,0,0,1,1.69-.29,17.5,17.5,0,0,0,3.38-.65c0-.26,0-.42,0-.5a2.09,2.09,0,0,0-.54-1.63,3.15,3.15,0,0,0-2.16-.64,3.34,3.34,0,0,0-2,.47,2.85,2.85,0,0,0-.95,1.66L169,78.24a4.58,4.58,0,0,1,.83-1.92,3.73,3.73,0,0,1,1.68-1.13,7.53,7.53,0,0,1,2.54-.39,6.53,6.53,0,0,1,2.32.34,2.66,2.66,0,0,1,1.91,2.14,10.75,10.75,0,0,1,.1,1.74v2.53a27.15,27.15,0,0,0,.12,3.35,4.15,4.15,0,0,0,.48,1.34h-2A3.78,3.78,0,0,1,176.63,84.86Zm-.16-4.23a13.66,13.66,0,0,1-3.1.71,7.51,7.51,0,0,0-1.65.38,1.65,1.65,0,0,0-.44,2.78A2.45,2.45,0,0,0,173,85a3.91,3.91,0,0,0,1.95-.48,2.92,2.92,0,0,0,1.25-1.31,4.48,4.48,0,0,0,.31-1.9Z" transform="translate(-13.49 -9.93)"/><path class="cls-2" d="M181.3,86.24V75.05H183v1.7a4.58,4.58,0,0,1,1.21-1.57,2.11,2.11,0,0,1,1.21-.38,3.67,3.67,0,0,1,1.95.61l-.65,1.76a2.75,2.75,0,0,0-1.39-.41,1.82,1.82,0,0,0-1.12.37,2,2,0,0,0-.7,1,7.42,7.42,0,0,0-.32,2.21v5.86Z" transform="translate(-13.49 -9.93)"/><path class="cls-2" d="M188.52,73V70.8h1.9V73Zm0,13.26V75.05h1.9V86.24Z" transform="translate(-13.49 -9.93)"/><path class="cls-2" d="M205.61,84.86a7.23,7.23,0,0,1-2,1.27,6,6,0,0,1-2.09.36,4.08,4.08,0,0,1-2.84-.9,3,3,0,0,1-1-2.3A3.14,3.14,0,0,1,199,80.7a4.69,4.69,0,0,1,1.36-.62,14.85,14.85,0,0,1,1.69-.29,17.34,17.34,0,0,0,3.38-.65c0-.26,0-.42,0-.5a2.09,2.09,0,0,0-.54-1.63,3.15,3.15,0,0,0-2.16-.64,3.34,3.34,0,0,0-2,.47,2.85,2.85,0,0,0-.95,1.66L198,78.24a4.71,4.71,0,0,1,.83-1.92,3.73,3.73,0,0,1,1.68-1.13A7.53,7.53,0,0,1,203,74.8a6.53,6.53,0,0,1,2.32.34,2.66,2.66,0,0,1,1.91,2.14,9.68,9.68,0,0,1,.1,1.74v2.53a27.15,27.15,0,0,0,.12,3.35,4.15,4.15,0,0,0,.48,1.34h-2A3.78,3.78,0,0,1,205.61,84.86Zm-.16-4.23a13.66,13.66,0,0,1-3.1.71,7.51,7.51,0,0,0-1.65.38,1.6,1.6,0,0,0-.75.62,1.58,1.58,0,0,0-.26.9,1.6,1.6,0,0,0,.57,1.26,2.45,2.45,0,0,0,1.68.51,3.91,3.91,0,0,0,1.95-.48,2.92,2.92,0,0,0,1.25-1.31,4.48,4.48,0,0,0,.31-1.9Z" transform="translate(-13.49 -9.93)"/><path class="cls-2" d="M210.31,86.24V70.8h1.89v5.54a4.23,4.23,0,0,1,3.35-1.54,4.47,4.47,0,0,1,2.16.49A3,3,0,0,1,219,76.64a6.36,6.36,0,0,1,.39,2.51v7.09h-1.9V79.15a2.93,2.93,0,0,0-.61-2.07,2.3,2.3,0,0,0-1.75-.65,3.06,3.06,0,0,0-1.58.44,2.44,2.44,0,0,0-1.06,1.19,5.38,5.38,0,0,0-.32,2.06v6.12Z" transform="translate(-13.49 -9.93)"/><path class="cls-2" d="M230.46,86.24V70.8h5.8a7.26,7.26,0,0,1,2.84.46,3.69,3.69,0,0,1,1.67,1.45,3.85,3.85,0,0,1,.61,2,3.47,3.47,0,0,1-.54,1.86A3.82,3.82,0,0,1,239.22,78a4,4,0,0,1,2.15,1.41,3.74,3.74,0,0,1,.75,2.33,4.57,4.57,0,0,1-.45,2,4,4,0,0,1-1.14,1.44,4.62,4.62,0,0,1-1.69.76,9.91,9.91,0,0,1-2.49.26Zm2-8.95h3.35a7.35,7.35,0,0,0,1.94-.18,2.19,2.19,0,0,0,1.18-.77,2.25,2.25,0,0,0,.39-1.35,2.5,2.5,0,0,0-.36-1.35,1.92,1.92,0,0,0-1.06-.81,9,9,0,0,0-2.35-.21H232.5Zm0,7.13h3.85a10.38,10.38,0,0,0,1.39-.07,3.34,3.34,0,0,0,1.18-.43,2.15,2.15,0,0,0,.78-.85,2.64,2.64,0,0,0,.31-1.31,2.56,2.56,0,0,0-.45-1.5,2.31,2.31,0,0,0-1.22-.89,7.72,7.72,0,0,0-2.26-.26H232.5Z" transform="translate(-13.49 -9.93)"/><path class="cls-2" d="M252,84.86a7.09,7.09,0,0,1-2,1.27,6,6,0,0,1-2.09.36,4.08,4.08,0,0,1-2.84-.9,3,3,0,0,1-1-2.3,3.14,3.14,0,0,1,1.36-2.59,4.69,4.69,0,0,1,1.36-.62,14.85,14.85,0,0,1,1.69-.29,17.34,17.34,0,0,0,3.38-.65c0-.26,0-.42,0-.5a2.09,2.09,0,0,0-.54-1.63,3.15,3.15,0,0,0-2.16-.64,3.34,3.34,0,0,0-2,.47,2.85,2.85,0,0,0-1,1.66l-1.85-.26a4.71,4.71,0,0,1,.83-1.92,3.73,3.73,0,0,1,1.68-1.13,7.53,7.53,0,0,1,2.54-.39,6.63,6.63,0,0,1,2.33.34,2.67,2.67,0,0,1,1.9,2.14,9.68,9.68,0,0,1,.1,1.74v2.53a27.15,27.15,0,0,0,.12,3.35,4.15,4.15,0,0,0,.48,1.34h-2A3.78,3.78,0,0,1,252,84.86Zm-.16-4.23a13.66,13.66,0,0,1-3.1.71,7.51,7.51,0,0,0-1.65.38,1.65,1.65,0,0,0-.75.62,1.58,1.58,0,0,0-.26.9,1.6,1.6,0,0,0,.57,1.26,2.45,2.45,0,0,0,1.68.51,3.91,3.91,0,0,0,1.95-.48,2.92,2.92,0,0,0,1.25-1.31,4.48,4.48,0,0,0,.31-1.9Z" transform="translate(-13.49 -9.93)"/><path class="cls-2" d="M255.94,82.9l1.87-.29a2.68,2.68,0,0,0,.88,1.73,3.08,3.08,0,0,0,2,.6,2.94,2.94,0,0,0,1.94-.54,1.58,1.58,0,0,0,.63-1.24,1.15,1.15,0,0,0-.56-1,8.13,8.13,0,0,0-1.93-.64,17.19,17.19,0,0,1-2.9-.91,2.89,2.89,0,0,1-1.22-1.06,2.91,2.91,0,0,1-.07-2.89,3.06,3.06,0,0,1,.93-1.06,3.8,3.8,0,0,1,1.21-.55,5.73,5.73,0,0,1,1.63-.23,6.6,6.6,0,0,1,2.32.38,3.11,3.11,0,0,1,1.47,1,4.09,4.09,0,0,1,.65,1.73l-1.85.25a2.07,2.07,0,0,0-.74-1.35,2.68,2.68,0,0,0-1.71-.48,3.07,3.07,0,0,0-1.86.43,1.25,1.25,0,0,0-.56,1,1.09,1.09,0,0,0,.23.67,1.65,1.65,0,0,0,.73.5c.19.07.74.23,1.67.49a23.47,23.47,0,0,1,2.81.88,2.64,2.64,0,0,1,1.7,2.62,3.16,3.16,0,0,1-.55,1.78,3.59,3.59,0,0,1-1.6,1.3,5.88,5.88,0,0,1-2.36.45,5.27,5.27,0,0,1-3.32-.9A4.21,4.21,0,0,1,255.94,82.9Z" transform="translate(-13.49 -9.93)"/><path class="cls-2" d="M275.15,82.64l2,.24a4.84,4.84,0,0,1-1.72,2.67,5.85,5.85,0,0,1-7.1-.57,5.89,5.89,0,0,1-1.44-4.24,6.18,6.18,0,0,1,1.46-4.38,4.91,4.91,0,0,1,3.77-1.56,4.78,4.78,0,0,1,3.67,1.53,6.06,6.06,0,0,1,1.42,4.3c0,.11,0,.28,0,.5h-8.35A4.31,4.31,0,0,0,269.86,84a3.1,3.1,0,0,0,2.34,1,2.94,2.94,0,0,0,1.78-.55A3.69,3.69,0,0,0,275.15,82.64Zm-6.23-3.07h6.25a3.9,3.9,0,0,0-.72-2.12,2.9,2.9,0,0,0-2.35-1.09,3,3,0,0,0-2.2.87A3.49,3.49,0,0,0,268.92,79.57Z" transform="translate(-13.49 -9.93)"/><path class="cls-2" d="M286.75,86.24V84.83a3.49,3.49,0,0,1-3.13,1.66,4.4,4.4,0,0,1-2.46-.73,4.83,4.83,0,0,1-1.74-2.06,7.15,7.15,0,0,1-.62-3,8,8,0,0,1,.56-3A4.34,4.34,0,0,1,281,75.53a4.41,4.41,0,0,1,2.49-.73,3.73,3.73,0,0,1,3.09,1.54V70.8h1.89V86.24Zm-6-5.58a4.82,4.82,0,0,0,.91,3.21,2.74,2.74,0,0,0,2.14,1.07,2.67,2.67,0,0,0,2.11-1,4.68,4.68,0,0,0,.87-3.1,5.28,5.28,0,0,0-.89-3.38,2.73,2.73,0,0,0-2.18-1.07,2.63,2.63,0,0,0-2.11,1A5.09,5.09,0,0,0,280.75,80.66Z" transform="translate(-13.49 -9.93)"/><path class="cls-2" d="M298.07,86.24V70.8h2.05V86.24Z" transform="translate(-13.49 -9.93)"/><path class="cls-2" d="M302.72,82.9l1.88-.29a2.59,2.59,0,0,0,.88,1.73,3.05,3.05,0,0,0,2,.6,2.94,2.94,0,0,0,1.94-.54,1.58,1.58,0,0,0,.63-1.24,1.17,1.17,0,0,0-.55-1,8.27,8.27,0,0,0-1.94-.64,17.52,17.52,0,0,1-2.9-.91,2.89,2.89,0,0,1-1.22-1.06A2.93,2.93,0,0,1,303,78a2.85,2.85,0,0,1,.34-1.38,3.06,3.06,0,0,1,.93-1.06,3.91,3.91,0,0,1,1.21-.55,5.75,5.75,0,0,1,1.64-.23,6.54,6.54,0,0,1,2.31.38,3.11,3.11,0,0,1,1.47,1,4.09,4.09,0,0,1,.65,1.73l-1.85.25a2.1,2.1,0,0,0-.73-1.35,2.73,2.73,0,0,0-1.72-.48,3.07,3.07,0,0,0-1.86.43,1.27,1.27,0,0,0-.56,1,1.09,1.09,0,0,0,.23.67,1.71,1.71,0,0,0,.73.5c.19.07.75.23,1.67.49a22.86,22.86,0,0,1,2.81.88A2.64,2.64,0,0,1,312,83a3.16,3.16,0,0,1-.55,1.78,3.59,3.59,0,0,1-1.6,1.3,5.88,5.88,0,0,1-2.36.45,5.27,5.27,0,0,1-3.32-.9A4.21,4.21,0,0,1,302.72,82.9Z" transform="translate(-13.49 -9.93)"/><path class="cls-2" d="M314.23,86.24V70.8h1.89V86.24Z" transform="translate(-13.49 -9.93)"/><path class="cls-2" d="M326.36,84.86a7.05,7.05,0,0,1-2,1.27,6,6,0,0,1-2.1.36,4.07,4.07,0,0,1-2.83-.9,3,3,0,0,1-1-2.3,3,3,0,0,1,.37-1.5,3.13,3.13,0,0,1,1-1.09,4.75,4.75,0,0,1,1.37-.62,14.59,14.59,0,0,1,1.68-.29,17.47,17.47,0,0,0,3.39-.65c0-.26,0-.42,0-.5a2.09,2.09,0,0,0-.54-1.63,3.18,3.18,0,0,0-2.16-.64,3.4,3.4,0,0,0-2,.47,2.84,2.84,0,0,0-.94,1.66l-1.85-.26a4.58,4.58,0,0,1,.83-1.92,3.69,3.69,0,0,1,1.67-1.13,7.57,7.57,0,0,1,2.54-.39,6.59,6.59,0,0,1,2.33.34A2.66,2.66,0,0,1,328,77.28a11.1,11.1,0,0,1,.09,1.74v2.53a24.48,24.48,0,0,0,.13,3.35,4.37,4.37,0,0,0,.47,1.34h-2A4.22,4.22,0,0,1,326.36,84.86Zm-.15-4.23a13.66,13.66,0,0,1-3.1.71,7.79,7.79,0,0,0-1.66.38,1.62,1.62,0,0,0-.74.62A1.65,1.65,0,0,0,321,84.5a2.45,2.45,0,0,0,1.68.51,3.91,3.91,0,0,0,1.95-.48,3,3,0,0,0,1.25-1.31,4.64,4.64,0,0,0,.31-1.9Z" transform="translate(-13.49 -9.93)"/><path class="cls-2" d="M331.06,86.24V75.05h1.7v1.57a3.94,3.94,0,0,1,3.39-1.82,3.63,3.63,0,0,1,2,.52,2.69,2.69,0,0,1,1.12,1.44,4,4,0,0,1,3.46-2,3.43,3.43,0,0,1,2.56.92,3.93,3.93,0,0,1,.9,2.84v7.68h-1.89v-7a5.34,5.34,0,0,0-.18-1.64,1.63,1.63,0,0,0-.67-.8,2.07,2.07,0,0,0-1.14-.31,2.66,2.66,0,0,0-2,.79,3.45,3.45,0,0,0-.78,2.51v6.5h-1.9V79a3.17,3.17,0,0,0-.46-1.89,1.75,1.75,0,0,0-1.52-.64,2.76,2.76,0,0,0-1.48.42,2.44,2.44,0,0,0-1,1.24,6.76,6.76,0,0,0-.31,2.34v5.8Z" transform="translate(-13.49 -9.93)"/><path class="cls-2" d="M349.05,73V70.8H351V73Zm0,13.26V75.05H351V86.24Z" transform="translate(-13.49 -9.93)"/><path class="cls-2" d="M360,86.24V70.8h5.79a7.23,7.23,0,0,1,2.84.46,3.77,3.77,0,0,1,1.68,1.45,3.84,3.84,0,0,1,.6,2,3.54,3.54,0,0,1-.53,1.86A3.79,3.79,0,0,1,368.74,78a4,4,0,0,1,2.16,1.41,3.74,3.74,0,0,1,.75,2.33,4.44,4.44,0,0,1-.46,2,3.88,3.88,0,0,1-1.13,1.44,4.62,4.62,0,0,1-1.69.76,9.91,9.91,0,0,1-2.49.26Zm2-8.95h3.34a7.39,7.39,0,0,0,1.95-.18,2.16,2.16,0,0,0,1.17-.77,2.18,2.18,0,0,0,.4-1.35,2.42,2.42,0,0,0-.37-1.35,1.9,1.9,0,0,0-1-.81,9.06,9.06,0,0,0-2.35-.21H362Zm0,7.13h3.85a10.38,10.38,0,0,0,1.39-.07,3.41,3.41,0,0,0,1.18-.43,2.3,2.3,0,0,0,.78-.85,2.75,2.75,0,0,0,.3-1.31,2.55,2.55,0,0,0-.44-1.5,2.3,2.3,0,0,0-1.23-.89,7.62,7.62,0,0,0-2.26-.26H362Z" transform="translate(-13.49 -9.93)"/><path class="cls-2" d="M381.52,84.86a7.19,7.19,0,0,1-2,1.27,6,6,0,0,1-2.1.36,4.06,4.06,0,0,1-2.83-.9,3,3,0,0,1-1-2.3,3,3,0,0,1,.37-1.5,3.13,3.13,0,0,1,1-1.09,4.75,4.75,0,0,1,1.37-.62,14.59,14.59,0,0,1,1.68-.29,17.64,17.64,0,0,0,3.39-.65c0-.26,0-.42,0-.5a2.09,2.09,0,0,0-.54-1.63,3.18,3.18,0,0,0-2.16-.64,3.4,3.4,0,0,0-2,.47,2.84,2.84,0,0,0-.94,1.66l-1.85-.26a4.46,4.46,0,0,1,.83-1.92,3.64,3.64,0,0,1,1.67-1.13A7.57,7.57,0,0,1,379,74.8a6.59,6.59,0,0,1,2.33.34,2.66,2.66,0,0,1,1.91,2.14,11.1,11.1,0,0,1,.09,1.74v2.53a27.15,27.15,0,0,0,.12,3.35,4.39,4.39,0,0,0,.48,1.34h-2A4.22,4.22,0,0,1,381.52,84.86Zm-.15-4.23a13.8,13.8,0,0,1-3.1.71,7.79,7.79,0,0,0-1.66.38,1.62,1.62,0,0,0-.74.62,1.65,1.65,0,0,0,.31,2.16,2.45,2.45,0,0,0,1.68.51,3.91,3.91,0,0,0,1.95-.48,3,3,0,0,0,1.25-1.31,4.64,4.64,0,0,0,.31-1.9Z" transform="translate(-13.49 -9.93)"/><path class="cls-2" d="M386.22,86.24V75.05h1.71v1.59a4,4,0,0,1,3.56-1.84,4.71,4.71,0,0,1,1.86.36,2.91,2.91,0,0,1,1.27,1,3.62,3.62,0,0,1,.59,1.4,10.67,10.67,0,0,1,.11,1.84v6.88h-1.9v-6.8a5.36,5.36,0,0,0-.22-1.74,1.79,1.79,0,0,0-.79-.91,2.45,2.45,0,0,0-1.32-.35,3.09,3.09,0,0,0-2.09.77,3.8,3.8,0,0,0-.88,2.92v6.11Z" transform="translate(-13.49 -9.93)"/><path class="cls-2" d="M398.23,86.24V70.8h1.9v8.8l4.49-4.55h2.45L402.8,79.2l4.71,7h-2.34l-3.7-5.72-1.34,1.29v4.43Z" transform="translate(-13.49 -9.93)"/><path class="cls-2" d="M196.12,76.12a1.55,1.55,0,0,1-.49,1.15,1.59,1.59,0,0,1-1.17.48,1.64,1.64,0,0,1-1.37-.7,2.51,2.51,0,0,1-.53-1.55,3.54,3.54,0,0,1,.76-2.17,4.32,4.32,0,0,1,1.86-1.44l.29.59a3.23,3.23,0,0,0-1.65,2.46,1.48,1.48,0,0,1,.9-.35C195.65,74.59,196.12,75.1,196.12,76.12Z" transform="translate(-13.49 -9.93)"/></svg>