<svg id="Layer_1" data-name="Layer 1" xmlns="http://www.w3.org/2000/svg" viewBox="0 0 3147.26 762.09"><defs><style>.cls-1,.cls-2{fill:#1a1a1a;}.cls-1{opacity:0.17;}.cls-3{opacity:0.19;}</style></defs><title>Witctcraft-Logo</title><path class="cls-1" d="M2937.5,865.84c-42.18-1.3-111.05-3.18-196-4.27-465.72-6-563.9,22.5-893.35,6.4-95.8-4.68-157.26-10.5-272.48-9.9-94.09.49-146,4.86-307.81,9.9-88.75,2.77-160.62,4.18-205.32,4.93-95-5-161.73-18.94-163-34.62-1.79-21.59,120.73-42,126.15-42.9,44.63,0,111,.18,191.65.65,17.25.1,107.38.65,211.78,1.84,223.88,2.55,444.19,7.3,449.34,7.41,170.06,3.66,515,5.71,1266.53,0q162.61,19.43,161.47,33Q3304.79,858.58,2937.5,865.84Z" transform="translate(-159.22 -118.96)"/><path class="cls-2" d="M317.33,421.45c-12.15,7.13-22.47,8.44-27.85,8.71a101.9,101.9,0,0,1-15.92-.64c-9-1.17-13-3.12-16.27-.63-2.11,1.61-2.61,4.33-3.53,9.7A70.32,70.32,0,0,0,252.9,455,52.51,52.51,0,0,0,259,439.76c.66-3,1-5.84,3.09-6.83.83-.4,1.63-.36,7.92,1.75,5.36,1.79,6.26,2.25,7,3.32a7.4,7.4,0,0,1,.72,5.7l-17.52,15.71a32.28,32.28,0,0,0-2.68,13c.14,15.14,11.34,24.92,13.48,26.72a49.42,49.42,0,0,1-7.94-16c-1.19-4.21-3.86-13.68.25-17.3.89-.78,2.47-1.63,3.23-1.11,1.17.78-.11,4.37-.58,6.2-2.81,10.78,5.77,22.81,6.06,22.7a37,37,0,0,1-3.33-15c0-6.7,2.09-12.29,2.86-12.19.94.11-1.23,8.49,2.26,17.3a30.24,30.24,0,0,0,9.52,12.39c-8-11.53-10-23.44-4.93-29.58a11.84,11.84,0,0,1,4.92-3.46,24.18,24.18,0,0,0-2.08,13,24.43,24.43,0,0,0,6.4,13.67,26.6,26.6,0,0,1,1.44-23.21L305,454.47l11.34-6.59L349,436.41l-13.35-20.92Z" transform="translate(-159.22 -118.96)"/><path class="cls-2" d="M362.54,497c-12.15,7.13-22.47,8.45-27.85,8.71a102.62,102.62,0,0,1-15.92-.63c-9-1.17-13-3.12-16.28-.63-2.1,1.61-2.6,4.33-3.52,9.7a70.29,70.29,0,0,0-.86,16.43,52.51,52.51,0,0,0,6.14-15.26c.66-3,1-5.84,3.09-6.84.83-.39,1.63-.35,7.92,1.75,5.36,1.8,6.26,2.26,7,3.33a7.38,7.38,0,0,1,.72,5.69c-7.3,9.8-13.68,13.86-17.52,15.72-1.12.54-4,1.89-4.65,1.08-.89-1.05,2-5.6,4.42-8.32.62-.69,1-1,.89-1.06-.22-.29-5.45,2-8.17,6.8a14.06,14.06,0,0,0-1.75,5.68,15.08,15.08,0,0,0,6.29,2.56,15.7,15.7,0,0,0,6.08-.27c2.21-.54,3.14-1.27,3.23-1.12.2.35-4,4.43-9,4.31-1.11,0-2.27,0-2.74-.79-1.55-2.44,6.47-9.34,6-9.83s-11.7,6.12-10.27,10.8c.77,2.53,5,3.71,8.06,3.72,7.49,0,12.44-7,12.9-6.5.61.63-8.42,12-11.78,10.41a3.11,3.11,0,0,1-1.39-1.79c-.63-2,1.19-4,1-4.12s-3.55,2.26-3.11,5.06a5.06,5.06,0,0,0,3.55,3.67c6.46,1.93,15.28-10.92,16.14-10.18.38.32-1.13,2.9-2.88,4.88a20.86,20.86,0,0,1-6.63,4.75,42.82,42.82,0,0,1-10.76,3.76A33.62,33.62,0,0,0,315.3,556a34.48,34.48,0,0,0,16.39-14.65,77.87,77.87,0,0,1,14.4-13.76c18.59-13.67,38.61-15.44,48.14-15.6l-13.35-20.92Z" transform="translate(-159.22 -118.96)"/><path class="cls-2" d="M380.82,326.64" transform="translate(-159.22 -118.96)"/><path class="cls-2" d="M372.85,240.12c1.08.17,6.09-15.34,5-34-.58-10.25-2.8-18-5.66-28.12-4.37-15.44-10.33-29.69-11.14-29.46-.63.18,2.35,8.92,6.13,26.32,3.21,14.74,5,23.22,5.78,34.25C374.27,228.32,371.92,240,372.85,240.12Z" transform="translate(-159.22 -118.96)"/><circle class="cls-2" cx="293.28" cy="717.82" r="2.03"/><circle class="cls-2" cx="472.91" cy="715.79" r="2.03"/><circle class="cls-2" cx="557.43" cy="630.02" r="2.03"/><circle class="cls-2" cx="525.59" cy="675" r="2.03"/><path class="cls-2" d="M733.5,752.91c-2.33-1.81-5.83-1.92-9-.6-12.19,6.11-16.61,7.49-17.16,6.62-.91-1.43,8.68-9,8.1-9.7-.32-.38-3.28,1.45-6.4,3.38-6.1,3.79-6.53,4.64-8,5-5.54,1.37-12.23-7.19-14.95-10.74-6.24-8.15-15-20.14-25.1-36.14l-21.81,19.18c9.78,7.68,20.2,16.57,30.89,26.79,3.66,3.49,7.14,7,10.49,10.39l7.36,7.73c-.24.34-.49.7-.74,1.11-5.06,8.36-2.64,18-2.38,18s-.49-6.06,3.38-11c1.11-1.42,3-3.28,4.12-3.33l.78.87c.17,1.67-1.12,5.93-3.9,14.59-6.24,19.48-7.28,21.67-9.46,24.19-4.49,5.19-9.4,7.59-13.91,9.73a63.81,63.81,0,0,1-32.64,5.59,157.93,157.93,0,0,0,24.58,3.72c16.63,1.18,27.62,1.81,34.15-5,3.35-3.49,2.56-5.85,6.33-14.39a80.14,80.14,0,0,1,13.63-21.09l21.88-31C737.72,762,737,755.62,733.5,752.91Zm-7,20.15c-.92,1.25-2.55,3.61-5.82,8.32-5.69,8.22-9.26,13.93-9.32,13.89a164.39,164.39,0,0,1,9.07-14.64c8.8-12.91,14.38-18.08,12.46-22.21-1-2.22-3.71-3-4.32-3.19-5.7-1.68-11.57,3.95-11.58,3.94s8.55-8,14.39-5.26a6.76,6.76,0,0,1,3.63,4.57C735.79,761.93,733,764.33,726.55,773.06Z" transform="translate(-159.22 -118.96)"/><circle class="cls-2" cx="355.29" cy="694.71" r="2.03"/><circle class="cls-2" cx="417.28" cy="691.2" r="2.03"/><path class="cls-2" d="M558,785.45c-.12-15.08,0-31.09.57-48,.91-28.92,2.77-55.13,5-78.17h-29a426.48,426.48,0,0,0,2.5,62.07c1.22,10.85,2.24,15.93,3.5,27.54a439.72,439.72,0,0,1,2.57,56.42,35.32,35.32,0,0,0-27.5,7.82c3.56-2.15,9.68-5,17-4.2,1,.12,6.17.67,6.33,2.17.08.79-1.19,2.07-15.37,6.39-12.07,3.67-18.25,5.53-25.22,6.22-5.19.51-10.23,1-16.91.09-8-1.13-10.2-3.18-14.42-2.42-4,.72-9.33,3.88-14.48,15.1,1.88-2.61,6.51-8.26,13.52-9,1.85-.19,3.76,0,8.25,1.14,6.63,1.75,9.39,4,16.53,6,17.4,4.78,33.76,4.07,43.55,3h37.92c6.27.43,11.07-3.85,11.27-8.26.13-3-1.8-5.87-4.69-7.67-12.9-5.27-15.6-8.33-15.3-10.19.2-1.25,1.77-2.08,2.31-2.37,4.36-2.3,10.07,1.08,10.14.91s-3.74-2.36-9.78-3.44A37.74,37.74,0,0,0,559,806a106.2,106.2,0,0,1-1.06-12C557.81,791,557.85,788.13,558,785.45Zm17.62,49.64a176.94,176.94,0,0,0-20.45.2c-2,.16-4.5.4-8.58.61-4.34.23-6.72.23-10.15.31-10,.23-16.7.89-16.71.81s16-1.38,17.17-1.46c15.52-1.21,18.57-1.29,20.88-1.31A119.72,119.72,0,0,1,575.59,835.09Z" transform="translate(-159.22 -118.96)"/><path class="cls-2" d="M667.17,568.69a36.5,36.5,0,0,1,.61-10.09c2.51-11.23,10.53-15.9,9.4-33-1.81-27.22-24.34-47.26-37-58.57-2.53-2.24-4.77-4.09-7-5.77A241.32,241.32,0,0,0,600.09,440C580.37,429.75,509.79,393,506,345.92c-1.09-13.4,3.22-27.76,4.51-32,5.64-18.81,13.15-24.51,17.88-44.55,3.18-13.43,3.67-27.21,1.25-27.83-3-.78-5.74,19.46-21.76,37-11.25,12.33-33.94,28.66-52.44,21.36-10.84-4.28-16.82-15.32-17.57-16.74-1.79-3.43-5.65-10.8-4.06-18.42,1.92-9.25,10.58-12.73,27.27-22.88,0,0,24.34-14.81,44.82-32.39,14.15-12.13,24.37-23.81,23.7-24.55-.85-.93-18.89,16.32-49.57,35.86,0,0-16.84,10.68-42.53,19.11-12,4-18.44,4.88-24,1.76-10.14-5.69-10.72-21.05-10.78-23.74-14.14-29.55-26.8-62-17.21-69.56,5.72-4.5,17.42,1.36,30.49,8.08a207.87,207.87,0,0,1,55.11,41.46,10,10,0,0,0-1.5,13.24,10.13,10.13,0,0,0,13.43,2.7,10,10,0,1,0-10.68-16.91l-.06,0c-16.89-19.76-26.68-29.5-32.6-34.74l-9.74-8.61-14.35-12.69C400.7,128,387.94,117,374.91,119.25a23.75,23.75,0,0,0-11,5.43c-19.63,17.75,9.58,62.6,2.62,122a163.52,163.52,0,0,1-9.85,39.72L237.92,322a195.06,195.06,0,0,0,108.77-15.72l8.12-2.6,6.07-2.34,4.86,5.63L360,310.28l-7.5,5.58-3.44,7.77,1.09,9.77a83.5,83.5,0,0,0-9.3,22.38l9.2,9.33,4.54-3.74q1.81-4.77,3.64-9.53c-.42,1.66-.71,2.75-.9,3.47a46.51,46.51,0,0,0,2.25-10c.32-3.34,1.8-2.3,6.57-5.22s3.81.14,3.81.14l4,3.3,2.35,6.07L373,357.85l-6.35,10-3.79,13.81-.81,13.19,13.31-9.56,13.42-1.83,3.19-2.85,7.58-4,5.85-7.09,4.85-1.33,6.47,2.86,3.11,12.22,1.89,13.22,3.24,8.41,4.61,3.39-1.73,7.5V424c-15.24-2-28.11-4.45-38.42-6.64-18-3.84-36-8.7-61.39-7.51a173.4,173.4,0,0,0-36.13,5.56c-18.22,5.93-22.24,9.86-22,12.46.49,5.31,18.55,3.56,30.35,17.27,4.33,5,6.09,10.12,9,18.58a102,102,0,0,1,5.12,23.71,3.68,3.68,0,1,0,3.35,2.41,3.64,3.64,0,0,0-3-2.36c-.28-5-.46-20,9.5-31.83a46.43,46.43,0,0,1,11-9.28,50.57,50.57,0,0,1,19.36-7.14c12.25-1.66,22.21,2.45,25.76,3.84,37.15,14.57,85.22,10.37,86,20.28s-45.8,21.05-49.08,21.82c-35.15,8.25-68.14,7.17-74.2,8.46a3.63,3.63,0,0,0-1.48-1.94,3.68,3.68,0,1,0,1.1,5.08,3.58,3.58,0,0,0,.58-2.1c4.16.74,18,.75,21.71,8.1,3.23,6.33-2,16-10.09,26.07a3.62,3.62,0,1,0,.84.89c-.09-.13-.2-.25-.3-.37,8-6.26,11.84-5.63,13.56-4.81,4.52,2.15,4.58,10.11,5.63,24.28A171.38,171.38,0,0,0,379,576.17a3.35,3.35,0,0,0-2.31,1.8,3.8,3.8,0,0,0,0,3.6,3.68,3.68,0,1,0,3.42-5.49c1.39-33.49,4.84-41.08,7.86-41.43,2.73-.32,3.86,5.38,9.77,7.88,10.9,4.61,20.7-9.16,27.78-6.76,12.05,4.1,2.29,50.56,4.66,112.13,1,25.57,4.58,67.27,11.35,67.66,3.11.18,6.18-8.4,8.39-16.21,2.84-6.75,4.25-8.19,5-8,3.18.73-5.71,29.46,1.5,63.07,2.83,13.2,9.86,35.16,16.77,34.79,9.16-.47,15.42-43.12,18-60.82.48-3.22.83-5.91,1.06-7.81A204.89,204.89,0,0,0,501,755.41c4.37,12.67,9.71,28.21,15,27.79,5-.4,10.52-12.51,10.52-29.54l4.5-22q8.64-31.65,17.27-63.32c7.12,54.17,15.37,95.48,21.59,115.19a80.77,80.77,0,0,0,12.07,23.64c5.17,7,14.54,19.65,21.91,18.11,4.91-1,7.29-9,14.77-61.08,4.1-28.55,3.41-52.47,3-68.58,8.68,41.89,20.52,88.59,31.25,87.91,10.51-.67,16.34-46.52,17.95-66.62C674.7,668.11,668,591.9,667.17,568.69ZM473,206.66a4.18,4.18,0,0,1,5.87-.32c.25.3.51.57.77.87a4.19,4.19,0,1,1-7.54,3.5A4.12,4.12,0,0,1,473,206.66Zm-106,59.72c-.54-.17,6.45-14.63,6-35.29-.1-4.43-.95-10.22-2.63-21.78-1.84-12.59-3.65-22.87-4.88-29.66-5.26-28.87-7.7-35.92-3.24-45a46.52,46.52,0,0,1,7.74-10.76,45.43,45.43,0,0,0-5.07,8.07,46.17,46.17,0,0,0-3.38,10.32c-1.51,8.21.63,15.11,2.44,21.78,2.43,8.91,3.88,18.05,6,27,5,20.91,7.45,31.37,7.32,39.43C376.92,251.31,367.49,266.56,366.93,266.38ZM315,491.77a1.54,1.54,0,1,1-2.13-.47A1.54,1.54,0,0,1,315,491.77Zm26.57,5.34a1.54,1.54,0,1,1-.46-2.13A1.54,1.54,0,0,1,341.57,497.11Zm11.36,37.4a1.54,1.54,0,1,1-1.67-2.59,1.51,1.51,0,0,1,1.25-.17l-.22.27.28-.25a1.52,1.52,0,0,1,.36,2.74Zm27.62,45.93a1.54,1.54,0,1,1-2.13-.46,1.51,1.51,0,0,1,1.52-.06v0A1.46,1.46,0,0,1,380.55,580.44Zm90.77,204.77c-.69.2-8.41-17.61-11.4-40.31a237.37,237.37,0,0,1-1.51-36.54c.7-15.93,2.81-23.81,0-25-5.13-2.25-19,21.18-20,20.52s13.77-30.58,20.52-28.53c3.41,1,3.63,9.81,4,25,.41,16.26-1.34,17.84-.76,30.48.4,8.64,1.86,16.45,4.76,32.09S471.74,785.1,471.32,785.21Zm39.91-8.93c-.44.12-7.67-17.27-9.79-40.81-1-11.2,1.1-15.52-.12-31.48-1-13.21-2.94-21.44-2.52-21.52s4.9,13.15,5.32,27.16c.08,2.65.13,13.8,0,18.15a72.92,72.92,0,0,0,0,8.13C505.72,760,511.66,776.17,511.23,776.28Zm102.28-41.59c-1.72,31.3-6.79,60.33-8.34,59.93-1.21-.32.68-18.08.55-53.25-.1-29.81-.16-46.94-3.25-69.12-5.4-38.65-14.31-61.86-12.68-62.22,1.88-.41,17.12,30.3,22.7,67.85C615.55,698.48,614.64,714.18,613.51,734.69Z" transform="translate(-159.22 -118.96)"/><path class="cls-2" d="M360.28,590.29a20.5,20.5,0,0,1-5.7,8c9,.6,16.6,1.38,22.58,2.23-11.69,1.65-29.48,3-52.12,3.38q-.29-3.17-.71-6.76l2.62,0a20.21,20.21,0,0,1-3.12-4.06,289.16,289.16,0,0,0-7.37-37c-3.6-13.41-4.87-14.29-10-32C303,512,299.62,497,293,467c-5.13-23.08-7.39-34.76-8.12-40-2.76-19.77-1.23-25.22-9.69-45.73-9.31-22.56-21.88-42-21.58-63.67a196.73,196.73,0,0,0-1.75-27.43c-1.33-9.95-2.8-15.17-4.35-19.38a74.1,74.1,0,0,0-9.13-17.28c-.09-1.62-.81-13-2.9-13s-4.29,10.41-4.65,12.12a116.2,116.2,0,0,1,9.09,31.58c1.26,9.1.91,14.42,1,20.33.11,6.46.88,15.05,15.18,55.86,11.49,32.77,13.69,34.95,16.35,49,2.8,14.86,1.46,18.39,3.53,33.39,2.13,15.43,7.4,27.51,15.9,54.74,5.46,17.52,2.19,10.93,11.08,43.09,5.23,18.91,9.61,32.94,8.48,48.08-2.84,0-5.66,0-8.42.08a20.4,20.4,0,0,1-15.42,7.09h0A20.39,20.39,0,0,1,273.34,590c-23.95,1.64-40,4.65-40,8.11,0,4.9,32.49,8.93,73.92,9.36l0,0,.68,0c2.17,0,4.36,0,6.58,0,44.83,0,81.16-4.21,81.16-9.4C395.63,594.83,381.62,592,360.28,590.29ZM249.91,321.64c-.21-6.39-.53-13-1-19.78s-1.07-13.57-1.75-20L251,296.3c-.17,4.56-.22,9.34-.11,14.32a239,239,0,0,0,1.75,24Zm46.32,178.53q-1.07-6.78-2.48-14t-3.07-14.08l4.15,9.93q.41,4.89,1.18,10.19a162.81,162.81,0,0,0,3.42,16.92Zm13.47,99.24c-.41,1.68-.85,3.18-1.26,4.5-24.8-.21-44.2-1.67-56.66-3.43,12.75-1.81,32.78-3.3,58.44-3.45C310.05,597.82,309.9,598.61,309.7,599.41Z" transform="translate(-159.22 -118.96)"/><path class="cls-2" d="M284.15,540.88a7.47,7.47,0,1,0-2.25,10.32A7.46,7.46,0,0,0,284.15,540.88Zm-3.36,3.55a3.13,3.13,0,1,1,.95-4.33A3.12,3.12,0,0,1,280.79,544.43Z" transform="translate(-159.22 -118.96)"/><path class="cls-2" d="M341.87,550.26a10,10,0,1,0,4,13.59A10,10,0,0,0,341.87,550.26Zm-1.66,6.34a4.2,4.2,0,1,1-1.68-5.7A4.2,4.2,0,0,1,340.21,556.6Z" transform="translate(-159.22 -118.96)"/><path class="cls-2" d="M292.42,568.89a12.78,12.78,0,1,0-6,17.07A12.78,12.78,0,0,0,292.42,568.89ZM286,574.22a5.36,5.36,0,1,1,2.51-7.15A5.36,5.36,0,0,1,286,574.22Z" transform="translate(-159.22 -118.96)"/><path class="cls-2" d="M349.58,569.08a12.79,12.79,0,1,0,12.79,12.78A12.78,12.78,0,0,0,349.58,569.08Zm-3.35,13.47a5.36,5.36,0,1,1,5.36-5.36A5.36,5.36,0,0,1,346.23,582.55Z" transform="translate(-159.22 -118.96)"/><path class="cls-2" d="M253.8,816.93l-6.8,11.3a8.78,8.78,0,1,0,15.05,9L270,824A128.17,128.17,0,0,1,253.8,816.93Z" transform="translate(-159.22 -118.96)"/><path class="cls-2" d="M376.69,816.93A129.44,129.44,0,0,1,360.47,824l8,13.24a8.78,8.78,0,0,0,15.05-9Z" transform="translate(-159.22 -118.96)"/><path class="cls-2" d="M380.14,642.38A16.38,16.38,0,0,1,379.2,615c2-1.44,4-3,5.84-4.54-13.11,2.52-34.56,4.32-69.8,4.32-34.27,0-55.53-1.7-68.73-4.11,1.7,1.4,3.45,2.76,5.26,4.06a16.39,16.39,0,0,1-1,27.36c-29.49,18-48.81,48-48.81,82,0,55.12,50.73,99.79,113.3,99.79s113.31-44.67,113.31-99.79C428.55,690.32,409.41,660.42,380.14,642.38ZM278,668c-3.53,12.43-15.57,20.43-19.43,33.22-2.39,7.9-2.82,16.12-3.12,24.31-.28,7.65.94,16.38-2.5,23.49a11.47,11.47,0,0,1-6.25,6.11,10.81,10.81,0,0,1-8.12-.83c-11.22-5.52-16.23-20.34-16.78-31.95-.48-10,1.83-19.89,5.36-29.22a105.83,105.83,0,0,1,18.06-30.93c5.2-6.15,9.87-10.95,18.31-11.14,7.12-.15,13,3.44,14.63,9.27A14,14,0,0,1,278,668Zm98.32,119.88c-5,3.22-13.15,5.57-17.32-.07-10.66-14.43,10.68-24,14.93-36.11,2.05-5.85,3-13.69,9.48-16.36,4.95-2,10.42.28,13.52,4.4C409,755.83,389.1,779.63,376.32,787.85Z" transform="translate(-159.22 -118.96)"/><path class="cls-3" d="M549.31,822.1l-182-3.81c-164.68,3.1-207.68,11.33-208.11,19.56-.47,9.13,51.34,23.42,64.87,27.15a337.69,337.69,0,0,0,42.38,8.8c18.39,1.71,43.24,3.71,72.65,5.16C565.28,890.05,773.55,854,772.68,838.34,772.28,831.19,728.25,824,549.31,822.1Zm-176,40.1c-9,.48-40.63,2-90,.77-26.8-.69-40.53-1.09-56.68-3.46-23.56-3.46-43.49-9.4-41.56-10.76,2.35-1.63,34.79,4.74,76.5,7.78A742.07,742.07,0,0,0,384,854.86c16.4.52,35,1.37,35.21,2.78C419.44,859.73,378.81,861.9,373.29,862.2Z" transform="translate(-159.22 -118.96)"/><path class="cls-2" d="M989.59,387.22c1.79-.56,3.18-.45,4.19.33a5.84,5.84,0,0,1,2.07,2.95c.75,2.38.12,6.3-1.89,11.73s-4.18,11.73-6.52,18.9A150.08,150.08,0,0,0,982,443.62a47.11,47.11,0,0,0,1.29,21.86,119.25,119.25,0,0,0,10,22.42q6.69,12,15,24.29t17.16,23.94q8.86,11.63,16.71,21,2.89,4,9.62,11.89t15,17.42q8.22,9.54,17.39,19.44t17.26,18a166,166,0,0,0,14.2,12.91q6.08,4.8,8.47,4t4.93-7.27a134.6,134.6,0,0,0,5.11-17.65q2.58-11.11,5.91-26.08t7.23-32.88q6-27.75,10.44-49.77t7.75-37.46q3.34-15.46,5.92-24t5.27-9.35c1.78-.56,4.59.2,8.4,2.28s9.67,6.14,17.57,12.18S1220.93,465.29,1234,476s29.88,24.48,50.39,41.19q4.88,4,14,11.67l20.2,16.93q11.1,9.28,23.08,18.8T1364,581.69q10.4,7.56,18.21,12.14c5.22,3.07,8.72,4.31,10.51,3.75q3-.93,5.88-10.51t5.56-23q2.67-13.44,5.06-28.27t4-26.47q.67-5.12,2.3-17.75t3.47-30.22q1.85-17.61,4-39.07t3.77-43.91q1.63-22.46,2.79-44.92t1.37-42.18q.21-19.71-.89-35.25t-3.9-24.48a22.77,22.77,0,0,0-9.46-12.43q-7-4.68-17.77-6.55-16.26-2.78-28.59-4t-21-2.27a69.36,69.36,0,0,1-13.45-2.66q-4.75-1.62-6-5.5a6.24,6.24,0,0,1,.79-5.81,9.67,9.67,0,0,1,5.11-3.57q4.47-1.4,12.42-1.11t20.9.34q12.95,0,32.09-1a433.47,433.47,0,0,0,46.21-5.63q21.42-3.77,39-8.13t32.83-9.14q9.24-2.9,15.42-5.15t10-3.48q8.35-2.61,12.18-1.36a7.19,7.19,0,0,1,5,4.84,7.06,7.06,0,0,1-.66,6.26,19.79,19.79,0,0,1-4.83,5,30.38,30.38,0,0,1-7,3.83c-2.62,1-5.13,1.93-7.51,2.68q-15.51,4.86-26.16,9a103.33,103.33,0,0,0-18.15,9,48.84,48.84,0,0,0-12.62,11.48,80.33,80.33,0,0,0-9.34,16.19q-4.42,9.9-8.38,28.66t-7.41,43.25q-3.46,24.5-6.8,53.05t-6.44,57.85q-3.1,29.29-6.29,57.8t-6.7,52.85q-2.14,15.09-4.83,37.37t-5.7,47.14q-3,24.85-6.25,49.6t-6.74,44.85q-3.54,20.1-7,33.13t-6.73,14.06q-5.08,1.59-22.93-16.23t-48.77-51.69q-19.1-21.2-36.8-41.69t-33.39-38.66q-15.69-18.18-28.65-33.44t-23-26.21q-10-10.95-16.39-16.8t-8.51-5.2q-2.09.66-4.78,10.34t-5.78,24.4q-3.09,14.73-6.08,32.36t-5.76,33.9q-2.76,16.26-4.88,29.36t-3,18.62l-18.21,98.7q-1.85,8.77-3.73,12.64c-1.28,2.57-2.9,4.18-4.89,4.8q-5.07,1.59-12.9-7.75-6.2-7.21-14-16.9t-16.38-20.91q-8.6-11.22-17.76-23.25t-18-23.66q-16.21-21.45-30.21-42.11t-27-39q-13-18.36-25.14-33.22a166.74,166.74,0,0,0-24.4-24.61q-12.22-9.75-25-13.3a45.79,45.79,0,0,0-26.46.75,120.52,120.52,0,0,0-13,4.9q-6.18,2.76-11.72,5.47t-10.22,5a60.36,60.36,0,0,1-8.26,3.41q-10.14,3.17-12.48-4.28-1.3-4.17.77-7a29.28,29.28,0,0,1,5.79-5.57,102.22,102.22,0,0,1,13.28-7.77q8.49-4.29,19.33-11T891,500a266.2,266.2,0,0,0,27.31-23.61Q938.41,457,950.75,441t20-27.7q7.62-11.73,11.6-18.37T989.59,387.22Z" transform="translate(-159.22 -118.96)"/><path class="cls-2" d="M1644.77,485.83a104.91,104.91,0,0,1,13.57-3.48q8.42-1.68,16.27-3.48,15.93-3.81,26.49-10.32a65.7,65.7,0,0,0,17.84-16.05,97.46,97.46,0,0,0,12.45-22q5.16-12.47,10.32-28.39,4.5-13.92,9.09-19.64t10.21-5.72q5.16,0,7.19,3.81a21.75,21.75,0,0,1,2,10.1,79.09,79.09,0,0,1-2,15.6q-2,9.54-4.61,20.09t-4.6,20.75a94.16,94.16,0,0,0-2,17.85,13.68,13.68,0,0,0,1.46,6.39q1.47,2.81,6,2.81a56.93,56.93,0,0,0,6.51-.45q3.81-.45,8.08-.9t8.86-.9q4.61-.45,8.64-.45,9.65,0,9.65,6.06a4.7,4.7,0,0,1-2.47,4.49,14.09,14.09,0,0,1-6.73,1.35c-2.1,0-4.64.08-7.63.22s-6.21.49-9.65,1a105,105,0,0,0-10.32,2.13,49,49,0,0,0-9.65,3.6,31.09,31.09,0,0,0-10.21,7.85,50.28,50.28,0,0,0-6.4,9.65,160.86,160.86,0,0,0-8.08,21.54q-4.26,13.7-7.85,30.41t-6,35a277,277,0,0,0-2.36,35.35q0,24,4,41.18t11.22,28.39q7.18,11.22,17.06,16.49a44.51,44.51,0,0,0,21.32,5.28,40,40,0,0,0,15.26-2.59,29.91,29.91,0,0,0,10.32-6.73,25.13,25.13,0,0,0,5.84-9.2,29.83,29.83,0,0,0,1.79-10,16.06,16.06,0,0,0-3.25-10.21,73.08,73.08,0,0,0-7.29-8,58.8,58.8,0,0,1-7.3-8.31q-3.25-4.49-3.25-11.67a21.07,21.07,0,0,1,5.72-15q5.73-6.06,15.82-6.06a24.17,24.17,0,0,1,8.64,1.57,19.1,19.1,0,0,1,7.41,5.16,27.45,27.45,0,0,1,5.27,9.09,38.07,38.07,0,0,1,2,13.13,89,89,0,0,1-4,26.37,66.81,66.81,0,0,1-12.79,23.56A66,66,0,0,1,1790,729.66q-13.9,6.62-33.88,6.62-22.45,0-40.4-9.32A76.38,76.38,0,0,1,1687,701.72a106.12,106.12,0,0,1-14.14-33.55,162.3,162.3,0,0,1-4.49-38,273.22,273.22,0,0,1,3.37-43.43q3.36-21,7.4-38.15t7.41-29.62q3.36-12.45,3.36-18.07,0-4-2.24-4.93a16.69,16.69,0,0,0-6.06-.9c-1.5,0-3.56.08-6.17.22s-5.5.3-8.64.45l-9.88.45q-5.16.23-9.87.22-8.31,0-8.3-4.71C1638.71,489.12,1640.73,487.17,1644.77,485.83Z" transform="translate(-159.22 -118.96)"/><path class="cls-2" d="M2129.28,255.62c2.1,0,3.44.6,4,1.8a8,8,0,0,1,.9,3.59,52.8,52.8,0,0,1-.9,8.42q-.9,5.26-2.24,14t-3,21.66q-1.68,12.9-3.48,31.31-2.47,25.8-4.38,52.06t-3.36,51.17q-1.47,24.9-2.58,47.69t-1.91,41.85q-.8,19.08-1.23,33.66t-.68,23.12a115.94,115.94,0,0,1,9.76-21.1,89.83,89.83,0,0,1,14.93-19.07,71.38,71.38,0,0,1,20.2-13.8,59.8,59.8,0,0,1,25.36-5.28,77.71,77.71,0,0,1,17.5,2.13A56,56,0,0,1,2216,536.6a61.25,61.25,0,0,1,15.71,15.14q7.07,9.54,11.11,24.58a163.67,163.67,0,0,1,4.49,28.61q.89,14,.9,30.18,0,12.12-.45,26.94t-.45,30.07q0,10.1,1.9,15.82a18.63,18.63,0,0,0,5.39,8.64,17.69,17.69,0,0,0,8.3,3.81,73.89,73.89,0,0,0,10.66,1.13c1.5.15,3,.3,4.6.44a18.29,18.29,0,0,1,4.27.9,7.58,7.58,0,0,1,3.14,2,5.13,5.13,0,0,1,1.23,3.59,5.77,5.77,0,0,1-2.46,4.49q-2.47,2-9,2a100.78,100.78,0,0,1-19.64-2.13,123.71,123.71,0,0,0-24.12-2.13,94.71,94.71,0,0,0-17.84,1.79q-9.32,1.8-18,3.93T2180,740.37a49.42,49.42,0,0,1-11.22,1.79c-2.39,0-3.85-.41-4.37-1.23a4.37,4.37,0,0,1-.79-2.36,3.3,3.3,0,0,1,1.35-2.8,17.53,17.53,0,0,1,5.16-2.14q4.48-1.56,8-2.91a40.08,40.08,0,0,0,6.4-3.14,21,21,0,0,0,6.4-6.63q3-4.59,4.6-14.92.68-5.61,1.12-13.13t.78-15.93c.23-5.61.41-11.41.57-17.39s.22-12,.22-18q0-14.8-.45-27.94a185.2,185.2,0,0,0-1.79-21.65q-2.93-18.85-10.78-29.85t-22.44-11a27.84,27.84,0,0,0-12.45,2.7,36.25,36.25,0,0,0-9.77,7,54.89,54.89,0,0,0-7.63,9.65,86.16,86.16,0,0,0-5.83,11,153.77,153.77,0,0,0-8.53,24.69q-4,15-7,32.42t-4.6,35.46q-1.68,18.08-1.68,33.78a33.44,33.44,0,0,0,1.8,12,17.34,17.34,0,0,0,5.27,7.41,25.82,25.82,0,0,0,8.3,4.38q4.83,1.56,10.89,2.91a19.79,19.79,0,0,1,5,1.69,3.8,3.8,0,0,1,1.91,3.7q0,5.16-7.86,5.16a89.73,89.73,0,0,1-14.7-1.46q-8.64-1.46-18.4-3.36t-20-3.37a139.41,139.41,0,0,0-19.64-1.46,191.72,191.72,0,0,0-22,1.12,146.39,146.39,0,0,1-16.61,1.12q-9.64,0-9.65-6a4.69,4.69,0,0,1,1.91-3.93,8.1,8.1,0,0,1,5.05-1.46c1.34,0,2.91.08,4.71.22s3.59.23,5.38.23a45.06,45.06,0,0,0,13.92-1.91,22.31,22.31,0,0,0,10-6.62,39.54,39.54,0,0,0,7.07-12.68,113.15,113.15,0,0,0,4.94-20.08q1.35-7.86,3-24t3.7-37.59q2-21.42,4-46.68t3.93-51.39q1.9-26.15,3.7-51.61t3-47.47q1.23-22,2-38.94t.79-25.92q0-13.23-2.36-21T2078.57,329a16,16,0,0,0-8-5.16,33.77,33.77,0,0,0-8.42-1.12,53.81,53.81,0,0,0-8.75.78q-4.71.8-9.54,1.68c-3.22.6-6.36,1.17-9.42,1.69a51.88,51.88,0,0,1-8.64.78c-2.39,0-4.08-.48-5-1.46a5.31,5.31,0,0,1-1.46-3.92,5.66,5.66,0,0,1,1.79-4.49,17.57,17.57,0,0,1,5.61-2.92c3.6-1.19,7.48-2.39,11.67-3.59s8.72-2.65,13.58-4.38,10.06-3.81,15.6-6.28a190.78,190.78,0,0,0,17.95-9.31,99.92,99.92,0,0,0,18-12.68q6.95-6.4,11.67-11.45l7.74-8.3Q2125.92,255.62,2129.28,255.62Z" transform="translate(-159.22 -118.96)"/><path class="cls-2" d="M2573.63,461.62c0,1.8-.08,4.3-.22,7.52s-.23,6.55-.23,10a127.51,127.51,0,0,0,.79,13.8q.78,7.29,2,13.46t2.47,10.33q1.23,4.15,2.13,4.15c.59,0,1.46-2.17,2.58-6.51s2.77-9.8,4.94-16.38a209.14,209.14,0,0,1,8.41-21.21,97.14,97.14,0,0,1,13.24-21.21,69.83,69.83,0,0,1,19.41-16.38q11.34-6.51,26.82-6.51,14.36,0,24.13,4.94A45.73,45.73,0,0,1,2695.71,450,46.45,46.45,0,0,1,2704,466a59.54,59.54,0,0,1,2.47,16.27,62,62,0,0,1-3.15,20.76,43.09,43.09,0,0,1-8.41,14.7,36.06,36.06,0,0,1-12,8.86,33.06,33.06,0,0,1-13.69,3q-12.78,0-20.87-6.06t-8.08-17.73a30.56,30.56,0,0,1,1.69-10.77,24,24,0,0,1,4.48-7.63,24.83,24.83,0,0,1,6.74-5.27,42.61,42.61,0,0,1,8.64-3.48q9.65-2.91,13.13-7.18a15.22,15.22,0,0,0,3.47-9.88,17.75,17.75,0,0,0-1.23-6.51,15.45,15.45,0,0,0-4-5.72,20.89,20.89,0,0,0-7.18-4.15,31.67,31.67,0,0,0-10.66-1.57,41.84,41.84,0,0,0-22.44,5.95,58.26,58.26,0,0,0-16.83,15.93,93.93,93.93,0,0,0-11.9,23,194.4,194.4,0,0,0-7.63,27.27,248.62,248.62,0,0,0-4.15,28.72q-1.23,14.48-1.23,27.05,0,11.45.89,24.79t2.36,26.82q1.46,13.47,3.25,26.26t3.48,23.34q1.68,10.55,3,18.18t2,10.54q2.48,10.11,7.74,14t14,3.93q3.81,0,8-.23c2.76-.14,4.82-.22,6.17-.22q6.06,0,6.06,4.49a4.54,4.54,0,0,1-3.37,4.71q-2.68,1.13-9.54,1.35t-15.93.45q-9.09.22-19.64.67t-20.42,1.57a211.86,211.86,0,0,0-21.32,3.7q-10.32,2.35-19.07,4.49t-15.49,3.7a49.92,49.92,0,0,1-10.77,1.57c-2.84,0-4.79-.59-5.84-1.79a5.76,5.76,0,0,1-1.57-3.82,5,5,0,0,1,2.81-4.82,51.28,51.28,0,0,1,7.74-3c2.54-.75,5.57-1.53,9.09-2.36a74.82,74.82,0,0,0,12.46-4.37q7.17-3.15,10-8.42t2.81-16c0-2.25-.15-6-.45-11.34s-.71-11.63-1.24-19-1.12-15.37-1.79-24.13-1.39-17.73-2.13-26.93-1.54-18.36-2.36-27.49-1.61-17.69-2.36-25.69-1.45-15.15-2.13-21.44-1.23-11.29-1.68-15a38.82,38.82,0,0,0-2.69-10.66,16.27,16.27,0,0,0-4.27-5.95,12.26,12.26,0,0,0-5.72-2.58,42.14,42.14,0,0,0-7.07-.56H2507c-.75,0-1.68,0-2.81-.11a12.28,12.28,0,0,1-3.25-.67,6.22,6.22,0,0,1-2.58-1.69,4.2,4.2,0,0,1-1-2.92,3.81,3.81,0,0,1,2-3.59,15,15,0,0,1,4.94-1.57A141,141,0,0,0,2524.6,496a53.64,53.64,0,0,0,17.84-9,81,81,0,0,0,11.33-11.33,72,72,0,0,0,9.76-14.93c1.8-3.73,3.74-5.61,5.84-5.61,1.94,0,3.14.75,3.59,2.25A14.83,14.83,0,0,1,2573.63,461.62Z" transform="translate(-159.22 -118.96)"/><path class="cls-2" d="M2747.78,576.32a39.07,39.07,0,0,1-15.6-3.14,34.64,34.64,0,0,1-12.68-9.43A46.51,46.51,0,0,1,2711,548a70.56,70.56,0,0,1-3.14-22.22,96.06,96.06,0,0,1,3.93-27.26A69.11,69.11,0,0,1,2724,474.77a60.31,60.31,0,0,1,21.21-16.72q12.9-6.29,31.08-6.28a82.77,82.77,0,0,1,26.59,3.92,71.52,71.52,0,0,1,20.31,10.55,69.47,69.47,0,0,1,14.93,15.37,109.24,109.24,0,0,1,10.43,18.29,146.5,146.5,0,0,1,7.07,19.3q2.8,9.76,4.83,18.52,1.11,4.93,2.8,14t3.71,21q2,11.89,4.26,25.47t4.49,27.49q2.24,13.92,4.37,27t3.93,24q1.8,10.89,3,18.63t1.91,10.66q1.35,7,3,14.14a76.89,76.89,0,0,0,4.26,13.13,31.16,31.16,0,0,0,6.4,9.76,13.08,13.08,0,0,0,9.65,3.81,10.62,10.62,0,0,0,5.83-1.57A11.3,11.3,0,0,0,2922,741a21.49,21.49,0,0,0,2.13-6.06,35.26,35.26,0,0,0,.67-7q0-4.26-.22-8.64c-.15-2.91-.22-5.42-.22-7.51a17.08,17.08,0,0,1,.89-5.84,3.5,3.5,0,0,1,3.59-2.47q2.48,0,3.93,2.81a25.91,25.91,0,0,1,2.25,6.51,50.6,50.6,0,0,1,1,7.4c.14,2.47.22,4.3.22,5.5a132.14,132.14,0,0,1-1.35,17.73,66.3,66.3,0,0,1-5.61,19.07,34.3,34.3,0,0,1-13.46,15.49,39.38,39.38,0,0,1-21.77,6.06,49.23,49.23,0,0,1-18.51-3.14,47.71,47.71,0,0,1-13.24-7.86,52.53,52.53,0,0,1-9.21-10.1,74.53,74.53,0,0,1-5.94-10.1,109.66,109.66,0,0,1-9.54-26.59q-3.26-14.48-5.28-27.71a119.49,119.49,0,0,1-10.21,13.91,99.12,99.12,0,0,1-16.94,15.93,102.39,102.39,0,0,1-23.34,13,77.39,77.39,0,0,1-29.4,5.38q-18,0-30.63-5a56.63,56.63,0,0,1-20.76-13.69,53.8,53.8,0,0,1-11.89-20.2,77.76,77.76,0,0,1-3.82-24.58,81.43,81.43,0,0,1,5.16-28.05,68,68,0,0,1,16.95-25.58q11.77-11.44,30.74-18.63t46.34-7.18q6.28,0,12.23.56t10.78,1.24q4.82.66,8.3,1.34c2.32.45,4,.75,5.05.9q-1.35-19.31-3.37-38.6-.9-8.08-1.9-17.06t-2.14-18.06q-1.12-9.09-2.46-17.84T2808.15,500q-3.6-17.28-14-27.5t-26.59-10.21a35.37,35.37,0,0,0-15.37,3.15,36.49,36.49,0,0,0-11.22,8.07,32.41,32.41,0,0,0-6.85,11.11,35.53,35.53,0,0,0-2.24,12.23,18.14,18.14,0,0,0,3.14,10.89,34.24,34.24,0,0,0,7.74,7.74,100.79,100.79,0,0,0,10,6.4,62.79,62.79,0,0,1,10,7,35.33,35.33,0,0,1,7.75,9.43q3.14,5.51,3.14,13.8,0,11-7.52,17.62A26.72,26.72,0,0,1,2747.78,576.32Zm75,45.55a44.88,44.88,0,0,0-5.5-1.68c-2.62-.67-5.73-1.35-9.32-2s-7.44-1.23-11.55-1.68a112.6,112.6,0,0,0-12.23-.67,70.32,70.32,0,0,0-22.11,3.36,49.32,49.32,0,0,0-17.62,10,46.32,46.32,0,0,0-11.67,16.6,58.23,58.23,0,0,0-4.26,23q0,11.9,3.93,19.63a33.3,33.3,0,0,0,10.1,12.23,37.92,37.92,0,0,0,13.69,6.29,62.88,62.88,0,0,0,14.69,1.79,65.63,65.63,0,0,0,21.77-3.59,97.72,97.72,0,0,0,18.18-8.3,81,81,0,0,0,12.79-9.2,53.36,53.36,0,0,0,6.06-6.06q-1.58-15-2.92-27.38c-.44-3.59-.86-7.1-1.23-10.55s-.75-6.65-1.12-9.65-.71-5.53-1-7.63S2822.88,622.77,2822.74,621.87Z" transform="translate(-159.22 -118.96)"/><path class="cls-2" d="M3041.84,458.27a107,107,0,0,1,13.58-3.47q8.41-1.69,16.27-3.48,15.93-3.81,26.48-10.33A65.5,65.5,0,0,0,3116,425a97.46,97.46,0,0,0,12.45-22q5.16-12.46,10.33-28.39,4.49-13.92,9.09-19.64t10.21-5.72q5.16,0,7.18,3.81a21.73,21.73,0,0,1,2,10.1,79.09,79.09,0,0,1-2,15.6q-2,9.54-4.6,20.08t-4.6,20.76a93.34,93.34,0,0,0-2,17.84,13.57,13.57,0,0,0,1.46,6.4q1.45,2.81,5.94,2.8a56.51,56.51,0,0,0,6.51-.44c2.54-.3,5.24-.6,8.08-.9s5.8-.6,8.86-.9,5.95-.45,8.64-.45q9.66,0,9.65,6.06a4.71,4.71,0,0,1-2.46,4.49,14.16,14.16,0,0,1-6.74,1.35c-2.09,0-4.64.07-7.63.22s-6.21.49-9.65,1a102.21,102.21,0,0,0-10.32,2.13,49.9,49.9,0,0,0-9.65,3.59,31.25,31.25,0,0,0-10.21,7.86,50.28,50.28,0,0,0-6.4,9.65,160.86,160.86,0,0,0-8.08,21.54q-4.26,13.69-7.85,30.41t-5.95,35a276.82,276.82,0,0,0-2.35,35.34q0,24,4,41.19t11.22,28.38q7.17,11.24,17.05,16.5a44.5,44.5,0,0,0,21.32,5.27,40.21,40.21,0,0,0,15.26-2.58,30.19,30.19,0,0,0,10.33-6.73,25.4,25.4,0,0,0,5.83-9.2,29.64,29.64,0,0,0,1.8-10,16,16,0,0,0-3.26-10.21,73.16,73.16,0,0,0-7.29-8,58.72,58.72,0,0,1-7.3-8.3q-3.26-4.48-3.25-11.67a21.09,21.09,0,0,1,5.72-15q5.73-6.06,15.82-6.05a24.13,24.13,0,0,1,8.64,1.57,19,19,0,0,1,7.41,5.16,27.25,27.25,0,0,1,5.27,9.09,38,38,0,0,1,2,13.13,89,89,0,0,1-4,26.36A64.87,64.87,0,0,1,3187,702.1q-13.92,6.63-33.89,6.62-22.44,0-40.4-9.31A76.4,76.4,0,0,1,3084,674.16a105.92,105.92,0,0,1-14.14-33.55,162.83,162.83,0,0,1-4.49-38,273.18,273.18,0,0,1,3.37-43.42q3.36-21,7.4-38.15t7.41-29.62q3.36-12.47,3.37-18.07,0-4-2.25-4.94a16.93,16.93,0,0,0-6.06-.89q-2.23,0-6.17.22t-8.64.45l-9.87.45q-5.17.22-9.88.22-8.29,0-8.3-4.71Q3035.78,460.3,3041.84,458.27Z" transform="translate(-159.22 -118.96)"/><path class="cls-2" d="M1543.91,388a32,32,0,0,0,11.39,6,42.49,42.49,0,0,0,11.69,1.76,46.54,46.54,0,0,0,13-1.9,34,34,0,0,0,12.12-6.43,33.64,33.64,0,0,0,9.06-12q3.51-7.46,3.51-18.55,0-16.65-10.23-25.71T1567,322.09a38.59,38.59,0,0,0-11.4,1.9,32.92,32.92,0,0,0-11.39,6.28,34.48,34.48,0,0,0-8.77,11.54q-3.51,7.17-3.5,18,0,10.23,3.36,17.09A31.85,31.85,0,0,0,1543.91,388Zm24.93-59.75c13-2.82,29.22,17.72,25.42,25.73-2.54,5.36-14.61,6.32-23.07,3.12-1.64-.62-13.88-5.46-13.84-15C1557.37,335.54,1563,329.49,1568.84,328.22Z" transform="translate(-159.22 -118.96)"/><path class="cls-2" d="M1642.37,736.09q-3.81-.58-9.94-1.75a71.37,71.37,0,0,1-8.32-1.17,89.28,89.28,0,0,1-8.92-2.19c-2.92-.88-5.65-1.8-8.18-2.78a32.51,32.51,0,0,1-6.42-3.21,34.24,34.24,0,0,1-4.53-4.09,23,23,0,0,1-4-6.14,43.53,43.53,0,0,1-2.92-9.64,78,78,0,0,1-1.17-14.9q0-7,.88-21.76t2.34-34.19q1.46-19.42,3.36-42.22t4.09-46q2.19-23.24,4.53-45.29t4.67-40.17q1.45-11.4,2.48-21.48t1-14.46q0-6.72-2.93-6.72c-1.36,0-3,.93-5,2.78s-4.68,4.19-8.18,7a148.84,148.84,0,0,1-13.59,9.49,137.09,137.09,0,0,1-21.18,10.52,162.59,162.59,0,0,1-22.21,7.75q-10.51,2.77-19.43,4.23t-15.63,2.19q-6.72.74-11.1,1c-5.84.58-8.76,2.73-8.76,6.42a5.54,5.54,0,0,0,1.89,4.68,11.68,11.68,0,0,0,5.12,2q11.1.88,19,2.19a27.7,27.7,0,0,1,13,5.41q5.11,4.09,7.89,12.56t3.36,23.38q.58,9.35.58,22.64v58.14q0,15.35-.29,31.56t-.88,32.86q-.58,16.66-1.75,32.73a32.51,32.51,0,0,1-3.94,13.29,25.59,25.59,0,0,1-7.6,8.18,32.44,32.44,0,0,1-10.08,4.53q-5.55,1.47-11.39,2.63a60.85,60.85,0,0,0-9.21,2.48c-3,1.08-4.53,3-4.53,5.7a5.27,5.27,0,0,0,4.09,5.41,29.73,29.73,0,0,0,9.06,1.31q6.13,0,12.27-.58t13.15-1.47c4.68-.58,9.83-1.06,15.49-1.46s12-.58,19-.58a164.19,164.19,0,0,1,21.33,1.31c6.61.88,13,1.9,19.13,3.07s12.13,2.19,18,3.07a117.54,117.54,0,0,0,17.53,1.31q12.56,0,12.56-5.84C1646.16,737.75,1644.9,736.49,1642.37,736.09Z" transform="translate(-159.22 -118.96)"/><path class="cls-2" d="M3138.91,222a64.37,64.37,0,0,0-15.17-23.16A58.13,58.13,0,0,0,3102,185.67a78.92,78.92,0,0,0-25.4-4.12,66.58,66.58,0,0,0-30,6.59,81.2,81.2,0,0,0-23.87,18.1,117.58,117.58,0,0,0-18.47,27.4,249,249,0,0,0-13.87,34.58,342.36,342.36,0,0,0-10,39.27q-4,20.58-6.82,41.75-1.41,9.64-2.82,18.46a61.56,61.56,0,0,1-4.7,16,37,37,0,0,1-8.94,12.23q-5.64,5.06-15.52,6.7-11.53,2.11-19.87,2.94t-17.06,2a30,30,0,0,0-8.23,2,4.63,4.63,0,0,0-2.82,4.59,4.24,4.24,0,0,0,2.59,4.23,15.89,15.89,0,0,0,6.58,1.17c2,0,4.75-.15,8.12-.47s7-.66,11-1.05,8-.75,12.11-1.06,7.76-.47,11.06-.47a43.34,43.34,0,0,1,9.29.82,11.53,11.53,0,0,1,5.76,2.94,12.38,12.38,0,0,1,3.06,5.88,49.75,49.75,0,0,1,1.17,9.64q.24,10.13.59,25.52t.59,34.45q.23,19,.47,40.69t.35,43.74q.12,22.11.24,44t.11,41.39v36q0,16.23-.47,27.28a125.73,125.73,0,0,1-2.47,22.22,42.47,42.47,0,0,1-6.46,15.41,43.2,43.2,0,0,1-11.53,11,96.13,96.13,0,0,1-17.64,8.94,45,45,0,0,0-7.88,4.35,5.86,5.86,0,0,0-2.7,4.82q0,4.47,5.41,4.47,6.59,0,15.87-4.12t22.11-9.05a244.57,244.57,0,0,1,29.75-9.06q16.94-4.11,39-4.35,10.35,0,19.64.24t14.7.23q9.4,0,14.81-2.23t5.41-6.94a5.65,5.65,0,0,0-3.52-5.29,29.52,29.52,0,0,0-9.65-2.47c-3.45-.47-6.46-.86-9.05-1.18s-5-.58-7.29-.82-4.47-.55-6.59-.94a60.33,60.33,0,0,1-6.93-1.76q-10.83-3.3-15.17-12.47t-5.53-23.28q-.48-4.23-1.06-18.23t-1.29-34q-.71-20-1.53-44.33t-1.65-49.27q-.82-24.93-1.53-48.69t-1.29-42.56q-.59-18.82-.94-31t-.35-14.11a115.57,115.57,0,0,1,.59-12.35,21.62,21.62,0,0,1,2.93-9.29,17.5,17.5,0,0,1,5.53-5.05,33,33,0,0,1,9.76-3.65q9.18-2.11,16.23-3.29t12.7-1.88q5.64-.71,10-1.29c2.9-.39,5.53-.83,7.88-1.3q7.53-1.41,10.47-3.29a5.84,5.84,0,0,0,2.94-5.17c0-3.3-2.2-4.94-6.59-4.94a43.64,43.64,0,0,0-9.87,1.41q-5.9,1.41-12.82,2.94t-14.58,2.94a82.34,82.34,0,0,1-14.94,1.41q-9.17,0-14.11-4.47a26.48,26.48,0,0,1-7.29-11.64,59.19,59.19,0,0,1-2.7-16.23q-.36-9-.36-18.23,0-12.69.83-28.81t3.17-32.92a255.67,255.67,0,0,1,6.82-32.93,122.33,122.33,0,0,1,11.76-28.69,64.79,64.79,0,0,1,17.76-20.22q10.45-7.65,25-7.65,11.76,0,19.29,3.53a33.59,33.59,0,0,1,11.76,8.58,29.36,29.36,0,0,1,5.88,10.94,40,40,0,0,1,1.64,10.58q0,13.89-8.11,23.76t-25.52,16.69a59.93,59.93,0,0,0-14.7,8,43.31,43.31,0,0,0-9,9.17,27.83,27.83,0,0,0-4.47,9.88,45.77,45.77,0,0,0-1.17,10.11,35.64,35.64,0,0,0,2.47,13.29,30.57,30.57,0,0,0,7.17,10.82,34.28,34.28,0,0,0,11.52,7.29,41.91,41.91,0,0,0,15.52,2.7,52.55,52.55,0,0,0,24.23-5.64,56.17,56.17,0,0,0,19-16,77.51,77.51,0,0,0,12.46-24.93,110.47,110.47,0,0,0,4.47-32.46Q3144.55,236.12,3138.91,222ZM3121,302.67a31.56,31.56,0,0,1-13.23,12.56c-10.83,5.89-24.43,6.11-25.43,3.16s12.71-6.18,25.52-21c9.82-11.38,11.42-20.79,14.16-20.13C3125.18,278,3126.86,291.85,3121,302.67Z" transform="translate(-159.22 -118.96)"/><path class="cls-2" d="M2015.28,624.08a66.14,66.14,0,0,0-8.64-16.72,44.46,44.46,0,0,0-10.32-10.44q-5.28-3.58-8.64-3.59c-2.4,0-3.59,1.13-3.59,3.37,0,1.79.93,3.93,2.8,6.4a96.92,96.92,0,0,1,6.06,9.2,77.18,77.18,0,0,1,6.06,13.35q2.81,7.86,2.8,19.3a60.88,60.88,0,0,1-3.47,20.53,50,50,0,0,1-10,16.95,46.88,46.88,0,0,1-16.27,11.44,54.61,54.61,0,0,1-22.11,4.27q-18.84,0-33.88-7.86a70.88,70.88,0,0,1-25.47-22.78q-10.44-14.93-15.94-36.35t-5.5-48.81q0-22.44,4.49-39.5t11.67-28.5q7.19-11.45,16.16-17.17a33.52,33.52,0,0,1,18.18-5.72q7.62,0,12.23,3a20.27,20.27,0,0,1,7.07,8,34.64,34.64,0,0,1,3.25,11.23,105.48,105.48,0,0,1,.79,13,48.12,48.12,0,0,0,2.58,16.5,32.23,32.23,0,0,0,7.07,11.67,28,28,0,0,0,10.66,6.84,38.65,38.65,0,0,0,13.35,2.24,33.23,33.23,0,0,0,11.11-2,28.28,28.28,0,0,0,10.43-6.62,33.73,33.73,0,0,0,7.63-11.89q2.93-7.29,2.92-18.07a43.44,43.44,0,0,0-4.71-20.3,47.93,47.93,0,0,0-12.91-15.6,60.39,60.39,0,0,0-19.41-10.1,78.43,78.43,0,0,0-24-3.59,126.82,126.82,0,0,0-22.78,2,89.1,89.1,0,0,0-21.54,6.84,104,104,0,0,0-20.54,12.79A132.84,132.84,0,0,0,1863.12,517,112.38,112.38,0,0,0,1851,535.21a154.8,154.8,0,0,0-9.88,22.33,166,166,0,0,0-6.73,25.25,145,145,0,0,0-2.47,26.7q0,28.05,7.29,50.38t20.43,37.93a88.49,88.49,0,0,0,31.3,23.9,95.48,95.48,0,0,0,40.17,8.3,108.14,108.14,0,0,0,35-5.49A78.08,78.08,0,0,0,1994,708.35a74.46,74.46,0,0,0,18.29-26.26q6.62-15.6,6.62-35.79A64.77,64.77,0,0,0,2015.28,624.08ZM1945.61,485.5c.93-2.53,16.85-3.7,29.15,1.09a31.1,31.1,0,0,1,14.18,10.61c6.57,8.64,6.61,19.41,3.2,20.17s-6.87-10.13-23.69-20.44C1955.57,489,1944.82,487.65,1945.61,485.5Z" transform="translate(-159.22 -118.96)"/><path class="cls-2" d="M2477.13,639.15a65.75,65.75,0,0,0-8.64-16.71A43.89,43.89,0,0,0,2458.17,612q-5.28-3.59-8.64-3.59c-2.4,0-3.59,1.12-3.59,3.37q0,2.69,2.8,6.39a99.57,99.57,0,0,1,6.06,9.2,77.66,77.66,0,0,1,6.06,13.36q2.8,7.85,2.81,19.3a60.68,60.68,0,0,1-3.48,20.53,49.71,49.71,0,0,1-10,16.94A46.9,46.9,0,0,1,2433.93,709a54.76,54.76,0,0,1-22.1,4.26q-18.85,0-33.89-7.85a71,71,0,0,1-25.47-22.78q-10.44-14.93-15.94-36.36t-5.5-48.81q0-22.44,4.49-39.49t11.67-28.51q7.18-11.45,16.16-17.16a33.45,33.45,0,0,1,18.18-5.73q7.62,0,12.23,3a20.29,20.29,0,0,1,7.07,8,34.5,34.5,0,0,1,3.25,11.22,103.72,103.72,0,0,1,.79,13,48,48,0,0,0,2.58,16.49,32.14,32.14,0,0,0,7.07,11.67,28.07,28.07,0,0,0,10.66,6.85,38.89,38.89,0,0,0,13.35,2.24,33.23,33.23,0,0,0,11.11-2,28.45,28.45,0,0,0,10.44-6.62,34,34,0,0,0,7.63-11.89q2.91-7.29,2.91-18.07a43.48,43.48,0,0,0-4.71-20.31,48,48,0,0,0-12.9-15.6,60.73,60.73,0,0,0-19.42-10.09,78.13,78.13,0,0,0-24-3.6,127.74,127.74,0,0,0-22.78,2,89.27,89.27,0,0,0-21.54,6.85,103.51,103.51,0,0,0-20.54,12.79A131.84,131.84,0,0,0,2325,532.11a112.41,112.41,0,0,0-12.12,18.18,155.42,155.42,0,0,0-9.88,22.33,166.16,166.16,0,0,0-6.73,25.24,145.07,145.07,0,0,0-2.47,26.71q0,28,7.3,50.38t20.42,37.93a88.7,88.7,0,0,0,31.3,23.9,95.64,95.64,0,0,0,40.17,8.3,107.87,107.87,0,0,0,35-5.5,77.7,77.7,0,0,0,27.83-16.16,74.2,74.2,0,0,0,18.29-26.25q6.62-15.6,6.62-35.8A64.85,64.85,0,0,0,2477.13,639.15Zm-70.67-136.6c.93-2.53,16.85-3.7,29.15,1.09a31.09,31.09,0,0,1,14.18,10.62c6.57,8.63,6.61,19.41,3.2,20.16s-6.87-10.13-23.69-20.44C2416.42,506.09,2405.66,504.71,2406.46,502.55Z" transform="translate(-159.22 -118.96)"/></svg>