<svg id="Layer_1" data-name="Layer 1" xmlns="http://www.w3.org/2000/svg" viewBox="0 0 726.44 902.44"><defs><style>.cls-1{fill:#1a1a1a;}.cls-2{opacity:0.19;}</style></defs><title>Witctcraft-1x1</title><path class="cls-1" d="M344.75,388.3c-14.38,8.44-26.6,10-33,10.31a121.49,121.49,0,0,1-18.85-.75c-10.64-1.39-15.43-3.7-19.27-.75-2.49,1.91-3.09,5.13-4.18,11.49a83.38,83.38,0,0,0-1,19.45A62,62,0,0,0,275.73,410c.78-3.52,1.17-6.91,3.66-8.09,1-.46,1.93-.42,9.38,2.07,6.35,2.12,7.41,2.67,8.27,3.94,1.59,2.35,1.18,5.27.85,6.74l-20.74,18.61A38.14,38.14,0,0,0,274,448.71c.16,17.92,13.42,29.5,16,31.63a58.44,58.44,0,0,1-9.4-18.94c-1.41-5-4.57-16.2.3-20.49,1.05-.93,2.92-1.92,3.82-1.32,1.38.93-.13,5.18-.69,7.35-3.33,12.76,6.83,27,7.18,26.88s-4-7.2-3.95-17.77c0-7.93,2.48-14.54,3.4-14.43,1.11.14-1.46,10.06,2.67,20.49a35.76,35.76,0,0,0,11.28,14.67c-9.53-13.65-11.82-27.75-5.85-35a14.05,14.05,0,0,1,5.82-4.1,28.43,28.43,0,0,0,5.13,31.56,31.48,31.48,0,0,1,1.7-27.48l18.86-14.33,13.44-7.81L382.29,406l-15.81-24.77Z" transform="translate(-157.53 -30.1)"/><path class="cls-1" d="M398.29,477.79c-14.38,8.45-26.6,10-33,10.31a120,120,0,0,1-18.84-.75c-10.65-1.39-15.43-3.69-19.28-.74-2.49,1.9-3.09,5.12-4.18,11.49a83.38,83.38,0,0,0-1,19.45,62,62,0,0,0,7.27-18.07c.79-3.52,1.18-6.91,3.67-8.09,1-.47,1.92-.42,9.38,2.07,6.34,2.12,7.41,2.67,8.26,3.93,1.59,2.36,1.18,5.28.85,6.75-8.64,11.59-16.19,16.41-20.74,18.61-1.33.64-4.7,2.24-5.51,1.28-1.06-1.25,2.38-6.63,5.24-9.85.73-.82,1.12-1.17,1-1.26-.26-.34-6.46,2.38-9.68,8.05a16.52,16.52,0,0,0-2.06,6.73,17.87,17.87,0,0,0,7.44,3,19.18,19.18,0,0,0,7.2-.33c2.62-.63,3.71-1.5,3.82-1.32.25.41-4.68,5.25-10.6,5.1-1.32,0-2.69-.06-3.25-.94-1.83-2.89,7.67-11,7.13-11.63s-13.85,7.24-12.16,12.78c.91,3,5.91,4.4,9.54,4.41,8.88,0,14.73-8.26,15.28-7.69.72.74-10,14.24-14,12.31a3.69,3.69,0,0,1-1.64-2.11c-.74-2.4,1.41-4.71,1.16-4.88s-4.2,2.68-3.68,6a6,6,0,0,0,4.2,4.34c7.66,2.29,18.1-12.92,19.12-12,.44.38-1.34,3.44-3.41,5.78-1,1.16-3.05,3.19-7.86,5.63a51.12,51.12,0,0,1-12.74,4.45,39.62,39.62,0,0,0,17-3,40.82,40.82,0,0,0,19.42-17.34,91.9,91.9,0,0,1,17-16.3c22-16.19,45.72-18.28,57-18.46L420,470.73Z" transform="translate(-157.53 -30.1)"/><path class="cls-1" d="M419.94,276" transform="translate(-157.53 -30.1)"/><path class="cls-1" d="M410.5,173.58c1.28.2,7.21-18.16,6-40.29-.68-12.14-3.31-21.31-6.7-33.29-5.18-18.3-12.24-35.17-13.2-34.9-.74.22,2.79,10.57,7.27,31.18,3.8,17.45,6,27.49,6.84,40.55C412.19,159.6,409.4,173.41,410.5,173.58Z" transform="translate(-157.53 -30.1)"/><circle class="cls-1" cx="347.29" cy="850.01" r="2.4"/><circle class="cls-1" cx="560" cy="847.61" r="2.4"/><circle class="cls-1" cx="660.08" cy="746.05" r="2.4"/><circle class="cls-1" cx="622.38" cy="799.3" r="2.4"/><path class="cls-1" d="M837.57,780.8c-2.76-2.14-6.9-2.28-10.61-.71-14.43,7.24-19.67,8.87-20.32,7.84-1.07-1.69,10.28-10.62,9.59-11.48-.37-.46-3.88,1.71-7.57,4-7.23,4.49-7.74,5.49-9.52,5.93-6.56,1.62-14.48-8.52-17.7-12.72-7.39-9.65-17.71-23.85-29.73-42.79l-25.82,22.7c11.58,9.1,23.92,19.63,36.58,31.73,4.33,4.14,8.45,8.24,12.42,12.31q4.36,4.57,8.72,9.14c-.29.41-.58.83-.88,1.32-6,9.9-3.13,21.32-2.82,21.33s-.58-7.18,4-13c1.31-1.67,3.58-3.88,4.88-3.94l.92,1c.2,2-1.32,7-4.62,17.28-7.4,23.07-8.62,25.66-11.21,28.64-5.31,6.15-11.13,9-16.46,11.52-14.72,7-29.08,7.41-38.66,6.63a188.7,188.7,0,0,0,29.11,4.4c19.69,1.4,32.71,2.15,40.44-5.9,4-4.13,3-6.92,7.49-17A94.79,94.79,0,0,1,812,834l25.9-36.67C842.57,791.57,841.7,784,837.57,780.8Zm-8.23,23.86c-1.09,1.49-3,4.28-6.89,9.86-6.75,9.73-11,16.49-11,16.45a192.52,192.52,0,0,1,10.74-17.34c10.43-15.29,17-21.41,14.75-26.31-1.23-2.63-4.39-3.56-5.11-3.78-6.75-2-13.7,4.69-13.71,4.67s10.12-9.45,17-6.22a8,8,0,0,1,4.3,5.41C840.28,791.48,836.94,794.33,829.34,804.66Z" transform="translate(-157.53 -30.1)"/><circle class="cls-1" cx="420.72" cy="822.65" r="2.4"/><circle class="cls-1" cx="494.12" cy="818.49" r="2.4"/><path class="cls-1" d="M629.71,819.33c-.13-17.85,0-36.81.67-56.81,1.09-34.24,3.29-65.28,5.93-92.57H601.93a506,506,0,0,0,3,73.51c1.45,12.84,2.65,18.86,4.15,32.6a520.78,520.78,0,0,1,3,66.82,41.94,41.94,0,0,0-14.7.55,42.38,42.38,0,0,0-17.87,8.7c4.22-2.54,11.48-5.91,20.15-5,1.24.14,7.31.8,7.5,2.58.09.93-1.41,2.44-18.21,7.55-14.29,4.36-21.61,6.56-29.86,7.37-6.15.61-12.11,1.22-20,.11C529.62,863.43,527,861,522,861.9c-4.76.85-11.05,4.6-17.14,17.88,2.22-3.09,7.7-9.77,16-10.67,2.19-.23,4.46-.06,9.78,1.35,7.84,2.07,11.12,4.77,19.57,7.1,20.6,5.67,40,4.82,51.57,3.55h44.91c7.42.52,13.1-4.55,13.33-9.78.16-3.49-2.12-7-5.54-9.08-15.29-6.24-18.49-9.86-18.13-12.07.24-1.48,2.1-2.46,2.74-2.8,5.16-2.73,11.93,1.28,12,1.07s-4.43-2.79-11.57-4.07a44.3,44.3,0,0,0-8.6-.69,128.31,128.31,0,0,1-1.26-14.16C629.53,825.92,629.57,822.51,629.71,819.33Zm20.87,58.79a205.71,205.71,0,0,0-24.21.23c-2.41.19-5.34.48-10.16.73-5.15.27-8,.26-12,.36-11.87.27-19.79,1.06-19.79,1s19-1.63,20.32-1.73c18.38-1.43,22-1.52,24.74-1.55C641.5,877,650.58,878,650.58,878.12Z" transform="translate(-157.53 -30.1)"/><path class="cls-1" d="M759,562.65a43.76,43.76,0,0,1,.72-11.95c3-13.29,12.48-18.82,11.14-39-2.14-32.23-28.82-56-43.87-69.36-3-2.65-5.65-4.84-8.28-6.83a285.21,285.21,0,0,0-39.14-25.18c-23.35-12.17-106.92-55.72-111.45-111.44C566.85,283,572,266,573.48,260.92c6.68-22.27,15.57-29,21.18-52.76,3.75-15.9,4.33-32.21,1.47-33-3.52-.91-6.8,23.06-25.76,43.82-13.33,14.6-40.2,33.94-62.1,25.3-12.84-5.07-19.92-18.15-20.8-19.83-2.13-4.06-6.7-12.78-4.82-21.81,2.28-11,12.54-15.07,32.29-27.09,0,0,28.83-17.54,53.08-38.35,16.75-14.37,28.86-28.21,28.06-29.08-1-1.1-22.37,19.33-58.69,42.47,0,0-19.94,12.64-50.36,22.63-14.24,4.67-21.84,5.78-28.43,2.08-12-6.73-12.69-24.92-12.77-28.11-16.74-35-31.73-73.44-20.37-82.37,6.77-5.33,20.63,1.61,36.1,9.56,17.28,8.88,40.93,23.77,65.26,49.1a11.84,11.84,0,0,0-1.77,15.68,12,12,0,0,0,15.9,3.2,11.85,11.85,0,1,0-12.65-20,.18.18,0,0,1-.07,0c-20-23.4-31.6-34.93-38.6-41.14L478.09,71.09l-17-15c-17.62-15.23-32.73-28.29-48.16-25.61a28.23,28.23,0,0,0-13,6.42c-23.24,21,11.34,74.13,3.1,144.42a194,194,0,0,1-11.66,47L250.72,270.57A231.22,231.22,0,0,0,379.53,252l9.61-3.08,7.19-2.78,5.75,6.67-6.76,3.89-8.88,6.61-4.08,9.2,1.3,11.57a98.87,98.87,0,0,0-6.73,13.45,97.31,97.31,0,0,0-4.28,13l10.89,11.05,5.37-4.42,4.32-11.29c-.5,2-.84,3.25-1.07,4.11a55.73,55.73,0,0,0,2.67-11.83c.38-3.95,2.12-2.72,7.78-6.18s4.51.17,4.51.17l4.69,3.9,2.77,7.19L410.72,313l-7.51,11.8-4.49,16.35-1,15.62,15.76-11.33,15.89-2.17,3.78-3.37,9-4.73,6.92-8.4,5.74-1.58,7.67,3.39L466.18,343l2.24,15.66,3.84,9.95,5.45,4-2,8.88v9.73c-18-2.44-33.28-5.27-45.49-7.88-21.33-4.54-42.61-10.3-72.7-8.89a206.06,206.06,0,0,0-42.78,6.59c-21.57,7-26.34,11.68-26.06,14.76.58,6.28,22,4.21,35.94,20.44,5.12,5.95,7.21,12,10.67,22a121,121,0,0,1,6.08,28.07,4.36,4.36,0,1,0,3.95,2.86,4.31,4.31,0,0,0-3.49-2.8c-.34-6-.55-23.66,11.25-37.69a55.15,55.15,0,0,1,13-11,59.94,59.94,0,0,1,22.93-8.45c14.51-2,26.29,2.9,30.5,4.55,44,17.25,100.92,12.28,101.87,24s-54.24,24.92-58.13,25.84c-41.62,9.77-80.68,8.49-87.85,10a4.31,4.31,0,0,0-1.77-2.3,4.36,4.36,0,1,0,1.31,6,4.25,4.25,0,0,0,.69-2.48c4.92.88,21.26.88,25.71,9.59,3.82,7.49-2.39,19-11.95,30.86a4.31,4.31,0,1,0,1,1.06A5,5,0,0,0,390,516c9.46-7.41,14-6.67,16.05-5.7,5.36,2.54,5.43,12,6.67,28.75a203.5,203.5,0,0,0,5.11,32.43,3.92,3.92,0,0,0-2.73,2.13,4.45,4.45,0,0,0,0,4.25,4.35,4.35,0,0,0,7,.76,4.29,4.29,0,0,0,.95-4.15,4.35,4.35,0,0,0-3.91-3.11c1.64-39.65,5.73-48.64,9.31-49.06,3.23-.38,4.57,6.38,11.56,9.34,12.91,5.46,24.52-10.85,32.9-8,14.27,4.85,2.71,59.87,5.52,132.77,1.17,30.28,5.43,79.66,13.44,80.12,3.67.22,7.31-9.94,9.94-19.2,3.35-8,5-9.69,5.92-9.48,3.78.86-6.76,34.89,1.78,74.69,3.35,15.62,11.68,41.63,19.86,41.2,10.85-.57,18.26-51.06,21.34-72,.56-3.82,1-7,1.26-9.26a243.33,243.33,0,0,0,10.3,41.27c5.18,15,11.5,33.39,17.79,32.9,6-.47,12.45-14.81,12.44-35l5.34-26.08,20.45-75c8.43,64.15,18.2,113.06,25.57,136.4a95.65,95.65,0,0,0,14.28,28c6.12,8.27,17.23,23.26,25.95,21.44,5.81-1.21,8.64-10.66,17.49-72.32,4.85-33.82,4-62.14,3.56-81.21,10.27,49.6,24.3,104.9,37,104.09,12.44-.79,19.35-55.09,21.25-78.88C767.94,680.38,760,590.15,759,562.65ZM529.05,134a5,5,0,0,1,7-.37c.3.35.6.67.91,1a5,5,0,1,1-8.93,4.15A4.91,4.91,0,0,1,529.05,134ZM403.49,204.67c-.63-.2,7.65-17.33,7.11-41.79-.11-5.25-1.11-12.09-3.11-25.78-2.18-14.92-4.32-27.09-5.78-35.13-6.22-34.19-9.11-42.54-3.83-53.27A54.94,54.94,0,0,1,407.05,36a52.25,52.25,0,0,0-6,9.56,55,55,0,0,0-4,12.22c-1.79,9.72.74,17.89,2.89,25.79,2.87,10.55,4.59,21.38,7.12,32,5.88,24.76,8.82,37.14,8.67,46.69C415.32,186.82,404.15,204.89,403.49,204.67ZM342,471.57a1.83,1.83,0,1,1-2.53-.55A1.83,1.83,0,0,1,342,471.57Zm31.47,6.33a1.83,1.83,0,1,1-.55-2.53A1.84,1.84,0,0,1,373.47,477.9Zm13.44,44.29a1.83,1.83,0,0,1-2-3.08,1.8,1.8,0,0,1,1.48-.2l-.27.32.33-.29a1.79,1.79,0,0,1,.43,3.25Zm32.71,54.38a1.83,1.83,0,1,1-2.52-.55,1.79,1.79,0,0,1,1.79-.06v0A1.76,1.76,0,0,1,419.62,576.57ZM527.11,819.05c-.82.23-10-20.86-13.51-47.73A282.24,282.24,0,0,1,511.82,728c.83-18.86,3.32-28.18,0-29.64-6.07-2.66-22.52,25.09-23.71,24.31s16.3-36.22,24.31-33.79c4,1.22,4.29,11.62,4.74,29.64.48,19.26-1.59,21.13-.9,36.09.47,10.23,2.2,19.49,5.64,38S527.6,818.92,527.11,819.05Zm47.26-10.57c-.53.14-9.08-20.46-11.59-48.33-1.2-13.26,1.29-18.38-.15-37.28-1.2-15.64-3.48-25.39-3-25.48s5.8,15.57,6.3,32.16c.1,3.14.15,16.35,0,21.49a85.35,85.35,0,0,0,0,9.63C567.84,789.24,574.87,808.35,574.37,808.48Zm121.11-49.26c-2,37.08-8,71.44-9.88,71-1.42-.37.81-21.4.66-63.06-.12-35.29-.19-55.58-3.86-81.84-6.38-45.78-16.93-73.25-15-73.68,2.23-.49,20.28,35.88,26.88,80.34C697.9,716.35,696.82,734.94,695.48,759.22Z" transform="translate(-157.53 -30.1)"/><path class="cls-1" d="M395.61,588.24a24.2,24.2,0,0,1-6.74,9.42c10.67.72,19.65,1.63,26.74,2.64-13.84,2-34.91,3.6-61.72,4q-.34-3.74-.84-8l3.09.05a24.46,24.46,0,0,1-3.69-4.82,342.75,342.75,0,0,0-8.72-43.76c-4.26-15.89-5.77-16.93-11.86-37.94-4.14-14.26-8.08-32-16-67.55-6.08-27.33-8.75-41.17-9.62-47.38-3.27-23.42-1.46-29.87-11.47-54.16-11-26.72-25.91-49.69-25.56-75.39a231.46,231.46,0,0,0-2.07-32.48c-1.57-11.79-3.32-18-5.15-23a87.35,87.35,0,0,0-10.81-20.46c-.11-1.92-1-15.34-3.44-15.45s-5.07,12.33-5.5,14.35A137.9,137.9,0,0,1,253,225.76c1.49,10.76,1.09,17.06,1.21,24.06.13,7.66,1,17.83,18,66.16,13.6,38.79,16.21,41.37,19.35,58,3.33,17.6,1.73,21.78,4.19,39.55,2.52,18.27,8.76,32.57,18.82,64.82,6.48,20.75,2.6,12.94,13.13,51,6.19,22.38,11.37,39,10,56.92-3.36,0-6.7.05-10,.1a24.1,24.1,0,0,1-18.26,8.4h0a24.18,24.18,0,0,1-16.85-7c-28.37,1.94-47.41,5.51-47.41,9.6,0,5.81,38.47,10.58,87.53,11.09l0,0,.8,0c2.58,0,5.17,0,7.8,0,53.08,0,96.11-5,96.11-11.13C437.48,593.61,420.89,590.24,395.61,588.24ZM264.92,270.11q-.36-11.36-1.18-23.42-.86-12.25-2.08-23.71l4.58,17.13c-.2,5.39-.26,11-.13,16.95a284,284,0,0,0,2.07,28.46Zm54.85,211.41q-1.26-8-2.94-16.54t-3.63-16.66l4.91,11.75c.33,3.86.78,7.89,1.4,12.07a192.39,192.39,0,0,0,4.05,20Q321.67,486.84,319.77,481.52Zm16,117.52c-.48,2-1,3.76-1.49,5.32-29.37-.25-52.34-2-67.1-4.06,15.11-2.14,38.83-3.9,69.21-4.08C336.14,597.16,336,598.09,335.72,599Z" transform="translate(-157.53 -30.1)"/><path class="cls-1" d="M305.47,529.72A8.85,8.85,0,1,0,302.81,542,8.85,8.85,0,0,0,305.47,529.72Zm-4,4.2a3.71,3.71,0,1,1,1.12-5.12A3.7,3.7,0,0,1,301.49,533.92Z" transform="translate(-157.53 -30.1)"/><path class="cls-1" d="M373.81,540.84a11.86,11.86,0,1,0,4.75,16.09A11.86,11.86,0,0,0,373.81,540.84Zm-2,7.5a5,5,0,1,1-2-6.75A5,5,0,0,1,371.85,548.34Z" transform="translate(-157.53 -30.1)"/><path class="cls-1" d="M315.26,562.9a15.14,15.14,0,1,0-7.07,20.2A15.13,15.13,0,0,0,315.26,562.9Zm-7.62,6.3a6.34,6.34,0,1,1,3-8.46A6.34,6.34,0,0,1,307.64,569.2Z" transform="translate(-157.53 -30.1)"/><path class="cls-1" d="M383,563.12a15.14,15.14,0,1,0,15.14,15.13A15.13,15.13,0,0,0,383,563.12Zm-4,16a6.35,6.35,0,1,1,6.34-6.34A6.34,6.34,0,0,1,379,579.07Z" transform="translate(-157.53 -30.1)"/><path class="cls-1" d="M269.53,856.61l-8,13.38a10.4,10.4,0,1,0,17.82,10.72L288.73,865A151.56,151.56,0,0,1,269.53,856.61Z" transform="translate(-157.53 -30.1)"/><path class="cls-1" d="M415,856.61a151.56,151.56,0,0,1-19.2,8.42l9.43,15.68A10.4,10.4,0,0,0,423.09,870Z" transform="translate(-157.53 -30.1)"/><path class="cls-1" d="M419.14,649.92A19.4,19.4,0,0,1,418,617.53c2.4-1.71,4.69-3.51,6.92-5.37-15.53,3-40.93,5.11-82.66,5.11-40.58,0-65.75-2-81.38-4.87,2,1.67,4.08,3.28,6.22,4.82a19.4,19.4,0,0,1-1.2,32.39c-34.93,21.33-57.81,56.88-57.81,97.15,0,65.26,60.07,118.17,134.17,118.17S476.46,812,476.46,746.76C476.46,706.68,453.79,671.28,419.14,649.92Zm-121,30.3c-4.17,14.72-18.43,24.19-23,39.34-2.82,9.35-3.34,19.08-3.69,28.78-.34,9.06,1.12,19.4-3,27.82-1.54,3.19-4,6.09-7.4,7.23a12.78,12.78,0,0,1-9.62-1c-13.28-6.53-19.22-24.08-19.87-37.83C231.07,732.79,233.8,721,238,710a125.84,125.84,0,0,1,21.39-36.63c6.15-7.28,11.68-13,21.68-13.19,8.43-.18,15.38,4.07,17.33,11A16.62,16.62,0,0,1,298.18,680.22Zm116.43,142c-5.91,3.8-15.58,6.59-20.51-.09-12.62-17.08,12.65-28.41,17.68-42.76,2.43-6.92,3.51-16.2,11.22-19.37,5.87-2.41,12.35.34,16,5.21C453.36,784.26,429.74,812.44,414.61,822.18Z" transform="translate(-157.53 -30.1)"/><path class="cls-2" d="M619.46,862.73,404,858.22C209,861.89,158,871.64,157.53,881.38c-.56,10.81,60.79,27.73,76.82,32.15A397.69,397.69,0,0,0,284.54,924c21.77,2,51.19,4.39,86,6.1C638.37,943.2,885,900.54,884,882,883.5,873.5,831.35,864.94,619.46,862.73ZM411,910.22c-10.69.57-48.12,2.42-106.58.91-31.74-.82-48-1.29-67.12-4.1-27.89-4.09-51.5-11.13-49.21-12.73,2.78-1.94,41.19,5.61,90.59,9.2,57.6,4.19,108.59,1.44,145-2,19.42.61,41.49,1.62,41.69,3.29C465.67,907.29,417.56,909.87,411,910.22Z" transform="translate(-157.53 -30.1)"/></svg>